<svg xmlns="http://www.w3.org/2000/svg" width="1209" height="1442"><defs><linearGradient id="a" x1="478.826" x2="478.826" y1="336.35" y2="1197.62" gradientUnits="userSpaceOnUse" spreadMethod="pad"><stop offset=".02" stop-color="#bfd1ff"/><stop offset="1" stop-color="#fff"/></linearGradient><linearGradient id="b" x1="581.826" x2="581.826" y1="405.35" y2="1266.62" gradientUnits="userSpaceOnUse" spreadMethod="pad"><stop offset=".02" stop-color="#bfd1ff"/><stop offset="1" stop-color="#fff"/></linearGradient><linearGradient id="c" x1="669.854" x2="669.854" y1="500.505" y2="1221.33" gradientUnits="userSpaceOnUse" spreadMethod="pad"><stop offset=".02" stop-color="#2575f2"/><stop offset="1" stop-color="#6a11c1"/></linearGradient><linearGradient id="d" x1="783.765" x2="288.577" y1="895.137" y2="1316.43" gradientUnits="userSpaceOnUse" spreadMethod="pad"><stop offset="0" stop-color="#12c2e9"/><stop offset=".212" stop-color="#2c9ae6"/><stop offset=".587" stop-color="#5857e1"/><stop offset=".86" stop-color="#732edd"/><stop offset="1" stop-color="#7d1edc"/></linearGradient><linearGradient id="e" x1="761.567" x2="266.379" y1="869.047" y2="1290.34" gradientUnits="userSpaceOnUse" spreadMethod="pad"><stop offset="0" stop-color="#12c2e9"/><stop offset=".212" stop-color="#2c9ae6"/><stop offset=".587" stop-color="#5857e1"/><stop offset=".86" stop-color="#732edd"/><stop offset="1" stop-color="#7d1edc"/></linearGradient></defs><path fill="url(#a)" fill-opacity=".6" d="M909.71 3.16c12.69-7.33 22.96-1.48 22.96 13.12v656.57c0 5.6-3.94 12.42-8.85 15.3l-890 513.79c-4.87 2.82-8.82.54-8.82-5.06V540.31c0-14.59 10.28-32.33 23.01-39.67L909.71 3.16Z"/><path fill="url(#b)" fill-opacity=".8" d="M1012.71 72.16c12.69-7.33 22.96-1.48 22.96 13.12v656.57c0 5.6-3.94 12.42-8.85 15.3l-890 513.79c-4.87 2.82-8.82.54-8.82-5.06V609.31c0-14.59 10.28-32.33 23.01-39.67l861.7-497.48Z"/><path fill="url(#c)" d="m560.22 485.09 527.49-304.58c12.69-7.33 49.01 2.34 49.01 16.94l2 658.75c0 5.59-3.94 12.41-8.85 15.3L235.9 1390.91c-4.89 2.82-32.9-11.01-32.9-16.6V717.69c0-14.59 10.28-32.33 22.95-39.67l334.27-192.93Z"/><path fill="#fff" fill-opacity=".4" d="M232.11 1005.46V727.35c0-14.6 10.28-32.34 22.95-39.69l861.71-497.5c12.69-7.32 22.95-1.49 22.95 13.11v656.58c0 5.59-3.93 12.42-8.84 15.3l-890.06 513.88c-4.88 2.81-8.82.53-8.82-5.06V1088.3"/><path fill="#fff" d="m762.37 1041.85 295.17-167.27c11.24-6.5 20.37-23.92 20.37-38.92V360.85c0-15.01-9.13-21.9-20.37-15.41L762.37 512.73c-11.24 6.5-20.37 23.93-20.37 38.93v474.81c0 14.98 9.13 21.88 20.37 15.38Z"/><path fill="#fff" fill-opacity=".3" d="M598.81 883.39c5.63-3.23 10.19-.64 10.19 5.77v201.59c0 6.41-4.56 14.22-10.19 17.45l-266.62 152.41c-5.63 3.23-10.19.64-10.19-5.77v-201.59c0-6.41 4.56-14.22 10.19-17.45l266.62-152.41Z"/><path fill="#fff" fill-opacity=".8" d="M658.81 890.39c5.63-3.23 10.19-.64 10.19 5.79v202.11c0 6.43-4.56 14.27-10.19 17.5l-281.62 162.82c-5.63 3.23-10.19.64-10.19-5.79V1070.7c0-6.43 4.56-14.26 10.19-17.49l281.62-162.82Z"/><path fill="#fff" d="M280.84 713.95c0 6.09-4.3 13.51-9.6 16.58-5.3 3.07-9.61.61-9.61-5.46 0-6.08 4.3-13.51 9.61-16.57 5.31-3.06 9.6-.64 9.6 5.45Zm25.01-14.44c0 6.09-4.31 13.51-9.61 16.58-5.3 3.07-9.62.61-9.62-5.46 0-6.08 4.31-13.52 9.62-16.58 5.32-3.06 9.61-.63 9.61 5.46Zm25.01-14.43c0 6.09-4.31 13.52-9.61 16.57-5.3 3.07-9.62.62-9.62-5.46s4.31-13.52 9.62-16.58c5.31-3.06 9.61-.62 9.61 5.47Z"/><path fill="#fff" fill-opacity=".3" d="m443.1 677.81.44 118.31-91.15-3.09c-7.74 21.01-11.95 42.46-11.95 62.59.22 65.24 46.46 91.77 103.32 58.82 56.86-32.73 102.87-112.34 102.65-177.81-.22-65.24-46.46-91.55-103.31-58.82Z"/><path fill="#fff" fill-opacity=".3" d="M430.71 661c-39.38 22.78-73.45 67.89-90.71 115l91.15 3.1-.44-118.1Z"/><path fill="#fff" d="m477.78 724.48.44 118.31-91.15-3.09c-7.74 21.01-11.95 42.46-11.95 62.58.22 65.24 46.46 91.78 103.32 58.83 56.86-32.73 102.87-112.35 102.65-177.81-.22-65.24-46.46-91.55-103.31-58.82Z"/><path fill="#fff" d="M465.39 707.67c-39.38 22.78-73.45 67.89-90.71 115l91.15 3.09-.44-118.09Z"/><path fill="#0fd3ff" d="M967.42 818.73c-3.72 2.23-6.94 7.44-6.94 11.9 0 4.47 3.22 6.2 6.94 3.97l70.19-40.41c3.72-2.23 6.95-7.44 6.95-11.91 0-4.46-2.98-6.19-6.95-3.96l-70.19 40.41Z"/><path fill="#3c84e5" d="M990.49 766.91c-3.72 2.24-6.95 7.44-6.95 11.91 0 4.46 3.23 6.19 6.95 3.96l47.37-27.27c3.72-2.23 6.94-7.44 6.94-11.9s-3.22-6.2-6.94-3.97l-47.37 27.27Z"/><path fill="#f68ac6" d="M893.51 861.38c-3.72 2.23-6.94 7.43-6.94 11.9 0 4.46 3.22 6.2 6.94 3.96l39.69-23.05c3.71-2.24 6.94-7.44 6.94-11.91 0-4.46-3.23-6.19-6.94-3.96l-39.69 23.06Z"/><path fill="#0fd3ff" d="M821.58 938.48c-3.72 2.23-6.94 7.44-6.94 11.9 0 4.47 3.22 6.2 6.94 3.97l62.51-36.2c3.72-2.23 6.94-7.44 6.94-11.9s-3.22-6.2-6.94-3.97l-62.51 36.2Z"/><path fill="#5c52e1" d="M821.34 903.03c-3.72 2.23-6.95 7.44-6.95 11.9s3.23 6.2 6.95 3.97l39.68-23.06c3.72-2.23 6.94-7.44 6.94-11.9s-2.97-6.2-6.94-3.97l-39.68 23.06Zm94.99-19.34c-3.72 2.23-6.95 7.44-6.95 11.9s2.98 6.2 6.95 3.97l62.5-36.2c3.72-2.23 6.94-7.44 6.94-11.9s-3.22-6.2-6.94-3.97l-62.5 36.2Z"/><path fill="#f68ac6" d="M821.34 864.6c-3.72 2.23-6.95 7.44-6.95 11.9s3.23 6.2 6.95 3.97l134.92-77.85c3.72-2.24 6.95-7.44 6.95-11.9 0-4.47-3.23-6.2-6.95-3.97L821.34 864.6Zm191.97-36.7c-3.72 2.24-6.95 7.44-6.95 11.9 0 4.47 3.23 6.2 6.95 3.97l24.55-14.13c3.72-2.23 6.94-7.44 6.94-11.9s-2.97-6.2-6.94-3.97l-24.55 14.13Z"/><path fill="#4e3bd6" d="M476.21 1073.95c-3.96 2.23-6.94 7.68-6.94 12.14 0 4.47 3.22 6.2 6.94 3.97l63.99-36.94c3.97-2.23 6.95-7.69 6.95-12.15s-3.23-6.2-7.19-3.97l-63.75 36.95Z"/><path fill="#f68ac6" d="M522.84 1083.37c-3.97 2.23-6.94 7.68-6.94 12.15 0 4.46 3.22 6.19 6.94 3.96l40.68-23.55c3.97-2.23 6.94-7.69 6.94-12.15s-3.22-6.2-6.94-3.97l-40.68 23.56Z"/><path fill="#0fd4ff" d="M572.94 1017.91c-3.97 2.23-6.94 7.69-6.94 12.15s3.22 6.2 6.94 3.97l63.99-36.94c3.97-2.23 6.95-7.69 6.95-12.15s-3.23-6.2-6.95-3.97l-63.99 36.94Z"/><path fill="url(#d)" d="M596.26 1040.72c-3.97 2.23-6.95 7.69-6.95 12.15s3.23 6.2 6.95 3.97l40.67-23.55c3.97-2.24 6.95-7.69 6.95-12.15 0-4.47-3.23-6.2-6.95-3.97l-40.67 23.55Z"/><path fill="#f68ac6" d="M499.53 1136.18c-3.97 2.23-6.95 7.68-6.95 12.14 0 4.47 3.23 6.2 6.95 3.97l137.65-79.34c3.97-2.23 6.94-7.68 6.94-12.15 0-4.46-3.22-6.19-6.94-3.96l-137.65 79.34Z"/><path fill="url(#e)" d="M416.19 1144.85c-3.96 2.24-6.94 7.69-6.94 12.15 0 4.47 3.22 6.2 6.94 3.97l71.68-41.41c3.97-2.23 6.95-7.68 6.95-12.14 0-4.47-3.23-6.2-6.95-3.97l-71.68 41.4Z"/><path fill="#0fd3ff" d="M415.94 1184.27c-3.96 2.24-6.94 7.69-6.94 12.15 0 4.47 3.22 6.2 6.94 3.97l48.37-28.02c3.97-2.23 6.94-7.68 6.94-12.14 0-4.47-3.22-6.2-6.94-3.97l-48.37 28.01Z"/><path fill="#f68ac6" d="M415.94 1108.41c-3.96 2.23-6.94 7.68-6.94 12.15 0 4.46 3.22 6.19 6.94 3.96l25.06-14.38c3.96-2.23 6.94-7.68 6.94-12.15 0-4.46-3.23-6.19-6.94-3.96l-25.06 14.38Z"/><path fill="#f68bc6" d="M995.37 557.27a8.736 8.736 0 0 0-4.37 7.56c0 6.69 7.24 10.88 13.04 7.55l27.48-15.79a8.687 8.687 0 0 0 4.37-7.55c0-6.69-7.24-10.88-13.04-7.55l-27.48 15.78Z"/><path fill="#8b87ff" d="M997.51 591.96a9.991 9.991 0 0 0-5.02 8.7l.18 57.31c.02 7.67 8.32 12.46 14.98 8.64l24.92-14.32a9.991 9.991 0 0 0 5.02-8.7l-.17-57.31c-.03-7.67-8.33-12.46-14.98-8.64l-24.93 14.32Z"/><path fill="#f68bc6" d="M930.89 523.98a9.603 9.603 0 0 0-4.83 8.44c.09 7.35 8.05 11.89 14.42 8.21l25.63-14.8a9.57 9.57 0 0 0 4.78-8.29c0-7.36-7.96-11.97-14.34-8.3l-25.66 14.74Z"/><path fill="#8b87ff" d="M931.26 561.96a9.99 9.99 0 0 0-5 8.67l.21 125.49c.01 7.68 8.32 12.48 14.98 8.65l24.9-14.3a9.991 9.991 0 0 0 5.02-8.7l-.42-125.45c-.02-7.68-8.35-12.47-15-8.62l-24.69 14.26Z"/><path fill="#f68bc6" d="M865.06 587.88a9.97 9.97 0 0 0-5.02 8.74l.09 14.71c.06 7.65 8.34 12.42 14.99 8.6l24.96-14.34a9.99 9.99 0 0 0 5.02-8.74l-.1-14.7c-.05-7.66-8.33-12.42-14.98-8.61l-24.96 14.34Z"/><path fill="#8b87ff" d="M865.06 640.8a10.012 10.012 0 0 0-5.02 8.7l.2 84.98c.01 7.69 8.36 12.49 15.01 8.63l24.92-14.45c3.09-1.8 4.99-5.1 4.98-8.68l-.19-84.84c-.02-7.68-8.32-12.47-14.98-8.65l-24.92 14.31Z"/><path fill="#f68bc6" d="M796.96 542.14a10 10 0 0 0-4.96 8.64v27.06c0 7.69 8.31 12.5 14.98 8.67l24.86-14.28a9.99 9.99 0 0 0 5.02-8.72l-.13-27.2c-.04-7.7-8.39-12.47-15.04-8.59l-24.73 14.42Z"/><path fill="#8b87ff" d="M798.59 609.81a10.012 10.012 0 0 0-5.02 8.7l.44 154.24c.02 7.68 8.32 12.47 14.98 8.64l24.92-14.31c3.11-1.79 5.03-5.11 5.02-8.7l-.43-154.24c-.02-7.68-8.33-12.47-14.98-8.65l-24.93 14.32Z"/></svg>