<svg height="1024" node-id="1" sillyvg="true" template-height="1024" template-width="1024" version="1.1" viewBox="0 0 1024 1024" width="1024"
  xmlns="http://www.w3.org/2000/svg"
  xmlns:xlink="http://www.w3.org/1999/xlink">
  <defs node-id="714">
    <linearGradient gradientUnits="userSpaceOnUse" id="Gradient_1" node-id="3" spreadMethod="pad" x1="321.30002" x2="507.5" y1="1501.9375" y2="1020.8624">
      <stop offset="0.015686275" stop-color="#a0a6bf"></stop>
      <stop offset="0.38431373" stop-color="#a0a6bf"></stop>
      <stop offset="0.38431373" stop-color="#adb2c8"></stop>
      <stop offset="0.39607844" stop-color="#c6c9d9"></stop>
      <stop offset="0.40392157" stop-color="#d9dae6"></stop>
      <stop offset="0.4117647" stop-color="#e3e4ed"></stop>
      <stop offset="0.42352942" stop-color="#e7e7f0"></stop>
    </linearGradient>
    <linearGradient gradientUnits="userSpaceOnUse" id="Gradient_2" node-id="11" spreadMethod="pad" x1="273.525" x2="895.47504" y1="1515.15" y2="1515.15">
      <stop offset="0.015686275" stop-color="#a0a6bf"></stop>
      <stop offset="0.38431373" stop-color="#a0a6bf"></stop>
      <stop offset="0.38431373" stop-color="#a4aac1"></stop>
      <stop offset="0.4" stop-color="#b6bbce"></stop>
      <stop offset="0.41568628" stop-color="#c1c5d5"></stop>
      <stop offset="0.43137255" stop-color="#c4c8d7"></stop>
      <stop offset="0.9372549" stop-color="#c4c8d7"></stop>
      <stop offset="0.98039216" stop-color="#c4c8d7"></stop>
      <stop offset="1" stop-color="#c4c8d7"></stop>
    </linearGradient>
  </defs>
  <g node-id="2653">
    <g node-id="2826">
      <g node-id="2999">
        <path d="M 477.70 445.85 L 470.40 446.60 L 464.75 448.65 L 100.05 660.75 L 96.01 664.41 L 94.80 668.45 L 96.04 672.17 L 100.40 675.80 L 287.30 732.85 L 499.40 855.35 L 505.90 858.07 L 512.70 859.20 L 512.70 859.55 L 552.60 859.55 L 552.60 859.20 L 560.06 858.06 L 566.95 855.35 L 921.85 648.85 L 927.54 643.96 L 929.20 638.70 L 927.54 633.44 L 921.85 628.55 L 692.25 495.90 L 686.60 493.85 L 679.30 493.10 L 672.26 493.83 L 666.35 495.90 L 663.55 497.65 L 660.75 495.90 L 650.58 492.85 L 639.05 494.15 L 490.65 448.65 L 484.74 446.58 L 477.70 445.85 Z" fill="#f5f2e8" fill-rule="nonzero" group-id="1,174,347" node-id="759" stroke="none" target-height="413.69998" target-width="834.4" target-x="94.8" target-y="445.85"></path>
      </g>
    </g>
  </g>
  <g node-id="2654">
    <g node-id="2827">
      <g node-id="3000">
        <path d="M 579.90 164.45 L 573.95 166.20 L 217.30 372.00 L 212.00 376.57 L 208.20 383.90 L 206.62 391.97 L 207.50 400.00 L 284.85 692.60 L 287.07 698.08 L 290.37 701.04 L 295.00 702.05 L 295.35 702.05 L 300.95 702.40 L 300.60 701.00 L 663.20 491.35 L 667.31 488.05 L 670.20 482.60 L 671.60 476.32 L 670.90 470.35 L 593.55 177.40 L 590.67 171.20 L 585.50 166.55 L 585.85 164.80 L 579.90 164.45 Z" fill="url(#Gradient_1)" fill-rule="nonzero" group-id="2,175,348" node-id="770" stroke="none" target-height="537.95" target-width="464.97998" target-x="206.62" target-y="164.45"></path>
      </g>
    </g>
  </g>
  <g node-id="2655">
    <g node-id="2828">
      <g node-id="3001">
        <path d="M 591.45 166.20 L 585.49 164.97 L 579.20 166.90 L 222.55 372.70 L 217.43 377.17 L 213.45 384.25 L 211.87 392.58 L 212.75 400.35 L 290.10 693.30 L 292.63 698.48 L 296.40 701.70 L 300.91 702.58 L 305.50 701.00 L 669.15 491.00 L 673.05 487.74 L 676.15 482.25 L 677.29 475.98 L 676.50 470.00 L 599.15 177.05 L 596.03 170.11 L 591.45 166.20 Z" fill="#494855" fill-rule="nonzero" group-id="3,176,349" node-id="781" stroke="none" target-height="537.61" target-width="465.41998" target-x="211.87" target-y="164.97"></path>
      </g>
    </g>
  </g>
  <g node-id="2656">
    <g node-id="2829">
      <g node-id="3002">
        <path d="M 589.00 174.60 L 219.05 388.10 L 294.65 674.05 L 664.60 460.55 L 589.00 174.60 Z" fill="#7d7ced" fill-rule="nonzero" group-id="4,177,350" node-id="792" stroke="none" target-height="499.44998" target-width="445.55" target-x="219.05" target-y="174.6"></path>
      </g>
    </g>
  </g>
  <g node-id="2657">
    <g node-id="2830">
      <g node-id="3003">
        <path d="M 297.45 460.90 L 296.40 459.41 L 294.65 459.85 L 282.05 467.20 L 279.60 466.85 L 279.25 466.15 L 278.34 465.37 L 276.80 465.80 L 265.60 472.10 L 263.85 475.25 L 263.85 478.05 L 269.10 499.75 L 270.01 500.90 L 271.20 500.80 L 300.95 483.65 L 302.09 482.41 L 302.00 480.85 L 297.45 460.90 Z" fill="#fee471" fill-rule="nonzero" group-id="5,178,351" node-id="803" stroke="none" target-height="41.48999" target-width="38.23999" target-x="263.85" target-y="459.41"></path>
      </g>
    </g>
  </g>
  <g node-id="2658">
    <g node-id="2831">
      <g node-id="3004">
        <path d="M 297.80 462.65 L 295.70 461.60 L 265.95 478.75 L 264.90 481.55 L 269.10 499.75 L 270.01 500.90 L 271.20 500.80 L 300.95 483.65 L 302.09 482.41 L 302.00 480.85 L 297.80 462.65 Z" fill="#feeb91" fill-rule="nonzero" group-id="6,179,352" node-id="814" stroke="none" target-height="39.299988" target-width="37.190002" target-x="264.9" target-y="461.6"></path>
      </g>
    </g>
  </g>
  <g node-id="2659">
    <g node-id="2832">
      <g node-id="3005">
        <path d="M 282.05 409.80 L 281.00 408.31 L 279.25 408.75 L 266.65 416.10 L 264.20 415.75 L 263.85 415.05 L 261.40 414.70 L 250.20 421.00 L 248.45 424.15 L 248.45 426.95 L 253.70 448.65 L 254.61 449.80 L 255.80 449.70 L 285.55 432.55 L 286.60 429.75 L 282.05 409.80 Z" fill="#fee471" fill-rule="nonzero" group-id="7,180,353" node-id="825" stroke="none" target-height="41.48999" target-width="38.15001" target-x="248.45" target-y="408.31"></path>
      </g>
    </g>
  </g>
  <g node-id="2660">
    <g node-id="2833">
      <g node-id="3006">
        <path d="M 282.40 411.55 L 281.49 410.40 L 280.30 410.50 L 250.55 427.65 L 249.41 428.89 L 249.50 430.45 L 253.70 448.65 L 254.61 449.80 L 255.80 449.70 L 285.55 432.55 L 286.60 429.75 L 282.40 411.55 Z" fill="#feeb91" fill-rule="nonzero" group-id="8,181,354" node-id="836" stroke="none" target-height="39.399994" target-width="37.190002" target-x="249.41" target-y="410.4"></path>
      </g>
    </g>
  </g>
  <g node-id="2661">
    <g node-id="2834">
      <g node-id="3007">
        <path d="M 583.75 224.30 L 582.71 222.99 L 580.95 223.25 L 568.35 230.60 L 565.90 230.25 L 565.55 229.55 L 564.68 228.59 L 563.45 229.20 L 551.90 235.50 L 550.15 238.65 L 550.15 240.75 L 550.50 241.45 L 555.75 263.15 L 556.19 264.47 L 557.50 264.20 L 587.25 247.05 L 588.65 244.25 L 583.75 224.30 Z" fill="#fee471" fill-rule="nonzero" group-id="9,182,355" node-id="847" stroke="none" target-height="41.479996" target-width="38.5" target-x="550.15" target-y="222.99"></path>
      </g>
    </g>
  </g>
  <g node-id="2662">
    <g node-id="2835">
      <g node-id="3008">
        <path d="M 584.10 226.05 L 582.00 225.00 L 552.25 242.15 L 551.20 244.95 L 555.75 263.15 L 556.19 264.47 L 557.50 264.20 L 587.25 247.05 L 588.65 244.25 L 584.10 226.05 Z" fill="#feeb91" fill-rule="nonzero" group-id="10,183,356" node-id="858" stroke="none" target-height="39.47" target-width="37.450012" target-x="551.2" target-y="225"></path>
      </g>
    </g>
  </g>
  <g node-id="2663">
    <g node-id="2836">
      <g node-id="3009">
        <path d="M 664.60 460.55 L 661.10 448.30 L 291.50 661.80 L 294.65 674.05 L 664.60 460.55 Z" fill="#c4c8d7" fill-rule="nonzero" group-id="11,184,357" node-id="869" stroke="none" target-height="225.75" target-width="373.09998" target-x="291.5" target-y="448.3"></path>
      </g>
    </g>
  </g>
  <g node-id="2664">
    <g node-id="2837">
      <g node-id="3010">
        <path d="M 586.90 460.20 L 531.95 251.95 L 309.00 380.75 L 363.95 589.00 L 586.90 460.20 Z" fill="#eff0f5" fill-rule="nonzero" group-id="12,185,358" node-id="880" stroke="none" target-height="337.05" target-width="277.90002" target-x="309" target-y="251.95"></path>
      </g>
    </g>
  </g>
  <g node-id="2665">
    <g node-id="2838">
      <g node-id="3011">
        <path d="M 539.30 279.25 L 531.95 251.95 L 309.00 380.75 L 316.00 408.05 L 539.30 279.25 Z" fill="#c4c8d7" fill-rule="nonzero" group-id="13,186,359" node-id="891" stroke="none" target-height="156.09999" target-width="230.29999" target-x="309" target-y="251.95"></path>
      </g>
    </g>
  </g>
  <g node-id="2666">
    <g node-id="2839">
      <g node-id="3012">
        <path d="M 318.45 386.35 L 321.25 397.90 L 336.30 389.15 L 333.15 377.95 L 318.45 386.35 Z" fill="#fa7a80" fill-rule="nonzero" group-id="14,187,360" node-id="902" stroke="none" target-height="19.949982" target-width="17.849976" target-x="318.45" target-y="377.95"></path>
      </g>
    </g>
  </g>
  <g node-id="2667">
    <g node-id="2840">
      <g node-id="3013">
        <path d="M 509.55 206.80 L 354.85 296.05 L 354.85 651.30 L 509.55 562.05 L 509.55 206.80 Z" fill="#ffffff" fill-opacity="0.2" fill-rule="nonzero" group-id="15,188,361" node-id="913" stroke="none" target-height="444.5" target-width="154.69998" target-x="354.85" target-y="206.8"></path>
      </g>
    </g>
  </g>
  <g node-id="2668">
    <g node-id="2841">
      <g node-id="3014">
        <path d="M 681.05 491.35 L 673.77 492.18 L 668.10 494.50 L 327.55 692.25 L 304.45 695.05 L 304.45 709.75 L 305.27 713.73 L 309.70 717.45 L 535.10 847.65 L 542.95 850.75 L 552.60 851.85 L 562.25 850.75 L 570.10 847.65 L 919.05 644.65 L 924.33 640.39 L 926.40 635.20 L 926.40 620.85 L 915.20 622.25 L 693.65 494.50 L 688.02 492.17 L 681.05 491.35 Z" fill="url(#Gradient_2)" fill-rule="nonzero" group-id="16,189,362" node-id="924" stroke="none" target-height="360.49997" target-width="621.95" target-x="304.45" target-y="491.35"></path>
      </g>
    </g>
  </g>
  <g node-id="2669">
    <g node-id="2842">
      <g node-id="3015">
        <path d="M 681.05 477.70 L 673.77 478.53 L 668.10 480.85 L 309.70 689.10 L 305.63 692.71 L 304.45 696.45 L 305.66 700.42 L 309.70 703.80 L 535.10 834.00 L 542.95 837.10 L 552.60 838.20 L 562.25 837.10 L 570.10 834.00 L 919.05 631.35 L 924.74 626.46 L 926.40 621.20 L 924.74 615.94 L 919.05 611.05 L 693.65 480.85 L 688.02 478.52 L 681.05 477.70 Z" fill="#eff0f5" fill-rule="nonzero" group-id="17,190,363" node-id="935" stroke="none" target-height="360.5" target-width="621.95" target-x="304.45" target-y="477.7"></path>
      </g>
    </g>
  </g>
  <g node-id="2670">
    <g node-id="2843">
      <g node-id="3016">
        <path d="M 684.20 487.85 L 679.55 488.40 L 675.80 489.95 L 325.10 693.65 L 322.38 696.05 L 321.60 698.55 L 322.64 701.05 L 325.45 703.45 L 458.45 780.10 L 462.20 781.65 L 466.85 782.20 L 471.50 781.65 L 475.25 780.10 L 825.60 576.40 L 828.31 574.00 L 829.10 571.50 L 828.32 569.00 L 825.60 566.60 L 692.60 489.95 L 688.85 488.40 L 684.20 487.85 Z" fill="#e1e3eb" fill-rule="nonzero" group-id="18,191,364" node-id="946" stroke="none" target-height="294.35" target-width="507.49997" target-x="321.6" target-y="487.85"></path>
      </g>
    </g>
  </g>
  <g node-id="2671">
    <g node-id="2844">
      <g node-id="3017">
        <path d="M 811.60 681.40 L 810.99 679.51 L 808.80 677.55 L 742.65 639.40 L 735.65 637.13 L 728.65 639.40 L 583.40 723.75 L 581.24 725.76 L 580.60 727.95 L 581.25 730.07 L 583.40 731.80 L 649.55 769.95 L 656.55 771.87 L 663.55 769.95 L 808.80 685.60 L 810.96 683.59 L 811.60 681.40 Z" fill="#d9dbe6" fill-rule="nonzero" group-id="19,192,365" node-id="957" stroke="none" target-height="134.73999" target-width="231" target-x="580.6" target-y="637.13"></path>
      </g>
    </g>
  </g>
  <g node-id="2672">
    <g node-id="2845">
      <g node-id="3018">
        <path d="M 742.65 639.40 L 735.65 637.13 L 728.65 639.40 L 583.40 723.75 L 580.70 726.17 L 580.60 728.65 L 583.40 725.85 L 728.65 641.15 L 735.65 639.75 L 742.65 641.15 L 808.80 679.30 L 811.25 682.45 L 811.25 680.18 L 808.80 677.55 L 742.65 639.40 Z" fill="#c5c9d7" fill-rule="nonzero" group-id="20,193,366" node-id="968" stroke="none" target-height="91.52002" target-width="230.65002" target-x="580.6" target-y="637.13"></path>
      </g>
    </g>
  </g>
  <g node-id="2673">
    <g node-id="2846">
      <g node-id="3019">
        <path d="M 345.40 704.50 L 344.00 704.50 L 344.00 706.25 L 345.40 708.00 L 361.50 717.45 L 367.45 717.45 L 383.55 708.00 L 384.95 706.25 L 384.95 704.50 L 383.20 704.50 L 367.45 695.05 L 364.35 694.35 L 361.50 695.05 L 345.40 704.50 Z" fill="#393842" fill-rule="nonzero" group-id="21,194,367" node-id="979" stroke="none" target-height="23.100037" target-width="40.950012" target-x="344" target-y="694.35"></path>
      </g>
    </g>
  </g>
  <g node-id="2674">
    <g node-id="2847">
      <g node-id="3020">
        <path d="M 448.30 763.65 L 446.90 763.65 L 446.90 765.75 L 447.95 767.15 L 464.40 776.60 L 467.20 777.65 L 470.00 776.60 L 486.45 767.15 L 487.50 765.40 L 487.50 763.65 L 486.10 763.65 L 470.00 754.55 L 467.15 753.67 L 464.05 754.55 L 448.30 763.65 Z" fill="#393842" fill-rule="nonzero" group-id="22,195,368" node-id="990" stroke="none" target-height="23.980042" target-width="40.600006" target-x="446.9" target-y="753.67"></path>
      </g>
    </g>
  </g>
  <g node-id="2675">
    <g node-id="2848">
      <g node-id="3021">
        <path d="M 511.65 752.45 L 512.70 750.70 L 512.70 748.95 L 511.30 748.95 L 495.20 739.85 L 492.40 738.80 L 489.60 739.85 L 473.50 748.95 L 472.10 748.95 L 472.10 751.05 L 473.15 752.45 L 489.60 761.90 L 492.70 762.77 L 495.55 761.90 L 511.65 752.45 Z" fill="#393842" fill-rule="nonzero" group-id="23,196,369" node-id="1001" stroke="none" target-height="23.970032" target-width="40.600006" target-x="472.1" target-y="738.8"></path>
      </g>
    </g>
  </g>
  <g node-id="2676">
    <g node-id="2849">
      <g node-id="3022">
        <path d="M 536.85 737.75 L 538.25 736.00 L 538.25 734.25 L 536.50 734.25 L 520.75 725.15 L 517.90 724.28 L 514.80 725.15 L 498.70 734.25 L 497.30 734.25 L 497.30 736.35 L 498.70 737.75 L 514.80 747.20 L 517.90 748.25 L 520.75 747.20 L 536.85 737.75 Z" fill="#393842" fill-rule="nonzero" group-id="24,197,370" node-id="1012" stroke="none" target-height="23.96997" target-width="40.950012" target-x="497.3" target-y="724.28"></path>
      </g>
    </g>
  </g>
  <g node-id="2677">
    <g node-id="2850">
      <g node-id="3023">
        <path d="M 545.95 710.10 L 543.10 709.40 L 540.00 710.10 L 524.25 719.55 L 522.85 719.55 L 522.85 721.30 L 523.90 723.05 L 540.35 732.50 L 543.20 733.55 L 546.30 732.50 L 562.40 723.05 L 563.45 721.30 L 563.45 719.55 L 562.05 719.55 L 545.95 710.10 Z" fill="#393842" fill-rule="nonzero" group-id="25,198,371" node-id="1023" stroke="none" target-height="24.149963" target-width="40.600037" target-x="522.85" target-y="709.4"></path>
      </g>
    </g>
  </g>
  <g node-id="2678">
    <g node-id="2851">
      <g node-id="3024">
        <path d="M 369.55 691.55 L 370.60 693.30 L 387.05 702.75 L 389.85 703.45 L 392.65 702.75 L 409.10 693.30 L 410.15 691.55 L 410.15 689.45 L 408.75 689.80 L 392.65 680.35 L 386.70 680.35 L 370.95 689.80 L 369.55 689.80 L 369.55 691.55 Z" fill="#393842" fill-rule="nonzero" group-id="26,199,372" node-id="1034" stroke="none" target-height="23.100037" target-width="40.600006" target-x="369.55" target-y="680.35"></path>
      </g>
    </g>
  </g>
  <g node-id="2679">
    <g node-id="2852">
      <g node-id="3025">
        <path d="M 410.50 696.10 L 409.10 696.10 L 409.10 698.20 L 410.50 699.60 L 426.60 709.05 L 429.70 710.10 L 432.55 709.05 L 448.65 699.60 L 450.05 697.85 L 450.05 696.10 L 448.30 696.10 L 432.55 686.65 L 426.60 686.65 L 410.50 696.10 Z" fill="#393842" fill-rule="nonzero" group-id="27,200,373" node-id="1045" stroke="none" target-height="23.449951" target-width="40.94998" target-x="409.1" target-y="686.65"></path>
      </g>
    </g>
  </g>
  <g node-id="2680">
    <g node-id="2853">
      <g node-id="3026">
        <path d="M 474.20 684.90 L 475.25 683.15 L 475.25 681.40 L 473.85 681.40 L 457.75 671.95 L 454.90 671.25 L 451.80 671.95 L 436.05 681.40 L 434.65 681.40 L 434.65 683.15 L 435.70 684.90 L 452.15 694.35 L 455.00 695.40 L 458.10 694.35 L 474.20 684.90 Z" fill="#393842" fill-rule="nonzero" group-id="28,201,374" node-id="1056" stroke="none" target-height="24.150024" target-width="40.600006" target-x="434.65" target-y="671.25"></path>
      </g>
    </g>
  </g>
  <g node-id="2681">
    <g node-id="2854">
      <g node-id="3027">
        <path d="M 487.15 707.30 L 488.55 705.55 L 488.55 703.45 L 486.80 703.45 L 471.05 694.35 L 468.20 693.48 L 465.10 694.35 L 449.00 703.80 L 447.60 703.80 L 447.60 705.55 L 449.00 707.30 L 465.10 716.75 L 468.20 717.45 L 471.05 716.75 L 487.15 707.30 Z" fill="#393842" fill-rule="nonzero" group-id="29,202,375" node-id="1067" stroke="none" target-height="23.970032" target-width="40.94998" target-x="447.6" target-y="693.48"></path>
      </g>
    </g>
  </g>
  <g node-id="2682">
    <g node-id="2855">
      <g node-id="3028">
        <path d="M 496.95 709.40 L 493.85 708.35 L 491.00 709.40 L 474.90 718.50 L 473.50 718.50 L 473.50 720.60 L 474.90 722.00 L 491.00 731.45 L 494.10 732.32 L 496.95 731.45 L 513.05 722.00 L 514.45 720.25 L 514.45 718.50 L 512.70 718.50 L 496.95 709.40 Z" fill="#393842" fill-rule="nonzero" group-id="30,203,376" node-id="1078" stroke="none" target-height="23.970032" target-width="40.950012" target-x="473.5" target-y="708.35"></path>
      </g>
    </g>
  </g>
  <g node-id="2683">
    <g node-id="2856">
      <g node-id="3029">
        <path d="M 499.05 705.90 L 500.10 707.30 L 516.55 716.75 L 519.35 717.80 L 522.15 716.75 L 538.60 707.30 L 539.65 705.55 L 539.65 703.80 L 538.25 703.80 L 522.15 694.70 L 519.30 693.83 L 516.20 694.70 L 500.45 703.80 L 499.05 703.80 L 499.05 705.90 Z" fill="#393842" fill-rule="nonzero" group-id="31,204,377" node-id="1089" stroke="none" target-height="23.96997" target-width="40.600037" target-x="499.05" target-y="693.83"></path>
      </g>
    </g>
  </g>
  <g node-id="2684">
    <g node-id="2857">
      <g node-id="3030">
        <path d="M 524.25 691.20 L 525.30 692.60 L 541.75 702.05 L 544.85 702.92 L 547.70 702.05 L 563.80 692.60 L 564.85 690.85 L 564.85 689.10 L 563.45 689.10 L 547.35 680.00 L 544.55 678.95 L 541.75 680.00 L 525.65 689.10 L 524.25 689.10 L 524.25 691.20 Z" fill="#393842" fill-rule="nonzero" group-id="32,205,378" node-id="1100" stroke="none" target-height="23.96997" target-width="40.599976" target-x="524.25" target-y="678.95"></path>
      </g>
    </g>
  </g>
  <g node-id="2685">
    <g node-id="2858">
      <g node-id="3031">
        <path d="M 572.90 665.30 L 570.05 664.43 L 566.95 665.30 L 550.85 674.40 L 549.45 674.40 L 549.45 676.50 L 550.85 677.90 L 566.95 687.35 L 570.05 688.40 L 572.90 687.35 L 589.00 677.90 L 590.40 676.15 L 590.40 674.40 L 588.65 674.40 L 572.90 665.30 Z" fill="#393842" fill-rule="nonzero" group-id="33,206,379" node-id="1111" stroke="none" target-height="23.970032" target-width="40.950012" target-x="549.45" target-y="664.43"></path>
      </g>
    </g>
  </g>
  <g node-id="2686">
    <g node-id="2859">
      <g node-id="3032">
        <path d="M 614.55 663.20 L 615.60 661.45 L 615.60 659.70 L 614.20 659.70 L 598.10 650.25 L 595.25 649.55 L 592.15 650.25 L 576.40 659.70 L 575.00 659.70 L 575.00 661.45 L 576.05 663.20 L 592.50 672.65 L 595.35 673.70 L 598.45 672.65 L 614.55 663.20 Z" fill="#393842" fill-rule="nonzero" group-id="34,207,380" node-id="1122" stroke="none" target-height="24.150024" target-width="40.599976" target-x="575" target-y="649.55"></path>
      </g>
    </g>
  </g>
  <g node-id="2687">
    <g node-id="2860">
      <g node-id="3033">
        <path d="M 639.75 648.50 L 641.15 646.75 L 641.15 645.00 L 639.40 645.00 L 623.65 635.55 L 620.55 634.85 L 617.70 635.55 L 601.60 645.00 L 600.20 645.00 L 600.20 646.75 L 601.60 648.50 L 617.70 657.95 L 623.65 657.95 L 639.75 648.50 Z" fill="#393842" fill-rule="nonzero" group-id="35,208,381" node-id="1133" stroke="none" target-height="23.100037" target-width="40.950012" target-x="600.2" target-y="634.85"></path>
      </g>
    </g>
  </g>
  <g node-id="2688">
    <g node-id="2861">
      <g node-id="3034">
        <path d="M 648.85 620.85 L 642.90 620.85 L 626.80 630.30 L 625.75 630.30 L 625.75 632.05 L 626.80 633.80 L 643.25 643.25 L 646.05 643.95 L 648.85 643.25 L 665.30 633.80 L 666.35 632.05 L 666.35 630.30 L 664.95 630.30 L 648.85 620.85 Z" fill="#393842" fill-rule="nonzero" group-id="36,209,382" node-id="1144" stroke="none" target-height="23.100037" target-width="40.599976" target-x="625.75" target-y="620.85"></path>
      </g>
    </g>
  </g>
  <g node-id="2689">
    <g node-id="2862">
      <g node-id="3035">
        <path d="M 690.50 619.10 L 691.55 617.35 L 691.55 615.60 L 690.15 615.60 L 674.05 606.15 L 671.25 605.45 L 668.45 606.15 L 652.35 615.60 L 650.95 615.60 L 650.95 617.35 L 652.00 619.10 L 668.45 628.55 L 674.40 628.55 L 690.50 619.10 Z" fill="#393842" fill-rule="nonzero" group-id="37,210,383" node-id="1155" stroke="none" target-height="23.099976" target-width="40.599976" target-x="650.95" target-y="605.45"></path>
      </g>
    </g>
  </g>
  <g node-id="2690">
    <g node-id="2863">
      <g node-id="3036">
        <path d="M 693.65 613.85 L 696.75 614.55 L 699.60 613.85 L 715.70 604.40 L 717.10 602.65 L 717.10 600.55 L 715.35 600.55 L 699.60 591.45 L 696.75 590.58 L 693.65 591.45 L 677.55 600.90 L 676.15 600.90 L 676.15 602.65 L 677.55 604.40 L 693.65 613.85 Z" fill="#393842" fill-rule="nonzero" group-id="38,211,384" node-id="1166" stroke="none" target-height="23.96997" target-width="40.94995" target-x="676.15" target-y="590.58"></path>
      </g>
    </g>
  </g>
  <g node-id="2691">
    <g node-id="2864">
      <g node-id="3037">
        <path d="M 743.00 618.05 L 744.05 616.30 L 744.05 614.55 L 742.65 614.55 L 726.55 605.45 L 723.75 604.75 L 720.60 605.45 L 704.85 614.55 L 703.45 614.55 L 703.45 616.65 L 704.50 618.05 L 720.95 627.50 L 723.80 628.55 L 726.90 627.50 L 743.00 618.05 Z" fill="#393842" fill-rule="nonzero" group-id="39,212,385" node-id="1177" stroke="none" target-height="23.799988" target-width="40.599976" target-x="703.45" target-y="604.75"></path>
      </g>
    </g>
  </g>
  <g node-id="2692">
    <g node-id="2865">
      <g node-id="3038">
        <path d="M 768.20 603.35 L 769.60 601.60 L 769.60 599.85 L 767.85 599.85 L 752.10 590.40 L 749.00 589.70 L 746.15 590.40 L 730.05 599.85 L 728.65 599.85 L 728.65 601.60 L 730.05 603.35 L 746.15 612.80 L 749.25 613.67 L 752.10 612.80 L 768.20 603.35 Z" fill="#393842" fill-rule="nonzero" group-id="40,213,386" node-id="1188" stroke="none" target-height="23.96997" target-width="40.94995" target-x="728.65" target-y="589.7"></path>
      </g>
    </g>
  </g>
  <g node-id="2693">
    <g node-id="2866">
      <g node-id="3039">
        <path d="M 819.65 573.60 L 820.70 571.85 L 820.70 570.10 L 819.30 570.10 L 803.20 560.65 L 800.35 559.95 L 797.25 560.65 L 781.50 570.10 L 780.10 570.10 L 780.10 571.85 L 781.15 573.60 L 797.60 583.05 L 800.45 583.75 L 803.55 583.05 L 819.65 573.60 Z" fill="#393842" fill-rule="nonzero" group-id="41,214,387" node-id="1199" stroke="none" target-height="23.799988" target-width="40.600037" target-x="780.1" target-y="559.95"></path>
      </g>
    </g>
  </g>
  <g node-id="2694">
    <g node-id="2867">
      <g node-id="3040">
        <path d="M 795.15 555.05 L 793.75 555.40 L 777.65 545.95 L 774.85 545.25 L 772.05 545.95 L 755.95 555.40 L 754.55 555.40 L 754.55 556.10 L 753.50 556.80 L 752.10 556.80 L 752.10 558.55 L 752.45 558.55 L 753.50 560.30 L 769.60 569.40 L 772.70 570.45 L 775.55 569.40 L 794.10 558.90 L 795.15 557.15 L 795.15 555.05 Z" fill="#393842" fill-rule="nonzero" group-id="42,215,388" node-id="1210" stroke="none" target-height="25.200012" target-width="43.05005" target-x="752.1" target-y="545.25"></path>
      </g>
    </g>
  </g>
  <g node-id="2695">
    <g node-id="2868">
      <g node-id="3041">
        <path d="M 741.25 589.70 L 742.30 587.95 L 742.30 585.85 L 740.90 585.85 L 724.80 576.75 L 721.95 575.88 L 718.85 576.75 L 703.10 586.20 L 701.70 586.20 L 701.70 587.95 L 702.75 589.70 L 719.20 599.15 L 722.05 599.85 L 725.15 599.15 L 741.25 589.70 Z" fill="#393842" fill-rule="nonzero" group-id="43,216,389" node-id="1221" stroke="none" target-height="23.96997" target-width="40.599976" target-x="701.7" target-y="575.88"></path>
      </g>
    </g>
  </g>
  <g node-id="2696">
    <g node-id="2869">
      <g node-id="3042">
        <path d="M 766.45 575.00 L 767.85 573.25 L 767.85 571.15 L 766.10 571.15 L 750.35 562.05 L 747.25 561.00 L 744.40 562.05 L 728.30 571.50 L 726.90 571.50 L 726.90 573.25 L 728.30 575.00 L 744.40 584.10 L 747.50 584.97 L 750.35 584.10 L 766.45 575.00 Z" fill="#393842" fill-rule="nonzero" group-id="44,217,390" node-id="1232" stroke="none" target-height="23.96997" target-width="40.94995" target-x="726.9" target-y="561"></path>
      </g>
    </g>
  </g>
  <g node-id="2697">
    <g node-id="2870">
      <g node-id="3043">
        <path d="M 474.20 692.60 L 490.65 701.70 L 493.50 702.75 L 496.60 701.70 L 512.70 692.60 L 513.75 690.85 L 513.75 688.75 L 512.35 688.75 L 496.25 679.65 L 493.45 678.95 L 490.30 679.65 L 474.55 689.10 L 473.15 689.10 L 473.15 690.85 L 474.20 692.60 Z" fill="#393842" fill-rule="nonzero" group-id="45,218,391" node-id="1243" stroke="none" target-height="23.799988" target-width="40.600006" target-x="473.15" target-y="678.95"></path>
      </g>
    </g>
  </g>
  <g node-id="2698">
    <g node-id="2871">
      <g node-id="3044">
        <path d="M 515.85 687.00 L 518.95 687.87 L 521.80 687.00 L 537.90 677.90 L 539.30 676.15 L 539.30 674.05 L 537.55 674.05 L 521.80 664.95 L 518.70 663.90 L 515.85 664.95 L 499.75 674.05 L 498.35 674.40 L 498.35 676.15 L 499.75 677.90 L 515.85 687.00 Z" fill="#393842" fill-rule="nonzero" group-id="46,219,392" node-id="1254" stroke="none" target-height="23.96997" target-width="40.94998" target-x="498.35" target-y="663.9"></path>
      </g>
    </g>
  </g>
  <g node-id="2699">
    <g node-id="2872">
      <g node-id="3045">
        <path d="M 523.90 661.45 L 524.95 662.85 L 541.05 672.30 L 544.15 673.35 L 547.00 672.30 L 563.45 662.85 L 564.50 661.45 L 564.50 659.35 L 563.10 659.35 L 547.00 650.25 L 544.15 649.38 L 541.05 650.25 L 524.95 659.35 L 523.55 659.35 L 523.55 661.45 L 523.90 661.45 Z" fill="#393842" fill-rule="nonzero" group-id="47,220,393" node-id="1265" stroke="none" target-height="23.96997" target-width="40.950012" target-x="523.55" target-y="649.38"></path>
      </g>
    </g>
  </g>
  <g node-id="2700">
    <g node-id="2873">
      <g node-id="3046">
        <path d="M 588.65 648.15 L 589.70 646.75 L 589.70 644.65 L 588.30 644.65 L 572.20 635.55 L 569.40 634.50 L 566.60 635.55 L 550.50 644.65 L 549.10 644.65 L 549.10 646.75 L 550.15 648.15 L 566.60 657.60 L 569.70 658.47 L 572.55 657.60 L 588.65 648.15 Z" fill="#393842" fill-rule="nonzero" group-id="48,221,394" node-id="1276" stroke="none" target-height="23.96997" target-width="40.600037" target-x="549.1" target-y="634.5"></path>
      </g>
    </g>
  </g>
  <g node-id="2701">
    <g node-id="2874">
      <g node-id="3047">
        <path d="M 613.85 633.45 L 615.25 631.70 L 615.25 629.95 L 613.50 629.95 L 597.75 620.85 L 594.90 619.98 L 591.80 620.85 L 575.70 629.95 L 574.30 629.95 L 574.30 632.05 L 575.70 633.45 L 591.80 642.90 L 594.90 643.95 L 597.75 642.90 L 613.85 633.45 Z" fill="#393842" fill-rule="nonzero" group-id="49,222,395" node-id="1287" stroke="none" target-height="23.970032" target-width="40.950012" target-x="574.3" target-y="619.98"></path>
      </g>
    </g>
  </g>
  <g node-id="2702">
    <g node-id="2875">
      <g node-id="3048">
        <path d="M 622.95 606.15 L 620.10 605.28 L 617.00 606.15 L 601.25 615.25 L 599.85 615.25 L 599.85 617.35 L 600.90 618.75 L 617.35 628.20 L 620.20 629.25 L 623.30 628.20 L 639.40 618.75 L 640.45 617.00 L 640.45 615.25 L 639.05 615.25 L 622.95 606.15 Z" fill="#393842" fill-rule="nonzero" group-id="50,223,396" node-id="1298" stroke="none" target-height="23.96997" target-width="40.600037" target-x="599.85" target-y="605.28"></path>
      </g>
    </g>
  </g>
  <g node-id="2703">
    <g node-id="2876">
      <g node-id="3049">
        <path d="M 626.45 600.55 L 625.05 600.55 L 625.05 602.65 L 626.45 604.05 L 642.55 613.50 L 645.65 614.37 L 648.50 613.50 L 664.60 604.05 L 666.00 602.30 L 666.00 600.55 L 664.25 600.55 L 648.50 591.45 L 645.40 590.40 L 642.55 591.45 L 626.45 600.55 Z" fill="#393842" fill-rule="nonzero" group-id="51,224,397" node-id="1309" stroke="none" target-height="23.96997" target-width="40.950012" target-x="625.05" target-y="590.4"></path>
      </g>
    </g>
  </g>
  <g node-id="2704">
    <g node-id="2877">
      <g node-id="3050">
        <path d="M 689.80 589.35 L 691.20 587.60 L 691.20 585.85 L 689.45 585.85 L 673.70 576.75 L 670.85 575.88 L 667.75 576.75 L 651.65 585.85 L 650.25 585.85 L 650.25 587.95 L 650.60 587.95 L 651.65 589.35 L 667.75 598.80 L 670.85 599.85 L 673.70 598.80 L 689.80 589.35 Z" fill="#393842" fill-rule="nonzero" group-id="52,225,398" node-id="1320" stroke="none" target-height="23.96997" target-width="40.950012" target-x="650.25" target-y="575.88"></path>
      </g>
    </g>
  </g>
  <g node-id="2705">
    <g node-id="2878">
      <g node-id="3051">
        <path d="M 715.35 574.65 L 716.40 572.90 L 716.40 571.15 L 715.00 571.15 L 698.90 561.70 L 696.10 561.00 L 693.30 561.70 L 677.20 571.15 L 675.80 571.15 L 675.80 573.25 L 676.85 574.65 L 693.30 584.10 L 696.40 584.97 L 699.25 584.10 L 715.35 574.65 Z" fill="#393842" fill-rule="nonzero" group-id="53,226,399" node-id="1331" stroke="none" target-height="23.96997" target-width="40.600037" target-x="675.8" target-y="561"></path>
      </g>
    </g>
  </g>
  <g node-id="2706">
    <g node-id="2879">
      <g node-id="3052">
        <path d="M 499.40 670.20 L 500.80 668.45 L 500.80 666.70 L 499.05 666.70 L 483.30 657.25 L 480.20 656.55 L 477.35 657.25 L 461.25 666.70 L 459.85 666.70 L 459.85 668.45 L 461.25 670.20 L 477.35 679.65 L 483.30 679.65 L 499.40 670.20 Z" fill="#393842" fill-rule="nonzero" group-id="54,227,400" node-id="1342" stroke="none" target-height="23.100037" target-width="40.94998" target-x="459.85" target-y="656.55"></path>
      </g>
    </g>
  </g>
  <g node-id="2707">
    <g node-id="2880">
      <g node-id="3053">
        <path d="M 524.95 655.50 L 526.00 653.75 L 526.00 652.00 L 524.60 652.00 L 508.50 642.55 L 502.55 642.55 L 486.45 652.00 L 485.05 652.00 L 485.05 653.75 L 485.40 653.75 L 486.45 655.50 L 502.55 664.95 L 505.65 665.65 L 508.50 664.95 L 524.95 655.50 Z" fill="#393842" fill-rule="nonzero" group-id="55,228,401" node-id="1353" stroke="none" target-height="23.100037" target-width="40.950012" target-x="485.05" target-y="642.55"></path>
      </g>
    </g>
  </g>
  <g node-id="2708">
    <g node-id="2881">
      <g node-id="3054">
        <path d="M 533.70 627.85 L 530.90 627.15 L 528.10 627.85 L 512.00 637.30 L 510.60 637.30 L 510.60 639.05 L 511.65 640.80 L 528.10 650.25 L 534.05 650.25 L 550.15 640.80 L 551.20 639.05 L 551.20 637.30 L 549.80 637.30 L 533.70 627.85 Z" fill="#393842" fill-rule="nonzero" group-id="56,229,402" node-id="1364" stroke="none" target-height="23.099976" target-width="40.600006" target-x="510.6" target-y="627.15"></path>
      </g>
    </g>
  </g>
  <g node-id="2709">
    <g node-id="2882">
      <g node-id="3055">
        <path d="M 559.25 613.15 L 556.40 612.28 L 553.30 613.15 L 537.20 622.60 L 535.80 622.60 L 535.80 624.35 L 537.20 626.10 L 553.30 635.55 L 556.40 636.25 L 559.25 635.55 L 575.35 626.10 L 576.75 624.35 L 576.75 622.25 L 575.00 622.25 L 559.25 613.15 Z" fill="#393842" fill-rule="nonzero" group-id="57,230,403" node-id="1375" stroke="none" target-height="23.96997" target-width="40.950012" target-x="535.8" target-y="612.28"></path>
      </g>
    </g>
  </g>
  <g node-id="2710">
    <g node-id="2883">
      <g node-id="3056">
        <path d="M 600.90 611.40 L 601.95 609.65 L 601.95 607.55 L 600.55 607.55 L 584.45 598.45 L 581.60 597.58 L 578.50 598.45 L 562.75 607.90 L 561.35 607.90 L 561.35 609.65 L 562.40 611.40 L 578.85 620.85 L 581.70 621.55 L 584.80 620.85 L 600.90 611.40 Z" fill="#393842" fill-rule="nonzero" group-id="58,231,404" node-id="1386" stroke="none" target-height="23.96997" target-width="40.600037" target-x="561.35" target-y="597.58"></path>
      </g>
    </g>
  </g>
  <g node-id="2711">
    <g node-id="2884">
      <g node-id="3057">
        <path d="M 626.10 596.70 L 627.50 594.95 L 627.50 592.85 L 625.75 592.85 L 610.00 583.75 L 606.90 582.70 L 604.05 583.75 L 587.95 593.20 L 586.55 593.20 L 586.55 594.95 L 587.95 596.70 L 604.05 605.80 L 607.15 606.67 L 610.00 605.80 L 626.10 596.70 Z" fill="#393842" fill-rule="nonzero" group-id="59,232,405" node-id="1397" stroke="none" target-height="23.96997" target-width="40.950012" target-x="586.55" target-y="582.7"></path>
      </g>
    </g>
  </g>
  <g node-id="2712">
    <g node-id="2885">
      <g node-id="3058">
        <path d="M 651.30 582.00 L 652.70 580.25 L 652.70 578.15 L 650.95 578.15 L 635.20 569.05 L 632.35 568.18 L 629.25 569.05 L 613.15 578.50 L 611.75 578.50 L 611.75 580.25 L 613.15 582.00 L 629.25 591.10 L 632.35 592.15 L 635.20 591.10 L 651.30 582.00 Z" fill="#393842" fill-rule="nonzero" group-id="60,233,406" node-id="1408" stroke="none" target-height="23.970032" target-width="40.950012" target-x="611.75" target-y="568.18"></path>
      </g>
    </g>
  </g>
  <g node-id="2713">
    <g node-id="2886">
      <g node-id="3059">
        <path d="M 676.85 566.95 L 677.90 565.55 L 677.90 563.45 L 676.50 563.45 L 660.40 554.35 L 657.60 553.65 L 654.45 554.35 L 638.70 563.45 L 637.30 563.45 L 637.30 565.55 L 638.35 566.95 L 654.80 576.40 L 657.65 577.45 L 660.75 576.40 L 676.85 566.95 Z" fill="#393842" fill-rule="nonzero" group-id="61,234,407" node-id="1419" stroke="none" target-height="23.799988" target-width="40.600037" target-x="637.3" target-y="553.65"></path>
      </g>
    </g>
  </g>
  <g node-id="2714">
    <g node-id="2887">
      <g node-id="3060">
        <path d="M 685.95 539.65 L 683.10 538.78 L 680.00 539.65 L 663.90 548.75 L 662.50 548.75 L 662.50 550.85 L 663.90 552.25 L 680.00 561.70 L 683.10 562.57 L 685.95 561.70 L 702.05 552.25 L 703.45 550.85 L 703.45 548.75 L 701.70 548.75 L 685.95 539.65 Z" fill="#393842" fill-rule="nonzero" group-id="62,235,408" node-id="1430" stroke="none" target-height="23.789978" target-width="40.950012" target-x="662.5" target-y="538.78"></path>
      </g>
    </g>
  </g>
  <g node-id="2715">
    <g node-id="2888">
      <g node-id="3061">
        <path d="M 417.85 665.65 L 415.05 664.60 L 412.25 665.65 L 396.15 675.10 L 394.75 675.10 L 394.75 676.85 L 395.80 678.60 L 412.25 688.05 L 418.20 688.05 L 434.30 678.60 L 435.35 676.85 L 435.35 674.75 L 433.95 674.75 L 417.85 665.65 Z" fill="#393842" fill-rule="nonzero" group-id="63,236,409" node-id="1441" stroke="none" target-height="23.450012" target-width="40.600006" target-x="394.75" target-y="664.6"></path>
      </g>
    </g>
  </g>
  <g node-id="2716">
    <g node-id="2889">
      <g node-id="3062">
        <path d="M 459.50 663.90 L 460.90 662.15 L 460.90 660.05 L 459.15 660.05 L 443.40 650.95 L 440.55 650.08 L 437.45 650.95 L 421.35 660.40 L 419.95 660.40 L 419.95 662.15 L 421.35 663.90 L 437.45 673.00 L 440.57 673.97 L 443.40 673.35 L 459.50 663.90 Z" fill="#393842" fill-rule="nonzero" group-id="64,237,410" node-id="1452" stroke="none" target-height="23.889954" target-width="40.94998" target-x="419.95" target-y="650.08"></path>
      </g>
    </g>
  </g>
  <g node-id="2717">
    <g node-id="2890">
      <g node-id="3063">
        <path d="M 485.05 649.20 L 486.10 647.45 L 486.10 645.35 L 484.70 645.35 L 468.60 636.25 L 465.80 635.55 L 462.65 636.25 L 446.90 645.70 L 445.50 645.70 L 445.50 647.45 L 446.55 649.20 L 463.00 658.30 L 465.85 659.35 L 468.95 658.30 L 485.05 649.20 Z" fill="#393842" fill-rule="nonzero" group-id="65,238,411" node-id="1463" stroke="none" target-height="23.799988" target-width="40.600006" target-x="445.5" target-y="635.55"></path>
      </g>
    </g>
  </g>
  <g node-id="2718">
    <g node-id="2891">
      <g node-id="3064">
        <path d="M 494.15 621.55 L 491.05 620.50 L 488.20 621.55 L 472.10 630.65 L 470.70 630.65 L 470.70 632.75 L 472.10 634.50 L 488.20 643.60 L 491.30 644.47 L 494.15 643.60 L 510.25 634.50 L 511.65 632.75 L 511.65 630.65 L 509.90 630.65 L 494.15 621.55 Z" fill="#393842" fill-rule="nonzero" group-id="66,239,412" node-id="1474" stroke="none" target-height="23.96997" target-width="40.94998" target-x="470.7" target-y="620.5"></path>
      </g>
    </g>
  </g>
  <g node-id="2719">
    <g node-id="2892">
      <g node-id="3065">
        <path d="M 535.80 619.45 L 536.85 618.05 L 536.85 615.95 L 535.45 615.95 L 519.35 606.85 L 516.50 605.98 L 513.40 606.85 L 497.30 615.95 L 496.25 615.95 L 496.25 618.05 L 497.30 619.45 L 513.40 628.90 L 516.50 629.95 L 519.35 628.90 L 535.80 619.45 Z" fill="#393842" fill-rule="nonzero" group-id="67,240,413" node-id="1485" stroke="none" target-height="23.970032" target-width="40.599976" target-x="496.25" target-y="605.98"></path>
      </g>
    </g>
  </g>
  <g node-id="2720">
    <g node-id="2893">
      <g node-id="3066">
        <path d="M 561.00 604.75 L 562.05 603.00 L 562.05 601.25 L 560.65 601.25 L 544.55 592.15 L 541.75 591.10 L 538.95 592.15 L 522.85 601.25 L 521.45 601.25 L 521.45 603.35 L 522.50 604.75 L 538.95 614.20 L 542.05 615.07 L 544.90 614.20 L 561.00 604.75 Z" fill="#393842" fill-rule="nonzero" group-id="68,241,414" node-id="1496" stroke="none" target-height="23.970032" target-width="40.599976" target-x="521.45" target-y="591.1"></path>
      </g>
    </g>
  </g>
  <g node-id="2721">
    <g node-id="2894">
      <g node-id="3067">
        <path d="M 570.10 577.45 L 567.25 576.58 L 564.15 577.45 L 548.05 586.55 L 546.65 586.55 L 546.65 588.65 L 548.05 590.05 L 564.15 599.50 L 567.25 600.55 L 570.10 599.50 L 586.20 590.05 L 587.60 588.30 L 587.60 586.55 L 585.85 586.55 L 570.10 577.45 Z" fill="#393842" fill-rule="nonzero" group-id="69,242,415" node-id="1507" stroke="none" target-height="23.96997" target-width="40.94995" target-x="546.65" target-y="576.58"></path>
      </g>
    </g>
  </g>
  <g node-id="2722">
    <g node-id="2895">
      <g node-id="3068">
        <path d="M 611.75 575.35 L 612.80 573.60 L 612.80 571.85 L 611.40 571.85 L 595.30 562.75 L 592.45 561.88 L 589.35 562.75 L 573.60 571.85 L 572.20 571.85 L 572.20 573.95 L 573.25 575.35 L 589.70 584.80 L 592.55 585.85 L 595.65 584.80 L 611.75 575.35 Z" fill="#393842" fill-rule="nonzero" group-id="70,243,416" node-id="1518" stroke="none" target-height="23.96997" target-width="40.599976" target-x="572.2" target-y="561.88"></path>
      </g>
    </g>
  </g>
  <g node-id="2723">
    <g node-id="2896">
      <g node-id="3069">
        <path d="M 638.35 558.90 L 638.35 557.15 L 636.60 557.15 L 620.85 548.05 L 617.75 547.00 L 614.90 548.05 L 598.80 557.15 L 597.40 557.15 L 597.40 559.25 L 598.80 560.65 L 614.90 570.10 L 618.00 570.97 L 620.85 570.10 L 636.95 560.65 L 638.35 558.90 Z" fill="#393842" fill-rule="nonzero" group-id="71,244,417" node-id="1529" stroke="none" target-height="23.96997" target-width="40.94995" target-x="597.4" target-y="547"></path>
      </g>
    </g>
  </g>
  <g node-id="2724">
    <g node-id="2897">
      <g node-id="3070">
        <path d="M 646.05 533.35 L 643.20 532.48 L 640.10 533.35 L 624.00 542.45 L 622.60 542.45 L 622.60 544.55 L 622.95 544.55 L 624.00 545.95 L 640.10 555.40 L 643.20 556.45 L 646.05 555.40 L 662.15 545.95 L 663.55 544.20 L 663.55 542.45 L 661.80 542.45 L 646.05 533.35 Z" fill="#393842" fill-rule="nonzero" group-id="72,245,418" node-id="1540" stroke="none" target-height="23.970032" target-width="40.950012" target-x="622.6" target-y="532.48"></path>
      </g>
    </g>
  </g>
  <g node-id="2725">
    <g node-id="2898">
      <g node-id="3071">
        <path d="M 649.20 531.25 L 665.65 540.70 L 668.75 541.57 L 671.60 540.70 L 687.70 531.25 L 688.75 529.50 L 688.75 527.75 L 687.35 527.75 L 671.25 518.30 L 668.45 517.60 L 665.65 518.30 L 649.55 527.75 L 648.15 527.75 L 648.15 529.85 L 649.20 531.25 Z" fill="#393842" fill-rule="nonzero" group-id="73,246,419" node-id="1551" stroke="none" target-height="23.970032" target-width="40.599976" target-x="648.15" target-y="517.6"></path>
      </g>
    </g>
  </g>
  <g node-id="2726">
    <g node-id="2899">
      <g node-id="3072">
        <path d="M 700.65 501.50 L 697.80 500.63 L 694.70 501.50 L 675.10 513.05 L 673.35 513.05 L 673.35 515.15 L 674.75 516.55 L 690.85 526.00 L 693.95 526.87 L 696.80 526.00 L 716.75 514.45 L 718.15 512.35 L 718.15 510.60 L 716.40 510.60 L 700.65 501.50 Z" fill="#393842" fill-rule="nonzero" group-id="74,247,420" node-id="1562" stroke="none" target-height="26.23999" target-width="44.80005" target-x="673.35" target-y="500.63"></path>
      </g>
    </g>
  </g>
  <g node-id="2727">
    <g node-id="2900">
      <g node-id="3073">
        <path d="M 717.45 632.75 L 718.85 631.00 L 718.85 629.25 L 717.45 629.25 L 701.35 620.15 L 696.80 619.45 L 679.30 629.25 L 677.90 629.25 L 677.90 629.95 L 549.45 704.85 L 548.05 704.85 L 548.05 707.30 L 548.40 707.30 L 548.40 707.65 L 548.75 707.65 L 548.75 708.00 L 549.45 708.35 L 565.55 717.80 L 568.70 718.50 L 571.50 717.80 L 717.45 632.75 Z" fill="#393842" fill-rule="nonzero" group-id="75,248,421" node-id="1573" stroke="none" target-height="99.04999" target-width="170.79999" target-x="548.05" target-y="619.45"></path>
      </g>
    </g>
  </g>
  <g node-id="2728">
    <g node-id="2901">
      <g node-id="3074">
        <path d="M 365.35 685.60 L 368.45 686.47 L 371.30 685.60 L 387.40 676.15 L 388.45 674.40 L 388.45 672.65 L 387.40 673.00 L 387.40 672.65 L 382.85 670.20 L 380.00 669.50 L 376.90 670.20 L 362.20 678.95 L 359.75 679.65 L 359.75 681.40 L 360.80 683.15 L 365.35 685.60 Z" fill="#393842" fill-rule="nonzero" group-id="76,249,422" node-id="1584" stroke="none" target-height="16.96997" target-width="28.700012" target-x="359.75" target-y="669.5"></path>
      </g>
    </g>
  </g>
  <g node-id="2729">
    <g node-id="2902">
      <g node-id="3075">
        <path d="M 384.95 664.95 L 384.95 666.70 L 386.35 668.45 L 390.55 670.90 L 393.65 671.77 L 396.50 670.90 L 412.60 661.45 L 414.00 659.70 L 414.00 657.95 L 412.95 658.30 L 412.60 657.95 L 408.40 655.50 L 405.55 654.63 L 402.45 655.50 L 387.40 664.25 L 384.95 664.95 Z" fill="#393842" fill-rule="nonzero" group-id="77,250,423" node-id="1595" stroke="none" target-height="17.140015" target-width="29.049988" target-x="384.95" target-y="654.63"></path>
      </g>
    </g>
  </g>
  <g node-id="2730">
    <g node-id="2903">
      <g node-id="3076">
        <path d="M 438.15 646.75 L 439.20 645.00 L 439.20 643.25 L 438.15 643.60 L 438.15 643.25 L 433.60 640.80 L 430.75 639.93 L 427.65 640.80 L 412.95 649.55 L 410.50 650.25 L 410.50 652.00 L 411.55 653.75 L 416.10 656.20 L 418.95 657.25 L 422.05 656.20 L 438.15 646.75 Z" fill="#393842" fill-rule="nonzero" group-id="78,251,424" node-id="1606" stroke="none" target-height="17.320007" target-width="28.700012" target-x="410.5" target-y="639.93"></path>
      </g>
    </g>
  </g>
  <g node-id="2731">
    <g node-id="2904">
      <g node-id="3077">
        <path d="M 463.35 632.05 L 464.75 630.30 L 464.75 628.55 L 463.70 628.90 L 463.35 628.55 L 458.80 626.10 L 456.00 625.05 L 453.20 626.10 L 438.15 634.85 L 435.70 635.20 L 435.70 637.30 L 437.10 639.05 L 441.30 641.50 L 444.40 642.37 L 447.25 641.50 L 463.35 632.05 Z" fill="#393842" fill-rule="nonzero" group-id="79,252,425" node-id="1617" stroke="none" target-height="17.320007" target-width="29.049988" target-x="435.7" target-y="625.05"></path>
      </g>
    </g>
  </g>
  <g node-id="2732">
    <g node-id="2905">
      <g node-id="3078">
        <path d="M 466.50 626.80 L 469.60 627.50 L 472.45 626.80 L 488.55 617.35 L 489.95 615.60 L 489.95 613.85 L 488.90 614.20 L 488.55 613.85 L 484.35 611.40 L 481.50 610.53 L 478.40 611.40 L 463.35 620.15 L 460.90 620.50 L 460.90 622.60 L 462.30 624.35 L 466.50 626.80 Z" fill="#393842" fill-rule="nonzero" group-id="80,253,426" node-id="1628" stroke="none" target-height="16.96997" target-width="29.050018" target-x="460.9" target-y="610.53"></path>
      </g>
    </g>
  </g>
  <g node-id="2733">
    <g node-id="2906">
      <g node-id="3079">
        <path d="M 486.45 607.90 L 487.50 609.30 L 492.05 612.10 L 498.00 612.10 L 514.10 602.65 L 515.15 600.90 L 515.15 599.15 L 514.10 599.50 L 514.10 599.15 L 509.55 596.70 L 506.75 596.00 L 503.60 596.70 L 488.90 605.45 L 486.45 605.80 L 486.45 607.90 Z" fill="#393842" fill-rule="nonzero" group-id="81,254,427" node-id="1639" stroke="none" target-height="16.099976" target-width="28.700012" target-x="486.45" target-y="596"></path>
      </g>
    </g>
  </g>
  <g node-id="2734">
    <g node-id="2907">
      <g node-id="3080">
        <path d="M 539.30 587.95 L 540.70 586.20 L 540.70 584.45 L 539.30 584.45 L 535.10 582.00 L 532.00 580.95 L 529.15 582.00 L 514.10 590.75 L 511.65 591.10 L 511.65 593.20 L 513.05 594.60 L 517.25 597.40 L 523.20 597.40 L 539.30 587.95 Z" fill="#393842" fill-rule="nonzero" group-id="82,255,428" node-id="1650" stroke="none" target-height="16.450012" target-width="29.050018" target-x="511.65" target-y="580.95"></path>
      </g>
    </g>
  </g>
  <g node-id="2735">
    <g node-id="2908">
      <g node-id="3081">
        <path d="M 564.85 573.25 L 565.90 571.50 L 565.90 569.75 L 564.85 569.75 L 560.30 567.30 L 557.45 566.43 L 554.35 567.30 L 539.30 576.05 L 537.20 576.40 L 537.20 578.50 L 538.25 579.90 L 542.80 582.70 L 545.60 583.40 L 548.40 582.70 L 564.85 573.25 Z" fill="#393842" fill-rule="nonzero" group-id="83,256,429" node-id="1661" stroke="none" target-height="16.970032" target-width="28.700012" target-x="537.2" target-y="566.43"></path>
      </g>
    </g>
  </g>
  <g node-id="2736">
    <g node-id="2909">
      <g node-id="3082">
        <path d="M 590.05 558.55 L 591.10 556.80 L 591.10 555.05 L 590.05 555.05 L 585.50 552.60 L 582.70 551.55 L 579.90 552.60 L 564.85 561.35 L 562.40 561.70 L 562.40 563.80 L 563.45 565.20 L 568.00 568.00 L 573.95 568.00 L 590.05 558.55 Z" fill="#393842" fill-rule="nonzero" group-id="84,257,430" node-id="1672" stroke="none" target-height="16.450012" target-width="28.699951" target-x="562.4" target-y="551.55"></path>
      </g>
    </g>
  </g>
  <g node-id="2737">
    <g node-id="2910">
      <g node-id="3083">
        <path d="M 611.05 537.90 L 608.20 537.03 L 605.10 537.90 L 590.05 546.30 L 587.60 547.00 L 587.60 549.10 L 589.00 550.50 L 593.20 552.95 L 596.30 554.00 L 599.15 552.95 L 615.25 543.85 L 616.65 542.10 L 616.65 540.35 L 615.25 540.35 L 611.05 537.90 Z" fill="#393842" fill-rule="nonzero" group-id="85,258,431" node-id="1683" stroke="none" target-height="16.96997" target-width="29.050049" target-x="587.6" target-y="537.03"></path>
      </g>
    </g>
  </g>
  <g node-id="2738">
    <g node-id="2911">
      <g node-id="3084">
        <path d="M 618.75 538.25 L 621.60 539.30 L 624.70 538.25 L 640.80 529.15 L 641.85 527.40 L 641.85 525.30 L 640.80 525.65 L 636.25 523.20 L 633.45 522.50 L 630.30 523.20 L 615.60 531.60 L 613.15 532.30 L 613.15 534.40 L 614.20 535.80 L 618.75 538.25 Z" fill="#393842" fill-rule="nonzero" group-id="86,259,432" node-id="1694" stroke="none" target-height="16.799988" target-width="28.699951" target-x="613.15" target-y="522.5"></path>
      </g>
    </g>
  </g>
  <g node-id="2739">
    <g node-id="2912">
      <g node-id="3085">
        <path d="M 666.00 514.10 L 667.40 512.70 L 667.40 510.60 L 666.35 510.95 L 666.00 510.95 L 661.80 508.50 L 658.68 507.53 L 655.85 508.15 L 640.80 516.90 L 638.35 517.60 L 638.35 519.35 L 639.75 521.10 L 643.95 523.55 L 647.05 524.42 L 649.90 523.55 L 666.00 514.10 Z" fill="#393842" fill-rule="nonzero" group-id="87,260,433" node-id="1705" stroke="none" target-height="16.889984" target-width="29.050049" target-x="638.35" target-y="507.53"></path>
      </g>
    </g>
  </g>
  <g node-id="2740">
    <g node-id="2913">
      <g node-id="3086">
        <path d="M 663.90 504.65 L 664.95 506.40 L 669.50 508.85 L 672.30 509.90 L 675.10 508.85 L 691.55 499.40 L 692.60 498.00 L 692.60 495.90 L 691.55 496.25 L 687.00 493.45 L 681.05 493.45 L 666.00 502.20 L 663.90 502.90 L 663.90 504.65 Z" fill="#393842" fill-rule="nonzero" group-id="88,261,434" node-id="1716" stroke="none" target-height="16.449982" target-width="28.699951" target-x="663.9" target-y="493.45"></path>
      </g>
    </g>
  </g>
  <g node-id="2741">
    <g node-id="2914">
      <g node-id="3087">
        <path d="M 424.85 712.90 L 424.85 710.80 L 423.80 711.15 L 423.45 711.15 L 407.35 701.70 L 404.50 700.83 L 401.40 701.70 L 371.30 719.20 L 369.90 719.20 L 369.90 721.30 L 370.95 722.70 L 387.40 732.15 L 390.20 733.20 L 393.00 732.15 L 423.45 714.30 L 424.85 712.90 Z" fill="#393842" fill-rule="nonzero" group-id="89,262,435" node-id="1727" stroke="none" target-height="32.369995" target-width="54.950012" target-x="369.9" target-y="700.83"></path>
      </g>
    </g>
  </g>
  <g node-id="2742">
    <g node-id="2915">
      <g node-id="3088">
        <path d="M 445.50 709.05 L 442.70 708.00 L 439.90 709.05 L 397.55 733.55 L 395.45 734.25 L 395.45 736.00 L 396.50 737.75 L 412.95 746.85 L 416.05 747.72 L 418.90 746.85 L 461.95 722.00 L 463.00 720.25 L 463.00 718.15 L 461.95 718.50 L 445.50 709.05 Z" fill="#393842" fill-rule="nonzero" group-id="90,263,436" node-id="1738" stroke="none" target-height="39.71997" target-width="67.54999" target-x="395.45" target-y="708"></path>
      </g>
    </g>
  </g>
  <g node-id="2743">
    <g node-id="2916">
      <g node-id="3089">
        <path d="M 438.85 761.90 L 441.70 762.95 L 444.80 761.90 L 487.85 736.70 L 488.90 734.95 L 488.90 733.20 L 487.85 733.55 L 471.40 724.10 L 468.60 723.40 L 465.45 724.10 L 423.45 748.60 L 421.35 748.95 L 421.35 750.70 L 422.40 752.45 L 438.85 761.90 Z" fill="#393842" fill-rule="nonzero" group-id="91,264,437" node-id="1749" stroke="none" target-height="39.549988" target-width="67.54999" target-x="421.35" target-y="723.4"></path>
      </g>
    </g>
  </g>
  <g node-id="2744">
    <g node-id="2917">
      <g node-id="3090">
        <path d="M 726.20 516.20 L 723.35 515.50 L 720.25 516.20 L 689.80 534.05 L 688.05 534.40 L 688.05 536.15 L 689.45 537.90 L 705.55 547.00 L 708.65 547.87 L 711.50 547.00 L 742.65 529.15 L 743.70 527.40 L 743.70 525.65 L 742.65 525.65 L 726.20 516.20 Z" fill="#393842" fill-rule="nonzero" group-id="92,265,438" node-id="1760" stroke="none" target-height="32.369995" target-width="55.650024" target-x="688.05" target-y="515.5"></path>
      </g>
    </g>
  </g>
  <g node-id="2745">
    <g node-id="2918">
      <g node-id="3091">
        <path d="M 752.10 531.25 L 749.00 530.20 L 746.15 531.25 L 702.40 556.45 L 701.00 558.20 L 702.40 559.95 L 718.50 569.40 L 721.60 570.27 L 724.45 569.40 L 768.20 543.85 L 769.60 542.10 L 768.20 540.35 L 752.10 531.25 Z" fill="#393842" fill-rule="nonzero" group-id="93,266,439" node-id="1771" stroke="none" target-height="40.070007" target-width="68.599976" target-x="701" target-y="530.2"></path>
      </g>
    </g>
  </g>
  <g node-id="2746">
    <g node-id="2919">
      <g node-id="3092">
        <path d="M 781.85 581.65 L 782.90 580.25 L 782.90 578.15 L 781.85 578.50 L 777.30 575.70 L 771.35 575.70 L 756.65 584.45 L 754.20 585.15 L 754.20 586.90 L 755.25 588.65 L 759.80 591.10 L 762.65 592.15 L 765.75 591.10 L 781.85 581.65 Z" fill="#393842" fill-rule="nonzero" group-id="94,267,440" node-id="1782" stroke="none" target-height="16.450012" target-width="28.700012" target-x="754.2" target-y="575.7"></path>
      </g>
    </g>
  </g>
  <g node-id="2747">
    <g node-id="2920">
      <g node-id="3093">
        <path d="M 794.80 585.15 L 793.75 585.50 L 793.75 585.15 L 789.20 582.70 L 786.35 581.83 L 783.25 582.70 L 768.20 591.45 L 766.10 591.80 L 766.10 593.90 L 767.15 595.65 L 771.70 598.10 L 774.99 598.97 L 777.30 598.10 L 793.75 588.65 L 794.80 586.90 L 794.80 585.15 Z" fill="#393842" fill-rule="nonzero" group-id="95,268,441" node-id="1793" stroke="none" target-height="17.139954" target-width="28.700012" target-x="766.1" target-y="581.83"></path>
      </g>
    </g>
  </g>
  <g node-id="2748">
    <g node-id="2921">
      <g node-id="3094">
        <path d="M 496.95 709.40 L 493.85 708.35 L 491.00 709.40 L 474.90 718.85 L 473.50 720.60 L 474.90 722.00 L 491.00 731.45 L 494.10 732.32 L 496.95 731.45 L 513.05 722.00 L 514.45 720.60 L 513.05 718.85 L 496.95 709.40 Z" fill="#393842" fill-rule="nonzero" group-id="96,269,442" node-id="1804" stroke="none" target-height="23.970032" target-width="40.950012" target-x="473.5" target-y="708.35"></path>
      </g>
    </g>
  </g>
  <g node-id="2749">
    <g node-id="2922">
      <g node-id="3095">
        <path d="M 335.95 702.75 L 339.05 703.45 L 341.90 702.75 L 362.20 690.85 L 363.25 689.10 L 363.25 687.35 L 362.20 687.70 L 361.85 687.70 L 357.65 684.90 L 351.70 684.90 L 333.15 695.75 L 330.35 696.45 L 330.35 698.55 L 331.75 699.95 L 335.95 702.75 Z" fill="#393842" fill-rule="nonzero" group-id="97,270,443" node-id="1815" stroke="none" target-height="18.549988" target-width="32.899994" target-x="330.35" target-y="684.9"></path>
      </g>
    </g>
  </g>
  <g node-id="2750">
    <g node-id="2923">
      <g node-id="3096">
        <path d="M 383.55 706.25 L 384.95 704.50 L 383.55 702.75 L 367.45 693.30 L 364.35 692.25 L 361.50 693.30 L 345.40 702.75 L 344.00 704.50 L 345.40 706.25 L 361.50 715.70 L 367.45 715.70 L 383.55 706.25 Z" fill="#57565e" fill-rule="nonzero" group-id="98,271,444" node-id="1826" stroke="none" target-height="23.450012" target-width="40.950012" target-x="344" target-y="692.25"></path>
      </g>
    </g>
  </g>
  <g node-id="2751">
    <g node-id="2924">
      <g node-id="3097">
        <path d="M 409.10 691.55 L 410.32 689.80 L 409.10 688.05 L 392.65 678.60 L 389.80 677.73 L 386.70 678.60 L 370.60 688.05 L 369.20 689.80 L 370.60 691.55 L 387.05 700.65 L 389.85 701.70 L 392.65 700.65 L 409.10 691.55 Z" fill="#57565e" fill-rule="nonzero" group-id="99,272,445" node-id="1837" stroke="none" target-height="23.970032" target-width="41.119995" target-x="369.2" target-y="677.73"></path>
      </g>
    </g>
  </g>
  <g node-id="2752">
    <g node-id="2925">
      <g node-id="3098">
        <path d="M 434.30 676.85 L 435.70 675.10 L 434.30 673.35 L 417.85 663.90 L 415.05 662.85 L 412.25 663.90 L 395.80 673.35 L 394.57 675.10 L 395.80 676.85 L 412.25 685.95 L 415.35 686.82 L 418.20 685.95 L 434.30 676.85 Z" fill="#57565e" fill-rule="nonzero" group-id="100,273,446" node-id="1848" stroke="none" target-height="23.970032" target-width="41.130005" target-x="394.57" target-y="662.85"></path>
      </g>
    </g>
  </g>
  <g node-id="2753">
    <g node-id="2926">
      <g node-id="3099">
        <path d="M 460.90 660.40 L 459.50 658.65 L 443.40 649.20 L 440.55 648.33 L 437.45 649.20 L 421.35 658.65 L 419.95 660.40 L 421.35 662.15 L 437.45 671.25 L 440.55 672.30 L 443.40 671.25 L 459.50 662.15 L 460.90 660.40 Z" fill="#57565e" fill-rule="nonzero" group-id="101,274,447" node-id="1859" stroke="none" target-height="23.96997" target-width="40.94998" target-x="419.95" target-y="648.33"></path>
      </g>
    </g>
  </g>
  <g node-id="2754">
    <g node-id="2927">
      <g node-id="3100">
        <path d="M 486.10 645.70 L 485.05 643.95 L 468.60 634.50 L 465.80 633.80 L 462.65 634.50 L 446.55 643.95 L 445.50 645.70 L 446.55 647.10 L 463.00 656.55 L 465.85 657.60 L 468.95 656.55 L 485.05 647.10 L 486.10 645.70 Z" fill="#57565e" fill-rule="nonzero" group-id="102,275,448" node-id="1870" stroke="none" target-height="23.799988" target-width="40.600006" target-x="445.5" target-y="633.8"></path>
      </g>
    </g>
  </g>
  <g node-id="2755">
    <g node-id="2928">
      <g node-id="3101">
        <path d="M 494.15 619.80 L 491.05 618.75 L 488.20 619.80 L 472.10 629.25 L 470.70 631.00 L 472.10 632.40 L 488.20 641.85 L 491.30 642.72 L 494.15 641.85 L 510.25 632.40 L 511.65 631.00 L 510.25 629.25 L 494.15 619.80 Z" fill="#57565e" fill-rule="nonzero" group-id="103,276,449" node-id="1881" stroke="none" target-height="23.96997" target-width="40.94998" target-x="470.7" target-y="618.75"></path>
      </g>
    </g>
  </g>
  <g node-id="2756">
    <g node-id="2929">
      <g node-id="3102">
        <path d="M 536.85 616.30 L 535.45 614.55 L 519.35 605.10 L 516.50 604.23 L 513.40 605.10 L 497.30 614.55 L 495.90 616.30 L 497.30 617.70 L 513.40 627.15 L 516.50 628.20 L 519.35 627.15 L 535.80 617.70 L 536.85 616.30 Z" fill="#57565e" fill-rule="nonzero" group-id="104,277,450" node-id="1892" stroke="none" target-height="23.970032" target-width="40.94998" target-x="495.9" target-y="604.23"></path>
      </g>
    </g>
  </g>
  <g node-id="2757">
    <g node-id="2930">
      <g node-id="3103">
        <path d="M 562.40 601.25 L 561.00 599.50 L 544.55 590.40 L 541.75 589.35 L 538.95 590.40 L 522.50 599.50 L 521.10 601.46 L 522.50 603.00 L 538.95 612.45 L 542.05 613.32 L 544.90 612.45 L 561.00 603.00 L 562.40 601.25 Z" fill="#57565e" fill-rule="nonzero" group-id="105,278,451" node-id="1903" stroke="none" target-height="23.970032" target-width="41.30005" target-x="521.1" target-y="589.35"></path>
      </g>
    </g>
  </g>
  <g node-id="2758">
    <g node-id="2931">
      <g node-id="3104">
        <path d="M 586.20 588.30 L 587.60 586.55 L 586.20 584.80 L 570.10 575.70 L 567.25 574.83 L 564.15 575.70 L 548.05 584.80 L 546.65 586.55 L 548.05 588.30 L 564.15 597.75 L 567.25 598.62 L 570.10 597.75 L 586.20 588.30 Z" fill="#57565e" fill-rule="nonzero" group-id="106,279,452" node-id="1914" stroke="none" target-height="23.789978" target-width="40.94995" target-x="546.65" target-y="574.83"></path>
      </g>
    </g>
  </g>
  <g node-id="2759">
    <g node-id="2932">
      <g node-id="3105">
        <path d="M 611.75 573.60 L 612.98 571.85 L 611.75 570.10 L 595.30 561.00 L 592.45 560.12 L 589.35 561.00 L 573.25 570.10 L 572.03 571.63 L 573.25 573.60 L 589.70 583.05 L 592.55 584.10 L 595.65 583.05 L 611.75 573.60 Z" fill="#57565e" fill-rule="nonzero" group-id="107,280,453" node-id="1925" stroke="none" target-height="23.97998" target-width="40.94995" target-x="572.03" target-y="560.12"></path>
      </g>
    </g>
  </g>
  <g node-id="2760">
    <g node-id="2933">
      <g node-id="3106">
        <path d="M 636.95 558.90 L 638.35 557.15 L 636.95 555.40 L 620.85 545.95 L 617.75 545.25 L 614.90 545.95 L 598.80 555.40 L 597.40 557.15 L 598.80 558.90 L 614.90 568.35 L 618.00 569.22 L 620.85 568.35 L 636.95 558.90 Z" fill="#57565e" fill-rule="nonzero" group-id="108,281,454" node-id="1936" stroke="none" target-height="23.96997" target-width="40.94995" target-x="597.4" target-y="545.25"></path>
      </g>
    </g>
  </g>
  <g node-id="2761">
    <g node-id="2934">
      <g node-id="3107">
        <path d="M 474.20 683.15 L 475.43 681.40 L 474.20 679.65 L 457.75 670.20 L 454.90 669.50 L 451.80 670.20 L 435.70 679.65 L 434.48 681.40 L 435.70 683.15 L 452.15 692.60 L 455.00 693.30 L 458.10 692.60 L 474.20 683.15 Z" fill="#57565e" fill-rule="nonzero" group-id="109,282,455" node-id="1947" stroke="none" target-height="23.799988" target-width="40.94998" target-x="434.48" target-y="669.5"></path>
      </g>
    </g>
  </g>
  <g node-id="2762">
    <g node-id="2935">
      <g node-id="3108">
        <path d="M 499.40 668.45 L 500.80 666.70 L 499.40 664.95 L 483.30 655.50 L 480.20 654.80 L 477.35 655.50 L 461.25 664.95 L 459.85 666.70 L 461.25 668.45 L 477.35 677.90 L 483.30 677.90 L 499.40 668.45 Z" fill="#57565e" fill-rule="nonzero" group-id="110,283,456" node-id="1958" stroke="none" target-height="23.100037" target-width="40.94998" target-x="459.85" target-y="654.8"></path>
      </g>
    </g>
  </g>
  <g node-id="2763">
    <g node-id="2936">
      <g node-id="3109">
        <path d="M 524.95 653.75 L 526.09 652.03 L 524.60 650.25 L 508.50 640.80 L 505.65 639.93 L 502.55 640.80 L 486.45 650.25 L 485.05 652.00 L 486.45 653.75 L 502.55 663.20 L 505.65 663.90 L 508.50 663.20 L 524.95 653.75 Z" fill="#57565e" fill-rule="nonzero" group-id="111,284,457" node-id="1969" stroke="none" target-height="23.970032" target-width="41.04004" target-x="485.05" target-y="639.93"></path>
      </g>
    </g>
  </g>
  <g node-id="2764">
    <g node-id="2937">
      <g node-id="3110">
        <path d="M 550.15 639.05 L 551.55 637.30 L 550.15 635.55 L 533.70 626.10 L 530.90 625.05 L 528.10 626.10 L 511.65 635.55 L 510.42 637.30 L 511.65 639.05 L 528.10 648.15 L 530.97 649.11 L 534.05 648.50 L 550.15 639.05 Z" fill="#57565e" fill-rule="nonzero" group-id="112,285,458" node-id="1980" stroke="none" target-height="24.059998" target-width="41.129974" target-x="510.42" target-y="625.05"></path>
      </g>
    </g>
  </g>
  <g node-id="2765">
    <g node-id="2938">
      <g node-id="3111">
        <path d="M 575.35 624.35 L 576.75 622.60 L 575.35 620.85 L 559.25 611.40 L 556.40 610.53 L 553.30 611.40 L 537.20 620.85 L 535.80 622.60 L 537.20 624.35 L 553.30 633.45 L 556.40 634.32 L 559.25 633.45 L 575.35 624.35 Z" fill="#57565e" fill-rule="nonzero" group-id="113,286,459" node-id="1991" stroke="none" target-height="23.789978" target-width="40.950012" target-x="535.8" target-y="610.53"></path>
      </g>
    </g>
  </g>
  <g node-id="2766">
    <g node-id="2939">
      <g node-id="3112">
        <path d="M 600.90 609.65 L 602.30 607.69 L 600.90 606.15 L 584.45 596.70 L 581.60 595.83 L 578.50 596.70 L 562.40 606.15 L 561.00 607.90 L 562.40 609.65 L 578.85 618.75 L 581.70 619.80 L 584.80 618.75 L 600.90 609.65 Z" fill="#57565e" fill-rule="nonzero" group-id="114,287,460" node-id="2002" stroke="none" target-height="23.96997" target-width="41.299988" target-x="561" target-y="595.83"></path>
      </g>
    </g>
  </g>
  <g node-id="2767">
    <g node-id="2940">
      <g node-id="3113">
        <path d="M 627.50 593.20 L 626.10 591.45 L 610.00 582.00 L 606.90 580.95 L 604.05 582.00 L 587.95 591.45 L 586.55 593.20 L 587.95 594.60 L 604.05 604.05 L 607.15 604.92 L 610.00 604.05 L 626.10 594.60 L 627.50 593.20 Z" fill="#57565e" fill-rule="nonzero" group-id="115,288,461" node-id="2013" stroke="none" target-height="23.96997" target-width="40.950012" target-x="586.55" target-y="580.95"></path>
      </g>
    </g>
  </g>
  <g node-id="2768">
    <g node-id="2941">
      <g node-id="3114">
        <path d="M 652.70 578.50 L 651.30 576.75 L 635.20 567.30 L 632.35 566.43 L 629.25 567.30 L 613.15 576.75 L 611.75 578.50 L 613.15 579.90 L 629.25 589.35 L 632.35 590.40 L 635.20 589.35 L 651.30 579.90 L 652.70 578.50 Z" fill="#57565e" fill-rule="nonzero" group-id="116,289,462" node-id="2024" stroke="none" target-height="23.970032" target-width="40.950012" target-x="611.75" target-y="566.43"></path>
      </g>
    </g>
  </g>
  <g node-id="2769">
    <g node-id="2942">
      <g node-id="3115">
        <path d="M 677.90 563.80 L 676.85 562.05 L 660.40 552.60 L 657.60 551.90 L 654.45 552.60 L 638.35 562.05 L 637.30 563.80 L 638.35 565.20 L 654.80 574.65 L 657.65 575.70 L 660.75 574.65 L 676.85 565.20 L 677.90 563.80 Z" fill="#57565e" fill-rule="nonzero" group-id="117,290,463" node-id="2035" stroke="none" target-height="23.799988" target-width="40.600037" target-x="637.3" target-y="551.9"></path>
      </g>
    </g>
  </g>
  <g node-id="2770">
    <g node-id="2943">
      <g node-id="3116">
        <path d="M 685.95 537.90 L 682.85 536.85 L 680.00 537.90 L 663.90 547.35 L 662.50 549.10 L 663.90 550.50 L 680.00 559.95 L 683.10 560.82 L 685.95 559.95 L 702.05 550.50 L 703.45 549.10 L 702.05 547.35 L 685.95 537.90 Z" fill="#57565e" fill-rule="nonzero" group-id="118,291,464" node-id="2046" stroke="none" target-height="23.970032" target-width="40.950012" target-x="662.5" target-y="536.85"></path>
      </g>
    </g>
  </g>
  <g node-id="2771">
    <g node-id="2944">
      <g node-id="3117">
        <path d="M 640.10 531.25 L 624.00 540.70 L 622.60 542.45 L 624.00 544.20 L 640.10 553.65 L 643.20 554.70 L 646.05 553.65 L 662.15 544.20 L 663.55 542.45 L 662.15 540.70 L 646.05 531.25 L 640.10 531.25 Z" fill="#57565e" fill-rule="nonzero" group-id="119,292,465" node-id="2057" stroke="none" target-height="23.450012" target-width="40.950012" target-x="622.6" target-y="531.25"></path>
      </g>
    </g>
  </g>
  <g node-id="2772">
    <g node-id="2945">
      <g node-id="3118">
        <path d="M 687.70 529.50 L 688.92 527.75 L 687.70 526.00 L 671.25 516.55 L 668.40 515.85 L 665.30 516.55 L 649.20 526.00 L 647.98 527.75 L 649.20 529.50 L 665.65 538.95 L 668.50 539.65 L 671.60 538.95 L 687.70 529.50 Z" fill="#57565e" fill-rule="nonzero" group-id="120,293,466" node-id="2068" stroke="none" target-height="23.800049" target-width="40.940002" target-x="647.98" target-y="515.85"></path>
      </g>
    </g>
  </g>
  <g node-id="2773">
    <g node-id="2946">
      <g node-id="3119">
        <path d="M 486.45 765.40 L 487.67 763.65 L 486.45 761.90 L 470.00 752.45 L 464.05 752.45 L 447.95 761.90 L 446.55 763.65 L 447.95 765.40 L 464.40 774.85 L 467.20 775.90 L 470.00 774.85 L 486.45 765.40 Z" fill="#57565e" fill-rule="nonzero" group-id="121,294,467" node-id="2079" stroke="none" target-height="23.450012" target-width="41.120026" target-x="446.55" target-y="752.45"></path>
      </g>
    </g>
  </g>
  <g node-id="2774">
    <g node-id="2947">
      <g node-id="3120">
        <path d="M 511.65 750.70 L 513.05 748.95 L 511.65 747.20 L 495.20 737.75 L 492.40 737.05 L 489.60 737.75 L 473.15 747.20 L 471.93 748.95 L 473.15 750.70 L 489.60 760.15 L 492.70 761.02 L 495.55 760.15 L 511.65 750.70 Z" fill="#57565e" fill-rule="nonzero" group-id="122,295,468" node-id="2090" stroke="none" target-height="23.970032" target-width="41.119995" target-x="471.93" target-y="737.05"></path>
      </g>
    </g>
  </g>
  <g node-id="2775">
    <g node-id="2948">
      <g node-id="3121">
        <path d="M 536.85 736.00 L 538.25 734.25 L 536.85 732.50 L 520.75 723.05 L 514.80 723.05 L 498.70 732.50 L 497.30 734.25 L 498.70 736.00 L 514.80 745.45 L 517.90 746.15 L 520.75 745.45 L 536.85 736.00 Z" fill="#57565e" fill-rule="nonzero" group-id="123,296,469" node-id="2101" stroke="none" target-height="23.100037" target-width="40.950012" target-x="497.3" target-y="723.05"></path>
      </g>
    </g>
  </g>
  <g node-id="2776">
    <g node-id="2949">
      <g node-id="3122">
        <path d="M 562.40 721.30 L 563.62 719.55 L 562.40 717.80 L 545.95 708.35 L 543.10 707.65 L 540.00 708.35 L 523.90 717.80 L 522.67 719.55 L 523.90 721.30 L 540.35 730.75 L 543.20 731.45 L 546.30 730.75 L 562.40 721.30 Z" fill="#57565e" fill-rule="nonzero" group-id="124,297,470" node-id="2112" stroke="none" target-height="23.799988" target-width="40.950012" target-x="522.67" target-y="707.65"></path>
      </g>
    </g>
  </g>
  <g node-id="2777">
    <g node-id="2950">
      <g node-id="3123">
        <path d="M 448.65 697.85 L 450.05 696.10 L 448.65 694.35 L 432.55 684.90 L 426.60 684.90 L 410.50 694.35 L 409.10 696.10 L 410.50 697.85 L 426.60 707.30 L 429.70 708.00 L 432.55 707.30 L 448.65 697.85 Z" fill="#57565e" fill-rule="nonzero" group-id="125,298,471" node-id="2123" stroke="none" target-height="23.099976" target-width="40.94998" target-x="409.1" target-y="684.9"></path>
      </g>
    </g>
  </g>
  <g node-id="2778">
    <g node-id="2951">
      <g node-id="3124">
        <path d="M 694.70 499.75 L 674.75 511.30 L 673.35 513.05 L 674.75 514.80 L 690.85 524.25 L 696.80 524.25 L 716.75 512.35 L 718.15 510.95 L 716.75 509.20 L 700.65 499.75 L 697.80 498.88 L 694.70 499.75 Z" fill="#57565e" fill-rule="nonzero" group-id="126,299,472" node-id="2134" stroke="none" target-height="25.369995" target-width="44.80005" target-x="673.35" target-y="498.88"></path>
      </g>
    </g>
  </g>
  <g node-id="2779">
    <g node-id="2952">
      <g node-id="3125">
        <path d="M 717.45 631.00 L 718.85 629.25 L 717.45 627.50 L 701.35 618.05 L 695.40 618.05 L 549.45 703.10 L 548.05 704.85 L 549.45 706.60 L 565.55 716.05 L 571.50 716.05 L 717.45 631.00 Z" fill="#57565e" fill-rule="nonzero" group-id="127,300,473" node-id="2145" stroke="none" target-height="98" target-width="170.79999" target-x="548.05" target-y="618.05"></path>
      </g>
    </g>
  </g>
  <g node-id="2780">
    <g node-id="2953">
      <g node-id="3126">
        <path d="M 365.35 683.85 L 368.45 684.72 L 371.30 683.85 L 387.40 674.40 L 388.80 672.65 L 387.40 670.90 L 382.85 668.45 L 380.05 667.75 L 376.90 668.45 L 360.80 677.90 L 359.57 679.65 L 360.80 681.40 L 365.35 683.85 Z" fill="#57565e" fill-rule="nonzero" group-id="128,301,474" node-id="2156" stroke="none" target-height="16.96997" target-width="29.22998" target-x="359.57" target-y="667.75"></path>
      </g>
    </g>
  </g>
  <g node-id="2781">
    <g node-id="2954">
      <g node-id="3127">
        <path d="M 412.60 659.70 L 414.00 657.95 L 412.60 656.20 L 408.40 653.75 L 405.55 652.88 L 402.45 653.75 L 386.35 663.20 L 384.95 664.95 L 386.35 666.70 L 390.55 669.15 L 393.65 670.02 L 396.50 669.15 L 412.60 659.70 Z" fill="#57565e" fill-rule="nonzero" group-id="129,302,475" node-id="2167" stroke="none" target-height="17.140015" target-width="29.049988" target-x="384.95" target-y="652.88"></path>
      </g>
    </g>
  </g>
  <g node-id="2782">
    <g node-id="2955">
      <g node-id="3128">
        <path d="M 438.15 641.50 L 433.60 639.05 L 430.75 638.18 L 427.65 639.05 L 411.55 648.50 L 410.15 650.25 L 411.55 652.00 L 416.10 654.45 L 418.95 655.15 L 422.05 654.45 L 438.15 645.00 L 439.38 643.25 L 438.15 641.50 Z" fill="#57565e" fill-rule="nonzero" group-id="130,303,476" node-id="2178" stroke="none" target-height="16.970032" target-width="29.230011" target-x="410.15" target-y="638.18"></path>
      </g>
    </g>
  </g>
  <g node-id="2783">
    <g node-id="2956">
      <g node-id="3129">
        <path d="M 463.35 626.80 L 458.80 624.35 L 456.00 623.30 L 453.20 624.35 L 436.75 633.80 L 435.70 635.55 L 437.10 636.95 L 441.30 639.75 L 447.25 639.75 L 463.35 630.30 L 464.75 628.55 L 463.35 626.80 Z" fill="#57565e" fill-rule="nonzero" group-id="131,304,477" node-id="2189" stroke="none" target-height="16.450012" target-width="29.049988" target-x="435.7" target-y="623.3"></path>
      </g>
    </g>
  </g>
  <g node-id="2784">
    <g node-id="2957">
      <g node-id="3130">
        <path d="M 466.50 625.05 L 469.60 625.75 L 472.45 625.05 L 488.55 615.60 L 489.95 613.85 L 488.55 612.10 L 484.35 609.65 L 481.50 608.78 L 478.40 609.65 L 462.30 619.10 L 460.90 620.85 L 462.30 622.25 L 466.50 625.05 Z" fill="#57565e" fill-rule="nonzero" group-id="132,305,478" node-id="2200" stroke="none" target-height="16.96997" target-width="29.050018" target-x="460.9" target-y="608.78"></path>
      </g>
    </g>
  </g>
  <g node-id="2785">
    <g node-id="2958">
      <g node-id="3131">
        <path d="M 487.50 604.40 L 486.45 606.15 L 487.50 607.55 L 492.05 610.35 L 494.90 611.05 L 498.00 610.35 L 514.10 600.90 L 515.33 599.15 L 514.10 597.40 L 509.55 594.95 L 506.75 594.25 L 503.60 594.95 L 487.50 604.40 Z" fill="#57565e" fill-rule="nonzero" group-id="133,306,479" node-id="2211" stroke="none" target-height="16.799988" target-width="28.880005" target-x="486.45" target-y="594.25"></path>
      </g>
    </g>
  </g>
  <g node-id="2786">
    <g node-id="2959">
      <g node-id="3132">
        <path d="M 539.30 586.20 L 540.70 584.45 L 539.30 582.70 L 535.10 580.25 L 532.00 579.20 L 529.15 580.25 L 513.05 589.70 L 511.65 591.45 L 513.05 592.85 L 517.25 595.65 L 523.20 595.65 L 539.30 586.20 Z" fill="#57565e" fill-rule="nonzero" group-id="134,307,480" node-id="2222" stroke="none" target-height="16.450012" target-width="29.050018" target-x="511.65" target-y="579.2"></path>
      </g>
    </g>
  </g>
  <g node-id="2787">
    <g node-id="2960">
      <g node-id="3133">
        <path d="M 564.85 571.50 L 566.08 569.75 L 564.85 568.00 L 560.30 565.55 L 557.45 564.68 L 554.35 565.55 L 538.25 574.65 L 536.85 576.40 L 538.25 578.15 L 542.80 580.60 L 545.60 581.65 L 548.40 580.60 L 564.85 571.50 Z" fill="#57565e" fill-rule="nonzero" group-id="135,308,481" node-id="2233" stroke="none" target-height="16.970032" target-width="29.230042" target-x="536.85" target-y="564.68"></path>
      </g>
    </g>
  </g>
  <g node-id="2788">
    <g node-id="2961">
      <g node-id="3134">
        <path d="M 590.05 553.30 L 585.50 550.85 L 582.70 549.80 L 579.90 550.85 L 563.45 559.95 L 562.23 561.70 L 563.45 563.45 L 568.00 565.90 L 571.10 566.77 L 573.95 565.90 L 590.05 556.80 L 591.45 555.05 L 590.05 553.30 Z" fill="#57565e" fill-rule="nonzero" group-id="136,309,482" node-id="2244" stroke="none" target-height="16.970032" target-width="29.220032" target-x="562.23" target-y="549.8"></path>
      </g>
    </g>
  </g>
  <g node-id="2789">
    <g node-id="2962">
      <g node-id="3135">
        <path d="M 616.65 540.35 L 615.25 538.60 L 611.05 535.80 L 605.10 535.80 L 589.00 545.25 L 587.60 547.00 L 589.00 548.75 L 593.20 551.20 L 596.30 552.25 L 599.15 551.20 L 615.25 541.75 L 616.65 540.35 Z" fill="#57565e" fill-rule="nonzero" group-id="137,310,483" node-id="2255" stroke="none" target-height="16.450012" target-width="29.050049" target-x="587.6" target-y="535.8"></path>
      </g>
    </g>
  </g>
  <g node-id="2790">
    <g node-id="2963">
      <g node-id="3136">
        <path d="M 630.30 521.10 L 614.20 530.55 L 612.98 532.30 L 614.20 534.05 L 618.75 536.50 L 621.60 537.55 L 624.70 536.50 L 640.80 527.05 L 641.85 525.65 L 640.80 523.90 L 636.25 521.10 L 633.40 520.40 L 630.30 521.10 Z" fill="#57565e" fill-rule="nonzero" group-id="138,311,484" node-id="2266" stroke="none" target-height="17.149963" target-width="28.869995" target-x="612.98" target-y="520.4"></path>
      </g>
    </g>
  </g>
  <g node-id="2791">
    <g node-id="2964">
      <g node-id="3137">
        <path d="M 667.40 510.95 L 666.00 509.20 L 661.80 506.40 L 658.70 505.70 L 655.85 506.40 L 639.75 515.85 L 638.35 517.60 L 639.75 519.35 L 643.95 521.80 L 647.05 522.67 L 649.90 521.80 L 666.00 512.35 L 667.40 510.95 Z" fill="#57565e" fill-rule="nonzero" group-id="139,312,485" node-id="2277" stroke="none" target-height="16.96997" target-width="29.050049" target-x="638.35" target-y="505.7"></path>
      </g>
    </g>
  </g>
  <g node-id="2792">
    <g node-id="2965">
      <g node-id="3138">
        <path d="M 664.95 501.15 L 663.55 502.90 L 664.95 504.65 L 669.50 507.10 L 672.30 508.15 L 675.10 507.10 L 691.55 497.65 L 692.60 496.25 L 691.55 494.50 L 687.00 491.70 L 681.05 491.70 L 664.95 501.15 Z" fill="#57565e" fill-rule="nonzero" group-id="140,313,486" node-id="2288" stroke="none" target-height="16.449982" target-width="29.049988" target-x="663.55" target-y="491.7"></path>
      </g>
    </g>
  </g>
  <g node-id="2793">
    <g node-id="2966">
      <g node-id="3139">
        <path d="M 331.75 694.70 L 330.35 696.45 L 331.75 698.20 L 335.95 700.65 L 339.05 701.70 L 341.90 700.65 L 362.20 689.10 L 363.34 687.38 L 361.85 685.60 L 357.65 683.15 L 354.80 682.28 L 351.70 683.15 L 331.75 694.70 Z" fill="#57565e" fill-rule="nonzero" group-id="141,314,487" node-id="2299" stroke="none" target-height="19.419983" target-width="32.98999" target-x="330.35" target-y="682.28"></path>
      </g>
    </g>
  </g>
  <g node-id="2794">
    <g node-id="2967">
      <g node-id="3140">
        <path d="M 423.45 709.40 L 407.35 699.95 L 404.50 699.08 L 401.40 699.95 L 370.95 717.45 L 369.55 719.20 L 370.95 720.95 L 387.40 730.40 L 390.20 731.45 L 393.00 730.40 L 423.45 712.55 L 424.85 711.15 L 423.45 709.40 Z" fill="#57565e" fill-rule="nonzero" group-id="142,315,488" node-id="2310" stroke="none" target-height="32.369995" target-width="55.30002" target-x="369.55" target-y="699.08"></path>
      </g>
    </g>
  </g>
  <g node-id="2795">
    <g node-id="2968">
      <g node-id="3141">
        <path d="M 445.50 707.30 L 442.70 706.25 L 439.90 707.30 L 396.50 732.50 L 395.45 734.25 L 396.50 735.65 L 412.95 745.10 L 416.05 745.97 L 418.90 745.10 L 461.95 720.25 L 463.35 718.50 L 461.95 716.75 L 445.50 707.30 Z" fill="#57565e" fill-rule="nonzero" group-id="143,316,489" node-id="2321" stroke="none" target-height="39.71997" target-width="67.899994" target-x="395.45" target-y="706.25"></path>
      </g>
    </g>
  </g>
  <g node-id="2796">
    <g node-id="2969">
      <g node-id="3142">
        <path d="M 422.40 747.20 L 421.18 748.95 L 422.40 750.70 L 438.85 760.15 L 441.70 761.20 L 444.80 760.15 L 487.85 734.95 L 489.25 733.41 L 487.85 731.45 L 471.40 722.35 L 468.60 721.65 L 465.45 722.35 L 422.40 747.20 Z" fill="#57565e" fill-rule="nonzero" group-id="144,317,490" node-id="2332" stroke="none" target-height="39.549988" target-width="68.07001" target-x="421.18" target-y="721.65"></path>
      </g>
    </g>
  </g>
  <g node-id="2797">
    <g node-id="2970">
      <g node-id="3143">
        <path d="M 742.65 527.40 L 743.88 525.65 L 742.65 523.90 L 726.20 514.45 L 723.40 513.75 L 720.25 514.45 L 689.45 532.65 L 688.05 534.40 L 689.45 535.80 L 705.55 545.25 L 708.65 546.12 L 711.50 545.25 L 742.65 527.40 Z" fill="#57565e" fill-rule="nonzero" group-id="145,318,491" node-id="2343" stroke="none" target-height="32.369995" target-width="55.830017" target-x="688.05" target-y="513.75"></path>
      </g>
    </g>
  </g>
  <g node-id="2798">
    <g node-id="2971">
      <g node-id="3144">
        <path d="M 768.20 542.10 L 769.60 540.35 L 768.20 538.60 L 752.10 529.15 L 749.00 528.45 L 746.15 529.15 L 702.40 554.70 L 701.00 556.45 L 702.40 558.20 L 718.50 567.65 L 724.45 567.65 L 768.20 542.10 Z" fill="#57565e" fill-rule="nonzero" group-id="146,319,492" node-id="2354" stroke="none" target-height="39.200012" target-width="68.599976" target-x="701" target-y="528.45"></path>
      </g>
    </g>
  </g>
  <g node-id="2799">
    <g node-id="2972">
      <g node-id="3145">
        <path d="M 781.85 579.90 L 783.25 578.36 L 781.85 576.40 L 777.30 573.95 L 771.35 573.95 L 755.25 583.40 L 754.03 584.93 L 755.25 586.90 L 759.80 589.35 L 762.65 590.40 L 765.75 589.35 L 781.85 579.90 Z" fill="#57565e" fill-rule="nonzero" group-id="147,320,493" node-id="2365" stroke="none" target-height="16.450012" target-width="29.21997" target-x="754.03" target-y="573.95"></path>
      </g>
    </g>
  </g>
  <g node-id="2800">
    <g node-id="2973">
      <g node-id="3146">
        <path d="M 793.75 583.40 L 789.20 580.95 L 786.35 580.08 L 783.25 580.95 L 767.15 590.40 L 765.75 592.15 L 767.15 593.55 L 771.70 596.35 L 774.50 597.05 L 777.30 596.35 L 793.75 586.90 L 794.98 585.15 L 793.75 583.40 Z" fill="#57565e" fill-rule="nonzero" group-id="148,321,494" node-id="2376" stroke="none" target-height="16.96997" target-width="29.22998" target-x="765.75" target-y="580.08"></path>
      </g>
    </g>
  </g>
  <g node-id="2801">
    <g node-id="2974">
      <g node-id="3147">
        <path d="M 689.80 587.60 L 691.20 585.85 L 689.80 584.10 L 673.70 574.65 L 667.75 574.65 L 651.65 584.10 L 650.25 585.85 L 651.65 587.60 L 667.75 597.05 L 670.85 598.10 L 673.70 597.05 L 689.80 587.60 Z" fill="#57565e" fill-rule="nonzero" group-id="149,322,495" node-id="2387" stroke="none" target-height="23.449951" target-width="40.950012" target-x="650.25" target-y="574.65"></path>
      </g>
    </g>
  </g>
  <g node-id="2802">
    <g node-id="2975">
      <g node-id="3148">
        <path d="M 715.35 572.90 L 716.57 571.37 L 715.35 569.40 L 698.90 559.95 L 696.05 559.25 L 692.95 559.95 L 676.85 569.40 L 675.62 571.15 L 676.85 572.90 L 693.30 582.35 L 699.25 582.35 L 715.35 572.90 Z" fill="#57565e" fill-rule="nonzero" group-id="150,323,496" node-id="2398" stroke="none" target-height="23.099976" target-width="40.950012" target-x="675.62" target-y="559.25"></path>
      </g>
    </g>
  </g>
  <g node-id="2803">
    <g node-id="2976">
      <g node-id="3149">
        <path d="M 715.70 602.65 L 717.10 600.90 L 715.70 599.15 L 699.60 589.70 L 696.75 588.83 L 693.65 589.70 L 677.55 599.15 L 676.15 600.90 L 677.55 602.65 L 693.65 611.75 L 696.75 612.62 L 699.60 611.75 L 715.70 602.65 Z" fill="#57565e" fill-rule="nonzero" group-id="151,324,497" node-id="2409" stroke="none" target-height="23.789978" target-width="40.94995" target-x="676.15" target-y="588.83"></path>
      </g>
    </g>
  </g>
  <g node-id="2804">
    <g node-id="2977">
      <g node-id="3150">
        <path d="M 741.25 587.95 L 742.65 585.99 L 741.25 584.45 L 724.80 575.00 L 721.95 574.13 L 718.85 575.00 L 702.75 584.45 L 701.18 585.99 L 702.75 587.95 L 719.20 597.05 L 722.05 598.10 L 725.15 597.05 L 741.25 587.95 Z" fill="#57565e" fill-rule="nonzero" group-id="152,325,498" node-id="2420" stroke="none" target-height="23.96997" target-width="41.47003" target-x="701.18" target-y="574.13"></path>
      </g>
    </g>
  </g>
  <g node-id="2805">
    <g node-id="2978">
      <g node-id="3151">
        <path d="M 767.85 571.50 L 766.45 569.75 L 750.35 560.30 L 747.25 559.25 L 744.40 560.30 L 728.30 569.75 L 726.90 571.50 L 728.30 572.90 L 744.40 582.35 L 747.50 583.22 L 750.35 582.35 L 766.45 572.90 L 767.85 571.50 Z" fill="#57565e" fill-rule="nonzero" group-id="153,326,499" node-id="2431" stroke="none" target-height="23.96997" target-width="40.94995" target-x="726.9" target-y="559.25"></path>
      </g>
    </g>
  </g>
  <g node-id="2806">
    <g node-id="2979">
      <g node-id="3152">
        <path d="M 794.10 553.65 L 777.65 544.20 L 774.85 543.15 L 772.05 544.20 L 753.50 555.05 L 752.10 556.80 L 753.50 558.20 L 769.60 567.65 L 772.70 568.70 L 775.55 567.65 L 794.10 557.15 L 795.50 555.40 L 794.10 553.65 Z" fill="#57565e" fill-rule="nonzero" group-id="154,327,500" node-id="2442" stroke="none" target-height="25.549988" target-width="43.400024" target-x="752.1" target-y="543.15"></path>
      </g>
    </g>
  </g>
  <g node-id="2807">
    <g node-id="2980">
      <g node-id="3153">
        <path d="M 639.40 617.00 L 640.62 615.25 L 639.40 613.50 L 622.95 604.40 L 620.10 603.53 L 617.00 604.40 L 600.90 613.50 L 599.68 615.03 L 600.90 617.00 L 617.35 626.45 L 620.20 627.50 L 623.30 626.45 L 639.40 617.00 Z" fill="#57565e" fill-rule="nonzero" group-id="155,328,501" node-id="2453" stroke="none" target-height="23.96997" target-width="40.940002" target-x="599.68" target-y="603.53"></path>
      </g>
    </g>
  </g>
  <g node-id="2808">
    <g node-id="2981">
      <g node-id="3154">
        <path d="M 664.60 602.30 L 666.00 600.55 L 664.60 598.80 L 648.50 589.35 L 645.40 588.65 L 642.55 589.35 L 626.45 598.80 L 625.05 600.55 L 626.45 602.30 L 642.55 611.75 L 645.65 612.62 L 648.50 611.75 L 664.60 602.30 Z" fill="#57565e" fill-rule="nonzero" group-id="156,329,502" node-id="2464" stroke="none" target-height="23.96997" target-width="40.950012" target-x="625.05" target-y="588.65"></path>
      </g>
    </g>
  </g>
  <g node-id="2809">
    <g node-id="2982">
      <g node-id="3155">
        <path d="M 665.30 632.05 L 666.44 630.33 L 664.95 628.55 L 648.85 619.10 L 646.00 618.23 L 642.90 619.10 L 626.80 628.55 L 625.40 630.30 L 626.80 632.05 L 643.25 641.50 L 646.05 642.20 L 648.85 641.50 L 665.30 632.05 Z" fill="#57565e" fill-rule="nonzero" group-id="157,330,503" node-id="2475" stroke="none" target-height="23.970032" target-width="41.039978" target-x="625.4" target-y="618.23"></path>
      </g>
    </g>
  </g>
  <g node-id="2810">
    <g node-id="2983">
      <g node-id="3156">
        <path d="M 690.50 617.35 L 691.90 615.60 L 690.50 613.85 L 674.05 604.40 L 671.25 603.35 L 668.45 604.40 L 652.00 613.85 L 650.77 615.60 L 652.00 617.35 L 668.45 626.80 L 674.40 626.80 L 690.50 617.35 Z" fill="#57565e" fill-rule="nonzero" group-id="158,331,504" node-id="2486" stroke="none" target-height="23.450012" target-width="41.130005" target-x="650.77" target-y="603.35"></path>
      </g>
    </g>
  </g>
  <g node-id="2811">
    <g node-id="2984">
      <g node-id="3157">
        <path d="M 590.05 645.00 L 588.65 643.25 L 572.20 633.80 L 569.40 632.75 L 566.60 633.80 L 550.15 643.25 L 549.10 645.00 L 550.15 646.40 L 566.60 655.85 L 569.70 656.72 L 572.55 655.85 L 588.65 646.40 L 590.05 645.00 Z" fill="#57565e" fill-rule="nonzero" group-id="159,332,505" node-id="2497" stroke="none" target-height="23.96997" target-width="40.950012" target-x="549.1" target-y="632.75"></path>
      </g>
    </g>
  </g>
  <g node-id="2812">
    <g node-id="2985">
      <g node-id="3158">
        <path d="M 613.85 631.70 L 615.25 629.95 L 613.85 628.20 L 597.75 619.10 L 594.90 618.23 L 591.80 619.10 L 575.70 628.20 L 574.30 629.95 L 575.70 631.70 L 591.80 641.15 L 594.90 642.02 L 597.75 641.15 L 613.85 631.70 Z" fill="#57565e" fill-rule="nonzero" group-id="160,333,506" node-id="2508" stroke="none" target-height="23.79004" target-width="40.950012" target-x="574.3" target-y="618.23"></path>
      </g>
    </g>
  </g>
  <g node-id="2813">
    <g node-id="2986">
      <g node-id="3159">
        <path d="M 614.55 661.45 L 615.77 659.70 L 614.55 657.95 L 598.10 648.50 L 595.25 647.80 L 592.15 648.50 L 576.05 657.95 L 574.83 659.70 L 576.05 661.45 L 592.50 670.90 L 595.35 671.60 L 598.45 670.90 L 614.55 661.45 Z" fill="#57565e" fill-rule="nonzero" group-id="161,334,507" node-id="2519" stroke="none" target-height="23.799988" target-width="40.940002" target-x="574.83" target-y="647.8"></path>
      </g>
    </g>
  </g>
  <g node-id="2814">
    <g node-id="2987">
      <g node-id="3160">
        <path d="M 639.75 646.75 L 641.15 645.00 L 639.75 643.25 L 623.65 633.80 L 620.55 633.10 L 617.70 633.80 L 601.60 643.25 L 600.20 645.00 L 601.60 646.75 L 617.70 656.20 L 623.65 656.20 L 639.75 646.75 Z" fill="#57565e" fill-rule="nonzero" group-id="162,335,508" node-id="2530" stroke="none" target-height="23.100037" target-width="40.950012" target-x="600.2" target-y="633.1"></path>
      </g>
    </g>
  </g>
  <g node-id="2815">
    <g node-id="2988">
      <g node-id="3161">
        <path d="M 515.85 685.25 L 518.95 686.12 L 521.80 685.25 L 537.90 675.80 L 539.30 674.40 L 537.90 672.65 L 521.80 663.20 L 518.70 662.15 L 515.85 663.20 L 499.75 672.65 L 498.35 674.40 L 499.75 675.80 L 515.85 685.25 Z" fill="#57565e" fill-rule="nonzero" group-id="163,336,509" node-id="2541" stroke="none" target-height="23.96997" target-width="40.94998" target-x="498.35" target-y="662.15"></path>
      </g>
    </g>
  </g>
  <g node-id="2816">
    <g node-id="2989">
      <g node-id="3162">
        <path d="M 523.55 659.70 L 524.95 661.10 L 541.40 670.55 L 544.20 671.60 L 547.00 670.55 L 563.45 661.10 L 564.50 659.70 L 563.10 657.95 L 547.00 648.50 L 544.15 647.63 L 541.05 648.50 L 524.95 657.95 L 523.55 659.70 Z" fill="#57565e" fill-rule="nonzero" group-id="164,337,510" node-id="2552" stroke="none" target-height="23.96997" target-width="40.950012" target-x="523.55" target-y="647.63"></path>
      </g>
    </g>
  </g>
  <g node-id="2817">
    <g node-id="2990">
      <g node-id="3163">
        <path d="M 563.80 690.85 L 565.20 689.10 L 563.80 687.35 L 547.35 677.90 L 544.55 677.20 L 541.75 677.90 L 525.30 687.35 L 524.07 689.10 L 525.30 690.85 L 541.75 700.30 L 544.85 701.17 L 547.70 700.30 L 563.80 690.85 Z" fill="#57565e" fill-rule="nonzero" group-id="165,338,511" node-id="2563" stroke="none" target-height="23.96997" target-width="41.130005" target-x="524.07" target-y="677.2"></path>
      </g>
    </g>
  </g>
  <g node-id="2818">
    <g node-id="2991">
      <g node-id="3164">
        <path d="M 589.00 676.15 L 590.40 674.40 L 589.00 672.65 L 572.90 663.20 L 566.95 663.20 L 550.85 672.65 L 549.45 674.40 L 550.85 676.15 L 566.95 685.60 L 570.05 686.30 L 572.90 685.60 L 589.00 676.15 Z" fill="#57565e" fill-rule="nonzero" group-id="166,339,512" node-id="2574" stroke="none" target-height="23.099976" target-width="40.950012" target-x="549.45" target-y="663.2"></path>
      </g>
    </g>
  </g>
  <g node-id="2819">
    <g node-id="2992">
      <g node-id="3165">
        <path d="M 488.55 703.80 L 487.15 702.05 L 471.05 692.60 L 468.20 691.73 L 465.10 692.60 L 449.00 702.05 L 447.60 703.80 L 449.00 705.55 L 465.10 714.65 L 468.20 715.70 L 471.05 714.65 L 487.15 705.55 L 488.55 703.80 Z" fill="#57565e" fill-rule="nonzero" group-id="167,340,513" node-id="2585" stroke="none" target-height="23.970032" target-width="40.94998" target-x="447.6" target-y="691.73"></path>
      </g>
    </g>
  </g>
  <g node-id="2820">
    <g node-id="2993">
      <g node-id="3166">
        <path d="M 490.30 677.90 L 474.20 687.35 L 473.15 689.10 L 474.20 690.50 L 490.65 699.95 L 493.50 701.00 L 496.60 699.95 L 512.70 690.50 L 513.75 689.10 L 512.70 687.35 L 496.25 677.90 L 493.45 677.20 L 490.30 677.90 Z" fill="#57565e" fill-rule="nonzero" group-id="168,341,514" node-id="2596" stroke="none" target-height="23.799988" target-width="40.600006" target-x="473.15" target-y="677.2"></path>
      </g>
    </g>
  </g>
  <g node-id="2821">
    <g node-id="2994">
      <g node-id="3167">
        <path d="M 513.05 720.25 L 514.45 718.50 L 513.05 716.75 L 496.95 707.65 L 493.85 706.60 L 491.00 707.65 L 474.90 716.75 L 473.50 718.50 L 474.90 720.25 L 491.00 729.70 L 494.10 730.57 L 496.95 729.70 L 513.05 720.25 Z" fill="#57565e" fill-rule="nonzero" group-id="169,342,515" node-id="2607" stroke="none" target-height="23.970032" target-width="40.950012" target-x="473.5" target-y="706.6"></path>
      </g>
    </g>
  </g>
  <g node-id="2822">
    <g node-id="2995">
      <g node-id="3168">
        <path d="M 538.60 705.55 L 539.83 703.80 L 538.60 702.05 L 522.15 692.60 L 519.07 691.99 L 516.20 692.95 L 500.10 702.05 L 498.70 703.80 L 500.10 705.55 L 516.55 715.00 L 519.35 716.05 L 522.15 715.00 L 538.60 705.55 Z" fill="#57565e" fill-rule="nonzero" group-id="170,343,516" node-id="2618" stroke="none" target-height="24.059998" target-width="41.130005" target-x="498.7" target-y="691.99"></path>
      </g>
    </g>
  </g>
  <g node-id="2823">
    <g node-id="2996">
      <g node-id="3169">
        <path d="M 743.00 616.30 L 744.22 614.77 L 743.00 612.80 L 726.55 603.35 L 723.70 602.65 L 720.60 603.35 L 704.50 612.80 L 703.27 614.55 L 704.50 616.30 L 720.95 625.75 L 726.90 625.75 L 743.00 616.30 Z" fill="#57565e" fill-rule="nonzero" group-id="171,344,517" node-id="2629" stroke="none" target-height="23.099976" target-width="40.94995" target-x="703.27" target-y="602.65"></path>
      </g>
    </g>
  </g>
  <g node-id="2824">
    <g node-id="2997">
      <g node-id="3170">
        <path d="M 768.20 601.60 L 769.60 599.85 L 768.20 598.10 L 752.10 588.65 L 746.15 588.65 L 730.05 598.10 L 728.65 599.85 L 730.05 601.60 L 746.15 611.05 L 752.10 611.05 L 768.20 601.60 Z" fill="#57565e" fill-rule="nonzero" group-id="172,345,518" node-id="2640" stroke="none" target-height="22.399963" target-width="40.94995" target-x="728.65" target-y="588.65"></path>
      </g>
    </g>
  </g>
  <path d="M 819.65 571.85 L 820.88 570.10 L 819.65 568.35 L 803.20 558.90 L 800.40 558.20 L 797.25 558.90 L 781.15 568.35 L 779.92 570.10 L 781.15 571.85 L 797.60 581.30 L 800.45 582.00 L 803.55 581.30 L 819.65 571.85 Z" fill="#57565e" fill-rule="nonzero" group-id="173,346,519" node-id="2651" stroke="none" target-height="23.799988" target-width="40.960022" target-x="779.92" target-y="558.2"></path>
</svg>