<svg xmlns="http://www.w3.org/2000/svg" width="695" height="627"><path fill="#4f9bff" fill-rule="evenodd" d="M233.73 122.54 0 166.23 202.31 603.2l231.63-38.99Z"/><path fill="#ffc78e" fill-rule="evenodd" d="M19.07 111.25 195.6 627l319.41-49.67-168.6-483.34Z"/><path fill="#ffac57" fill-rule="evenodd" d="m152.21 253.79 3.27 25.68 3.51 23.62 3.71 21.66 3.9 19.83 4.05 18.11 4.2 16.49 4.31 14.97 4.42 13.57 4.49 12.25 4.56 11.02 4.61 9.89 4.64 8.84 4.68 7.87 4.7 6.97 7.01 9.38 7.48 9.11 7.95 8.86 6.24 6.36 6.57 6.11 6.91 5.88 7.26 5.65 7.48 5.25 7.91 4.94 8.34 4.61 8.79 4.29 8.93 3.76 9.46 3.36 10.03 2.95 10.64 2.53 10.58 1.91 11.26 1.42 11.98.89 12.76.32 9.91-.17 10.44-.57 10.99-1 11.58-1.44 12.18-1.91-266.08-285.33-15.65-7.93Z"/><path fill="#a2fed2" fill-rule="evenodd" d="m48.07 89.05 28.21-.39 14.51 34.79-27.26 2.52Z"/><path fill="#82d7ff" fill-rule="evenodd" d="M85.45 78h29.78l18.29 42.64h-28.08Z"/><path fill="#fff" fill-rule="evenodd" d="m143.06 167.85 46.61-.11 40.56-.64 35.06-1.08 30.08-1.45 25.6-1.78 21.6-2.02 18.03-2.21 14.89-2.35 12.14-2.44 9.76-2.49 7.71-2.49 5.98-2.46 4.53-2.41 3.35-2.34 7.86 42.9 7.82 39.63 7.77 36.52 7.7 33.58 7.62 30.81 7.54 28.19 7.43 25.73 7.33 23.42 7.22 21.25 7.1 19.22 6.96 17.32 6.84 15.57 6.69 13.92 6.56 12.4 6.41 11.01 6.27 9.7-9.71 4.45-10.02 3.96-10.34 3.46-10.69 2.98-11.05 2.48-11.44 1.97-11.84 1.45-12.28.92-12.72.37-13.21-.2-13.7-.78-14.23-1.4-13.53-1.78-12.36-2.02-11.25-2.22-11.16-2.69-10.41-3.05-9.68-3.37-9.48-3.92-9.14-4.41-8.82-4.93-8.52-5.43-8.55-6.14-8.61-6.88-8.28-7.26-8.66-8.2-9.06-9.23-8.78-9.46-9.44-10.63-10.15-11.89-5.78-7.31-5.66-8.07-5.54-8.88-5.41-9.76-5.28-10.68-5.13-11.68-4.97-12.74-4.78-13.86-4.59-15.06-4.37-16.33-4.13-17.68-3.86-19.11-3.57-20.62-3.26-22.21-2.91-23.89-2.54-25.65-2.13-27.52Z"/><path fill="#f6f7ff" fill-rule="evenodd" d="m317.5 162.93 8.62 1.44 8.08 1.87 7.6 2.28 7.13 2.68 6.71 3.07 6.3 3.46 5.93 3.83 5.56 4.23 5.23 4.63 4.89 5.03 4.58 5.47.76 1.33.53 1.76.28 2.28-.06 2.94-.45 3.76-.86 4.52-1.36 5.4-2.46 8.17-3.19 9.44-7.43 20.11-8.02 21.16-3.88 10.61-3.51 10.16-3.15 9.99-2.42 8.96-1.31 5.95-.83 5.2-.42 4.54-.03 3.5.3 2.95.57 2.47.82 2.06 4.89-11.41 4.63-9.74 4.38-8.25 4.13-6.91 4.81-7.04 4.5-5.65 4.22-4.45 3.96-3.41 3.65-2.52 3.48-1.89 3.34-1.33 3.23-.81 3.16-.35 3.23.09 3.21.49 3.2.91 3.22 1.34 3.26 1.82 3.73 2.6 3.79 3.17 3.85 3.8 3.92 4.5 4.74 6.22 4.79 7.1 4.83 8.05 4.48 8.24 4.45 8.85 4.41 9.49 6.22 14.49 6 15.17 5.67 15.36 5.34 15.27 9.69 29.49 8.29 26.23.46-84.75-88.36-275.03-99.31 55.61Z"/><path fill="#a7a7a7" d="m202.31 270.74 4.41-1.06 16.35-3.61 13.34-2.38 10.75-1.37 8.53-.56 6.67.1 5.12.59 3.87.97 3.04 1.32 2.23 1.52 1.59 1.71 1.04 1.92.54 2.18.02 2.52-.56 2.88-1.21 3.35-2.02 3.91-3 4.59-4.21 5.36-.83.97-6.43 7.79-5.56 7.34-4.75 6.92-4.42 7.2-3.41 6.41-2.53 5.7-1.61 4.57-.98 3.9-.45 3.33-.01 2.85.36 2.18.68 1.78.99 1.44 1.31 1.17 1.67.91 2.25.65 2.88.26 3.67-.25 4.64-.89 5.81-1.73 7.25-2.83 8.94-4.19 15.06-7.54 13.06-6.4 10.2-4.81 9.42-4.2 7.29-2.97 6.78-2.41 5.38-1.53.67-.16 4.69-.8 3.54-.11 2.65.42 1.96.83 1.43 1.17 1.01 1.56.54 1.77.15 2.23-.32 2.8-.94 3.54-1.72 4.42-2.71 5.5-.57 1.03-2.42 4.87-1.68 4.55-1.02 4.26-.41 4.02.15 3.84.69 3.69 1.24 3.58 1.81 3.51 2.44 3.49 3.17 3.48 3.99 3.49 4.93 3.51 5.99 3.52 7.2 3.51 8.57 3.5.73.46.47.67.2.79-.14.86-.46.73-.66.48-.8.19-.86-.13-7.86-3.19-6.81-3.24-5.85-3.28-5-3.3-4.22-3.33-3.54-3.34-2.91-3.36-2.35-3.4-2.03-3.88-1.41-3.95-.82-4.07-.24-4.21.36-4.42 1-4.65 1.7-4.96 2.48-5.29 1.66-3.04 2.61-5.22 1.5-3.76.69-2.63.11-1.99-.34-1.38-.7-.97-1.1-.64-1.85-.36-2.81.08-4.13.76-1.33.33-4.46 1.29-5.49 1.93-5.84 2.32-7.29 3.16-17.48 8.21L282.25 353l-2.03 1.02-7.49 3.55-6.53 2.66-5.65 1.9-4.9 1.25-4.33.71-3.66.21-3.08-.21-2.59-.56-2.19-.87-2.01-1.31-1.62-1.66-1.25-2.06-.9-2.53-.5-3.11v-3.15l.44-3.59.96-4.11 1.57-4.7 2.51-5.91 3.39-6.56 4.36-7.3 4.73-7.02 5.53-7.42 6.39-7.87 1.32-1.53 4.8-5.98 3.1-4.68 1.81-3.62.85-2.79.15-2.36-.44-1.9-.99-1.58-1.61-1.33-2.41-1.08-2.83-.73-3.65-.52-4.67-.22-5.85.15-7.26.62-11.14 1.56L220.6 271l-17.27 3.94-.86.03-.77-.28-.61-.56-.36-.78-.04-.86.29-.77.55-.61.78-.37Z"/><path fill="#d1d3fb" fill-rule="evenodd" d="m323.19 462.71-14.45-3.04-12.08-2.76-11.37-2.88-9.79-2.79-9.35-3.03-8.61-3.17-8.43-3.48-8.51-3.89-8.6-4.24-9.5-4.96-21.43-11.66 8.92 13.37 9.04 12.47 9.18 11.6 9.3 10.78 9.42 9.98 9.55 9.23 9.69 8.5 9.81 7.8 9.96 7.12 10.11 6.47 10.27 5.84 10.45 5.23 10.62 4.62 10.82 4.03 11.04 3.44 11.26 2.86 11.51 2.27 11.77 1.69 12.06 1.09 12.37.49 12.69-.13 13.03-.76-14.55-6.02-12.23-5.53-7.82-3.86-7.05-3.76-6.35-3.66-6.21-3.9-5.77-3.95-5.35-3.99-7.73-6.4-7.39-6.86-7.16-7.32-7.42-8.21-7.46-8.68-8.26-9.95Z"/><path fill="#fff" fill-rule="evenodd" d="M369.59 259.3 629 15.28l4.22-3.6 4.24-3.04 4.26-2.53 4.29-2.04 4.52-1.68 4.39-1.22L659.2.4l4.17-.36 4.26.03 3.97.43 3.72.78 3.49 1.14 3.37 1.55 2.97 1.86 2.61 2.16 2.27 2.48 1.87 2.77 1.41 3.05.96 3.38.48 3.75-.07 3.69-.65 4.03-1.3 4.45-2.07 4.93-2.42 4.48-3.26 4.88-4.2 5.32-5.28 5.81-18.27 18.16-30.56 29.32-47.31 44.4-69.18 63.98-96.85 88.64L327 344.28l42.59-84.98Z"/><path fill="#d1d3fb" fill-rule="evenodd" d="m394.86 306.15 277.5-258.96 3.67-5.23 2.69-4.72 1.86-4.26 1.15-3.87.53-3.54-.03-3.26-.55-3.06-1.06-2.89-1.59-2.77-2.18-2.68L674 8.3l-3.64-2.54-4.53-2.45-5.58-2.35-6.78-2.22-8.16-2.04-9.73-1.83 4.03-3.27 3.48-3.04 6.46-5.85 3.16-2.74 3.32-2.63 3.52-2.46 4.05-2.41 16.79 10.91 21.35 13.3L728.4 12.7 430.31 355.31l-35.45-49.16Z"/><path fill="#b5b7d8" d="m591.57 25.77 8.33 2.78 7.66 3.19 7.03 3.58 6.46 3.95 5.92 4.33 5.41 4.72 4.93 5.1 4.48 5.52 4.02 5.93 3.55 6.37 3.09 6.83 2.63 7.33 2.15 7.88 1.66 8.47.32 2.17-16.02 2.3-1.26-7.23-1.67-6.69-2.06-6.21-2.44-5.75-2.8-5.33-3.17-4.95-3.53-4.58-3.93-4.26-4.34-3.94-4.79-3.65-5.26-3.36-5.76-3.05-6.31-2.75-6.89-2.43-1.97-.6 4.56-15.67Z"/><path fill="#b5b7d8" fill-rule="evenodd" d="m352.88 253.51 7.12 1.66 6.68 2.18 6.27 2.66 5.9 3.16 5.57 3.66 5.24 4.18 4.93 4.71 4.65 5.28 4.36 5.88 4.06 6.54 3.78 7.24 3.46 7.99 3.13 8.82 2.79 9.7-110.07 37.77 42.13-111.43Z"/><path fill="#3d3d3d" fill-rule="evenodd" d="m332.37 300.54 7.97 4.85 7.1 4.98 6.28 5.11 5.53 5.23 4.83 5.37 4.17 5.5 3.56 5.65 2.97 5.81 2.41 6-71.77 25.28 26.95-73.78Z"/></svg>