<svg xmlns="http://www.w3.org/2000/svg" width="200" height="200" class="icon" viewBox="0 0 1024 1024"><path fill="#F6BB42" d="M916.278 826.572H207.133c-9.708 0-17.56 7.879-17.56 17.587v35.147c0 9.709 7.853 17.587 17.56 17.587h709.145c9.708 0 17.585-7.878 17.585-17.587V844.16c0-9.708-7.877-17.587-17.585-17.587z"/><path fill="#FFCE54" d="m393.58 692.86-74.57-74.567c-6.875-6.876-17.997-6.876-24.847 0L95.28 817.15a17.65 17.65 0 0 0-4.918 15.266 17.549 17.549 0 0 0 9.502 12.9l99.416 49.722a17.758 17.758 0 0 0 7.854 1.854c4.559 0 9.064-1.776 12.437-5.15l174.01-174.01c3.297-3.296 5.15-7.776 5.15-12.437s-1.855-9.141-5.151-12.437z"/><path fill="#434A54" d="M469.05 668.913 344.76 544.624c-6.849-6.875-17.999-6.875-24.848 0L170.751 693.761c-3.296 3.295-5.15 7.776-5.15 12.437s1.854 9.14 5.15 12.437l124.288 124.288a17.597 17.597 0 0 0 24.873 0l149.137-149.162c3.296-3.296 5.15-7.777 5.15-12.438s-1.854-9.114-5.15-12.41z"/><path fill="#656D78" d="m871.143 241.974-99.444-99.44c-9.965-9.94-23.2-15.424-37.285-15.424s-27.318 5.484-37.283 15.423L232.908 606.757a17.577 17.577 0 0 0 0 24.874l149.136 149.136c3.296 3.296 7.777 5.15 12.437 5.15s9.142-1.854 12.438-5.15l464.224-464.225c9.963-9.94 15.447-23.2 15.447-37.284 0-14.085-5.484-27.32-15.447-37.284z"/><path fill="#080808" d="M871.143 316.542c9.963-9.94 15.447-23.2 15.447-37.284 0-14.085-5.484-27.32-15.447-37.284l-99.444-99.44 74.57 74.594c9.965 9.938 15.449 23.2 15.449 37.284s-5.484 27.32-15.45 37.285L382.044 755.92a17.54 17.54 0 0 1-12.41 5.15 17.6 17.6 0 0 1-12.437-5.15l24.847 24.847c3.296 3.296 7.777 5.15 12.437 5.15s9.142-1.854 12.438-5.15l464.224-464.225z"/></svg>