<svg xmlns="http://www.w3.org/2000/svg" width="282" height="304"><defs><linearGradient id="a" x1=".5" x2=".5" y1="0" y2="1" gradientUnits="objectBoundingBox" spreadMethod="pad"><stop offset="0" stop-color="#59d0fc"/><stop offset="1" stop-color="#4b79ff"/></linearGradient><linearGradient id="b" x1=".144" x2=".5" y1="0" y2="1" gradientUnits="objectBoundingBox" spreadMethod="pad"><stop offset="0" stop-color="#59d0fc"/><stop offset="1" stop-color="#4b79ff"/></linearGradient><linearGradient id="c" x1=".5" x2=".5" y1="0" y2="1" gradientUnits="objectBoundingBox" spreadMethod="pad"><stop offset="0" stop-color="#59d0fc"/><stop offset="1" stop-color="#4b79ff"/></linearGradient><linearGradient id="d" x1=".144" x2=".5" y1=".007" y2=".993" gradientUnits="objectBoundingBox" spreadMethod="pad"><stop offset="0" stop-color="#59d0fc"/><stop offset="1" stop-color="#4b79ff"/></linearGradient><linearGradient id="e" x1=".5" x2=".5" y1="0" y2="1" gradientUnits="objectBoundingBox" spreadMethod="pad"><stop offset="0" stop-color="#59d0fc"/><stop offset="1" stop-color="#4b79ff"/></linearGradient><linearGradient id="f" x1=".5" x2=".5" y1="0" y2="1" gradientUnits="objectBoundingBox" spreadMethod="pad"><stop offset="0" stop-color="#59d0fc"/><stop offset="1" stop-color="#4b79ff"/></linearGradient><linearGradient id="g" x1=".5" x2=".5" y1="0" y2="1" gradientUnits="objectBoundingBox" spreadMethod="pad"><stop offset="0" stop-color="#59d0fc"/><stop offset="1" stop-color="#4b79ff"/></linearGradient><linearGradient id="h" x1=".5" x2=".5" y1="0" y2="1" gradientUnits="objectBoundingBox" spreadMethod="pad"><stop offset="0" stop-color="#59d0fc"/><stop offset="1" stop-color="#4b79ff"/></linearGradient><linearGradient id="i" x1=".5" x2=".5" y1="0" y2="1" gradientUnits="objectBoundingBox" spreadMethod="pad"><stop offset="0" stop-color="#59d0fc"/><stop offset="1" stop-color="#4b79ff"/></linearGradient><linearGradient id="j" x1=".5" x2=".5" y1="0" y2="1" gradientUnits="objectBoundingBox" spreadMethod="pad"><stop offset="0" stop-color="#59d0fc"/><stop offset="1" stop-color="#4b79ff"/></linearGradient><linearGradient id="k" x1=".5" x2=".5" y1="0" y2="1.21" gradientUnits="objectBoundingBox" spreadMethod="pad"><stop offset="0" stop-color="#59d0fc"/><stop offset="1" stop-color="#4b79ff"/></linearGradient><linearGradient id="l" x1=".83" x2=".334" y1=".545" y2=".342" gradientUnits="objectBoundingBox" spreadMethod="pad"><stop offset="0" stop-color="#59d0fc"/><stop offset="1" stop-color="#4b79ff"/></linearGradient></defs><path fill="url(#a)" fill-opacity=".078" fill-rule="evenodd" stroke="url(#b)" stroke-opacity=".778" d="m219.5 127 61.05 35.25v70.5L219.5 268l-61.05-35.25v-70.5Z"/><path fill="url(#c)" fill-opacity=".078" fill-rule="evenodd" stroke="url(#d)" stroke-opacity=".778" d="m143 162 61.49 35.25v70.5L143 303l-61.49-35.25v-70.5Z"/><path fill="url(#a)" fill-opacity=".078" fill-rule="evenodd" stroke="url(#b)" stroke-opacity=".778" d="m62.5 127 61.05 35.25v70.5L62.5 268 1.45 232.75v-70.5Z"/><path fill="url(#a)" fill-opacity=".078" fill-rule="evenodd" stroke="url(#b)" stroke-opacity=".778" d="m62.5 47 61.05 35.25v70.5L62.5 188 1.45 152.75v-70.5Z"/><path fill="none" stroke="url(#e)" stroke-dasharray="8 8" stroke-linecap="round" stroke-opacity=".273" stroke-width="2" d="m158 162 61 35.33V268M82 197l61 35.33V303"/><path fill="none" stroke="url(#f)" stroke-dasharray="8 8" stroke-linecap="round" stroke-opacity=".273" stroke-width="2" d="m1 162 62 35.33V268"/><path fill="none" stroke="url(#g)" stroke-dasharray="8 8" stroke-linecap="round" stroke-opacity=".273" stroke-width="2" d="m1 83 62 35v70"/><path fill="none" stroke="url(#h)" stroke-dasharray="8 8" stroke-linecap="round" stroke-opacity=".273" stroke-width="2" d="m219 197 61-35m-137 70 61-35m-141 0 61-35m-61-44 61-35"/><path fill="url(#c)" fill-opacity=".078" fill-rule="evenodd" stroke="url(#d)" stroke-opacity=".778" d="m143 1 61.49 35.25v70.5L143 142l-61.49-35.25v-70.5Z"/><path fill="url(#a)" fill-opacity=".078" fill-rule="evenodd" stroke="url(#b)" stroke-opacity=".778" d="m219.5 47 61.05 35.25v70.5L219.5 188l-61.05-35.25v-70.5Z"/><path fill="none" stroke="url(#e)" stroke-dasharray="8 8" stroke-linecap="round" stroke-opacity=".273" stroke-width="2" d="m82 36 61 35.33V142"/><path fill="none" stroke="url(#i)" stroke-dasharray="8 8" stroke-linecap="round" stroke-opacity=".273" stroke-width="2" d="m158 83 61 35v70"/><path fill="none" stroke="url(#j)" stroke-dasharray="8 8" stroke-linecap="round" stroke-opacity=".273" stroke-width="2" d="m143 72 61-36"/><path fill="none" stroke="url(#h)" stroke-dasharray="8 8" stroke-linecap="round" stroke-opacity=".273" stroke-width="2" d="m219 118 61-35"/><path fill="url(#c)" fill-rule="evenodd" d="m143 83 61.49 35.25v70.5L143 224l-61.49-35.25v-70.5Z"/><path fill="url(#k)" fill-rule="evenodd" d="m143 83 61 35-61 35-61-35Z"/><path fill="url(#l)" fill-rule="evenodd" d="M204 118v70.67L143 224v-70.67Z"/></svg>