<svg xmlns="http://www.w3.org/2000/svg" xmlns:xlink="http://www.w3.org/1999/xlink" width="1024" height="1024" node-id="1" sillyvg="true" template-height="1024" template-width="1024" version="1.1" viewBox="0 0 1024 1024"><defs node-id="170"><linearGradient id="SVGID_1_" x1="311.63" x2="682.213" y1="892.395" y2="892.395" gradientUnits="userSpaceOnUse" node-id="30" spreadMethod="pad"><stop offset="0" stop-color="#d7d8d5"/><stop offset="1" stop-color="#ededee"/></linearGradient><linearGradient id="SVGID_2_" x1="311.765" x2="682.212" y1="823.503" y2="823.503" gradientUnits="userSpaceOnUse" node-id="35" spreadMethod="pad"><stop offset="0" stop-color="#f1edec"/><stop offset="1" stop-color="#ececea"/></linearGradient><linearGradient id="SVGID_3_" x1="392.855" x2="586.024" y1="720.444" y2="720.444" gradientUnits="userSpaceOnUse" node-id="42" spreadMethod="pad"><stop offset="0" stop-color="#d7d8d5"/><stop offset="1" stop-color="#f6f6f9"/></linearGradient><linearGradient id="SVGID_4_" x1="433.894" x2="590.577" y1="732.829" y2="732.829" gradientUnits="userSpaceOnUse" node-id="47" spreadMethod="pad"><stop offset="0" stop-color="#fbfbfb"/><stop offset="1" stop-color="#fbfbfb"/></linearGradient><linearGradient id="SVGID_5_" x1="144.813" x2="749.738" y1="458.081" y2="458.081" gradientUnits="userSpaceOnUse" node-id="53" spreadMethod="pad"><stop offset="0" stop-color="#d7d8d5"/><stop offset="1" stop-color="#f6f6f9"/></linearGradient><linearGradient id="SVGID_6_" x1="224.595" x2="739.673" y1="472.49" y2="472.49" gradientUnits="userSpaceOnUse" node-id="59" spreadMethod="pad"><stop offset="0" stop-color="#8474f9"/><stop offset="1" stop-color="#a298fe"/></linearGradient><linearGradient id="SVGID_8_" x1="570.823" x2="605.748" y1="672.063" y2="672.063" gradientUnits="userSpaceOnUse" node-id="69" spreadMethod="pad"><stop offset="0" stop-color="#7365e0"/><stop offset="1" stop-color="#9180f2"/></linearGradient><linearGradient id="SVGID_10_" x1="570.823" x2="605.748" y1="672.063" y2="672.063" gradientUnits="userSpaceOnUse" node-id="76" spreadMethod="pad"><stop offset="0" stop-color="#7365e0"/><stop offset="1" stop-color="#9180f2"/></linearGradient><linearGradient id="SVGID_12_" x1="567.956" x2="604.653" y1="670.76" y2="670.76" gradientUnits="userSpaceOnUse" node-id="83" spreadMethod="pad"><stop offset="0" stop-color="#7365e0"/><stop offset="1" stop-color="#9180f2"/></linearGradient><linearGradient id="SVGID_14_" x1="567.956" x2="604.653" y1="670.76" y2="670.76" gradientUnits="userSpaceOnUse" node-id="90" spreadMethod="pad"><stop offset="0" stop-color="#7365e0"/><stop offset="1" stop-color="#9180f2"/></linearGradient><linearGradient id="SVGID_15_" x1="649.832" x2="723.193" y1="387.174" y2="387.174" gradientUnits="userSpaceOnUse" node-id="94" spreadMethod="pad"><stop offset="0" stop-color="#7365e0"/><stop offset="1" stop-color="#9180f2"/></linearGradient><linearGradient id="SVGID_16_" x1="497.37" x2="627.068" y1="523.93" y2="523.93" gradientUnits="userSpaceOnUse" node-id="98" spreadMethod="pad"><stop offset="0" stop-color="#7365e0"/><stop offset="1" stop-color="#9180f2"/></linearGradient><linearGradient id="SVGID_18_" x1="634.158" x2="671.665" y1="317.878" y2="317.878" gradientUnits="userSpaceOnUse" node-id="105" spreadMethod="pad"><stop offset="0" stop-color="#7365e0"/><stop offset="1" stop-color="#9180f2"/></linearGradient><linearGradient id="SVGID_20_" x1="634.158" x2="668.136" y1="317.354" y2="317.354" gradientUnits="userSpaceOnUse" node-id="112" spreadMethod="pad"><stop offset="0" stop-color="#7365e0"/><stop offset="1" stop-color="#9180f2"/></linearGradient><linearGradient id="SVGID_21_" x1="634.306" x2="669.068" y1="317.413" y2="317.413" gradientUnits="userSpaceOnUse" node-id="116" spreadMethod="pad"><stop offset="0" stop-color="#7365e0"/><stop offset="1" stop-color="#9180f2"/></linearGradient><linearGradient id="SVGID_22_" x1="635.238" x2="669.942" y1="317.568" y2="317.568" gradientUnits="userSpaceOnUse" node-id="120" spreadMethod="pad"><stop offset="0" stop-color="#7365e0"/><stop offset="1" stop-color="#9180f2"/></linearGradient><linearGradient id="SVGID_23_" x1="636.112" x2="670.777" y1="317.817" y2="317.817" gradientUnits="userSpaceOnUse" node-id="124" spreadMethod="pad"><stop offset="0" stop-color="#7365e0"/><stop offset="1" stop-color="#9180f2"/></linearGradient><linearGradient id="SVGID_24_" x1="636.947" x2="671.582" y1="318.161" y2="318.161" gradientUnits="userSpaceOnUse" node-id="128" spreadMethod="pad"><stop offset="0" stop-color="#7365e0"/><stop offset="1" stop-color="#9180f2"/></linearGradient><linearGradient id="SVGID_25_" x1="637.752" x2="671.665" y1="318.382" y2="318.382" gradientUnits="userSpaceOnUse" node-id="132" spreadMethod="pad"><stop offset="0" stop-color="#7365e0"/><stop offset="1" stop-color="#9180f2"/></linearGradient><linearGradient id="SVGID_26_" x1="424.437" x2="470.852" y1="691.21" y2="691.21" gradientUnits="userSpaceOnUse" node-id="136" spreadMethod="pad"><stop offset="0" stop-color="#7365e0"/><stop offset="1" stop-color="#9180f2"/></linearGradient><linearGradient id="SVGID_27_" x1="409.294" x2="733.378" y1="532.351" y2="532.351" gradientUnits="userSpaceOnUse" node-id="142" spreadMethod="pad"><stop offset="0" stop-color="#8474f9"/><stop offset="1" stop-color="#a298fe"/></linearGradient><linearGradient id="SVGID_28_" x1="528.141" x2="613.767" y1="531.97" y2="531.97" gradientUnits="userSpaceOnUse" node-id="147" spreadMethod="pad"><stop offset=".005" stop-color="#eff0f4"/><stop offset="1" stop-color="#feffff"/></linearGradient><linearGradient id="SVGID_29_" x1="375.464" x2="667.988" y1="488.243" y2="488.243" gradientUnits="userSpaceOnUse" node-id="151" spreadMethod="pad"><stop offset="0" stop-color="#7365e0"/><stop offset="1" stop-color="#9180f2"/></linearGradient><linearGradient id="SVGID_30_" x1="645.82" x2="861.671" y1="748.761" y2="748.761" gradientUnits="userSpaceOnUse" node-id="157" spreadMethod="pad"><stop offset="0" stop-color="#d7d8d5"/><stop offset="1" stop-color="#f6f6f9"/></linearGradient><clipPath id="SVGID_9_" node-id="73"><path fill="#000" fill-rule="nonzero" stroke="none" d="M 605.70 682.30 L 571.90 662.60 C 571.50 662.40 571.20 662.10 570.80 661.80 L 604.60 681.50 C 605.00 681.80 605.40 682.00 605.70 682.30 Z" node-id="317" target-height="20.5" target-width="34.9" target-x="570.8" target-y="661.8"/></clipPath><clipPath id="SVGID_13_" node-id="87"><path fill="#000" fill-rule="nonzero" stroke="none" d="M 568.00 660.00 L 601.80 679.70 C 602.90 680.40 603.90 681.00 604.70 681.60 L 570.90 661.90 C 570.10 661.30 569.10 660.70 568.00 660.00 Z" node-id="321" target-height="21.6" target-width="36.7" target-x="568" target-y="660"/></clipPath><clipPath id="SVGID_19_" node-id="109"><path fill="#000" fill-rule="nonzero" stroke="none" d="M 637.80 308.60 L 671.60 328.30 C 670.50 327.70 669.30 327.30 667.90 327.20 L 634.10 307.50 C 635.50 307.60 636.80 308.00 637.80 308.60 Z" node-id="325" target-height="20.8" target-width="37.5" target-x="634.1" target-y="307.5"/></clipPath></defs><path fill="#e5ad65" fill-rule="nonzero" stroke="none" d="M 853.50 860.60 L 858.40 860.90" node-id="330" target-height=".3" target-width="4.9" target-x="853.5" target-y="860.6"/><g node-id="475"><g node-id="481"><g node-id="486"><path fill="url(#SVGID_1_)" fill-rule="nonzero" stroke="none" d="M 682.20 806.50 C 682.20 807.20 682.10 808.00 681.80 808.70 C 681.80 808.80 681.80 808.90 681.70 808.90 C 681.50 809.60 681.10 810.20 680.70 810.90 C 680.60 811.00 680.50 811.10 680.50 811.30 C 680.00 811.90 679.50 812.60 678.80 813.20 C 678.40 813.60 677.80 814.00 677.30 814.30 C 676.90 814.60 676.50 814.90 676.00 815.20 L 483.20 927.20 C 481.90 927.90 480.50 928.50 479.00 929.00 C 478.50 929.20 477.90 929.30 477.40 929.50 C 476.70 929.70 476.00 929.90 475.30 930.00 C 474.40 930.20 473.60 930.30 472.70 930.40 C 472.50 930.40 472.30 930.50 472.10 930.50 C 470.90 930.60 469.70 930.70 468.50 930.70 C 468.30 930.70 468.10 930.70 467.90 930.70 C 466.70 930.70 465.50 930.60 464.40 930.50 C 464.20 930.50 464.00 930.50 463.90 930.40 C 462.70 930.30 461.60 930.10 460.50 929.80 C 460.30 929.80 460.10 929.70 459.90 929.70 C 458.90 929.40 457.90 929.10 456.90 928.80 C 456.70 928.70 456.50 928.70 456.40 928.60 C 455.30 928.20 454.20 927.60 453.10 927.10 L 318.20 849.20 C 314.00 846.80 311.90 843.60 311.90 840.40 L 311.80 887.90 C 311.80 891.10 313.90 894.30 318.10 896.70 L 453.00 974.60 C 454.00 975.20 455.00 975.60 456.10 976.10 C 456.20 976.10 456.20 976.10 456.30 976.20 C 456.50 976.30 456.60 976.30 456.80 976.40 C 457.40 976.60 458.00 976.90 458.70 977.00 C 459.00 977.10 459.40 977.20 459.80 977.30 C 460.00 977.40 460.20 977.40 460.40 977.40 C 460.60 977.40 460.80 977.50 461.00 977.50 C 461.70 977.60 462.40 977.80 463.10 977.90 C 463.40 977.90 463.60 978.00 463.90 978.00 C 464.10 978.00 464.30 978.00 464.40 978.10 C 464.70 978.10 464.90 978.20 465.20 978.20 C 465.90 978.30 466.60 978.30 467.30 978.30 C 467.50 978.30 467.70 978.30 468.00 978.30 C 468.20 978.30 468.40 978.30 468.60 978.30 C 468.90 978.30 469.20 978.30 469.60 978.30 C 470.40 978.30 471.20 978.20 472.00 978.10 C 472.10 978.10 472.20 978.10 472.30 978.10 C 472.50 978.10 472.70 978.00 472.90 978.00 C 473.50 977.90 474.10 977.90 474.70 977.70 C 475.00 977.70 475.20 977.60 475.50 977.50 C 476.20 977.40 476.90 977.20 477.60 977.00 C 478.00 976.90 478.40 976.80 478.70 976.70 C 478.90 976.60 479.00 976.50 479.20 976.50 C 480.70 976.00 482.10 975.40 483.40 974.70 L 676.20 862.60 C 676.30 862.50 676.40 862.50 676.50 862.40 C 676.90 862.20 677.20 861.90 677.60 861.60 C 678.10 861.20 678.70 860.90 679.10 860.50 C 679.10 860.50 679.20 860.40 679.20 860.40 C 679.70 859.90 680.10 859.50 680.50 859.00 C 680.60 858.90 680.60 858.80 680.70 858.70 C 680.80 858.60 680.90 858.50 680.90 858.30 C 681.00 858.10 681.20 857.90 681.30 857.70 C 681.50 857.30 681.70 856.90 681.90 856.50 C 681.90 856.40 681.90 856.40 682.00 856.30 C 682.00 856.20 682.00 856.10 682.10 856.10 C 682.20 855.80 682.30 855.60 682.30 855.30 C 682.40 854.90 682.40 854.50 682.40 854.10 C 682.40 854.00 682.40 854.00 682.40 853.90 L 682.40 853.90 L 682.20 806.50 Z" group-id="1,7,12" node-id="338" target-height="171.8" target-width="370.6" target-x="311.8" target-y="806.5"/><g node-id="495"><path fill="url(#SVGID_2_)" fill-rule="nonzero" stroke="none" d="M 675.90 797.70 C 684.30 802.50 684.30 810.40 676.00 815.20 L 483.20 927.20 C 474.90 932.00 461.40 932.00 453.00 927.20 L 318.10 849.30 C 309.70 844.50 309.70 836.60 318.00 831.80 L 510.80 719.70 C 519.10 714.90 532.60 714.90 541.00 719.70 L 675.90 797.70 Z" group-id="1,7,12,21" node-id="342" target-height="217.1" target-width="374.6" target-x="309.7" target-y="714.9"/></g></g></g></g><g node-id="476"><g node-id="482"><g node-id="487"><path fill="url(#SVGID_3_)" fill-rule="nonzero" stroke="none" d="M 545.00 554.70 C 545.00 554.70 544.90 554.70 545.00 554.70 C 544.70 554.50 544.50 554.40 544.20 554.30 C 544.00 554.20 543.70 554.10 543.50 554.00 C 543.30 554.00 543.20 553.90 543.00 553.90 C 543.00 553.90 542.90 553.90 542.90 553.90 C 542.80 553.90 542.80 553.90 542.70 553.90 C 542.40 553.90 542.20 553.80 541.90 553.80 C 541.60 553.80 541.30 553.80 541.00 553.80 C 540.90 553.80 540.80 553.80 540.70 553.80 C 540.60 553.80 540.60 553.80 540.50 553.80 C 540.30 553.80 540.10 553.80 540.00 553.90 C 539.60 554.00 539.20 554.00 538.80 554.20 C 538.60 554.20 538.50 554.30 538.30 554.40 C 538.10 554.40 538.00 554.50 537.80 554.60 C 537.60 554.70 537.40 554.70 537.20 554.80 C 536.60 555.10 536.00 555.40 535.30 555.70 L 406.40 630.00 C 405.50 630.50 404.70 631.10 403.80 631.80 C 403.50 632.00 403.30 632.30 403.00 632.50 C 402.60 632.80 402.20 633.20 401.80 633.50 C 401.60 633.70 401.40 633.90 401.30 634.10 C 401.10 634.30 401.00 634.40 400.90 634.60 C 400.70 634.80 400.60 635.00 400.40 635.10 C 400.00 635.50 399.70 636.00 399.30 636.40 C 399.20 636.60 399.00 636.70 398.90 636.90 C 398.80 637.00 398.80 637.10 398.70 637.20 C 398.60 637.40 398.50 637.50 398.40 637.70 C 398.10 638.10 397.90 638.50 397.60 638.90 C 397.40 639.30 397.10 639.70 396.90 640.10 C 396.90 640.10 396.90 640.20 396.80 640.20 C 396.80 640.20 396.80 640.30 396.70 640.30 C 396.50 640.60 396.30 640.90 396.20 641.20 C 396.00 641.60 395.80 642.00 395.60 642.40 C 395.40 642.80 395.30 643.10 395.10 643.50 C 395.10 643.50 395.10 643.50 395.10 643.60 C 395.10 643.60 395.10 643.60 395.10 643.70 C 394.90 644.10 394.80 644.50 394.60 644.90 C 394.40 645.30 394.30 645.80 394.10 646.20 C 394.00 646.40 394.00 646.60 393.90 646.80 C 393.90 646.90 393.80 647.00 393.80 647.10 C 393.80 647.30 393.70 647.40 393.70 647.60 C 393.60 648.10 393.40 648.60 393.30 649.20 C 393.20 649.50 393.20 649.80 393.10 650.10 C 393.10 650.30 393.00 650.40 393.00 650.60 C 393.00 650.80 392.90 650.90 392.90 651.10 C 392.80 652.00 392.70 652.90 392.70 653.70 L 393.30 854.70 C 393.30 859.00 394.80 862.00 397.30 863.40 L 438.30 887.20 C 435.90 885.80 434.30 882.80 434.30 878.50 L 433.70 677.50 C 433.70 676.50 433.80 675.40 434.00 674.40 C 434.00 674.20 434.10 674.10 434.10 673.90 C 434.30 672.90 434.50 671.90 434.80 670.90 C 434.80 670.80 434.90 670.70 434.90 670.60 C 435.20 669.50 435.60 668.40 436.10 667.40 C 436.10 667.40 436.10 667.40 436.10 667.30 C 436.60 666.20 437.10 665.20 437.70 664.10 C 437.70 664.10 437.70 664.00 437.80 664.00 C 438.40 663.00 439.00 662.00 439.70 661.10 C 439.80 661.00 439.80 660.90 439.90 660.80 C 440.50 660.00 441.20 659.20 441.90 658.40 C 442.00 658.20 442.20 658.10 442.30 657.90 C 442.90 657.30 443.40 656.80 444.00 656.30 C 444.30 656.10 444.50 655.80 444.80 655.60 C 445.60 654.90 446.50 654.30 447.40 653.80 L 576.30 579.40 C 577.20 578.90 578.00 578.50 578.80 578.30 C 579.00 578.20 579.10 578.20 579.30 578.10 C 580.10 577.90 580.80 577.70 581.50 577.60 C 581.60 577.60 581.60 577.60 581.70 577.60 C 582.50 577.50 583.20 577.60 583.90 577.70 C 583.90 577.70 584.00 577.70 584.00 577.70 C 584.70 577.90 585.40 578.10 586.00 578.40 L 545.00 554.70 Z" group-id="2,8,13" node-id="354" target-height="333.4" target-width="193.3" target-x="392.7" target-y="553.8"/><g node-id="496"><path fill="url(#SVGID_4_)" fill-rule="nonzero" stroke="none" d="M 576.40 579.50 C 583.90 575.20 590.00 578.70 590.10 587.30 L 590.70 788.30 C 590.70 796.90 584.60 807.50 577.10 811.80 L 448.20 886.20 C 440.70 890.50 434.60 887.00 434.50 878.40 L 433.90 677.40 C 433.90 668.80 440.00 658.20 447.50 653.90 L 576.40 579.50 Z" group-id="2,8,13,22" node-id="358" target-height="315.3" target-width="156.8" target-x="433.9" target-y="575.2"/></g></g></g></g><g node-id="477"><g node-id="483"><path fill="url(#SVGID_5_)" fill-rule="nonzero" stroke="none" d="M 729.00 79.30 C 729.90 79.00 730.80 78.60 731.70 78.40 C 732.30 78.20 732.80 78.10 733.40 77.90 C 733.90 77.80 734.40 77.70 734.90 77.60 C 735.60 77.50 736.30 77.40 736.90 77.30 C 737.30 77.30 737.70 77.20 738.00 77.20 C 738.90 77.10 739.70 77.10 740.50 77.20 C 740.70 77.20 740.80 77.20 741.00 77.20 C 742.00 77.30 742.90 77.40 743.80 77.60 C 744.00 77.60 744.30 77.70 744.50 77.80 C 745.20 78.00 745.90 78.20 746.60 78.40 C 746.80 78.50 747.00 78.50 747.20 78.60 C 748.10 78.90 748.90 79.30 749.70 79.80 L 708.70 56.00 C 708.60 56.00 708.60 55.90 708.50 55.90 C 707.90 55.60 707.20 55.20 706.60 55.00 C 706.50 55.00 706.40 54.90 706.20 54.90 C 706.00 54.80 705.80 54.70 705.50 54.70 C 705.20 54.60 704.80 54.40 704.50 54.30 C 704.20 54.20 703.80 54.10 703.40 54.10 C 703.20 54.00 702.90 54.00 702.70 53.90 C 702.60 53.90 702.40 53.80 702.30 53.80 C 701.60 53.70 700.80 53.60 700.00 53.50 C 700.00 53.50 699.90 53.50 699.90 53.50 C 699.70 53.50 699.60 53.50 699.40 53.50 C 698.80 53.50 698.10 53.50 697.50 53.50 C 697.30 53.50 697.10 53.50 696.90 53.60 C 696.50 53.60 696.10 53.70 695.80 53.70 C 695.40 53.70 695.10 53.80 694.70 53.80 C 694.40 53.80 694.10 53.90 693.80 54.00 C 693.30 54.10 692.80 54.20 692.30 54.30 C 692.00 54.40 691.70 54.40 691.40 54.50 C 691.10 54.60 690.80 54.70 690.60 54.80 C 689.70 55.10 688.80 55.40 687.90 55.70 C 687.60 55.80 687.30 55.90 686.90 56.00 C 686.70 56.10 686.50 56.20 686.40 56.30 C 684.90 57.00 683.30 57.70 681.70 58.60 L 182.60 346.50 C 181.40 347.20 180.20 348.00 179.00 348.80 C 178.60 349.10 178.20 349.30 177.90 349.60 C 177.10 350.20 176.30 350.80 175.50 351.40 C 175.10 351.70 174.60 352.10 174.20 352.50 C 173.50 353.10 172.80 353.70 172.10 354.40 C 171.70 354.80 171.30 355.20 170.80 355.60 C 170.50 355.80 170.30 356.10 170.00 356.30 C 169.70 356.60 169.50 356.90 169.20 357.20 C 168.30 358.10 167.50 359.00 166.70 359.90 C 166.40 360.20 166.20 360.40 165.90 360.70 C 165.70 361.00 165.50 361.20 165.20 361.50 C 164.70 362.10 164.20 362.70 163.70 363.30 C 163.40 363.70 163.10 364.00 162.80 364.40 C 162.50 364.70 162.30 365.10 162.00 365.50 C 161.60 366.00 161.30 366.50 160.90 366.90 C 160.70 367.20 160.40 367.50 160.20 367.90 C 159.80 368.50 159.40 369.10 159.00 369.70 C 158.80 370.10 158.50 370.40 158.30 370.80 C 158.20 370.90 158.10 371.10 158.00 371.20 C 157.30 372.30 156.70 373.30 156.00 374.40 C 156.00 374.50 155.90 374.60 155.90 374.60 C 155.80 374.80 155.60 375.10 155.50 375.30 C 155.10 376.10 154.60 376.80 154.20 377.60 C 154.00 378.00 153.80 378.30 153.60 378.70 C 153.40 379.10 153.20 379.50 153.00 379.80 C 152.80 380.10 152.70 380.50 152.50 380.80 C 152.10 381.70 151.70 382.50 151.30 383.40 C 151.20 383.60 151.10 383.80 151.00 384.00 C 151.00 384.10 151.00 384.10 150.90 384.20 C 150.40 385.30 149.90 386.50 149.50 387.60 C 149.40 387.80 149.40 388.00 149.30 388.20 C 149.10 388.60 149.00 389.00 148.90 389.40 C 148.70 390.00 148.50 390.60 148.30 391.20 C 148.20 391.60 148.00 392.10 147.90 392.50 C 147.70 393.00 147.60 393.50 147.40 394.10 C 147.30 394.40 147.20 394.80 147.10 395.10 C 146.90 395.70 146.80 396.20 146.70 396.80 C 146.50 397.40 146.40 398.10 146.20 398.70 C 146.10 398.90 146.10 399.20 146.00 399.40 C 145.90 399.90 145.80 400.30 145.80 400.80 C 145.60 401.80 145.40 402.80 145.30 403.80 C 145.30 404.10 145.20 404.40 145.20 404.70 C 145.20 405.00 145.20 405.20 145.10 405.50 C 144.80 407.70 144.70 409.90 144.70 412.10 L 145.80 814.90 C 145.80 826.80 150.10 835.20 156.90 839.20 L 197.90 863.00 C 191.10 859.00 186.80 850.60 186.80 838.70 L 185.70 435.90 C 185.70 433.70 185.90 431.50 186.10 429.30 C 186.20 428.80 186.20 428.20 186.30 427.70 C 186.40 426.70 186.60 425.70 186.80 424.70 C 186.90 424.00 187.10 423.30 187.20 422.60 C 187.30 422.00 187.50 421.30 187.70 420.70 C 187.90 419.80 188.20 418.90 188.40 418.00 C 188.60 417.50 188.70 417.00 188.90 416.40 C 189.20 415.40 189.60 414.40 189.90 413.30 C 190.00 412.90 190.20 412.50 190.30 412.10 C 190.80 410.70 191.40 409.30 192.00 407.90 C 192.10 407.70 192.20 407.50 192.20 407.40 C 192.70 406.20 193.30 405.00 193.90 403.80 C 194.10 403.40 194.30 403.00 194.50 402.60 C 195.10 401.50 195.70 400.30 196.30 399.20 C 196.40 399.00 196.60 398.70 196.70 398.50 C 197.50 397.20 198.30 395.90 199.10 394.60 C 199.30 394.20 199.60 393.90 199.80 393.50 C 200.40 392.60 201.00 391.70 201.70 390.80 C 202.10 390.30 202.40 389.80 202.80 389.30 C 203.40 388.60 203.90 387.80 204.50 387.10 C 205.00 386.50 205.50 385.90 206.00 385.30 C 206.50 384.70 207.00 384.20 207.50 383.60 C 208.30 382.70 209.20 381.80 210.00 380.90 C 210.50 380.40 211.10 379.80 211.60 379.30 C 212.00 378.90 212.40 378.50 212.90 378.10 C 213.60 377.50 214.30 376.80 215.10 376.20 C 215.50 375.80 215.90 375.50 216.40 375.10 C 217.20 374.50 218.00 373.90 218.80 373.30 C 219.20 373.00 219.50 372.70 219.90 372.50 C 221.10 371.70 222.30 370.90 223.50 370.20 L 722.80 82.20 C 724.40 81.30 726.00 80.50 727.50 79.90 C 728.00 79.60 728.50 79.50 729.00 79.30 Z" group-id="3,9" node-id="368" target-height="809.5" target-width="605" target-x="144.7" target-y="53.5"/><g node-id="488"><path fill="#fdfdfd" fill-rule="nonzero" stroke="none" d="M 722.80 82.20 C 743.60 70.20 760.80 79.90 760.80 103.90 L 761.90 506.70 C 762.00 530.70 745.00 560.20 724.10 572.20 L 225.00 860.40 C 204.20 872.40 187.00 862.70 187.00 838.70 L 185.90 435.90 C 185.80 411.90 202.80 382.40 223.70 370.40 L 722.80 82.20 Z" group-id="3,9,14" node-id="372" target-height="802.2" target-width="576.2" target-x="185.8" target-y="70.2"/></g></g></g><path fill="url(#SVGID_6_)" fill-rule="nonzero" stroke="none" d="M 738.70 160.20 C 738.60 140.70 724.70 132.70 707.70 142.50 L 662.20 168.70 C 661.90 168.80 661.70 168.90 661.40 169.10 L 255.40 403.70 C 238.40 413.50 224.60 437.50 224.60 457.00 L 225.50 784.80 C 225.60 804.30 239.50 812.30 256.50 802.50 L 302.00 776.30 C 302.30 776.20 302.50 776.10 302.80 775.90 L 709.00 541.40 C 726.00 531.60 739.80 507.60 739.80 488.10 L 738.70 160.20 Z" node-id="377" target-height="679.6" target-width="515.2" target-x="224.6" target-y="132.7"/><path fill="#fff" fill-opacity=".36" fill-rule="nonzero" stroke="none" d="M 775.10 183.70 C 775.00 164.20 761.10 156.20 744.10 166.00 L 698.60 192.20 C 698.30 192.30 698.10 192.40 697.80 192.60 L 291.70 427.20 C 274.70 437.00 260.90 461.00 260.90 480.50 L 261.80 808.30 C 261.90 827.80 275.80 835.80 292.80 826.00 L 338.30 799.80 C 338.60 799.70 338.80 799.60 339.10 799.40 L 745.30 564.90 C 762.30 555.10 776.10 531.10 776.10 511.60 L 775.10 183.70 Z" group-id="4" node-id="381" target-height="679.6" target-width="515.2" target-x="260.9" target-y="156.2"/><path fill="url(#SVGID_8_)" fill-rule="nonzero" stroke="none" d="M 605.70 682.30 L 571.90 662.60 C 571.50 662.40 571.20 662.10 570.80 661.80 L 604.60 681.50 C 605.00 681.80 605.40 682.00 605.70 682.30 Z" group-id="5,10,15,23" node-id="392" target-height="20.5" target-width="34.9" target-x="570.8" target-y="661.8"/><g clip-path="url(#SVGID_9_)" group-id="5,10,15,24" node-id="395"><path fill="url(#SVGID_10_)" fill-rule="nonzero" stroke="none" d="M 605.70 682.30 L 571.90 662.60 C 571.50 662.40 571.20 662.10 570.80 661.80 L 604.60 681.50 C 605.00 681.80 605.40 682.00 605.70 682.30" group-id="5,10,15,24" node-id="397" target-height="20.5" target-width="34.9" target-x="570.8" target-y="661.8"/></g><path fill="url(#SVGID_12_)" fill-rule="nonzero" stroke="none" d="M 568.00 660.00 L 601.80 679.70 C 602.90 680.40 603.90 681.00 604.70 681.60 L 570.90 661.90 C 570.10 661.30 569.10 660.70 568.00 660.00 Z" group-id="5,10,16,25" node-id="405" target-height="21.6" target-width="36.7" target-x="568" target-y="660"/><g clip-path="url(#SVGID_13_)" group-id="5,10,16,26" node-id="408"><path fill="url(#SVGID_14_)" fill-rule="nonzero" stroke="none" d="M 604.70 681.50 L 570.90 661.80 C 570.10 661.20 569.20 660.60 568.00 659.90 L 601.80 679.60 C 602.90 680.30 603.90 681.00 604.70 681.50" group-id="5,10,16,26" node-id="410" target-height="21.6" target-width="36.7" target-x="568" target-y="659.9"/></g><path fill="url(#SVGID_15_)" fill-rule="nonzero" stroke="none" d="M 689.40 374.40 C 689.30 374.40 689.30 374.40 689.40 374.40 C 689.10 374.20 688.80 374.10 688.50 374.00 C 688.20 373.90 688.00 373.80 687.70 373.70 C 687.60 373.70 687.60 373.70 687.50 373.70 C 687.50 373.70 687.40 373.70 687.40 373.70 C 687.30 373.70 687.10 373.60 687.00 373.60 C 686.70 373.60 686.50 373.50 686.20 373.50 C 685.90 373.50 685.70 373.50 685.40 373.50 C 685.40 373.50 685.40 373.50 685.40 373.50 C 685.40 373.50 685.40 373.50 685.40 373.50 C 685.10 373.50 684.80 373.50 684.50 373.60 C 684.20 373.60 683.90 373.70 683.50 373.80 C 683.40 373.80 683.30 373.90 683.30 373.90 C 683.20 373.90 683.10 374.00 683.00 374.00 C 682.80 374.10 682.50 374.10 682.30 374.20 C 681.80 374.40 681.40 374.60 680.90 374.90 L 679.40 375.70 C 677.70 376.70 676.00 377.50 674.30 378.20 C 673.80 378.40 673.20 378.60 672.70 378.80 C 671.70 379.20 670.80 379.50 669.80 379.80 C 669.20 380.00 668.50 380.20 667.90 380.30 C 667.30 380.40 666.80 380.60 666.20 380.70 C 665.40 380.80 664.70 381.00 664.00 381.00 C 663.60 381.00 663.20 381.10 662.80 381.10 C 661.80 381.20 660.80 381.20 659.90 381.10 C 659.80 381.10 659.70 381.10 659.60 381.10 C 658.50 381.00 657.50 380.90 656.50 380.70 C 656.20 380.60 656.00 380.60 655.70 380.50 C 654.90 380.30 654.20 380.10 653.40 379.80 C 653.20 379.70 652.90 379.60 652.70 379.50 C 651.70 379.10 650.80 378.70 649.90 378.20 L 683.70 397.90 C 683.80 397.90 683.90 398.00 683.90 398.00 C 684.60 398.40 685.30 398.70 686.10 399.10 C 686.20 399.20 686.40 399.20 686.50 399.20 C 686.70 399.30 687.00 399.40 687.20 399.50 C 687.60 399.60 688.00 399.80 688.40 399.90 C 688.80 400.00 689.10 400.10 689.50 400.20 C 689.80 400.30 690.00 400.30 690.30 400.40 C 690.50 400.40 690.60 400.50 690.80 400.50 C 691.60 400.60 692.50 400.70 693.40 400.80 C 693.40 400.80 693.40 400.80 693.50 400.80 C 693.60 400.80 693.70 400.80 693.80 400.80 C 694.60 400.80 695.40 400.90 696.20 400.80 C 696.40 400.80 696.60 400.80 696.80 400.70 C 697.20 400.70 697.60 400.60 698.00 400.60 C 698.40 400.60 698.90 400.50 699.30 400.50 C 699.60 400.50 699.90 400.40 700.20 400.30 C 700.80 400.20 701.30 400.10 701.90 399.90 C 702.20 399.80 702.60 399.80 702.90 399.70 C 703.20 399.60 703.50 399.50 703.80 399.40 C 704.80 399.10 705.70 398.80 706.70 398.40 C 707.10 398.30 707.40 398.20 707.80 398.00 C 708.00 397.90 708.20 397.80 708.40 397.70 C 710.10 397.00 711.80 396.20 713.50 395.20 L 715.00 394.40 C 715.70 394.00 716.40 393.70 717.10 393.50 C 717.20 393.50 717.30 393.40 717.40 393.40 C 718.10 393.20 718.80 393.10 719.50 393.00 C 719.50 393.00 719.50 393.00 719.50 393.00 C 720.20 393.00 720.80 393.00 721.50 393.20 C 721.50 393.20 721.60 393.20 721.60 393.20 C 722.20 393.40 722.90 393.60 723.40 394.00 L 689.40 374.40 Z" group-id="5,10" node-id="414" target-height="27.4" target-width="73.5" target-x="649.9" target-y="373.5"/><path fill="url(#SVGID_16_)" fill-rule="nonzero" stroke="none" d="M 626.30 510.50 C 626.40 509.60 626.50 508.60 626.60 507.70 C 626.70 507.00 626.70 506.40 626.80 505.70 C 627.00 503.60 627.10 501.50 627.00 499.50 C 626.90 481.80 620.70 469.30 610.60 463.50 L 576.80 443.80 C 586.90 449.70 593.10 462.10 593.20 479.80 C 593.20 481.80 593.10 483.90 593.00 486.00 C 593.00 486.70 592.90 487.30 592.80 488.00 C 592.70 489.30 592.50 490.70 592.30 492.00 C 592.10 493.50 591.80 495.00 591.50 496.50 C 591.30 497.50 591.10 498.50 590.90 499.60 C 590.70 500.60 590.40 501.50 590.20 502.50 C 589.90 503.80 589.50 505.20 589.10 506.50 C 588.90 507.30 588.60 508.00 588.40 508.80 C 587.90 510.30 587.40 511.80 586.90 513.30 C 586.70 513.90 586.50 514.50 586.20 515.20 C 585.40 517.30 584.60 519.30 583.70 521.40 C 583.60 521.60 583.50 521.90 583.40 522.10 C 582.60 523.90 581.70 525.80 580.80 527.60 C 580.50 528.20 580.20 528.70 579.90 529.30 C 579.00 531.00 578.10 532.70 577.20 534.40 C 577.00 534.70 576.80 535.00 576.70 535.40 C 575.60 537.30 574.40 539.30 573.20 541.10 C 572.80 541.60 572.50 542.20 572.10 542.70 C 571.20 544.10 570.30 545.40 569.30 546.70 C 568.80 547.40 568.30 548.10 567.70 548.80 C 566.90 549.90 566.00 551.00 565.20 552.00 C 564.50 552.90 563.80 553.80 563.00 554.70 C 562.30 555.50 561.60 556.30 560.90 557.10 C 559.70 558.50 558.40 559.80 557.20 561.10 C 556.40 561.90 555.60 562.70 554.80 563.50 C 554.20 564.10 553.50 564.70 552.90 565.30 C 551.90 566.30 550.80 567.20 549.70 568.10 C 549.10 568.60 548.40 569.20 547.80 569.70 C 546.60 570.60 545.50 571.50 544.30 572.40 C 543.70 572.80 543.20 573.20 542.60 573.60 C 540.80 574.80 539.10 576.00 537.20 577.00 C 535.50 578.00 533.70 578.90 532.10 579.70 C 531.70 579.90 531.20 580.10 530.80 580.30 C 529.90 580.70 528.90 581.10 528.00 581.40 C 526.70 581.90 525.30 582.40 524.00 582.80 C 523.20 583.10 522.30 583.30 521.50 583.50 C 520.70 583.70 520.00 583.80 519.20 584.00 C 518.20 584.20 517.20 584.30 516.20 584.50 C 515.60 584.60 515.10 584.60 514.50 584.70 C 513.30 584.80 512.10 584.80 510.90 584.80 C 510.60 584.80 510.30 584.80 510.10 584.80 C 508.70 584.70 507.30 584.50 506.00 584.30 C 505.70 584.20 505.30 584.10 505.00 584.10 C 503.90 583.90 502.90 583.60 501.90 583.20 C 501.60 583.10 501.30 583.00 501.00 582.90 C 499.70 582.40 498.50 581.80 497.30 581.20 L 531.10 600.90 C 531.20 601.00 531.30 601.00 531.40 601.10 C 532.30 601.60 533.20 602.10 534.20 602.50 C 534.40 602.60 534.60 602.60 534.80 602.70 C 535.10 602.80 535.40 602.90 535.70 603.00 C 536.20 603.20 536.70 603.40 537.20 603.50 C 537.70 603.70 538.30 603.80 538.80 603.90 C 539.10 604.00 539.50 604.10 539.80 604.10 C 540.00 604.10 540.10 604.20 540.30 604.20 C 541.40 604.40 542.50 604.50 543.70 604.60 C 543.80 604.60 543.90 604.60 543.90 604.60 C 544.20 604.60 544.50 604.60 544.70 604.60 C 545.60 604.60 546.50 604.70 547.40 604.60 C 547.70 604.60 548.00 604.50 548.30 604.50 C 548.90 604.50 549.40 604.40 550.00 604.30 C 550.50 604.20 551.00 604.20 551.60 604.10 C 552.10 604.00 552.50 603.90 553.00 603.80 C 553.80 603.70 554.50 603.50 555.30 603.30 C 555.70 603.20 556.10 603.20 556.50 603.00 C 556.90 602.90 557.30 602.70 557.80 602.60 C 559.10 602.20 560.40 601.80 561.80 601.20 C 562.30 601.00 562.70 600.90 563.20 600.70 C 563.70 600.50 564.10 600.30 564.60 600.10 C 565.00 599.90 565.50 599.70 565.90 599.50 C 567.60 598.70 569.30 597.80 571.00 596.80 C 572.80 595.80 574.60 594.60 576.40 593.40 C 577.00 593.00 577.50 592.60 578.10 592.20 C 579.30 591.30 580.50 590.50 581.60 589.50 C 582.20 589.00 582.90 588.40 583.50 587.90 C 584.60 587.00 585.60 586.10 586.70 585.10 C 587.30 584.50 588.00 583.90 588.60 583.30 C 589.00 582.90 589.40 582.60 589.80 582.20 C 590.20 581.80 590.60 581.30 591.00 580.90 C 592.30 579.60 593.50 578.30 594.70 576.90 C 595.10 576.50 595.50 576.10 595.90 575.60 C 596.20 575.20 596.50 574.80 596.80 574.50 C 597.50 573.60 598.30 572.70 599.00 571.80 C 599.50 571.20 600.00 570.70 600.40 570.10 C 600.80 569.60 601.10 569.10 601.50 568.60 C 602.00 567.90 602.50 567.20 603.10 566.50 C 603.50 566.00 603.80 565.50 604.20 565.00 C 604.80 564.20 605.30 563.30 605.90 562.50 C 606.30 562.00 606.60 561.40 607.00 560.90 C 607.10 560.70 607.30 560.40 607.50 560.20 C 608.50 558.60 609.50 557.10 610.40 555.50 C 610.50 555.40 610.50 555.30 610.60 555.20 C 610.80 554.90 611.00 554.60 611.10 554.20 C 611.70 553.10 612.40 551.90 613.00 550.80 C 613.30 550.30 613.50 549.70 613.80 549.20 C 614.10 548.60 614.40 548.10 614.70 547.50 C 614.90 547.00 615.20 546.50 615.40 546.00 C 616.00 544.70 616.60 543.30 617.20 542.00 C 617.30 541.80 617.40 541.50 617.50 541.30 C 617.50 541.20 617.60 541.20 617.60 541.10 C 618.30 539.40 619.00 537.80 619.70 536.10 C 619.80 535.80 619.90 535.50 620.00 535.20 C 620.20 534.60 620.40 534.00 620.70 533.30 C 621.00 532.50 621.30 531.60 621.60 530.80 C 621.80 530.10 622.00 529.50 622.20 528.80 C 622.40 528.00 622.70 527.30 622.90 526.50 C 623.00 526.00 623.20 525.60 623.30 525.10 C 623.50 524.20 623.70 523.40 623.90 522.50 C 624.10 521.50 624.40 520.60 624.60 519.60 C 624.70 519.30 624.80 518.90 624.80 518.60 C 624.90 517.90 625.00 517.20 625.20 516.50 C 625.50 515.00 625.80 513.50 626.00 512.00 C 626.20 511.30 626.30 510.90 626.30 510.50 Z" group-id="5,10" node-id="416" target-height="160.9" target-width="129.8" target-x="497.3" target-y="443.8"/><path fill="url(#SVGID_18_)" fill-rule="nonzero" stroke="none" d="M 637.80 308.60 L 671.60 328.30 C 670.50 327.70 669.30 327.30 667.90 327.20 L 634.10 307.50 C 635.50 307.60 636.80 308.00 637.80 308.60 Z" group-id="5,10,17,27" node-id="422" target-height="20.8" target-width="37.5" target-x="634.1" target-y="307.5"/><g clip-path="url(#SVGID_19_)" group-id="5,10,17,28" node-id="425"><path fill="url(#SVGID_20_)" fill-rule="nonzero" stroke="none" d="M 668.00 327.20 L 634.20 307.50 C 634.20 307.50 634.30 307.50 634.30 307.50 L 668.10 327.20 C 668.10 327.20 668.00 327.20 668.00 327.20" group-id="5,10,17,28" node-id="427" target-height="19.7" target-width="33.9" target-x="634.2" target-y="307.5"/><path fill="url(#SVGID_21_)" fill-rule="nonzero" stroke="none" d="M 668.10 327.20 L 634.30 307.50 C 634.60 307.50 634.90 307.60 635.20 307.60 L 669.00 327.30 C 668.80 327.20 668.50 327.20 668.10 327.20" group-id="5,10,17,28" node-id="429" target-height="19.8" target-width="34.7" target-x="634.3" target-y="307.5"/><path fill="url(#SVGID_22_)" fill-rule="nonzero" stroke="none" d="M 669.10 327.30 L 635.30 307.60 C 635.60 307.70 635.90 307.70 636.20 307.80 L 670.00 327.50 C 669.70 327.40 669.40 327.30 669.10 327.30" group-id="5,10,17,28" node-id="431" target-height="19.9" target-width="34.7" target-x="635.3" target-y="307.6"/><path fill="url(#SVGID_23_)" fill-rule="nonzero" stroke="none" d="M 669.90 327.50 L 636.10 307.80 C 636.40 307.90 636.70 308.00 636.90 308.10 L 670.70 327.80 C 670.50 327.70 670.20 327.60 669.90 327.50" group-id="5,10,17,28" node-id="433" target-height="20" target-width="34.6" target-x="636.1" target-y="307.8"/><path fill="url(#SVGID_24_)" fill-rule="nonzero" stroke="none" d="M 670.80 327.80 L 637.00 308.10 C 637.30 308.20 637.50 308.30 637.80 308.50 L 671.60 328.20 C 671.30 328.00 671.10 327.90 670.80 327.80" group-id="5,10,17,28" node-id="435" target-height="20.1" target-width="34.6" target-x="637" target-y="308.1"/><path fill="url(#SVGID_25_)" fill-rule="nonzero" stroke="none" d="M 671.60 328.20 L 637.80 308.50 C 637.80 308.50 637.90 308.50 637.90 308.50 L 671.60 328.20 C 671.60 328.20 671.60 328.20 671.60 328.20" group-id="5,10,17,28" node-id="437" target-height="19.7" target-width="33.8" target-x="637.8" target-y="308.5"/></g><path fill="url(#SVGID_26_)" fill-rule="nonzero" stroke="none" d="M 466.00 730.10 C 466.00 730.00 465.90 729.90 465.90 729.80 C 465.70 729.20 465.50 728.50 465.40 727.80 C 465.40 727.60 465.30 727.30 465.30 727.10 C 465.20 726.50 465.20 725.80 465.20 725.10 C 465.20 724.90 465.20 724.70 465.20 724.40 C 465.20 723.50 465.30 722.60 465.40 721.60 C 465.40 721.40 465.50 721.30 465.50 721.10 C 465.60 720.20 465.80 719.30 466.10 718.40 C 466.10 718.30 466.10 718.30 466.20 718.20 C 466.50 717.10 466.90 716.00 467.30 714.90 C 467.30 714.80 467.40 714.60 467.50 714.30 C 467.50 714.20 467.60 714.10 467.60 713.90 C 467.60 713.70 467.70 713.60 467.70 713.40 C 467.80 713.20 467.80 713.00 467.90 712.80 C 467.90 712.70 468.00 712.60 468.00 712.40 C 468.20 711.80 468.30 711.10 468.50 710.40 C 468.50 710.20 468.60 710.10 468.60 709.90 C 468.80 709.20 468.90 708.50 469.10 707.80 C 469.10 707.60 469.20 707.40 469.20 707.20 C 469.20 707.10 469.30 706.90 469.30 706.80 C 469.40 706.40 469.50 706.00 469.50 705.60 C 469.60 705.00 469.70 704.50 469.80 703.80 C 469.90 703.30 470.00 702.70 470.10 702.20 C 470.20 701.60 470.30 701.00 470.40 700.30 C 470.40 700.20 470.40 700.00 470.50 699.90 C 470.50 699.80 470.50 699.60 470.50 699.50 C 470.70 697.60 470.90 695.70 470.90 694.00 C 470.90 680.40 466.00 670.90 458.30 666.40 L 424.50 646.70 C 432.20 651.20 437.00 660.70 437.10 674.30 C 437.10 676.00 436.90 677.90 436.70 679.80 C 436.70 680.10 436.60 680.40 436.60 680.70 C 436.50 681.30 436.40 681.90 436.30 682.50 C 436.20 683.00 436.10 683.60 436.00 684.10 C 435.90 684.70 435.80 685.30 435.70 685.90 C 435.60 686.40 435.50 687.00 435.40 687.50 C 435.40 687.70 435.30 687.90 435.30 688.10 C 435.10 688.80 435.00 689.50 434.80 690.20 C 434.80 690.40 434.70 690.50 434.70 690.70 C 434.50 691.40 434.30 692.10 434.20 692.70 C 434.20 692.80 434.10 692.90 434.10 693.10 C 434.00 693.60 433.90 694.00 433.80 694.30 C 433.80 694.40 433.70 694.50 433.70 694.60 C 433.60 694.90 433.50 695.10 433.50 695.20 C 433.50 695.30 433.40 695.40 433.40 695.60 C 433.20 696.00 433.10 696.50 432.90 696.90 C 432.70 697.40 432.60 697.90 432.50 698.40 C 432.50 698.40 432.50 698.50 432.50 698.50 C 432.50 698.60 432.50 698.60 432.40 698.70 C 432.30 699.10 432.20 699.60 432.10 700.00 C 432.00 700.50 431.90 701.00 431.90 701.50 C 431.90 701.70 431.80 701.80 431.80 702.00 C 431.80 702.10 431.80 702.10 431.80 702.20 C 431.70 703.10 431.60 703.90 431.60 704.70 C 431.60 704.90 431.60 705.10 431.60 705.30 C 431.60 706.00 431.70 706.60 431.70 707.30 C 431.70 707.50 431.80 707.80 431.80 708.00 C 431.90 708.70 432.10 709.40 432.30 710.00 C 432.30 710.10 432.30 710.20 432.40 710.30 C 432.60 711.00 432.90 711.70 433.30 712.30 C 433.40 712.50 433.50 712.60 433.60 712.80 C 433.90 713.20 434.20 713.70 434.50 714.00 C 434.60 714.10 434.80 714.30 434.90 714.40 C 435.40 714.90 435.90 715.30 436.50 715.60 C 436.50 715.60 436.50 715.60 436.50 715.60 L 470.30 735.30 C 469.70 735.00 469.20 734.50 468.70 734.10 C 468.60 734.00 468.40 733.80 468.30 733.70 C 468.00 733.30 467.60 732.90 467.40 732.50 C 467.30 732.30 467.20 732.20 467.10 732.00 C 466.50 731.50 466.20 730.90 466.00 730.10 Z" group-id="5,10" node-id="441" target-height="88.6" target-width="46.4" target-x="424.5" target-y="646.7"/><path fill="#d5e9f4" fill-rule="nonzero" stroke="none" d="M 528.50 550.40 C 528.60 549.40 528.70 548.40 528.90 547.40 C 529.10 546.30 529.20 545.20 529.50 544.20 C 529.70 543.40 529.80 542.50 530.00 541.70 C 530.20 541.00 530.30 540.30 530.50 539.50 C 530.80 538.50 531.00 537.40 531.40 536.40 C 531.60 535.80 531.70 535.20 531.90 534.60 C 532.30 533.40 532.70 532.10 533.20 530.90 C 533.30 530.50 533.50 530.10 533.60 529.70 C 534.20 528.10 534.80 526.50 535.50 525.00 C 535.70 524.60 535.80 524.30 536.00 523.90 C 536.60 522.60 537.20 521.40 537.80 520.20 C 538.00 519.80 538.20 519.30 538.50 518.90 C 539.30 517.40 540.00 516.00 540.90 514.60 C 541.00 514.50 541.00 514.40 541.10 514.30 C 542.00 512.80 542.90 511.30 543.80 509.90 C 544.10 509.40 544.40 509.00 544.70 508.50 C 545.40 507.50 546.10 506.50 546.70 505.60 C 547.10 505.00 547.50 504.50 548.00 503.90 C 548.60 503.10 549.20 502.30 549.90 501.50 C 550.50 500.80 551.10 500.10 551.60 499.40 C 552.10 498.80 552.70 498.20 553.20 497.60 C 554.20 496.50 555.10 495.50 556.10 494.50 C 556.70 493.90 557.30 493.30 557.80 492.70 C 558.30 492.30 558.70 491.80 559.20 491.40 C 560.00 490.70 560.80 490.00 561.60 489.30 C 562.10 488.90 562.50 488.50 563.00 488.10 C 563.90 487.40 564.80 486.70 565.60 486.10 C 566.00 485.80 566.40 485.50 566.80 485.20 C 568.10 484.30 569.40 483.40 570.80 482.70 C 572.50 481.70 574.20 480.90 575.90 480.10 C 576.50 479.90 577.00 479.70 577.60 479.40 C 578.60 479.00 579.60 478.70 580.50 478.40 C 581.20 478.20 581.80 478.00 582.50 477.90 C 583.10 477.80 583.70 477.60 584.20 477.50 C 585.00 477.40 585.70 477.20 586.50 477.20 C 586.90 477.20 587.30 477.10 587.80 477.10 C 588.80 477.00 589.90 477.00 590.80 477.10 C 590.90 477.10 591.00 477.10 591.10 477.10 C 592.20 477.20 593.30 477.30 594.30 477.50 C 594.60 477.60 594.90 477.60 595.10 477.70 C 595.90 477.90 596.70 478.10 597.40 478.40 C 597.60 478.50 597.90 478.60 598.10 478.70 C 599.10 479.10 600.00 479.50 601.00 480.10 L 567.20 460.40 C 567.10 460.40 567.00 460.30 567.00 460.30 C 566.30 459.90 565.50 459.50 564.80 459.20 C 564.70 459.10 564.50 459.10 564.40 459.10 C 564.20 459.00 563.90 458.90 563.70 458.80 C 563.30 458.70 562.90 458.50 562.50 458.40 C 562.10 458.30 561.70 458.20 561.30 458.10 C 561.00 458.00 560.80 458.00 560.50 457.90 C 560.30 457.90 560.20 457.80 560.00 457.80 C 559.10 457.70 558.30 457.50 557.40 457.50 C 557.40 457.50 557.40 457.50 557.30 457.50 C 557.20 457.50 557.10 457.50 557.00 457.50 C 556.20 457.50 555.40 457.40 554.50 457.50 C 554.30 457.50 554.10 457.50 553.90 457.60 C 553.50 457.60 553.10 457.70 552.60 457.70 C 552.10 457.70 551.70 457.80 551.20 457.80 C 550.90 457.80 550.60 457.90 550.30 458.00 C 549.70 458.10 549.10 458.20 548.60 458.40 C 548.20 458.50 547.90 458.50 547.50 458.60 C 547.20 458.70 546.90 458.80 546.60 458.90 C 545.60 459.20 544.60 459.50 543.70 459.90 C 543.30 460.00 543.00 460.10 542.60 460.30 C 542.40 460.40 542.20 460.50 542.00 460.60 C 540.30 461.30 538.60 462.20 536.90 463.20 C 535.60 464.00 534.30 464.80 532.90 465.70 C 532.50 466.00 532.10 466.30 531.70 466.60 C 530.80 467.20 529.90 467.90 529.10 468.60 C 528.60 469.00 528.10 469.40 527.70 469.80 C 526.90 470.50 526.10 471.20 525.30 471.90 C 524.80 472.30 524.40 472.80 523.90 473.20 C 523.60 473.50 523.30 473.70 523.10 474.00 C 522.80 474.30 522.50 474.70 522.20 475.00 C 521.20 476.00 520.20 477.00 519.30 478.10 C 519.00 478.40 518.70 478.70 518.40 479.00 C 518.10 479.30 517.90 479.60 517.70 479.90 C 517.10 480.60 516.50 481.30 516.00 482.00 C 515.60 482.40 515.30 482.90 514.90 483.30 C 514.60 483.70 514.40 484.00 514.10 484.40 C 513.70 485.00 513.30 485.50 512.80 486.10 C 512.50 486.50 512.20 486.90 511.90 487.30 C 511.50 487.90 511.10 488.50 510.70 489.10 C 510.40 489.60 510.10 490.00 509.80 490.50 C 509.70 490.70 509.50 490.90 509.40 491.10 C 508.60 492.30 507.90 493.60 507.10 494.80 C 507.10 494.80 507.10 494.80 507.10 494.90 C 507.10 495.00 507.00 495.10 507.00 495.20 C 506.40 496.30 505.70 497.40 505.10 498.60 C 504.90 498.90 504.80 499.20 504.60 499.50 C 504.40 499.90 504.20 500.40 503.90 500.80 C 503.70 501.30 503.40 501.80 503.20 502.30 C 502.80 503.00 502.50 503.80 502.20 504.60 C 502.00 505.00 501.90 505.30 501.70 505.70 C 501.60 505.90 501.60 506.00 501.50 506.20 C 500.90 507.50 500.40 508.80 499.90 510.10 C 499.90 510.20 499.80 510.40 499.80 510.50 C 499.70 510.90 499.50 511.30 499.40 511.60 C 499.10 512.40 498.80 513.30 498.50 514.10 C 498.40 514.50 498.30 514.90 498.10 515.30 C 497.90 515.90 497.70 516.50 497.60 517.00 C 497.50 517.50 497.30 518.00 497.20 518.40 C 497.00 519.00 496.90 519.50 496.80 520.10 C 496.60 520.80 496.40 521.50 496.30 522.30 C 496.20 522.60 496.10 523.00 496.10 523.30 C 496.00 523.80 495.90 524.30 495.80 524.80 C 495.60 525.90 495.40 527.00 495.20 528.00 C 495.10 528.40 495.10 528.70 495.00 529.10 C 494.90 529.70 494.90 530.40 494.80 531.00 C 494.80 531.50 494.70 532.00 494.70 532.50 C 494.60 534.10 494.50 535.60 494.50 537.20 C 494.50 550.70 499.30 560.20 507.00 564.60 L 540.80 584.30 C 533.10 579.80 528.30 570.30 528.30 556.90 C 528.30 555.40 528.40 553.80 528.50 552.20 C 528.40 551.40 528.40 550.90 528.50 550.40 Z" group-id="5,10" node-id="443" target-height="126.9" target-width="106.5" target-x="494.5" target-y="457.4"/><path fill="url(#SVGID_27_)" fill-rule="nonzero" stroke="none" d="M 728.80 404.20 C 728.80 405.00 732.60 423.30 733.30 437.30 C 733.30 453.40 729.70 475.90 729.70 476.80 C 727.50 489.10 722.40 498.90 715.70 502.70 L 714.20 503.60 C 691.30 516.80 672.20 550.80 672.30 577.10 C 672.30 586.40 675.90 593.30 676.10 593.60 C 679.10 600.40 676.90 613.50 669.50 623.70 L 628.20 673.90 C 626.00 676.00 623.00 678.60 620.10 680.30 C 613.40 684.10 608.30 684.60 604.60 681.60 C 599.40 677.80 583.90 669.80 570.60 677.50 C 558.10 684.70 541.80 711.10 536.70 720.00 C 532.30 727.60 527.10 733.20 521.20 736.60 C 519.00 737.90 516.00 739.60 513.80 739.20 L 473.90 736.80 C 465.80 736.40 462.80 726.20 467.20 715.20 C 467.40 714.60 470.90 702.90 470.90 694.40 C 470.80 667.20 451.60 656.30 428.70 669.50 L 427.20 670.30 C 420.50 674.10 414.60 669.90 413.10 660.60 C 413.10 659.80 409.40 641.50 409.30 625.40 C 409.30 610.20 412.90 587.60 412.90 586.80 C 415.10 575.30 420.20 564.80 426.90 560.90 C 450.50 547.30 469.60 513.30 469.60 487.00 C 469.60 477.70 466.00 470.80 465.80 470.50 C 462.10 464.10 465.00 449.70 471.60 439.90 L 514.30 388.90 C 516.50 386.80 519.50 384.20 522.40 382.50 C 528.30 379.10 534.20 378.20 537.90 382.00 C 543.10 385.80 558.60 392.10 571.20 384.90 C 583.80 377.60 599.20 353.40 604.40 344.50 C 608.10 337.30 613.20 331.80 619.10 328.40 C 621.30 327.10 624.30 326.30 626.50 325.80 L 667.90 327.40 C 676.00 327.80 679.00 338.80 674.60 349.80 C 674.40 350.40 670.90 362.10 670.90 370.60 C 671.00 397.80 690.30 408.70 713.10 395.50 L 714.60 394.70 C 721.40 390.70 727.30 394.90 728.80 404.20 Z M 571.10 596.40 C 602.10 578.50 627.10 535.20 627.00 499.50 C 626.90 463.90 601.70 449.50 570.70 467.40 C 539.70 485.30 514.70 528.60 514.80 564.30 C 514.90 599.90 540.10 614.30 571.10 596.40" group-id="5,10,18" node-id="447" target-height="413.8" target-width="324" target-x="409.3" target-y="325.8"/><path fill="url(#SVGID_28_)" fill-rule="nonzero" stroke="none" d="M 570.80 482.70 C 593.70 469.50 613.70 480.00 613.80 507.20 C 613.90 534.40 594.00 567.90 571.10 581.10 C 547.50 594.70 528.20 583.80 528.10 556.60 C 528.10 529.40 547.90 495.90 570.80 482.70 Z" group-id="5,10,19" node-id="452" target-height="125.2" target-width="85.8" target-x="528.1" target-y="469.5"/><path fill="url(#SVGID_29_)" fill-rule="nonzero" stroke="none" d="M 624.30 326.10 C 624.40 326.10 624.50 326.00 624.70 326.00 C 625.40 325.80 626.00 325.70 626.60 325.60 L 668.00 327.20 L 634.20 307.50 L 592.80 305.90 C 592.20 306.00 591.50 306.20 590.90 306.30 C 590.80 306.30 590.80 306.30 590.80 306.30 C 590.70 306.30 590.70 306.40 590.60 306.40 C 589.70 306.70 588.70 307.00 587.80 307.30 C 587.70 307.30 587.60 307.40 587.50 307.40 C 587.50 307.40 587.40 307.40 587.40 307.50 C 586.70 307.80 586.10 308.10 585.50 308.40 C 584.10 309.20 582.80 310.10 581.50 311.10 C 581.10 311.40 580.70 311.80 580.30 312.10 C 579.70 312.60 579.10 313.10 578.50 313.70 C 578.20 314.00 577.90 314.40 577.50 314.70 C 577.30 314.90 577.20 315.10 577.00 315.20 C 576.80 315.40 576.60 315.60 576.50 315.80 C 576.00 316.40 575.50 316.90 575.10 317.50 C 574.70 318.00 574.30 318.60 573.90 319.10 C 573.90 319.20 573.80 319.20 573.80 319.30 C 573.80 319.30 573.70 319.40 573.70 319.40 C 573.40 319.80 573.20 320.20 572.90 320.60 C 572.60 321.10 572.30 321.60 572.00 322.20 C 571.70 322.70 571.40 323.30 571.10 323.80 C 571.00 324.00 570.90 324.20 570.80 324.40 C 570.60 324.70 570.40 325.10 570.20 325.50 C 569.80 326.30 569.30 327.10 568.70 328.00 C 568.60 328.10 568.60 328.20 568.50 328.30 C 567.90 329.30 567.20 330.40 566.50 331.50 C 566.30 331.80 566.10 332.10 565.90 332.40 C 565.30 333.30 564.70 334.30 564.00 335.30 C 563.80 335.50 563.70 335.70 563.50 336.00 C 562.70 337.20 561.80 338.40 561.00 339.70 C 560.90 339.90 560.70 340.10 560.60 340.30 C 559.10 342.50 557.50 344.60 555.80 346.80 C 555.60 347.00 555.50 347.20 555.30 347.40 C 553.90 349.20 552.50 350.90 551.00 352.60 C 550.80 352.80 550.60 353.10 550.40 353.30 C 549.00 354.90 547.70 356.30 546.30 357.70 C 546.00 358.00 545.70 358.30 545.30 358.60 C 545.00 358.90 544.70 359.20 544.40 359.50 C 543.90 359.90 543.40 360.40 543.00 360.80 C 542.70 361.10 542.40 361.30 542.10 361.60 C 541.60 362.00 541.10 362.40 540.60 362.80 C 540.40 363.00 540.10 363.20 539.90 363.40 C 539.10 363.90 538.40 364.40 537.70 364.90 C 536.50 365.60 535.20 366.20 533.90 366.60 C 533.60 366.70 533.20 366.80 532.90 367.00 C 531.60 367.40 530.30 367.70 529.00 367.90 C 528.90 367.90 528.80 367.90 528.70 367.90 C 527.50 368.10 526.30 368.10 525.10 368.10 C 524.70 368.10 524.20 368.10 523.80 368.10 C 522.90 368.10 522.10 368.00 521.20 367.90 C 520.70 367.80 520.10 367.80 519.60 367.70 C 518.90 367.60 518.20 367.40 517.60 367.30 C 516.80 367.10 516.10 367.00 515.40 366.80 C 514.90 366.70 514.30 366.50 513.80 366.30 C 512.90 366.00 512.00 365.70 511.10 365.40 C 511.00 365.40 510.90 365.30 510.80 365.30 L 502.80 360.60 C 502.80 360.60 502.70 360.60 502.70 360.50 C 502.40 360.30 502.20 360.20 501.90 360.10 C 501.80 360.00 501.60 360.00 501.50 360.00 C 501.40 360.00 501.30 359.90 501.30 359.90 C 501.20 359.90 501.10 359.80 501.10 359.80 C 500.80 359.70 500.50 359.60 500.20 359.60 C 500.10 359.60 500.10 359.60 500.00 359.60 C 499.90 359.60 499.80 359.60 499.70 359.60 C 499.50 359.60 499.30 359.50 499.10 359.50 C 498.90 359.50 498.70 359.50 498.50 359.50 C 498.40 359.50 498.30 359.50 498.10 359.50 C 498.00 359.50 498.00 359.50 497.90 359.50 C 497.40 359.50 497.00 359.60 496.50 359.60 C 496.50 359.60 496.50 359.60 496.50 359.60 C 496.40 359.60 496.30 359.70 496.10 359.70 C 495.60 359.80 495.20 359.90 494.70 360.00 C 494.70 360.00 494.70 360.00 494.70 360.00 C 494.00 360.20 493.20 360.50 492.50 360.80 C 492.40 360.80 492.40 360.80 492.30 360.90 C 492.20 360.90 492.10 361.00 492.00 361.10 C 491.00 361.50 490.10 362.00 489.10 362.50 C 486.20 364.20 483.20 366.70 481.00 368.90 L 438.30 419.90 C 438.10 420.20 437.90 420.50 437.70 420.70 C 437.40 421.20 437.10 421.60 436.90 422.10 C 436.60 422.60 436.30 423.10 436.10 423.60 C 436.10 423.60 436.10 423.70 436.00 423.70 C 436.00 423.70 436.00 423.80 435.90 423.80 C 435.70 424.20 435.40 424.70 435.20 425.10 C 434.90 425.70 434.70 426.20 434.40 426.80 C 434.30 427.10 434.20 427.30 434.10 427.60 C 434.00 427.70 434.00 427.90 433.90 428.00 C 433.80 428.20 433.70 428.40 433.60 428.60 C 433.30 429.30 433.10 430.00 432.90 430.60 C 432.80 431.00 432.70 431.30 432.60 431.70 C 432.50 431.90 432.50 432.10 432.40 432.30 C 432.30 432.50 432.30 432.70 432.20 432.90 C 432.00 433.80 431.70 434.70 431.50 435.60 C 431.50 435.70 431.50 435.90 431.40 436.00 C 431.30 436.30 431.30 436.70 431.20 437.00 C 431.10 437.60 431.00 438.20 430.90 438.70 C 430.90 439.00 430.90 439.30 430.80 439.60 C 430.80 440.10 430.70 440.60 430.70 441.00 C 430.70 441.80 430.70 442.50 430.70 443.20 C 430.70 443.60 430.70 444.10 430.80 444.50 C 430.90 445.20 431.00 445.90 431.10 446.60 C 431.20 446.90 431.20 447.30 431.30 447.60 C 431.60 448.50 431.90 449.40 432.30 450.20 C 432.50 450.60 436.00 457.40 436.10 466.70 C 436.10 468.20 436.00 469.70 435.90 471.30 C 435.90 471.80 435.80 472.30 435.80 472.70 C 435.70 473.70 435.60 474.70 435.40 475.70 C 435.20 476.80 435.00 477.90 434.80 479.00 C 434.60 479.80 434.50 480.60 434.30 481.40 C 434.10 482.10 433.90 482.90 433.80 483.60 C 433.50 484.60 433.30 485.60 433.00 486.60 C 432.80 487.20 432.60 487.80 432.40 488.40 C 432.00 489.50 431.70 490.70 431.30 491.80 C 431.10 492.30 431.00 492.80 430.80 493.30 C 430.20 494.90 429.60 496.50 428.90 498.00 C 428.80 498.10 428.80 498.30 428.70 498.40 C 428.10 499.80 427.40 501.30 426.70 502.70 C 426.50 503.10 426.20 503.60 426.00 504.00 C 425.40 505.20 424.70 506.40 424.10 507.60 C 423.90 508.00 423.70 508.30 423.50 508.70 C 422.60 510.20 421.70 511.70 420.80 513.20 C 420.60 513.50 420.40 513.90 420.10 514.20 C 419.40 515.30 418.60 516.50 417.80 517.60 C 417.40 518.10 417.00 518.70 416.60 519.20 C 416.00 520.10 415.30 520.90 414.60 521.80 C 414.00 522.50 413.50 523.20 412.90 523.80 C 412.30 524.50 411.70 525.10 411.20 525.80 C 410.30 526.80 409.40 527.80 408.40 528.80 C 407.80 529.40 407.30 530.00 406.70 530.50 C 406.30 530.90 405.80 531.30 405.40 531.80 C 404.60 532.60 403.80 533.30 402.90 534.00 C 402.40 534.40 402.00 534.80 401.50 535.20 C 400.60 535.90 399.70 536.60 398.80 537.20 C 398.40 537.50 398.00 537.80 397.50 538.10 C 396.20 539.00 394.80 539.90 393.50 540.70 C 392.80 541.10 392.00 541.70 391.30 542.30 C 391.10 542.50 390.90 542.60 390.70 542.80 C 390.50 543.00 390.30 543.10 390.10 543.30 C 389.70 543.70 389.30 544.10 388.90 544.60 C 388.90 544.70 388.80 544.70 388.80 544.80 C 388.80 544.90 388.70 544.90 388.70 545.00 C 388.50 545.30 388.30 545.50 388.10 545.80 C 387.80 546.20 387.50 546.50 387.30 546.90 C 387.10 547.10 387.00 547.30 386.90 547.60 C 386.90 547.70 386.80 547.70 386.80 547.80 C 386.70 547.90 386.70 548.00 386.60 548.10 C 386.30 548.50 386.10 548.90 385.80 549.40 C 385.50 549.80 385.30 550.30 385.00 550.80 C 385.00 550.80 385.00 550.90 384.90 550.90 C 384.90 551.00 384.80 551.00 384.80 551.10 C 384.60 551.50 384.40 551.90 384.20 552.30 C 383.90 552.90 383.70 553.50 383.40 554.10 C 383.40 554.20 383.30 554.30 383.30 554.40 C 383.20 554.50 383.20 554.70 383.10 554.80 C 382.90 555.20 382.70 555.60 382.60 556.10 C 382.30 556.80 382.10 557.60 381.80 558.30 C 381.80 558.40 381.80 558.40 381.70 558.50 C 381.70 558.50 381.70 558.50 381.70 558.60 C 381.40 559.60 381.10 560.60 380.80 561.60 C 380.70 561.80 380.70 562.00 380.70 562.10 C 380.60 562.60 380.40 563.20 380.30 563.70 C 380.20 564.20 380.00 564.80 379.90 565.30 C 379.80 565.80 379.70 566.30 379.60 566.70 C 379.60 566.80 379.60 567.00 379.50 567.40 C 379.50 567.50 379.50 567.60 379.50 567.70 C 379.50 567.90 379.40 568.20 379.40 568.50 C 379.40 568.80 379.30 569.10 379.30 569.40 C 379.20 569.80 379.20 570.20 379.10 570.60 C 379.00 571.00 379.00 571.40 378.90 571.90 C 378.90 572.20 378.80 572.40 378.80 572.70 C 378.70 573.40 378.60 574.10 378.50 574.80 C 378.50 574.90 378.50 575.00 378.50 575.20 C 378.50 575.20 378.50 575.20 378.50 575.20 C 378.40 576.10 378.30 577.10 378.10 578.10 C 378.10 578.40 378.00 578.80 378.00 579.10 C 377.90 579.80 377.80 580.60 377.70 581.30 C 377.70 581.70 377.60 582.10 377.60 582.50 C 377.50 583.30 377.40 584.10 377.30 584.90 C 377.30 585.30 377.20 585.60 377.20 586.00 C 377.10 587.10 377.00 588.20 376.90 589.30 C 376.90 589.40 376.90 589.50 376.90 589.70 C 376.80 590.90 376.70 592.10 376.60 593.30 C 376.60 593.70 376.50 594.00 376.50 594.40 C 376.40 595.30 376.40 596.10 376.30 597.00 C 376.30 597.40 376.30 597.80 376.20 598.30 C 376.20 599.10 376.10 600.00 376.10 600.80 C 376.10 601.20 376.10 601.50 376.10 601.90 C 376.10 603.10 376.00 604.20 376.10 605.30 C 376.10 621.40 379.90 639.70 379.90 640.50 C 380.30 643.00 381.00 645.10 382.00 646.80 C 383.00 648.50 384.20 649.80 385.60 650.60 L 419.40 670.30 C 416.60 668.70 414.50 665.20 413.70 660.20 C 413.70 659.40 410.00 641.10 409.90 625.00 C 409.90 623.90 409.90 622.80 409.90 621.60 C 409.90 621.20 409.90 620.90 409.90 620.50 C 409.90 619.70 410.00 618.80 410.00 618.00 C 410.00 617.60 410.00 617.20 410.10 616.80 C 410.20 615.90 410.20 615.10 410.30 614.20 C 410.30 613.80 410.30 613.50 410.40 613.10 C 410.50 611.90 410.60 610.70 410.70 609.50 C 410.70 609.40 410.70 609.40 410.70 609.30 C 410.80 608.10 410.90 607.00 411.00 605.80 C 411.00 605.40 411.10 605.00 411.10 604.70 C 411.20 603.90 411.30 603.10 411.40 602.30 C 411.40 601.90 411.50 601.50 411.50 601.10 C 411.60 600.30 411.70 599.50 411.80 598.80 C 411.80 598.50 411.90 598.20 411.90 597.90 C 412.00 596.90 412.20 595.90 412.30 595.00 C 412.30 594.90 412.30 594.80 412.30 594.60 C 412.40 593.90 412.50 593.10 412.60 592.50 C 412.60 592.30 412.70 592.10 412.70 591.90 C 412.80 591.30 412.90 590.80 412.90 590.30 C 412.90 590.10 412.90 590.00 413.00 589.90 C 413.10 589.30 413.20 588.80 413.20 588.30 C 413.20 588.00 413.30 587.80 413.30 587.60 C 413.30 587.50 413.30 587.40 413.30 587.30 C 413.30 587.30 413.30 587.30 413.30 587.20 C 413.30 586.90 413.40 586.60 413.40 586.50 C 413.60 585.50 413.80 584.40 414.10 583.40 C 414.20 582.90 414.40 582.30 414.50 581.80 C 414.80 580.60 415.20 579.40 415.60 578.20 C 415.60 578.10 415.60 578.10 415.70 578.00 C 416.10 576.80 416.50 575.70 417.00 574.60 C 417.10 574.50 417.10 574.30 417.20 574.20 C 417.70 573.00 418.20 571.90 418.80 570.90 C 418.80 570.80 418.90 570.80 418.90 570.70 C 419.50 569.60 420.10 568.60 420.70 567.60 C 420.70 567.50 420.80 567.50 420.80 567.40 C 421.40 566.50 422.10 565.60 422.70 564.80 C 422.70 564.70 422.80 564.70 422.80 564.60 C 423.40 563.90 424.10 563.20 424.70 562.60 C 424.90 562.40 425.10 562.30 425.30 562.10 C 426.00 561.50 426.70 561.00 427.50 560.50 C 428.90 559.70 430.20 558.80 431.50 557.90 C 431.90 557.60 432.30 557.30 432.80 557.00 C 433.70 556.30 434.60 555.70 435.50 555.00 C 436.00 554.60 436.40 554.20 436.90 553.80 C 437.70 553.10 438.60 552.40 439.40 551.60 C 439.90 551.20 440.30 550.80 440.70 550.30 C 440.90 550.10 441.20 549.90 441.40 549.60 C 441.70 549.30 442.10 548.90 442.40 548.50 C 443.30 547.50 444.30 546.50 445.20 545.50 C 445.50 545.20 445.70 544.90 446.00 544.60 C 446.30 544.20 446.60 543.80 446.90 543.50 C 447.50 542.80 448.00 542.10 448.60 541.40 C 448.90 541.00 449.20 540.70 449.50 540.30 C 449.90 539.80 450.20 539.30 450.60 538.80 C 451.00 538.30 451.40 537.70 451.80 537.20 C 452.00 536.90 452.20 536.70 452.40 536.40 C 453.00 535.60 453.50 534.70 454.10 533.90 C 454.30 533.60 454.60 533.20 454.80 532.90 C 454.90 532.80 454.90 532.70 455.00 532.60 C 455.80 531.40 456.50 530.10 457.30 528.90 C 457.40 528.70 457.50 528.60 457.60 528.40 C 457.80 528.00 458.00 527.70 458.20 527.30 C 458.60 526.60 459.00 525.90 459.40 525.10 C 459.60 524.60 459.90 524.20 460.10 523.70 C 460.30 523.30 460.60 522.80 460.80 522.30 C 461.00 522.00 461.10 521.60 461.30 521.30 C 461.80 520.20 462.30 519.10 462.80 518.00 C 462.90 517.80 462.90 517.70 463.00 517.60 C 463.00 517.60 463.00 517.50 463.10 517.50 C 463.70 516.20 464.20 514.90 464.70 513.60 C 464.80 513.40 464.90 513.10 464.90 512.90 C 465.10 512.40 465.20 511.90 465.40 511.40 C 465.60 510.70 465.90 510.10 466.10 509.40 C 466.30 508.90 466.40 508.50 466.50 508.00 C 466.70 507.40 466.90 506.80 467.10 506.20 C 467.20 505.80 467.40 505.40 467.50 505.00 C 467.70 504.40 467.80 503.80 467.90 503.20 C 468.10 502.50 468.30 501.70 468.40 501.00 C 468.50 500.70 468.60 500.40 468.60 500.10 C 468.70 499.60 468.80 499.10 468.90 498.60 C 469.10 497.50 469.30 496.40 469.50 495.30 C 469.50 495.00 469.60 494.60 469.70 494.30 C 469.80 493.60 469.80 493.00 469.90 492.30 C 469.90 491.80 470.00 491.30 470.00 490.90 C 470.10 489.40 470.20 487.80 470.20 486.30 C 470.20 477.00 466.60 470.10 466.40 469.80 C 466.00 469.10 465.60 468.20 465.40 467.20 C 465.30 466.90 465.30 466.50 465.20 466.20 C 465.10 465.50 464.90 464.80 464.90 464.10 C 464.90 463.70 464.90 463.20 464.80 462.80 C 464.80 462.10 464.80 461.30 464.80 460.60 C 464.80 460.10 464.90 459.70 464.90 459.20 C 465.00 458.30 465.10 457.40 465.30 456.50 C 465.40 456.20 465.40 455.80 465.50 455.50 C 465.70 454.30 466.10 453.00 466.40 451.80 C 466.50 451.60 466.50 451.40 466.60 451.20 C 467.00 449.90 467.40 448.70 467.90 447.40 C 468.00 447.30 468.00 447.10 468.10 447.00 C 468.60 445.70 469.20 444.40 469.90 443.10 C 469.90 443.10 469.90 443.00 470.00 443.00 C 470.70 441.70 471.50 440.40 472.30 439.20 L 515.00 388.20 C 517.20 386.10 520.20 383.50 523.10 381.80 C 524.10 381.20 525.00 380.80 526.00 380.40 C 526.20 380.30 526.40 380.20 526.50 380.20 C 527.20 379.90 528.00 379.60 528.70 379.40 C 529.20 379.30 529.70 379.20 530.10 379.10 C 530.20 379.10 530.30 379.00 530.50 379.00 C 531.00 378.90 531.60 378.90 532.10 378.90 C 532.20 378.90 532.30 378.90 532.50 378.90 C 532.90 378.90 533.30 378.90 533.70 379.00 C 533.80 379.00 533.90 379.00 534.00 379.00 C 534.20 379.00 534.40 379.10 534.60 379.10 L 540.50 382.50 C 540.60 382.60 540.70 382.60 540.80 382.70 C 541.00 382.80 541.20 382.90 541.40 383.00 C 542.20 383.40 543.00 383.80 543.90 384.20 C 544.10 384.30 544.20 384.40 544.40 384.50 C 544.60 384.60 544.90 384.70 545.20 384.80 C 546.00 385.10 546.90 385.40 547.90 385.70 C 548.20 385.80 548.50 385.90 548.80 386.00 C 549.00 386.10 549.20 386.10 549.50 386.20 C 550.20 386.40 551.00 386.60 551.70 386.70 C 552.20 386.80 552.60 386.90 553.00 387.00 C 553.20 387.00 553.50 387.00 553.70 387.10 C 554.20 387.20 554.80 387.20 555.30 387.30 C 555.80 387.40 556.30 387.40 556.80 387.50 C 557.20 387.50 557.50 387.50 557.90 387.50 C 558.30 387.50 558.80 387.50 559.20 387.50 C 559.50 387.50 559.80 387.50 560.20 387.50 C 561.10 387.50 562.00 387.40 562.90 387.20 C 563.00 387.20 563.10 387.20 563.20 387.20 C 563.20 387.20 563.30 387.20 563.30 387.20 C 564.30 387.10 565.20 386.90 566.20 386.60 C 566.50 386.50 566.80 386.40 567.10 386.30 C 567.40 386.20 567.80 386.10 568.10 386.00 C 568.50 385.90 568.80 385.80 569.20 385.60 C 570.10 385.20 571.10 384.80 572.00 384.20 C 572.70 383.80 573.50 383.30 574.20 382.70 C 574.40 382.50 574.70 382.30 574.90 382.10 C 575.40 381.70 575.90 381.30 576.40 380.90 C 576.70 380.70 577.00 380.40 577.30 380.10 C 577.80 379.70 578.30 379.30 578.70 378.80 C 579.00 378.50 579.30 378.20 579.60 377.90 C 579.80 377.70 580.00 377.50 580.20 377.30 C 580.30 377.20 580.40 377.00 580.60 376.90 C 582.00 375.50 583.40 374.00 584.70 372.50 C 584.80 372.40 584.90 372.30 584.90 372.30 C 585.00 372.20 585.10 372.00 585.20 371.90 C 586.70 370.20 588.10 368.50 589.50 366.70 C 589.60 366.60 589.60 366.50 589.70 366.40 C 589.80 366.30 589.90 366.10 590.00 366.00 C 591.70 363.80 593.30 361.60 594.80 359.50 C 594.90 359.40 594.90 359.30 595.00 359.20 C 595.10 359.10 595.10 359.00 595.20 358.90 C 596.10 357.60 596.90 356.40 597.70 355.20 C 597.90 355.00 598.00 354.70 598.20 354.50 C 598.90 353.50 599.50 352.50 600.10 351.60 C 600.20 351.40 600.30 351.30 600.40 351.10 C 600.50 351.00 600.60 350.80 600.60 350.70 C 601.30 349.60 602.00 348.50 602.60 347.50 C 602.70 347.40 602.70 347.30 602.80 347.20 C 603.30 346.30 603.80 345.50 604.30 344.70 C 604.40 344.60 604.50 344.50 604.50 344.30 C 604.60 344.00 604.80 343.80 604.90 343.60 C 605.80 341.80 606.80 340.20 607.90 338.60 C 607.90 338.60 608.00 338.50 608.00 338.50 C 609.00 337.00 610.10 335.70 611.30 334.40 C 611.50 334.20 611.60 334.00 611.80 333.90 C 612.70 333.00 613.60 332.10 614.60 331.30 C 615.00 331.00 615.40 330.60 615.80 330.30 C 617.10 329.30 618.40 328.40 619.80 327.60 C 620.40 327.30 621.10 326.90 621.70 326.70 C 621.80 326.60 621.90 326.60 622.10 326.60 C 622.40 326.70 623.40 326.40 624.30 326.10 Z" group-id="5,10" node-id="455" target-height="364.4" target-width="292" target-x="376" target-y="305.9"/><path fill="url(#SVGID_30_)" fill-rule="nonzero" stroke="none" d="M 861.60 679.60 C 861.60 680.00 861.50 680.30 861.50 680.70 C 861.40 681.00 861.40 681.30 861.30 681.60 C 861.20 681.90 861.10 682.30 861.00 682.60 C 860.90 682.90 860.80 683.20 860.60 683.40 C 860.40 683.80 860.30 684.10 860.10 684.50 C 860.00 684.80 859.80 685.00 859.60 685.20 C 859.40 685.60 859.10 686.00 858.80 686.40 C 858.60 686.60 858.40 686.90 858.30 687.10 C 857.90 687.60 857.40 688.10 856.90 688.60 C 856.70 688.80 856.50 689.00 856.30 689.20 C 856.00 689.50 855.60 689.80 855.30 690.10 C 855.00 690.40 854.70 690.60 854.40 690.80 C 854.00 691.10 853.60 691.30 853.20 691.60 C 852.80 691.90 852.40 692.20 851.90 692.40 L 778.20 735.20 C 776.70 736.10 775.10 736.80 773.50 737.40 C 773.10 737.60 772.60 737.70 772.20 737.90 C 771.20 738.30 770.10 738.60 769.00 738.90 C 767.90 739.20 766.80 739.50 765.60 739.70 C 764.20 740.00 762.90 740.20 761.50 740.40 C 761.20 740.40 760.80 740.50 760.50 740.50 C 758.60 740.70 756.70 740.80 754.80 740.80 C 754.50 740.80 754.20 740.80 753.90 740.80 C 752.00 740.80 750.10 740.70 748.30 740.50 C 748.00 740.50 747.70 740.40 747.50 740.40 C 745.70 740.20 743.80 739.90 742.10 739.50 C 741.80 739.40 741.50 739.30 741.10 739.30 C 739.50 738.90 737.90 738.40 736.40 737.90 C 736.10 737.80 735.80 737.70 735.60 737.60 C 733.80 736.90 732.00 736.10 730.40 735.20 L 656.30 692.40 C 649.60 688.50 646.30 683.50 646.30 678.40 L 646.10 756.70 C 646.10 761.80 649.40 766.80 656.10 770.70 L 730.20 813.50 C 731.70 814.40 733.40 815.20 735.10 815.90 C 735.20 815.90 735.30 816.00 735.40 816.00 C 735.70 816.10 736.00 816.20 736.20 816.30 C 737.20 816.70 738.20 817.00 739.20 817.30 C 739.70 817.50 740.30 817.60 740.90 817.70 C 741.20 817.80 741.50 817.90 741.90 817.90 C 742.20 818.00 742.50 818.10 742.80 818.10 C 743.90 818.30 745.00 818.50 746.20 818.70 C 746.60 818.80 747.00 818.80 747.40 818.80 C 747.70 818.80 748.00 818.90 748.20 818.90 C 748.60 818.90 749.00 819.00 749.40 819.00 C 750.50 819.10 751.60 819.20 752.70 819.20 C 753.00 819.20 753.40 819.20 753.70 819.20 C 754.00 819.20 754.30 819.20 754.60 819.20 C 755.10 819.20 755.60 819.20 756.10 819.20 C 757.40 819.20 758.60 819.10 759.90 818.90 C 760.00 818.90 760.20 818.90 760.30 818.80 C 760.60 818.80 761.00 818.70 761.30 818.70 C 762.30 818.60 763.20 818.50 764.20 818.30 C 764.60 818.20 765.00 818.10 765.40 818.00 C 766.60 817.80 767.70 817.50 768.80 817.20 C 769.40 817.00 770.00 816.90 770.60 816.80 C 771.10 816.60 771.50 816.40 772.00 816.30 C 772.40 816.10 772.90 816.00 773.30 815.80 C 775.00 815.10 776.60 814.40 778.00 813.60 L 851.70 770.80 C 851.80 770.70 852.00 770.60 852.10 770.60 C 852.40 770.40 852.70 770.20 853.00 770.00 C 853.40 769.70 853.80 769.50 854.20 769.20 C 854.50 769.00 854.80 768.70 855.20 768.40 C 855.60 768.10 855.90 767.80 856.20 767.50 C 856.30 767.40 856.30 767.40 856.40 767.30 C 856.50 767.20 856.60 767.00 856.80 766.90 C 857.30 766.40 857.80 765.90 858.20 765.40 C 858.30 765.30 858.40 765.20 858.50 765.10 C 858.60 765.00 858.60 764.90 858.70 764.80 C 859.00 764.40 859.30 764.00 859.50 763.60 C 859.60 763.40 859.70 763.30 859.80 763.10 C 859.80 763.00 859.90 762.90 859.90 762.80 C 860.10 762.50 860.20 762.10 860.40 761.70 C 860.50 761.50 860.60 761.30 860.70 761.10 C 860.70 761.00 860.70 761.00 860.80 760.90 C 860.90 760.60 861.00 760.20 861.10 759.90 C 861.20 759.70 861.30 759.40 861.30 759.20 C 861.30 759.10 861.30 759.10 861.30 759.00 C 861.40 758.60 861.40 758.30 861.40 757.90 C 861.40 757.70 861.50 757.40 861.50 757.20 C 861.50 757.10 861.50 757.00 861.50 756.90 L 861.70 678.60 C 861.70 678.90 861.60 679.20 861.60 679.60 Z" group-id="6,11" node-id="463" target-height="140.8" target-width="215.6" target-x="646.1" target-y="678.4"/><path fill="#fdfdfd" fill-rule="nonzero" stroke="none" d="M 851.60 664.60 C 864.90 672.30 865.00 684.70 851.80 692.40 L 778.10 735.20 C 764.90 742.90 743.40 742.90 730.10 735.20 L 656.00 692.40 C 642.70 684.70 642.60 672.30 655.80 664.60 L 729.50 621.80 C 742.70 614.10 764.20 614.10 777.50 621.80 L 851.60 664.60 Z" group-id="6,11,20" node-id="467" target-height="128.8" target-width="222.4" target-x="642.6" target-y="614.1"/><path fill="#fdfdfd" fill-rule="nonzero" stroke="none" d="M 851.60 664.60 C 864.90 672.30 865.00 684.70 851.80 692.40 L 778.10 735.20 C 764.90 742.90 743.40 742.90 730.10 735.20 L 656.00 692.40 C 642.70 684.70 642.60 672.30 655.80 664.60 L 729.50 621.80 C 742.70 614.10 764.20 614.10 777.50 621.80 L 851.60 664.60 Z" group-id="6,11,20,29,30" node-id="473" target-height="128.8" target-width="222.4" target-x="642.6" target-y="614.1"/></svg>