<svg xmlns="http://www.w3.org/2000/svg" fill="none" viewBox="0 0 1209 1442" height="1442" width="1209">
  <path fill-opacity="0.6" fill="url(#paint0_linear_1718_18725)" d="M299.286 3.16292C286.597 -4.17072 276.334 1.67652 276.334 16.2782V672.852C276.334 678.448 280.269 685.268 285.176 688.153L1175.18 1201.94C1180.05 1204.76 1184 1202.48 1184 1196.88V540.311C1184 525.72 1173.72 507.982 1160.99 500.637L299.286 3.16292Z"></path>
  <path fill-opacity="0.8" fill="url(#paint1_linear_1718_18725)" d="M196.286 72.1629C183.597 64.8293 173.334 70.6765 173.334 85.2782V741.852C173.334 747.448 177.269 754.268 182.176 757.153L1072.18 1270.94C1077.05 1273.76 1081 1271.48 1081 1265.88V609.311C1081 594.72 1070.72 576.982 1057.99 569.637L196.286 72.1629Z"></path>
  <path fill="url(#paint2_linear_1718_18725)" d="M648.783 485.09L121.286 180.509C108.597 173.176 72.2783 182.848 72.2783 197.45L70.2794 856.198C70.2794 861.794 74.2248 868.614 79.1321 871.5L973.102 1390.91C977.988 1393.73 1006 1379.9 1006 1374.31V717.69C1006 703.099 995.715 685.361 983.048 678.016L648.783 485.09Z"></path>
  <path fill="white" d="M976.891 1005.46V727.35C976.891 712.748 966.606 695.01 953.939 687.665L92.2311 190.158C79.5421 182.835 69.2794 188.672 69.2794 203.273V859.847C69.2794 865.443 73.214 872.274 78.1213 875.148L968.18 1389.03C973.055 1391.84 977 1389.56 977 1383.97V1088.3" opacity="0.4"></path>
  <path fill="white" d="M612.537 1131.85L125.373 862.58C114.127 856.084 105 838.663 105 823.657V274.85C105 259.843 114.127 252.949 125.373 259.445L612.537 528.729C623.782 535.225 632.91 552.658 632.91 567.665V1116.47C632.91 1131.45 623.782 1138.35 612.537 1131.85Z"></path>
  <path fill-opacity="0.5" fill="url(#paint3_linear_1718_18725)" d="M168.074 332.906V485.946C168.074 492.627 172.932 500.522 178.398 503.558L592.579 747.694L599.259 744.05C601.688 742.835 603.51 739.799 603.51 736.762V588.581C603.51 581.9 598.651 574.005 593.186 570.969L181.434 332.299C177.183 330.477 172.325 330.477 168.074 332.906Z"></path>
  <path fill="url(#paint4_linear_1718_18725)" d="M137.324 365.12C131.858 362.083 127 364.512 127 371.193V519.982C127 526.662 131.858 534.557 137.324 537.594L552.112 777.478C557.578 780.515 562.436 778.086 562.436 771.405V622.616C562.436 615.936 557.578 608.041 552.112 605.004L137.324 365.12Z"></path>
  <path fill="white" d="M236.922 473.116C236.922 468.867 241.541 466.228 245.202 468.386L536.174 639.925C537.771 640.867 538.752 642.583 538.752 644.437V644.437C538.752 648.488 534.352 651.006 530.86 648.954L239.632 477.85C237.953 476.864 236.922 475.063 236.922 473.116V473.116Z"></path>
  <path fill="white" d="M236.922 510.31C236.922 506.263 241.322 503.75 244.808 505.805L536.303 677.652C537.821 678.547 538.752 680.177 538.752 681.939V681.939C538.752 685.787 534.572 688.179 531.255 686.23L239.503 514.818C237.904 513.879 236.922 512.164 236.922 510.31V510.31Z"></path>
  <path fill="white" d="M236.922 547.811C236.922 543.565 241.541 540.928 245.198 543.088L375.239 619.88C376.837 620.823 377.817 622.54 377.817 624.395V624.395C377.817 628.447 373.417 630.968 369.921 628.919L239.634 552.544C237.954 551.559 236.922 549.758 236.922 547.811V547.811Z"></path>
  <path fill="url(#paint5_linear_1718_18725)" d="M205.95 483.544C208.986 481.115 210.808 476.864 210.808 471.398C210.808 458.645 201.699 442.248 190.16 436.175C179.228 429.494 169.511 434.96 169.511 447.713C169.511 456.823 173.763 466.54 179.836 474.435C168.904 479.9 161.009 490.832 161.009 504.193V512.088L221.739 547.918V530.914C222.347 513.302 216.274 496.905 205.95 483.544Z"></path>
  <path fill="#DFE6FD" d="M241.776 666.065C241.776 662.215 245.961 659.824 249.277 661.78L512.893 817.191C514.34 818.044 515.228 819.599 515.228 821.279V821.279C515.228 824.949 511.242 827.23 508.078 825.371L244.23 670.354C242.71 669.46 241.776 667.829 241.776 666.065V666.065Z"></path>
  <path fill="#DFE6FD" d="M241.776 699.763C241.776 696.097 245.761 693.82 248.92 695.682L513.009 851.373C514.384 852.183 515.228 853.661 515.228 855.257V855.257C515.228 858.743 511.441 860.91 508.436 859.144L244.114 703.848C242.665 702.997 241.776 701.443 241.776 699.763V699.763Z"></path>
  <path fill="#DFE6FD" d="M241.776 733.738C241.776 729.89 245.96 727.502 249.273 729.458L367.088 799.03C368.536 799.885 369.424 801.441 369.424 803.121V803.121C369.424 806.793 365.437 809.077 362.27 807.22L244.232 738.026C242.711 737.134 241.776 735.502 241.776 733.738V733.738Z"></path>
  <path fill="url(#paint6_linear_1718_18725)" d="M196.715 660.513C199.466 658.312 201.117 654.46 201.117 649.509C201.117 637.954 192.864 623.099 182.41 617.597C172.506 611.544 163.703 616.496 163.703 628.051C163.703 636.304 167.554 645.107 173.056 652.26C163.153 657.211 156 667.115 156 679.22V686.372L211.021 718.834V703.429C211.571 687.473 206.069 672.617 196.715 660.513Z"></path>
  <path fill="#DFE6FD" d="M229.776 796.065C229.776 792.215 233.961 789.824 237.277 791.78L500.893 947.191C502.34 948.044 503.228 949.599 503.228 951.279V951.279C503.228 954.949 499.242 957.23 496.078 955.371L232.23 800.354C230.71 799.46 229.776 797.829 229.776 796.065V796.065Z"></path>
  <path fill="#DFE6FD" d="M229.776 829.763C229.776 826.097 233.761 823.82 236.92 825.682L501.009 981.373C502.384 982.183 503.228 983.661 503.228 985.257V985.257C503.228 988.743 499.441 990.91 496.436 989.144L232.114 833.848C230.665 832.997 229.776 831.443 229.776 829.763V829.763Z"></path>
  <path fill="#DFE6FD" d="M229.776 863.738C229.776 859.89 233.96 857.502 237.273 859.458L355.088 929.03C356.536 929.885 357.424 931.441 357.424 933.121V933.121C357.424 936.793 353.437 939.077 350.27 937.22L232.232 868.026C230.711 867.134 229.776 865.502 229.776 863.738V863.738Z"></path>
  <path fill="url(#paint7_linear_1718_18725)" d="M188.715 790.513C191.466 788.312 193.117 784.46 193.117 779.509C193.117 767.954 184.864 753.099 174.41 747.597C164.506 741.544 155.703 746.496 155.703 758.051C155.703 766.304 159.554 775.107 165.056 782.26C155.153 787.211 148 797.115 148 809.22V816.372L203.021 848.834V833.429C203.571 817.473 198.069 802.617 188.715 790.513Z"></path>
  <path fill="url(#paint8_linear_1718_18725)" d="M916.537 1306.85L676.373 1167.58C665.127 1161.08 656 1143.66 656 1128.66V897.85C656 882.843 665.127 875.949 676.373 882.445L916.537 1021.73C927.782 1028.22 936.91 1045.66 936.91 1060.66V1291.47C936.91 1306.45 927.782 1313.35 916.537 1306.85Z" opacity="0.65"></path>
  <path fill="#DFE6FD" d="M837.103 1188.93C837.103 1193.31 832.369 1196.06 828.565 1193.88L720.074 1131.89C718.173 1130.8 717 1128.78 717 1126.59V1126.59C717 1121.89 722.094 1118.95 726.161 1121.31L834.259 1183.99C836.019 1185.01 837.103 1186.89 837.103 1188.93V1188.93Z"></path>
  <path fill="#DFE6FD" d="M804.602 1202.66C804.602 1207.03 799.881 1209.78 796.081 1207.61L741.881 1176.76C740.1 1175.75 739 1173.85 739 1171.81V1171.81C739 1167.43 743.721 1164.69 747.522 1166.85L801.721 1197.7C803.502 1198.72 804.602 1200.61 804.602 1202.66V1202.66Z"></path>
  <path fill="white" d="M714 1061L749.452 1081.23V1111.67L714 1091.44V1061Z"></path>
  <path fill="white" d="M770 1093L805.452 1113.23V1143.67L770 1123.44V1093Z"></path>
  <path fill="white" d="M822.908 1123.89L858.36 1144.13V1174.56L822.908 1154.33V1123.89Z"></path>
  <path fill="white" d="M806.715 1034.51C809.466 1032.31 811.117 1028.46 811.117 1023.51C811.117 1011.95 802.864 997.099 792.41 991.597C782.506 985.544 773.703 990.496 773.703 1002.05C773.703 1010.3 777.554 1019.11 783.056 1026.26C773.153 1031.21 766 1041.12 766 1053.22V1060.37L821.021 1092.83V1077.43C821.571 1061.47 816.069 1046.62 806.715 1034.51Z"></path>
  <path fill="white" d="M916.537 990.851L676.373 851.58C665.127 845.084 656 827.663 656 812.657V581.85C656 566.843 665.127 559.949 676.373 566.445L916.537 705.729C927.782 712.225 936.91 729.658 936.91 744.665V975.471C936.91 990.453 927.782 997.346 916.537 990.851Z"></path>
  <path fill="url(#paint9_linear_1718_18725)" d="M830.215 815.783L771.841 821.719C764.915 822.709 757 813.804 757 805.889V738.61C757 730.695 765.905 729.706 771.841 736.631L830.215 797.974C837.141 805.889 837.141 814.793 830.215 815.783L771.841 821.719C764.915 822.709 757 813.804 757 805.889V738.61C757 730.695 765.905 729.706 771.841 736.631L830.215 797.974C837.141 805.889 837.141 814.793 830.215 815.783Z"></path>
  <path fill="url(#paint10_linear_1718_18725)" d="M680 621.515C680 613.774 688.417 608.968 695.083 612.903L809.203 680.266C812.25 682.065 814.12 685.339 814.12 688.878V702.186C814.12 709.881 805.793 714.693 799.126 710.85L685.006 645.073C681.909 643.287 680 639.984 680 636.409V621.515Z"></path>
  <path fill="url(#paint11_linear_1718_18725)" d="M1001.48 648.032L90.6514 119.178C80.9078 113.542 72.9999 98.4582 72.9999 85.4539C72.9999 72.4625 80.9078 66.4931 90.6514 72.1159L1001.48 600.97C1011.23 606.606 1019.12 621.69 1019.12 634.681C1019.12 647.686 1011.21 653.655 1001.48 648.032Z"></path>
  <path fill="white" d="M100.745 108.037C98.6934 103.216 99.241 98.3669 101.968 97.2065C104.695 96.0462 108.569 99.0139 110.62 103.835C112.671 108.656 112.124 113.505 109.397 114.665C106.67 115.826 102.796 112.858 100.745 108.037Z"></path>
  <path fill="white" d="M121.922 120.26C119.87 115.438 120.418 110.59 123.145 109.429C125.872 108.269 129.746 111.237 131.797 116.058C133.848 120.879 133.301 125.728 130.574 126.888C127.847 128.048 123.973 125.081 121.922 120.26Z"></path>
  <path fill="white" d="M143.104 132.494C141.053 127.673 141.6 122.824 144.327 121.664C147.054 120.503 150.928 123.471 152.979 128.292C155.031 133.113 154.483 137.962 151.756 139.122C149.029 140.283 145.155 137.315 143.104 132.494Z"></path>
  <path fill="white" d="M817.396 525.758L223.813 182.453C220.399 180.489 217.639 175.2 217.639 170.656C217.639 166.111 220.399 164.019 223.813 165.983L817.396 509.288C820.81 511.252 823.571 516.541 823.571 521.086C823.622 525.63 820.862 527.722 817.396 525.758Z"></path>
  <path fill="white" d="M916.935 581.542L885.175 563.21C881.773 561.233 879 555.957 879 551.412C879 546.855 881.773 544.776 885.175 546.74L916.935 565.071C920.349 567.048 923.122 572.325 923.122 576.869C923.122 581.426 920.349 583.519 916.935 581.542Z"></path>
  <path fill="white" d="M974.279 614.649L942.532 596.317C939.13 594.341 936.357 589.064 936.357 584.52C936.357 579.963 939.13 577.883 942.532 579.847L974.292 598.179C977.707 600.156 980.48 605.432 980.48 609.976C980.467 614.534 977.694 616.588 974.279 614.649Z"></path>
  <defs>
    <linearGradient gradientUnits="userSpaceOnUse" y2="1197.62" x2="730.174" y1="336.35" x1="730.174" id="paint0_linear_1718_18725">
      <stop stop-color="#BFD1FF" offset="0.02"></stop>
      <stop stop-color="white" offset="1"></stop>
    </linearGradient>
    <linearGradient gradientUnits="userSpaceOnUse" y2="1266.62" x2="627.174" y1="405.35" x1="627.174" id="paint1_linear_1718_18725">
      <stop stop-color="#BFD1FF" offset="0.02"></stop>
      <stop stop-color="white" offset="1"></stop>
    </linearGradient>
    <linearGradient gradientUnits="userSpaceOnUse" y2="1221.33" x2="539.146" y1="500.505" x1="539.146" id="paint2_linear_1718_18725">
      <stop stop-color="#2575F2" offset="0.02"></stop>
      <stop stop-color="#6A11C1" offset="1"></stop>
    </linearGradient>
    <linearGradient gradientUnits="userSpaceOnUse" y2="539.289" x2="603.4" y1="539.289" x1="168.022" id="paint3_linear_1718_18725">
      <stop stop-color="#623FE9"></stop>
      <stop stop-color="#6D49E8" offset="0.1676"></stop>
      <stop stop-color="#8C65E5" offset="0.7004"></stop>
      <stop stop-color="#976FE4" offset="1"></stop>
    </linearGradient>
    <linearGradient gradientUnits="userSpaceOnUse" y2="608.791" x2="573.667" y1="333.915" x1="169.87" id="paint4_linear_1718_18725">
      <stop stop-color="#8B87FF"></stop>
      <stop stop-color="#F68BC6" offset="1"></stop>
    </linearGradient>
    <linearGradient gradientUnits="userSpaceOnUse" y2="490.089" x2="222.264" y1="490.089" x1="161.425" id="paint5_linear_1718_18725">
      <stop stop-color="#E967CD"></stop>
      <stop stop-color="#EB6FC3" offset="0.1594"></stop>
      <stop stop-color="#F086A9" offset="0.4286"></stop>
      <stop stop-color="#F8AA7E" offset="0.7724"></stop>
      <stop stop-color="#FEC55E" offset="1"></stop>
    </linearGradient>
    <linearGradient gradientUnits="userSpaceOnUse" y2="628.785" x2="229.128" y1="606.999" x1="161.421" id="paint6_linear_1718_18725">
      <stop stop-color="#8B87FF"></stop>
      <stop stop-color="#F68BC6" offset="1"></stop>
    </linearGradient>
    <linearGradient gradientUnits="userSpaceOnUse" y2="758.785" x2="221.128" y1="736.999" x1="153.421" id="paint7_linear_1718_18725">
      <stop stop-color="#8B87FF"></stop>
      <stop stop-color="#F68BC6" offset="1"></stop>
    </linearGradient>
    <linearGradient gradientUnits="userSpaceOnUse" y2="1188.92" x2="977.416" y1="1353.79" x1="715.61" id="paint8_linear_1718_18725">
      <stop stop-color="#9CCFF7"></stop>
      <stop stop-color="#2E7FEB" offset="1"></stop>
    </linearGradient>
    <linearGradient gradientUnits="userSpaceOnUse" y2="777.045" x2="835.741" y1="777.045" x1="757.073" id="paint9_linear_1718_18725">
      <stop stop-color="#E967CD"></stop>
      <stop stop-color="#EB6FC3" offset="0.1594"></stop>
      <stop stop-color="#F086A9" offset="0.4286"></stop>
      <stop stop-color="#F8AA7E" offset="0.7724"></stop>
      <stop stop-color="#FEC55E" offset="1"></stop>
    </linearGradient>
    <linearGradient gradientUnits="userSpaceOnUse" y2="656.936" x2="781.953" y1="623.159" x1="760.736" id="paint10_linear_1718_18725">
      <stop stop-color="#2575F2" offset="0.02"></stop>
      <stop stop-color="#6A11C1" offset="1"></stop>
    </linearGradient>
    <linearGradient gradientUnits="userSpaceOnUse" y2="111.136" x2="109.549" y1="536.144" x1="861.628" id="paint11_linear_1718_18725">
      <stop stop-color="#2575F2" offset="0.02"></stop>
      <stop stop-color="#6A11C1" offset="1"></stop>
    </linearGradient>
  </defs>
</svg>
