<svg xmlns="http://www.w3.org/2000/svg" width="1209" height="1442" fill="none"><path fill="url(#a)" fill-opacity=".6" d="M299.286 3.163c-12.689-7.334-22.952-1.486-22.952 13.115v656.574c0 5.596 3.935 12.416 8.842 15.301l890.004 513.787c4.87 2.82 8.82.54 8.82-5.06V540.311c0-14.591-10.28-32.329-23.01-39.674z"/><path fill="url(#b)" fill-opacity=".8" d="M196.286 72.163c-12.689-7.334-22.952-1.486-22.952 13.115v656.574c0 5.596 3.935 12.416 8.842 15.301l890.004 513.787c4.87 2.82 8.82.54 8.82-5.06V609.311c0-14.591-10.28-32.329-23.01-39.674z"/><path fill="url(#c)" d="M648.783 485.09 121.286 180.509c-12.689-7.333-49.008 2.339-49.008 16.941L70.28 856.198c0 5.596 3.946 12.416 8.853 15.302l893.97 519.41c4.886 2.82 32.898-11.01 32.898-16.6V717.69c0-14.591-10.285-32.329-22.952-39.674z"/><path fill="#fff" d="M976.891 1005.46V727.35c0-14.602-10.285-32.34-22.952-39.685L92.231 190.158c-12.689-7.323-22.952-1.486-22.952 13.115v656.574c0 5.596 3.935 12.427 8.842 15.301L968.18 1389.03c4.875 2.81 8.82.53 8.82-5.06V1088.3" opacity=".4"/><path fill="#fff" d="M612.537 1131.85 125.373 862.58C114.127 856.084 105 838.663 105 823.657V274.85c0-15.007 9.127-21.901 20.373-15.405l487.164 269.284c11.245 6.496 20.373 23.929 20.373 38.936v548.805c0 14.98-9.128 21.88-20.373 15.38"/><path fill="url(#d)" fill-opacity=".5" d="M168.074 332.906v153.04c0 6.681 4.858 14.576 10.324 17.612l414.181 244.136 6.68-3.644c2.429-1.215 4.251-4.251 4.251-7.288V588.581c0-6.681-4.859-14.576-10.324-17.612l-411.752-238.67c-4.251-1.822-9.109-1.822-13.36.607"/><path fill="url(#e)" d="M137.324 365.12c-5.466-3.037-10.324-.608-10.324 6.073v148.789c0 6.68 4.858 14.575 10.324 17.612l414.788 239.884c5.466 3.037 10.324.608 10.324-6.073V622.616c0-6.68-4.858-14.575-10.324-17.612z"/><path fill="#fff" d="M236.922 473.116c0-4.249 4.619-6.888 8.28-4.73l290.972 171.539a5.24 5.24 0 0 1 2.578 4.512c0 4.051-4.4 6.569-7.892 4.517L239.632 477.85a5.49 5.49 0 0 1-2.71-4.734m0 37.194c0-4.047 4.4-6.56 7.886-4.505l291.495 171.847a4.98 4.98 0 0 1 2.449 4.287c0 3.848-4.18 6.24-7.497 4.291L239.503 514.818a5.23 5.23 0 0 1-2.581-4.508m0 37.501c0-4.246 4.619-6.883 8.276-4.723l130.041 76.792a5.24 5.24 0 0 1 2.578 4.515c0 4.052-4.4 6.573-7.896 4.524l-130.287-76.375a5.49 5.49 0 0 1-2.712-4.733"/><path fill="url(#f)" d="M205.95 483.544c3.036-2.429 4.858-6.68 4.858-12.146 0-12.753-9.109-29.15-20.648-35.223-10.932-6.681-20.649-1.215-20.649 11.538 0 9.11 4.252 18.827 10.325 26.722-10.932 5.465-18.827 16.397-18.827 29.758v7.895l60.73 35.83v-17.004c.608-17.612-5.465-34.009-15.789-47.37"/><path fill="#DFE6FD" d="M241.776 666.065c0-3.85 4.185-6.241 7.501-4.285l263.616 155.411a4.75 4.75 0 0 1 2.335 4.088c0 3.67-3.986 5.951-7.15 4.092L244.23 670.354a4.98 4.98 0 0 1-2.454-4.289m0 33.698c0-3.666 3.985-5.943 7.144-4.081l264.089 155.691a4.51 4.51 0 0 1 2.219 3.884c0 3.486-3.787 5.653-6.792 3.887L244.114 703.848a4.74 4.74 0 0 1-2.338-4.085m0 33.975c0-3.848 4.184-6.236 7.497-4.28l117.815 69.572a4.75 4.75 0 0 1 2.336 4.091c0 3.672-3.987 5.956-7.154 4.099l-118.038-69.194a4.97 4.97 0 0 1-2.456-4.288"/><path fill="url(#g)" d="M196.715 660.513c2.751-2.201 4.402-6.053 4.402-11.004 0-11.555-8.253-26.41-18.707-31.912-9.904-6.053-18.707-1.101-18.707 10.454 0 8.253 3.851 17.056 9.353 24.209-9.903 4.951-17.056 14.855-17.056 26.96v7.152l55.021 32.462v-15.405c.55-15.956-4.952-30.812-14.306-42.916"/><path fill="#DFE6FD" d="M229.776 796.065c0-3.85 4.185-6.241 7.501-4.285l263.616 155.411a4.75 4.75 0 0 1 2.335 4.088c0 3.67-3.986 5.951-7.15 4.092L232.23 800.354a4.98 4.98 0 0 1-2.454-4.289m0 33.698c0-3.666 3.985-5.943 7.144-4.081l264.089 155.691a4.51 4.51 0 0 1 2.219 3.884c0 3.486-3.787 5.653-6.792 3.887L232.114 833.848a4.74 4.74 0 0 1-2.338-4.085m0 33.975c0-3.848 4.184-6.236 7.497-4.28l117.815 69.572a4.75 4.75 0 0 1 2.336 4.091c0 3.672-3.987 5.956-7.154 4.099l-118.038-69.194a4.97 4.97 0 0 1-2.456-4.288"/><path fill="url(#h)" d="M188.715 790.513c2.751-2.201 4.402-6.053 4.402-11.004 0-11.555-8.253-26.41-18.707-31.912-9.904-6.053-18.707-1.101-18.707 10.454 0 8.253 3.851 17.056 9.353 24.209-9.903 4.951-17.056 14.855-17.056 26.96v7.152l55.021 32.462v-15.405c.55-15.956-4.952-30.812-14.306-42.916"/><path fill="url(#i)" d="m916.537 1306.85-240.164-139.27c-11.246-6.5-20.373-23.92-20.373-38.92V897.85c0-15.007 9.127-21.901 20.373-15.405l240.164 139.285c11.245 6.49 20.373 23.93 20.373 38.93v230.81c0 14.98-9.128 21.88-20.373 15.38" opacity=".65"/><path fill="#DFE6FD" d="M837.103 1188.93c0 4.38-4.734 7.13-8.538 4.95l-108.491-61.99a6.11 6.11 0 0 1-3.074-5.3c0-4.7 5.094-7.64 9.161-5.28l108.098 62.68a5.7 5.7 0 0 1 2.844 4.94m-32.501 13.73c0 4.37-4.721 7.12-8.521 4.95l-54.2-30.85a5.7 5.7 0 0 1-2.881-4.95c0-4.38 4.721-7.12 8.522-4.96l54.199 30.85a5.72 5.72 0 0 1 2.881 4.96"/><path fill="#fff" d="m714 1061 35.452 20.23v30.44L714 1091.44zm56 32 35.452 20.23v30.44L770 1123.44zm52.908 30.89 35.452 20.24v30.43l-35.452-20.23zm-16.193-89.38c2.751-2.2 4.402-6.05 4.402-11 0-11.56-8.253-26.411-18.707-31.913-9.904-6.053-18.707-1.101-18.707 10.453 0 8.25 3.851 17.06 9.353 24.21-9.903 4.95-17.056 14.86-17.056 26.96v7.15l55.021 32.46v-15.4c.55-15.96-4.952-30.81-14.306-42.92m109.822-43.659L676.373 851.58C665.127 845.084 656 827.663 656 812.657V581.85c0-15.007 9.127-21.901 20.373-15.405l240.164 139.284c11.245 6.496 20.373 23.929 20.373 38.936v230.806c0 14.982-9.128 21.875-20.373 15.38"/><path fill="url(#j)" d="m830.215 815.783-58.374 5.936c-6.926.99-14.841-7.915-14.841-15.83V738.61c0-7.915 8.905-8.904 14.841-1.979l58.374 61.343c6.926 7.915 6.926 16.819 0 17.809l-58.374 5.936c-6.926.99-14.841-7.915-14.841-15.83V738.61c0-7.915 8.905-8.904 14.841-1.979l58.374 61.343c6.926 7.915 6.926 16.819 0 17.809"/><path fill="url(#k)" d="M680 621.515c0-7.741 8.417-12.547 15.083-8.612l114.12 67.363a10 10 0 0 1 4.917 8.612v13.308c0 7.695-8.327 12.507-14.994 8.664l-114.12-65.777a10 10 0 0 1-5.006-8.664z"/><path fill="url(#l)" d="M1001.48 648.032 90.651 119.178C80.908 113.542 73 98.458 73 85.454c0-12.991 7.908-18.96 17.651-13.338L1001.48 600.97c9.75 5.636 17.64 20.72 17.64 33.711 0 13.005-7.91 18.974-17.64 13.351"/><path fill="#fff" d="M100.745 108.037c-2.052-4.821-1.504-9.67 1.223-10.83s6.601 1.807 8.652 6.628 1.504 9.67-1.223 10.83-6.601-1.807-8.652-6.628m21.177 12.223c-2.052-4.822-1.504-9.67 1.223-10.831s6.601 1.808 8.652 6.629 1.504 9.67-1.223 10.83-6.601-1.807-8.652-6.628m21.182 12.234c-2.051-4.821-1.504-9.67 1.223-10.83s6.601 1.807 8.652 6.628c2.052 4.821 1.504 9.67-1.223 10.83s-6.601-1.807-8.652-6.628m674.292 393.264L223.813 182.453c-3.414-1.964-6.174-7.253-6.174-11.797s2.76-6.637 6.174-4.673l593.583 343.305c3.414 1.964 6.175 7.253 6.175 11.798.051 4.544-2.709 6.636-6.175 4.672m99.539 55.784-31.76-18.332c-3.402-1.977-6.175-7.253-6.175-11.798 0-4.557 2.773-6.636 6.175-4.672l31.76 18.331c3.414 1.977 6.187 7.254 6.187 11.798 0 4.557-2.773 6.65-6.187 4.673m57.344 33.107-31.747-18.332c-3.402-1.976-6.175-7.253-6.175-11.797 0-4.557 2.773-6.637 6.175-4.673l31.76 18.332c3.415 1.977 6.188 7.253 6.188 11.797-.013 4.558-2.786 6.612-6.201 4.673"/><defs><linearGradient id="a" x1="730.174" x2="730.174" y1="336.35" y2="1197.62" gradientUnits="userSpaceOnUse"><stop offset=".02" stop-color="#BFD1FF"/><stop offset="1" stop-color="#fff"/></linearGradient><linearGradient id="b" x1="627.174" x2="627.174" y1="405.35" y2="1266.62" gradientUnits="userSpaceOnUse"><stop offset=".02" stop-color="#BFD1FF"/><stop offset="1" stop-color="#fff"/></linearGradient><linearGradient id="c" x1="539.146" x2="539.146" y1="500.505" y2="1221.33" gradientUnits="userSpaceOnUse"><stop offset=".02" stop-color="#2575F2"/><stop offset="1" stop-color="#6A11C1"/></linearGradient><linearGradient id="d" x1="168.022" x2="603.4" y1="539.289" y2="539.289" gradientUnits="userSpaceOnUse"><stop stop-color="#623FE9"/><stop offset=".168" stop-color="#6D49E8"/><stop offset=".7" stop-color="#8C65E5"/><stop offset="1" stop-color="#976FE4"/></linearGradient><linearGradient id="e" x1="169.87" x2="573.667" y1="333.915" y2="608.791" gradientUnits="userSpaceOnUse"><stop stop-color="#8B87FF"/><stop offset="1" stop-color="#F68BC6"/></linearGradient><linearGradient id="f" x1="161.425" x2="222.264" y1="490.089" y2="490.089" gradientUnits="userSpaceOnUse"><stop stop-color="#E967CD"/><stop offset=".159" stop-color="#EB6FC3"/><stop offset=".429" stop-color="#F086A9"/><stop offset=".772" stop-color="#F8AA7E"/><stop offset="1" stop-color="#FEC55E"/></linearGradient><linearGradient id="g" x1="161.421" x2="229.128" y1="606.999" y2="628.785" gradientUnits="userSpaceOnUse"><stop stop-color="#8B87FF"/><stop offset="1" stop-color="#F68BC6"/></linearGradient><linearGradient id="h" x1="153.421" x2="221.128" y1="736.999" y2="758.785" gradientUnits="userSpaceOnUse"><stop stop-color="#8B87FF"/><stop offset="1" stop-color="#F68BC6"/></linearGradient><linearGradient id="i" x1="715.61" x2="977.416" y1="1353.79" y2="1188.92" gradientUnits="userSpaceOnUse"><stop stop-color="#9CCFF7"/><stop offset="1" stop-color="#2E7FEB"/></linearGradient><linearGradient id="j" x1="757.073" x2="835.741" y1="777.045" y2="777.045" gradientUnits="userSpaceOnUse"><stop stop-color="#E967CD"/><stop offset=".159" stop-color="#EB6FC3"/><stop offset=".429" stop-color="#F086A9"/><stop offset=".772" stop-color="#F8AA7E"/><stop offset="1" stop-color="#FEC55E"/></linearGradient><linearGradient id="k" x1="760.736" x2="781.953" y1="623.159" y2="656.936" gradientUnits="userSpaceOnUse"><stop offset=".02" stop-color="#2575F2"/><stop offset="1" stop-color="#6A11C1"/></linearGradient><linearGradient id="l" x1="861.628" x2="109.549" y1="536.144" y2="111.136" gradientUnits="userSpaceOnUse"><stop offset=".02" stop-color="#2575F2"/><stop offset="1" stop-color="#6A11C1"/></linearGradient></defs></svg>