<svg xmlns="http://www.w3.org/2000/svg" xmlns:xlink="http://www.w3.org/1999/xlink" width="1165" height="1320" node-id="1" sillyvg="true" template-height="1320" template-width="1165" version="1.1" viewBox="0 0 1165 1320"><defs node-id="72"><linearGradient id="paint0_linear_1618_18774" x1="515.826" x2="515.826" y1="342.35" y2="1203.62" gradientUnits="userSpaceOnUse" node-id="42" spreadMethod="pad"><stop offset=".02" stop-color="#bfd1ff"/><stop offset="1" stop-color="#fff"/></linearGradient><linearGradient id="paint1_linear_1618_18774" x1="631.319" x2="631.319" y1="428.328" y2="1149.16" gradientUnits="userSpaceOnUse" node-id="45" spreadMethod="pad"><stop offset=".02" stop-color="#2575f2"/><stop offset="1" stop-color="#6a11c1"/></linearGradient><linearGradient id="paint2_linear_1618_18774" x1="229.649" x2="1083.65" y1="665.309" y2="212.481" gradientUnits="userSpaceOnUse" node-id="48" spreadMethod="pad"><stop offset=".02" stop-color="#2575f2"/><stop offset="1" stop-color="#6a11c1"/></linearGradient><linearGradient id="paint3_linear_1618_18774" x1="804.918" x2="1066.7" y1="443.308" y2="443.308" gradientUnits="userSpaceOnUse" node-id="51" spreadMethod="pad"><stop offset="0" stop-color="#6dacef"/><stop offset="1" stop-color="#97c9fe"/></linearGradient><linearGradient id="paint4_linear_1618_18774" x1="804.919" x2="1066.7" y1="672.17" y2="672.17" gradientUnits="userSpaceOnUse" node-id="54" spreadMethod="pad"><stop offset="0" stop-color="#6dacef"/><stop offset="1" stop-color="#97c9fe"/></linearGradient><linearGradient id="paint5_linear_1618_18774" x1="903.368" x2="1195.93" y1="611.995" y2="529.939" gradientUnits="userSpaceOnUse" node-id="57" spreadMethod="pad"><stop offset=".02" stop-color="#2575f2"/><stop offset="1" stop-color="#b881ff"/></linearGradient><linearGradient id="paint6_linear_1618_18774" x1="971.638" x2="904.165" y1="462.143" y2="484.252" gradientUnits="userSpaceOnUse" node-id="60" spreadMethod="pad"><stop offset="0" stop-color="#8b87ff"/><stop offset="1" stop-color="#f68bc6"/></linearGradient><linearGradient id="paint7_linear_1618_18774" x1="913.423" x2="1205.98" y1="842.367" y2="760.305" gradientUnits="userSpaceOnUse" node-id="63" spreadMethod="pad"><stop offset=".02" stop-color="#2575f2"/><stop offset="1" stop-color="#b881ff"/></linearGradient><linearGradient id="paint8_linear_1618_18774" x1="983.638" x2="916.165" y1="691.143" y2="713.252" gradientUnits="userSpaceOnUse" node-id="66" spreadMethod="pad"><stop offset="0" stop-color="#8b87ff"/><stop offset="1" stop-color="#f68bc6"/></linearGradient><clipPath id="clip0_1618_18774" node-id="69"><path fill="#000" fill-rule="nonzero" stroke="none" d="M 0.00 0.00 L 1164.22 0.00 L 1164.22 1320.00 L 0.00 1320.00 Z" node-id="129" target-height="1320" target-width="1164.22" target-x="0" target-y="0"/></clipPath></defs><g id="sillyvg_g_0" clip-path="url(#clip0_1618_18774)" node-id="133"><path fill="url(#paint0_linear_1618_18774)" fill-rule="nonzero" stroke="none" d="M 946.71 9.16 C 959.40 1.83 969.67 7.68 969.67 22.28 L 969.67 678.85 C 969.67 684.45 965.73 691.27 960.82 694.15 L 70.82 1207.94 C 65.95 1210.76 62.00 1208.48 62.00 1202.88 L 62.00 546.31 C 62.00 531.72 72.28 513.98 85.01 506.64 L 946.71 9.16 Z" node-id="135" target-height="1208.93" target-width="907.67" target-x="62" target-y="1.83"/><path fill="url(#paint1_linear_1618_18774)" fill-rule="nonzero" stroke="none" d="M 521.68 412.91 L 1049.18 108.33 C 1061.87 101.00 1098.19 110.67 1098.19 125.27 L 1102.19 790.02 C 1102.19 795.62 1098.24 802.44 1093.33 805.32 L 197.36 1318.73 C 192.48 1321.55 164.47 1307.73 164.47 1302.13 L 164.47 645.51 C 164.47 630.92 174.75 613.18 187.42 605.84 L 521.68 412.91 Z" node-id="137" target-height="1220.55" target-width="937.72" target-x="164.47" target-y="101"/><path fill="#fff" fill-opacity=".4" fill-rule="nonzero" stroke="none" d="M 191.62 935.26 L 191.62 657.15 C 191.62 642.55 201.90 624.81 214.57 617.47 L 1076.27 119.96 C 1088.96 112.64 1099.23 118.47 1099.23 133.08 L 1099.23 789.65 C 1099.23 795.25 1095.29 802.08 1090.38 804.95 L 200.32 1318.83 C 195.45 1321.64 191.50 1319.37 191.50 1313.77 L 191.50 1018.11" group-id="1" node-id="141" target-height="1209" target-width="907.73" target-x="191.5" target-y="112.64"/><path fill="url(#paint2_linear_1618_18774)" fill-rule="nonzero" stroke="none" d="M 752.17 388.67 L 191.62 712.31 L 191.62 657.86 C 191.62 643.26 201.90 625.52 214.57 618.18 L 1076.27 120.67 C 1088.96 113.35 1099.23 119.20 1099.23 133.79 L 1099.23 188.24" node-id="144" target-height="598.96" target-width="907.61" target-x="191.62" target-y="113.35"/><path fill="#fff" fill-rule="nonzero" stroke="none" d="M 240.35 643.75 C 240.35 649.84 236.04 657.26 230.74 660.33 C 225.44 663.40 221.13 660.95 221.13 654.87 C 221.13 648.79 225.43 641.36 230.74 638.30 C 236.05 635.24 240.35 637.67 240.35 643.75 Z" node-id="146" target-height="28.16" target-width="19.22" target-x="221.13" target-y="635.24"/><path fill="#fff" fill-rule="nonzero" stroke="none" d="M 265.36 629.32 C 265.36 635.40 261.05 642.82 255.75 645.89 C 250.45 648.97 246.13 646.51 246.13 640.43 C 246.13 634.35 250.44 626.91 255.75 623.85 C 261.06 620.79 265.36 623.23 265.36 629.32 Z" node-id="148" target-height="28.18" target-width="19.23" target-x="246.13" target-y="620.79"/><path fill="#fff" fill-rule="nonzero" stroke="none" d="M 290.36 614.88 C 290.36 620.98 286.06 628.40 280.75 631.46 C 275.45 634.52 271.14 632.07 271.14 625.99 C 271.14 619.92 275.44 612.47 280.75 609.41 C 286.07 606.35 290.36 608.79 290.36 614.88 Z" node-id="150" target-height="28.17" target-width="19.22" target-x="271.14" target-y="606.35"/><path fill="url(#paint3_linear_1618_18774)" fill-opacity=".3" fill-rule="nonzero" stroke="none" d="M 1055.98 282.63 C 1061.90 279.23 1066.70 281.96 1066.70 288.75 L 1066.70 446.73 C 1066.70 453.53 1061.90 461.80 1055.98 465.22 L 815.68 603.98 C 809.76 607.40 804.96 604.66 804.96 597.87 L 804.96 439.89 C 804.96 433.10 809.76 424.81 815.68 421.39 L 1055.98 282.63 Z" group-id="2" node-id="154" target-height="328.17" target-width="261.74" target-x="804.96" target-y="279.23"/><path fill="url(#paint4_linear_1618_18774)" fill-opacity=".3" fill-rule="nonzero" stroke="none" d="M 1055.98 511.50 C 1061.90 508.08 1066.70 510.82 1066.70 517.61 L 1066.70 675.59 C 1066.70 682.38 1061.90 690.66 1055.98 694.08 L 815.64 832.89 C 809.72 836.30 804.92 833.57 804.92 826.78 L 804.92 668.79 C 804.92 662.00 809.72 653.72 815.64 650.30 L 1055.98 511.50 Z" group-id="3" node-id="159" target-height="328.22" target-width="261.78" target-x="804.92" target-y="508.08"/><path fill="#fff" fill-opacity=".3" fill-rule="nonzero" stroke="none" d="M 691.48 482.85 C 701.08 477.31 708.85 481.76 708.85 492.75 L 708.85 838.76 C 708.85 849.76 701.08 863.17 691.48 868.71 L 237.03 1130.30 C 227.43 1135.84 219.66 1131.39 219.66 1120.46 L 219.66 774.40 C 219.66 763.40 227.43 749.99 237.03 744.45 L 691.48 482.85 Z" group-id="4" node-id="164" target-height="658.53" target-width="489.19" target-x="219.66" target-y="477.31"/><path fill="#fff" fill-opacity=".3" fill-rule="nonzero" stroke="none" d="M 752.85 521.90 C 762.45 516.37 770.22 520.81 770.22 531.80 L 770.22 877.81 C 770.22 888.81 762.45 902.22 752.85 907.76 L 298.39 1169.36 C 288.80 1174.89 281.03 1170.45 281.03 1159.46 L 281.03 813.45 C 281.03 802.45 288.80 789.04 298.39 783.50 L 752.85 521.90 Z" group-id="5" node-id="169" target-height="658.52" target-width="489.19" target-x="281.03" target-y="516.37"/><path fill="#fff" fill-rule="nonzero" stroke="none" d="M 829.72 558.24 C 839.31 552.70 847.08 557.15 847.08 568.14 L 847.08 914.14 C 847.08 925.14 839.31 938.55 829.72 944.09 L 375.23 1205.69 C 365.63 1211.23 357.86 1206.78 357.86 1195.79 L 357.86 849.78 C 357.86 838.78 365.63 825.37 375.23 819.84 L 829.72 558.24 Z" node-id="172" target-height="658.53" target-width="489.22" target-x="357.86" target-y="552.7"/><path fill="#8b87ff" fill-rule="nonzero" stroke="none" d="M 664.94 786.33 C 664.94 781.73 659.96 778.84 655.96 781.12 L 632.51 794.51 C 630.64 795.57 629.49 797.56 629.49 799.72 L 629.49 816.34 C 629.49 820.94 634.46 823.83 638.46 821.55 L 661.91 808.16 C 663.78 807.10 664.94 805.11 664.94 802.95 L 664.94 786.33 Z" node-id="174" target-height="44.99" target-width="35.45" target-x="629.49" target-y="778.84"/><path fill="#8b87ff" fill-rule="nonzero" stroke="none" d="M 611.86 817.22 C 611.86 812.61 606.88 809.72 602.88 812.00 L 579.43 825.39 C 577.56 826.46 576.41 828.45 576.41 830.60 L 576.41 847.22 C 576.41 851.83 581.38 854.72 585.38 852.43 L 608.83 839.05 C 610.70 837.98 611.86 835.99 611.86 833.84 L 611.86 817.22 Z" node-id="176" target-height="45" target-width="35.45" target-x="576.41" target-y="809.72"/><path fill="#8b87ff" fill-rule="nonzero" stroke="none" d="M 556.03 849.23 C 556.03 844.62 551.05 841.73 547.05 844.01 L 523.60 857.40 C 521.73 858.47 520.58 860.46 520.58 862.61 L 520.58 879.23 C 520.58 883.84 525.55 886.73 529.55 884.44 L 553.00 871.06 C 554.87 869.99 556.03 868.00 556.03 865.85 L 556.03 849.23 Z" node-id="178" target-height="45" target-width="35.45" target-x="520.58" target-y="841.73"/><path fill="#8b87ff" fill-rule="nonzero" stroke="none" d="M 504.83 878.70 C 504.83 874.10 499.86 871.21 495.86 873.49 L 472.41 886.88 C 470.54 887.94 469.38 889.93 469.38 892.09 L 469.38 908.71 C 469.38 913.31 474.35 916.20 478.35 913.92 L 501.81 900.53 C 503.68 899.47 504.83 897.48 504.83 895.32 L 504.83 878.70 Z" node-id="180" target-height="44.99" target-width="35.45" target-x="469.38" target-y="871.21"/><path fill="#8b87ff" fill-rule="nonzero" stroke="none" d="M 445.45 913.07 C 445.45 908.47 440.49 905.58 436.49 907.85 L 413.04 921.18 C 411.16 922.24 410.00 924.24 410.00 926.39 L 410.00 943.10 C 410.00 947.70 414.97 950.59 418.97 948.31 L 442.43 934.92 C 444.30 933.86 445.45 931.87 445.45 929.71 L 445.45 913.07 Z" node-id="182" target-height="45.01" target-width="35.45" target-x="410" target-y="905.58"/><path fill="#f68bc6" fill-rule="nonzero" stroke="none" d="M 597.90 757.39 C 597.90 752.77 592.90 749.89 588.90 752.20 L 413.00 853.74 C 411.14 854.81 410.00 856.79 410.00 858.93 L 410.00 881.23 C 410.00 885.85 415.00 888.74 419.00 886.43 L 594.90 784.89 C 596.76 783.82 597.90 781.84 597.90 779.69 L 597.90 757.39 Z" node-id="184" target-height="138.85" target-width="187.9" target-x="410" target-y="749.89"/><path fill="#8b87ff" fill-rule="nonzero" stroke="none" d="M 799.90 641.39 C 799.90 636.77 794.90 633.89 790.90 636.20 L 615.00 737.74 C 613.14 738.81 612.00 740.79 612.00 742.93 L 612.00 765.23 C 612.00 769.85 617.00 772.74 621.00 770.43 L 796.90 668.89 C 798.76 667.82 799.90 665.84 799.90 663.69 L 799.90 641.39 Z" node-id="186" target-height="138.85" target-width="187.9" target-x="612" target-y="633.89"/><path fill="#6491fb" fill-rule="nonzero" stroke="none" d="M 655.34 956.56 L 781.48 883.74 C 783.66 882.51 785.37 879.17 785.37 876.31 C 785.37 873.45 783.63 872.13 781.48 873.37 L 655.34 946.20 C 653.15 947.44 651.46 950.76 651.46 953.62 C 651.46 956.49 653.20 957.81 655.34 956.56 Z" node-id="188" target-height="85.68" target-width="133.91" target-x="651.46" target-y="872.13"/><path fill="#94f2b5" fill-rule="nonzero" stroke="none" d="M 579.61 1000.30 L 632.99 969.49 C 635.17 968.26 636.87 964.92 636.87 962.06 C 636.87 959.20 635.13 957.89 632.99 959.12 L 579.61 989.94 C 577.42 991.18 575.73 994.50 575.73 997.36 C 575.70 1000.24 577.42 1001.55 579.61 1000.30 Z" node-id="190" target-height="43.66" target-width="61.17" target-x="575.7" target-y="957.89"/><path fill="#ffc99c" fill-rule="nonzero" stroke="none" d="M 541.62 1041.85 L 697.65 951.73 C 699.83 950.50 701.54 951.81 701.54 954.67 C 701.54 957.54 699.80 960.87 697.65 962.11 L 541.59 1052.21 C 539.40 1053.45 537.69 1052.13 537.69 1049.27 C 537.73 1046.40 539.47 1043.08 541.62 1041.85 Z" node-id="192" target-height="102.95" target-width="163.85" target-x="537.69" target-y="950.5"/><path fill="#a69cfb" fill-rule="nonzero" stroke="none" d="M 416.89 1114.43 L 514.64 1057.99 C 516.83 1056.75 518.53 1058.06 518.53 1060.93 C 518.53 1063.79 516.80 1067.11 514.64 1068.36 L 416.89 1124.80 C 414.70 1126.03 413.00 1124.72 413.00 1121.86 C 413.02 1120.40 413.39 1118.97 414.06 1117.68 C 414.74 1116.39 415.71 1115.28 416.89 1114.43 Z" node-id="194" target-height="69.28" target-width="105.53" target-x="413" target-y="1056.75"/><path fill="#ffc99c" fill-rule="nonzero" stroke="none" d="M 614.38 950.84 L 416.89 1064.83 C 414.70 1066.08 413.00 1064.75 413.00 1061.89 C 413.02 1060.43 413.39 1059.00 414.06 1057.71 C 414.74 1056.42 415.71 1055.31 416.89 1054.46 L 614.34 940.47 C 616.53 939.23 618.23 940.54 618.23 943.40 C 618.21 944.86 617.86 946.28 617.19 947.58 C 616.52 948.87 615.56 949.98 614.38 950.84 Z" node-id="196" target-height="126.85" target-width="205.23" target-x="413" target-y="939.23"/><path fill="#f99" fill-rule="nonzero" stroke="none" d="M 740.20 877.60 L 654.27 927.21 C 652.08 928.44 650.38 927.13 650.38 924.27 C 650.38 921.40 652.12 918.08 654.27 916.84 L 740.20 867.23 C 742.38 865.98 744.09 867.30 744.09 870.17 C 744.09 873.03 742.35 876.35 740.20 877.60 Z" node-id="198" target-height="62.46" target-width="93.71" target-x="650.38" target-y="865.98"/><path fill="#94f2b5" fill-rule="nonzero" stroke="none" d="M 497.77 988.19 L 416.89 1034.85 C 414.70 1036.09 413.00 1034.77 413.00 1031.91 C 413.02 1030.45 413.39 1029.02 414.06 1027.73 C 414.74 1026.44 415.71 1025.33 416.89 1024.48 L 497.77 977.82 C 499.95 976.58 501.66 977.90 501.66 980.76 C 501.63 982.22 501.27 983.65 500.60 984.94 C 499.92 986.23 498.95 987.34 497.77 988.19 Z" node-id="200" target-height="59.51" target-width="88.66" target-x="413" target-y="976.58"/><path fill="#94f2b5" fill-rule="nonzero" stroke="none" d="M 796.01 815.41 L 698.25 871.85 C 696.06 873.10 694.37 871.77 694.37 868.91 C 694.37 866.05 696.11 862.72 698.25 861.48 L 796.01 805.04 C 798.20 803.80 799.90 805.12 799.90 807.98 C 799.86 810.88 798.11 814.15 796.01 815.41 Z" node-id="202" target-height="69.3" target-width="105.53" target-x="694.37" target-y="803.8"/><path fill="#a69cfb" fill-rule="nonzero" stroke="none" d="M 482.65 968.04 L 416.89 1005.99 C 414.70 1007.23 413.00 1005.91 413.00 1003.05 C 413.00 1000.19 414.75 996.85 416.89 995.62 L 482.61 957.67 C 484.80 956.44 486.49 957.75 486.49 960.61 C 486.53 963.48 484.80 966.84 482.65 968.04 Z" node-id="204" target-height="50.79" target-width="73.53" target-x="413" target-y="956.44"/><path fill="#f99" fill-rule="nonzero" stroke="none" d="M 636.30 877.62 L 508.16 951.59 C 505.98 952.83 504.28 951.51 504.28 948.65 C 504.28 945.79 506.02 942.47 508.16 941.22 L 636.30 867.25 C 638.49 866.00 640.18 867.33 640.18 870.19 C 640.18 873.05 638.44 876.38 636.30 877.62 Z" node-id="206" target-height="86.83" target-width="135.9" target-x="504.28" target-y="866"/><path fill="#ffc99c" fill-rule="nonzero" stroke="none" d="M 780.03 794.63 L 651.91 868.60 C 649.72 869.84 648.02 868.53 648.02 865.66 C 648.02 862.80 649.75 859.48 651.91 858.23 L 780.03 784.26 C 782.22 783.02 783.92 784.34 783.92 787.20 C 783.90 788.66 783.53 790.09 782.86 791.38 C 782.18 792.67 781.22 793.78 780.03 794.63 Z" node-id="208" target-height="86.82" target-width="135.9" target-x="648.02" target-y="783.02"/><path fill="url(#paint5_linear_1618_18774)" fill-rule="nonzero" stroke="none" d="M 1143.46 314.77 C 1149.38 311.35 1154.18 314.09 1154.18 320.88 L 1154.18 478.86 C 1154.18 485.65 1149.38 493.93 1143.46 497.35 L 903.12 636.16 C 897.20 639.57 892.40 636.84 892.40 630.05 L 892.40 472.06 C 892.40 465.26 897.20 456.99 903.12 453.57 L 1143.46 314.77 Z" node-id="210" target-height="328.22" target-width="261.78" target-x="892.4" target-y="311.35"/><path fill="url(#paint6_linear_1618_18774)" fill-rule="nonzero" stroke="none" d="M 936.34 515.51 C 933.59 513.31 931.94 509.46 931.94 504.51 C 931.94 492.95 940.19 478.10 950.65 472.60 C 960.55 466.54 969.36 471.50 969.36 483.05 C 969.36 491.30 965.50 500.11 960.00 507.26 C 969.91 512.21 977.06 522.12 977.06 534.22 L 977.06 541.37 L 922.04 573.83 L 922.04 558.43 C 921.49 542.47 926.99 527.62 936.34 515.51 Z" node-id="212" target-height="107.29" target-width="55.57" target-x="921.49" target-y="466.54"/><path fill="#fff" fill-rule="nonzero" stroke="none" d="M 1119.18 408.42 C 1119.18 404.70 1115.13 402.38 1111.92 404.28 L 997.37 471.78 C 995.90 472.65 995.00 474.22 995.00 475.93 L 995.00 475.93 C 995.00 479.65 999.05 481.96 1002.26 480.07 L 1116.81 412.57 C 1118.28 411.70 1119.18 410.13 1119.18 408.42 L 1119.18 408.42 Z" node-id="214" target-height="79.58" target-width="124.18" target-x="995" target-y="402.38"/><path fill="#fff" fill-rule="nonzero" stroke="none" d="M 1073.03 471.43 C 1073.03 467.70 1068.98 465.39 1065.77 467.29 L 997.36 507.70 C 995.90 508.56 995.00 510.14 995.00 511.84 L 995.00 511.84 C 995.00 515.57 999.05 517.88 1002.26 515.98 L 1070.67 475.57 C 1072.13 474.70 1073.03 473.13 1073.03 471.43 L 1073.03 471.43 Z" node-id="216" target-height="52.49" target-width="78.03" target-x="995" target-y="465.39"/><path fill="url(#paint7_linear_1618_18774)" fill-rule="nonzero" stroke="none" d="M 1153.51 545.17 C 1159.42 541.75 1164.23 544.49 1164.23 551.28 L 1164.23 709.23 C 1164.23 716.02 1159.42 724.30 1153.51 727.72 L 913.17 866.53 C 907.25 869.94 902.45 867.21 902.45 860.41 L 902.45 702.42 C 902.45 695.62 907.25 687.35 913.17 683.93 L 1153.51 545.17 Z" node-id="218" target-height="328.19" target-width="261.78" target-x="902.45" target-y="541.75"/><path fill="url(#paint8_linear_1618_18774)" fill-rule="nonzero" stroke="none" d="M 948.34 744.51 C 945.59 742.31 943.94 738.46 943.94 733.51 C 943.94 721.95 952.19 707.10 962.65 701.60 C 972.55 695.54 981.36 700.50 981.36 712.05 C 981.36 720.30 977.50 729.11 972.00 736.26 C 981.91 741.21 989.06 751.12 989.06 763.22 L 989.06 770.37 L 934.04 802.83 L 934.04 787.43 C 933.49 771.47 938.99 756.62 948.34 744.51 Z" node-id="220" target-height="107.29" target-width="55.57" target-x="933.49" target-y="695.54"/><path fill="#fff" fill-rule="nonzero" stroke="none" d="M 1129.18 640.42 C 1129.18 636.70 1125.13 634.38 1121.92 636.28 L 1007.37 703.78 C 1005.90 704.65 1005.00 706.22 1005.00 707.93 L 1005.00 707.93 C 1005.00 711.65 1009.05 713.97 1012.26 712.07 L 1126.81 644.57 C 1128.28 643.70 1129.18 642.13 1129.18 640.42 L 1129.18 640.42 Z" node-id="222" target-height="79.59" target-width="124.18" target-x="1005" target-y="634.38"/><path fill="#fff" fill-rule="nonzero" stroke="none" d="M 1083.03 703.43 C 1083.03 699.70 1078.98 697.39 1075.77 699.29 L 1007.36 739.70 C 1005.90 740.57 1005.00 742.14 1005.00 743.84 L 1005.00 743.84 C 1005.00 747.57 1009.05 749.88 1012.26 747.98 L 1080.67 707.57 C 1082.13 706.70 1083.03 705.13 1083.03 703.43 L 1083.03 703.43 Z" node-id="224" target-height="52.49" target-width="78.03" target-x="1005" target-y="697.39"/></g></svg>