<svg t="1685499659351" class="icon" viewBox="0 0 1536 1024" version="1.1"
  xmlns="http://www.w3.org/2000/svg" p-id="8563" width="200" height="200">
  <path d="M1425.066667 0.256H110.933333A110.933333 110.933333 0 0 0 0 110.848v723.626667a110.933333 110.933333 0 0 0 110.933333 110.933333h1314.389334c61.269333 0 110.933333-49.749333 110.677333-110.677333V110.848A110.933333 110.933333 0 0 0 1425.066667 0.256z" fill="#1296db" p-id="8564" data-spm-anchor-id="a313x.7781069.0.i4" class="selected"></path>
  <path d="M664.746667 723.797333V435.882667L517.12 620.373333 369.664 435.882667v288l-148.053333-67.157334V221.781333h147.626666l147.626667 184.576 147.541333-184.576h147.626667v565.76z" fill="#FFFFFF" p-id="8565"></path>
  <path d="M1024 0h426.666667a85.333333 85.333333 0 0 1 85.333333 85.333333v768a85.333333 85.333333 0 0 1-85.333333 85.333334h-426.666667V0z" fill="#000000" opacity=".1" p-id="8566"></path>
  <path d="M1256.96 731.306667l-170.666667-216.490667h113.749334V304.64h113.749333v210.176h113.834667z" fill="#FFFFFF" opacity=".5" p-id="8567"></path>
</svg>