<svg xmlns="http://www.w3.org/2000/svg" xml:space="preserve" style="enable-background:new 0 0 1024 1024" viewBox="0 0 1024 1024"><style>.st4{enable-background:new}</style><g id="图层_2_1_"><g class="st4"><linearGradient id="SVGID_1_" x1="63.294" x2="976.612" y1="820.462" y2="820.462" gradientUnits="userSpaceOnUse"><stop offset="0" style="stop-color:#8eb0ec"/><stop offset="1" style="stop-color:#6386db"/></linearGradient><path d="M976.4 655.1c-.1.8-.1 1.5-.3 2.3-.1.6-.3 1.2-.5 1.8-.2.7-.4 1.4-.6 2.2-.2.6-.5 1.2-.7 1.8-.3.8-.6 1.5-1 2.3-.3.5-.6 1.1-1 1.6-.5.8-1.1 1.7-1.7 2.5-.6.8-1.2 1.6-1.9 2.4-.2.2-.3.4-.5.6-.9 1-1.9 2-3 3-.7.6-1.5 1.2-2.2 1.8-.7.5-1.3 1.1-2 1.6-.8.6-1.7 1.2-2.6 1.7l-2.7 1.8-383.4 224c-2.1 1.3-4.4 2.4-6.8 3.4-.7.3-1.4.6-2 .9-1.8.8-3.7 1.5-5.6 2.1-.7.2-1.4.5-2.1.7-1.2.4-2.5.7-3.7 1.1-.9.3-1.9.5-2.8.8-1.3.3-2.6.6-4 .9l-2.7.6c-2.7.5-5.4.9-8.2 1.1-.8.1-1.7.1-2.5.2-1.6.1-3.2.3-4.9.3-1 0-2.1.1-3.1.1H520c-1.1 0-2.2 0-3.3-.1-1.2 0-2.4-.1-3.7-.2l-3.3-.3c-1.2-.1-2.4-.3-3.6-.4-1.1-.1-2.1-.3-3.2-.5-1.3-.2-2.5-.4-3.8-.7l-3-.6c-1.5-.3-3-.7-4.5-1.1-.8-.2-1.7-.4-2.5-.7-2.6-.8-5.2-1.6-7.7-2.6l-3.6-1.5c-.6-.3-1.3-.5-1.9-.8-1.8-.9-3.6-1.8-5.3-2.8l-386-224.2c-14.2-8.2-21.3-19-21.2-29.8l-.2 69.6c0 10.8 7 21.6 21.2 29.8l386 224.2c1.7 1 3.5 1.9 5.3 2.8.6.3 1.2.5 1.9.8 1.1.5 2.1 1 3.2 1.4.1.1.3.1.4.1 2.5 1 5.1 1.8 7.7 2.6.2.1.4.1.6.2.6.2 1.2.3 1.8.5 1.5.4 3 .8 4.5 1.1l1.2.3 1.8.3c1.3.2 2.5.5 3.8.7l1.5.3c.6.1 1.1.1 1.7.2 1.2.2 2.4.3 3.6.4.6.1 1.1.1 1.7.2.5 0 1.1 0 1.6.1 1.2.1 2.4.1 3.7.2.6 0 1.2.1 1.8.1h7.4c.4 0 .8-.1 1.2-.1 1.6-.1 3.3-.2 4.9-.3.6-.1 1.3-.1 1.9-.1.2 0 .4-.1.6-.1 2.8-.3 5.5-.7 8.2-1.1.1 0 .3 0 .4-.1.8-.1 1.5-.3 2.3-.5 1.3-.3 2.7-.5 4-.9 1-.2 1.9-.5 2.8-.8 1.2-.3 2.5-.7 3.7-1.1.3-.1.5-.1.8-.2.4-.1.8-.3 1.3-.5 1.9-.7 3.8-1.4 5.6-2.1.7-.3 1.4-.6 2-.9 2.3-1.1 4.6-2.2 6.8-3.4L955.6 752c.3-.2.6-.3.9-.5.7-.4 1.2-.8 1.9-1.2.9-.6 1.8-1.1 2.6-1.7.7-.5 1.3-1.1 2-1.6.7-.6 1.5-1.2 2.2-1.8.1-.1.3-.2.4-.4.9-.9 1.8-1.7 2.6-2.6.2-.2.3-.4.5-.6.5-.5 1-1.1 1.4-1.6.2-.2.3-.5.5-.7.6-.8 1.2-1.7 1.7-2.5.2-.4.5-.7.7-1.1l.3-.6c.4-.7.7-1.5 1.1-2.3.2-.4.4-.9.6-1.3.1-.1.1-.3.1-.5.3-.7.4-1.4.6-2.2.1-.5.3-1 .4-1.4v-.4c.1-.8.2-1.5.3-2.3 0-.5.2-1 .2-1.5v-.6l.2-69.6c-.2.7-.3 1.4-.4 2.1z" style="fill:url(#SVGID_1_)"/><linearGradient id="SVGID_2_" x1="63.491" x2="976.612" y1="652.768" y2="652.768" gradientUnits="userSpaceOnUse"><stop offset="0" style="stop-color:#6386db"/><stop offset="1" style="stop-color:#8eb0ec"/></linearGradient><path d="M955.4 623.2c28.1 16.3 28.3 42.9.3 59.2L572.3 906.5c-27.9 16.3-73.5 16.3-101.6 0l-386-224.2c-28.2-16.4-28.3-42.9-.4-59.2L467.8 399c27.9-16.3 73.5-16.3 101.6 0l386 224.2z" style="fill:url(#SVGID_2_)"/></g><g class="st4"><linearGradient id="SVGID_3_" x1="501.113" x2="501.113" y1="802.727" y2="35.344" gradientUnits="userSpaceOnUse"><stop offset="0" style="stop-color:#6386db"/><stop offset="1" style="stop-color:#8eb0ec"/></linearGradient><path d="M768.2 155.7c.8-.3 1.5-.6 2.3-.9 1.1-.4 2.2-.8 3.3-1.1l2.1-.6c.6-.2 1.3-.3 1.9-.4.8-.2 1.7-.3 2.5-.4.5-.1.9-.1 1.4-.1 1-.1 2-.1 3-.1h.7c1.2.1 2.3.2 3.4.4.3.1.5.1.8.2.9.2 1.7.4 2.6.7.3.1.5.2.8.3 1.1.4 2.1.9 3.1 1.5l-201-116.7c-.1 0-.2-.1-.3-.1-.8-.4-1.5-.8-2.3-1.1-.1-.1-.3-.1-.5-.2-.3-.1-.5-.2-.8-.3-.4-.1-.8-.3-1.2-.4-.4-.1-.9-.2-1.3-.3-.3-.1-.5-.1-.8-.2-.2 0-.3-.1-.4-.1-.9-.2-1.9-.3-2.8-.3H583.8c-.7 0-1.5-.1-2.2 0-.2 0-.5.1-.8.1-.5 0-.9.1-1.4.1-.4 0-.9.1-1.3.1-.4.1-.8.2-1.2.2-.6.1-1.3.3-1.9.4-.3.1-.7.1-1 .2-.3.1-.7.3-1 .4-1.1.3-2.2.7-3.3 1.1-.4.2-.8.2-1.2.4-.4.2-.8.4-1.1.5-.4.2-.7.3-1.1.5-1.4.7-2.8 1.4-4.3 2.2L252.6 220.3c-1.5.9-3 1.8-4.4 2.8-.5.3-.9.7-1.4 1-1 .7-2 1.4-2.9 2.2-.5.4-1.1.9-1.6 1.3-.9.7-1.8 1.5-2.6 2.3-.5.5-1.1 1-1.6 1.5-.3.3-.7.6-1 .9-.3.3-.7.7-1 1.1-1.1 1.1-2.1 2.2-3.1 3.3-.3.4-.7.7-1 1.1-.3.3-.5.6-.8 1-.6.7-1.2 1.5-1.8 2.2-.4.5-.8.9-1.2 1.4l-.9 1.2c-.4.6-.9 1.2-1.3 1.7l-.9 1.2c-.5.7-.9 1.4-1.4 2.1-.3.5-.6.9-.9 1.4-.1.2-.3.4-.4.6l-2.4 3.9c-.1.1-.1.2-.2.3-.2.3-.3.5-.4.8-.5.9-1.1 1.9-1.6 2.9-.2.4-.5.9-.7 1.3-.2.5-.5.9-.7 1.4l-.6 1.2-1.5 3.3-.3.6c0 .1-.1.1-.1.2-.6 1.4-1.2 2.8-1.7 4.2-.1.3-.2.5-.3.8-.2.5-.4 1-.5 1.5-.2.7-.5 1.4-.8 2.1-.2.5-.3 1.1-.5 1.6-.2.6-.4 1.3-.6 1.9-.1.4-.3.8-.4 1.2-.2.7-.3 1.4-.5 2.1l-.6 2.4c-.1.3-.1.6-.2.8-.1.6-.2 1.1-.3 1.7-.2 1.2-.5 2.5-.6 3.7 0 .3-.1.7-.2 1-.1.8-.2 1.5-.2 2.3-.1.6-.1 1.1-.2 1.7-.1 1.7-.2 3.4-.2 5.1l1 355.5c0 5.5.8 10.4 2.1 14.6 2.3 7 6.2 12.2 11.5 15.2l200.9 116.8c-8.3-4.8-13.5-15.2-13.6-29.8l-1-355.5c0-1.7.1-3.4.2-5.1 0-.5.1-1.1.2-1.7.1-1.1.2-2.2.4-3.3.2-1.2.4-2.5.6-3.7.2-.9.3-1.7.5-2.6l.6-2.4.9-3.3c.2-.6.4-1.3.6-1.9.4-1.2.8-2.5 1.3-3.7.2-.5.4-1 .5-1.5.6-1.7 1.3-3.4 2.1-5.1l.3-.6 2.1-4.5c.2-.5.5-.9.7-1.4.7-1.4 1.5-2.8 2.3-4.2.2-.3.3-.5.5-.8.9-1.6 1.9-3.2 2.9-4.8.3-.5.6-.9.9-1.3.7-1.1 1.5-2.2 2.3-3.3.4-.6.9-1.2 1.3-1.8l2.1-2.7c.6-.7 1.2-1.5 1.8-2.2.6-.7 1.2-1.3 1.8-2 1-1.1 2-2.2 3.1-3.3l2-2c.5-.5 1-1 1.6-1.5.9-.8 1.7-1.5 2.6-2.3.5-.4 1.1-.9 1.6-1.3 1-.8 1.9-1.5 2.9-2.2.5-.3.9-.7 1.4-1 1.5-1 2.9-2 4.4-2.8l309.4-178.6c1.4-.8 2.9-1.5 4.3-2.2.3-.2.7-.4 1-.6z" style="fill:url(#SVGID_3_)"/><linearGradient id="SVGID_4_" x1="407.142" x2="810.568" y1="478.974" y2="478.974" gradientUnits="userSpaceOnUse"><stop offset="0" style="stop-color:#6386db"/><stop offset="1" style="stop-color:#8eb0ec"/></linearGradient><path d="M762.9 158.5c25.7-14.8 46.6-2.9 46.7 26.6l1 355.5c.1 29.5-20.7 65.5-46.4 80.3L454.8 799.5c-25.7 14.8-46.6 2.9-46.7-26.6l-1-355.5c-.1-29.5 20.7-65.5 46.4-80.3l309.4-178.6z" style="fill:url(#SVGID_4_)"/></g><g class="st4"><linearGradient id="SVGID_5_" x1="392.31" x2="644.914" y1="179.839" y2="179.839" gradientUnits="userSpaceOnUse"><stop offset="0" style="stop-color:#d7d8d5"/><stop offset="1" style="stop-color:#ededee"/></linearGradient><path d="M638.6 109.3c.7-.2 1.4-.4 2.1-.5h.2c.7-.1 1.4 0 2.1.1h.1c.7.1 1.3.4 1.9.7l-55.5-32.2h-.1l-.6-.3c-.2-.1-.4-.2-.7-.2-.1 0-.3-.1-.5-.1H587.3c-.3 0-.5-.1-.8-.1h-1.8c-.4.1-.7.1-1.1.2-.2 0-.3.1-.5.2-.2 0-.3.1-.5.2s-.4.1-.6.2c-.6.2-1.2.5-1.8.9l-175.1 101c-.8.5-1.6 1-2.4 1.7-.3.2-.5.4-.7.7-.4.3-.8.6-1.1 1-.2.2-.3.4-.5.5-.1.1-.3.3-.4.5l-.5.5c-.4.4-.7.8-1 1.3-.1.2-.2.3-.3.5-.1.1-.1.2-.2.2-.1.2-.2.3-.3.4-.3.4-.5.7-.7 1.1-.2.4-.5.7-.7 1.1 0 0 0 .1-.1.1v.1c-.2.3-.3.6-.5.9-.2.4-.4.7-.6 1.1-.2.3-.3.7-.5 1v.2c-.2.4-.3.8-.5 1.2-.2.4-.3.8-.4 1.2-.1.2-.1.4-.2.6 0 .1-.1.2-.1.3 0 .1-.1.3-.1.4-.1.5-.3 1-.4 1.5-.1.3-.1.6-.2.9 0 .2-.1.3-.1.5 0 .1-.1.3-.1.4-.1.8-.2 1.7-.2 2.5l.1 41.1c0 4.1 1.4 6.9 3.7 8.2l55.5 32.2c-2.3-1.3-3.7-4.2-3.7-8.2l-.1-41.1c0-1 .1-1.9.2-2.9 0-.2.1-.3.1-.5.2-.9.4-1.9.6-2.8 0-.1.1-.2.1-.3.3-1 .7-2 1.1-3v-.1c.4-1 1-2 1.5-3 0 0 0-.1.1-.1.5-.9 1.2-1.9 1.8-2.7.1-.1.1-.2.2-.2.6-.8 1.2-1.5 1.9-2.3.1-.2.3-.3.4-.5.5-.5 1.1-1 1.6-1.5.2-.2.5-.4.7-.7.8-.6 1.6-1.2 2.4-1.7l175.2-101.2c.8-.5 1.6-.8 2.4-1.1.2 0 .4-.1.5-.1z" style="fill:url(#SVGID_5_)"/><linearGradient id="SVGID_6_" x1="447.774" x2="648.777" y1="196.388" y2="196.388" gradientUnits="userSpaceOnUse"><stop offset="0" style="stop-color:#fbfbfb"/><stop offset="1" style="stop-color:#fbfbfb"/></linearGradient><path d="M635.8 110.5c7.1-4.1 12.9-.8 12.9 7.3l.1 41.1c0 8.2-5.7 18.1-12.8 22.2L460.8 282.3c-7.1 4.1-12.9.8-12.9-7.3l-.1-41.1c0-8.1 5.7-18.1 12.8-22.2l175.2-101.2z" style="fill:url(#SVGID_6_)"/></g><g class="st4"><linearGradient id="SVGID_7_" x1="426.439" x2="780.972" y1="482.294" y2="482.294" gradientUnits="userSpaceOnUse"><stop offset="0" style="stop-color:#d7d8d5"/><stop offset="1" style="stop-color:#f6f6f9"/></linearGradient><path d="M758.7 203.9c1-.4 1.9-.7 2.9-1 .6-.2 1.2-.4 1.8-.5.6-.1 1.1-.3 1.7-.4.7-.1 1.4-.3 2.2-.3.4 0 .8-.1 1.2-.1.9-.1 1.8-.1 2.6-.1h.6c1 .1 2 .2 3 .4.2 0 .5.1.7.2.8.2 1.5.4 2.2.6.2.1.5.2.7.2.9.4 1.8.8 2.7 1.3l-14.1-8.2c-.1 0-.1-.1-.2-.1-.7-.4-1.3-.7-2-1-.1-.1-.3-.1-.4-.1-.2-.1-.5-.2-.7-.2-.4-.1-.7-.3-1.1-.4l-1.2-.3c-.2-.1-.5-.1-.7-.2-.1 0-.3-.1-.4-.1-.8-.1-1.6-.2-2.5-.3H755c-.2 0-.5.1-.7.1-.4 0-.8.1-1.2.1-.4 0-.8.1-1.1.1-.3.1-.7.2-1 .2-.6.1-1.1.2-1.7.4-.3.1-.6.1-.9.2l-.9.3c-.9.3-1.9.6-2.9 1-.3.1-.7.2-1 .3l-.6.3c-1.7.7-3.4 1.5-5.1 2.5L467 355.3c-1.3.8-2.6 1.6-3.9 2.5l-1.2.9c-.9.6-1.7 1.3-2.6 1.9-.5.4-.9.8-1.4 1.2-.8.7-1.5 1.3-2.3 2-.5.4-.9.8-1.4 1.3-.3.3-.6.5-.9.8l-.9.9c-.9.9-1.8 1.9-2.7 2.9l-.9.9c-.2.3-.5.6-.7.8-.5.6-1.1 1.3-1.6 1.9-.3.4-.7.8-1 1.3-.3.4-.5.7-.8 1.1-.4.5-.8 1-1.1 1.5-.3.4-.5.7-.8 1.1l-1.2 1.8c-.3.4-.5.8-.8 1.2-.1.2-.2.3-.3.5-.7 1.1-1.4 2.3-2.1 3.4 0 .1-.1.2-.1.2-.1.2-.3.5-.4.7-.5.8-.9 1.6-1.4 2.5l-.6 1.2-.6 1.2c-.2.4-.4.7-.5 1.1-.5 1-.9 1.9-1.3 2.9-.1.2-.2.3-.2.5 0 0 0 .1-.1.1-.5 1.2-1 2.4-1.5 3.7-.1.2-.2.5-.2.7-.2.4-.3.9-.5 1.3-.2.6-.5 1.2-.7 1.8-.2.5-.3 1-.4 1.4-.2.6-.3 1.1-.5 1.7-.1.3-.2.7-.3 1-.2.6-.3 1.2-.5 1.9s-.4 1.4-.5 2.1c-.1.2-.1.5-.2.7l-.3 1.5c-.2 1.1-.4 2.2-.6 3.2 0 .3-.1.6-.2.9-.1.7-.1 1.4-.2 2 0 .5-.1 1-.1 1.4-.1 1.5-.2 3-.2 4.5l.9 311.3c0 3.2.3 6.2.8 8.9 1.6 8.2 5.6 14 11 17.2l14.1 8.2c-7.3-4.2-11.8-13.3-11.9-26.1l-.9-311.3c0-1.5.1-3 .2-4.5 0-.5.1-1 .1-1.4.1-1 .2-1.9.4-2.9.2-1.1.4-2.2.6-3.2.1-.7.3-1.5.4-2.2.2-.7.3-1.4.5-2.1.2-1 .5-1.9.8-2.9.2-.6.3-1.1.5-1.7.3-1.1.7-2.2 1.1-3.3.2-.4.3-.9.5-1.3l1.8-4.5c.1-.2.2-.3.2-.5.6-1.3 1.2-2.6 1.9-3.9l.6-1.2c.6-1.2 1.3-2.4 2-3.7.1-.2.3-.5.4-.7.8-1.4 1.7-2.8 2.6-4.2.3-.4.5-.8.8-1.2.7-1 1.3-1.9 2-2.9.4-.5.8-1 1.1-1.5.6-.8 1.2-1.6 1.8-2.3.5-.6 1-1.3 1.6-1.9.5-.6 1-1.2 1.6-1.8.9-1 1.8-2 2.7-2.9.6-.6 1.1-1.2 1.7-1.7.5-.4.9-.9 1.4-1.3.8-.7 1.5-1.4 2.3-2 .5-.4.9-.8 1.4-1.2.8-.7 1.7-1.3 2.6-1.9l1.2-.9c1.3-.9 2.6-1.7 3.9-2.5l271-156.3c1.7-1 3.4-1.8 5.1-2.5.5-.3 1.1-.5 1.6-.7z" style="fill:url(#SVGID_7_)"/><path d="M752 207.1c22.5-13 40.8-2.6 40.9 23.3l.9 311.3c.1 25.8-18.1 57.3-40.6 70.3L482.3 768.4c-22.5 13-40.8 2.6-40.9-23.3l-.9-311.3c-.1-25.8 18.1-57.3 40.6-70.3L752 207.1z" style="fill:#fdfdfd"/></g><g class="st4"><linearGradient id="SVGID_8_" x1="806.859" x2="879.341" y1="652.029" y2="652.029" gradientUnits="userSpaceOnUse"><stop offset="0" style="stop-color:#d7d8d5"/><stop offset="1" style="stop-color:#f6f6f9"/></linearGradient><path d="M879.2 625.8s0 .1 0 0c-.1.3-.2.6-.4.8l-.1.1c-.2.2-.4.5-.6.7-.2.2-.4.3-.6.4-.2.1-.3.2-.5.3l-28 16.3c-.7.4-1.6.7-2.5 1-.1 0-.3.1-.4.1-.9.2-1.8.3-2.8.3h-.1c-1 0-2-.1-2.9-.3h-.1c-1-.2-1.9-.6-2.6-1l-28.2-16.3c-1.6-.9-2.4-2.1-2.4-3.3l-.1 33.2c0 1.2.8 2.4 2.4 3.3l28.2 16.3 1.2.6c.3.1.6.2 1 .3.2 0 .3.1.5.1h.1c.1 0 .2 0 .2.1.3.1.5.1.8.1.3 0 .5.1.8.1h1.6c.3 0 .6 0 .9-.1.3 0 .7-.1 1-.1.2 0 .3-.1.5-.1.1 0 .3-.1.4-.1.2-.1.5-.1.7-.2.6-.2 1.3-.5 1.8-.8l28-16.3s.1 0 .1-.1c.2-.1.3-.2.4-.3.2-.1.4-.3.6-.4h.1l.5-.5.1-.1.1-.1.2-.2c.1-.2.2-.3.2-.5v-.2c0-.1.1-.2.1-.3 0-.2 0-.3.1-.5v-.1l.1-33.2c-.3.5-.3.7-.4 1z" style="fill:url(#SVGID_8_)"/><linearGradient id="SVGID_9_" x1="806.953" x2="879.341" y1="624.971" y2="624.971" gradientUnits="userSpaceOnUse"><stop offset="0" style="stop-color:#fbfbfb"/><stop offset="1" style="stop-color:#fbfbfb"/></linearGradient><path d="M877 621.7c3.2 1.8 3.2 4.8 0 6.6l-28 16.3c-3.2 1.8-8.3 1.9-11.5 0l-28.2-16.3c-3.2-1.8-3.2-4.8 0-6.6l28-16.3c3.1-1.8 8.3-1.8 11.4 0l28.3 16.3z" style="fill:url(#SVGID_9_)"/></g><g class="st4"><linearGradient id="SVGID_10_" x1="735.603" x2="808.179" y1="677.426" y2="677.426" gradientUnits="userSpaceOnUse"><stop offset="0" style="stop-color:#d7d8d5"/><stop offset="1" style="stop-color:#f6f6f9"/></linearGradient><path d="M808 634.6c0 .1 0 .1 0 0-.1.3-.2.6-.4.8l-.1.1c-.2.2-.4.5-.6.7-.2.1-.4.3-.6.4-.2.1-.3.2-.5.4l-28 16.3c-.7.4-1.6.7-2.5 1-.1 0-.3.1-.4.1-.9.2-1.8.3-2.8.3h-.1c-1 0-2-.1-2.9-.3h-.1c-1-.2-1.8-.6-2.6-1l-28.2-16.3c-1.6-.9-2.4-2.1-2.4-3.3l-.2 66.3c0 1.2.8 2.4 2.4 3.3l28.2 16.3 1.2.6c.3.1.6.2 1 .3.2 0 .3.1.5.1h.1c.1 0 .2 0 .2.1.3.1.5.1.8.1.3 0 .5.1.8.1h1.6c.3 0 .6 0 .9-.1.3 0 .7-.1 1-.1.1 0 .3-.1.4-.1.1 0 .3-.1.4-.1.2-.1.5-.1.7-.2.6-.2 1.2-.5 1.8-.8l28-16.3s.1 0 .1-.1c.2-.1.3-.2.4-.3.2-.1.4-.3.6-.4h.1l.5-.5.1-.1.1-.1c0-.1.1-.1.2-.2.1-.2.2-.3.2-.5v-.2c0-.1.1-.2.1-.3 0-.2 0-.3.1-.5v-.1l.2-66.3c-.1.4-.2.7-.3.9z" style="fill:url(#SVGID_10_)"/><linearGradient id="SVGID_11_" x1="735.791" x2="808.179" y1="633.786" y2="633.786" gradientUnits="userSpaceOnUse"><stop offset="0" style="stop-color:#fbfbfb"/><stop offset="1" style="stop-color:#fbfbfb"/></linearGradient><path d="M805.8 630.5c3.2 1.8 3.2 4.8 0 6.6l-28 16.3c-3.1 1.8-8.3 1.8-11.4 0l-28.2-16.3c-3.2-1.8-3.2-4.8 0-6.6l28-16.3c3.2-1.8 8.3-1.9 11.5 0l28.1 16.3z" style="fill:url(#SVGID_11_)"/></g><linearGradient id="SVGID_12_" x1="664.346" x2="737.025" y1="705.716" y2="705.716" gradientUnits="userSpaceOnUse"><stop offset="0" style="stop-color:#d7d8d5"/><stop offset="1" style="stop-color:#f6f6f9"/></linearGradient><path d="M736.9 650.9s0 .1 0 0c-.1.3-.2.6-.4.8l-.1.1c-.2.2-.4.5-.6.7-.2.1-.4.3-.6.4-.2.1-.3.2-.5.3l-28 15.5c-.7.4-1.6.7-2.5.9-.1 0-.3.1-.4.1-.9.2-1.8.3-2.8.3h-.1c-1 0-2-.1-2.9-.3h-.1c-1-.2-1.8-.5-2.6-1L667 653.3c-1.6-.9-2.4-2-2.4-3.2l-.3 91.3c0 1.2.8 2.3 2.4 3.2l28.2 15.5c.4.2.8.4 1.2.5.3.1.6.2 1 .3.2 0 .3.1.5.1h.1c.1 0 .2 0 .2.1.3.1.5.1.8.1.3 0 .5.1.8.1h1.6c.3 0 .6 0 .9-.1.3 0 .7-.1 1-.1.1 0 .3-.1.4-.1.1 0 .3-.1.4-.1.2-.1.5-.1.7-.2.6-.2 1.2-.4 1.8-.7l28-15.5s.1 0 .1-.1c.2-.1.3-.2.4-.3.2-.1.4-.3.6-.4h.1c.2-.2.4-.3.5-.5l.1-.1.1-.1c0-.1.1-.1.1-.2.1-.1.2-.3.2-.4v-.2c0-.1.1-.2.1-.3 0-.1 0-.3.1-.4v-.1l.3-91.3c0 .3 0 .5-.1.8z" style="fill:url(#SVGID_12_)"/><linearGradient id="SVGID_13_" x1="664.618" x2="737.025" y1="650.096" y2="650.096" gradientUnits="userSpaceOnUse"><stop offset="0" style="stop-color:#fbfbfb"/><stop offset="1" style="stop-color:#fbfbfb"/></linearGradient><path d="M734.6 646.9c3.2 1.7 3.2 4.6 0 6.3l-28 15.5c-3.1 1.7-8.3 1.7-11.4 0L667 653.3c-3.2-1.8-3.2-4.6-.1-6.3l28-15.5c3.1-1.7 8.3-1.7 11.5 0l28.2 15.4z" style="fill:url(#SVGID_13_)"/><linearGradient id="SVGID_14_" x1="666.767" x2="719.51" y1="297.266" y2="297.266" gradientUnits="userSpaceOnUse"><stop offset="0" style="stop-color:#6386db"/><stop offset="1" style="stop-color:#8eb0ec"/></linearGradient><path d="M693.1 267c14.6-8.4 26.4-1.7 26.4 15.1s-11.7 37.1-26.3 45.5c-14.6 8.4-26.4 1.7-26.5-15.1 0-16.7 11.8-37.1 26.4-45.5z" style="fill:url(#SVGID_14_)"/><linearGradient id="SVGID_15_" x1="464.037" x2="767.068" y1="490.625" y2="490.625" gradientUnits="userSpaceOnUse"><stop offset="0" style="stop-color:#6386db"/><stop offset="1" style="stop-color:#8eb0ec"/></linearGradient><path d="M752.1 370.2c12.3 4.9 14.9 15.6 14.9 23.7s-2.5 21.7-14.7 40.7c-8.1 12.6-19.3 26.1-33.5 40.1-4.7 4.7-9.8 9.5-15.1 14.2 1.4 5.3 2.6 10.6 3.5 15.8 2.7 15.5 3.1 30.1 1.2 43.1-2.9 19.9-10.7 33.1-16.7 40.5-4.7 5.8-10 10.5-15.4 13.6-5.9 3.3-11.2 5.2-16.3 6-10 1.7-20.9.3-32.5-4.2-3.9-1.6-7.8-3.5-11.8-5.7-3.9 6.6-7.8 13.1-11.7 19.1-11.5 17.8-22.3 31.9-32.4 41.7-5 5-10.3 9.3-15.7 12.5-5.9 3.4-11.2 4.9-15.9 4.5-6.1-.5-13.9-4.6-16.9-21.2-2-10.9-1.6-25.9.9-44.4.9-6.4 2.1-12.9 3.4-19.8-5.3 1.4-10.4 2.5-15.2 3.2-14.1 2.3-25.4 1.8-33.6-1.4-12.3-4.9-14.9-15.5-15-23.6 0-8.1 2.5-21.6 14.8-40.7 8.1-12.6 19.3-26.1 33.4-40.1 4.7-4.7 9.8-9.5 15.1-14.2-1.4-5.3-2.6-10.6-3.5-15.8-2.7-15.6-3.1-30.1-1.2-43.2 2.9-19.9 10.7-33 16.7-40.5 3.7-4.6 8.9-9.8 15.9-13.9 4.5-2.6 9.8-4.7 15.7-5.7 10.1-1.7 21-.3 32.6 4.2 4 1.6 8 3.4 11.7 5.6 3.9-6.6 7.8-13.1 11.7-19.1 10.8-16.8 21.1-30.2 30.6-39.9-2.3 10.2-2.1 19.6.7 26.7-6.1 7.6-11.9 15.7-17.3 24.1-3.6 5.6-7.2 11.6-10.9 17.9 6.8 5.2 13.5 11.2 20 18.1 11.2-5.4 22-9.9 32.3-13.6 1.3-6.4 2.4-12.6 3.2-18.5.8-5.8 1.4-11.6 1.7-17.2 2-.8 4-1.8 6-2.9 5.6-3.2 10.9-7.7 15.8-13.1-.2 8.2-.9 16.7-2.2 25.4-.9 6.3-2.1 12.9-3.4 19.8 5.3-1.4 10.4-2.5 15.2-3.3 14.5-2.2 25.8-1.8 33.9 1.5zM615.7 527.1c7.6-4.4 15.1-9 22.7-13.9 4.1-9.7 8.1-19.3 11.8-29.1 3.8-9.7 7.3-19.4 10.7-29.1-3.4-5.8-7-11.4-10.8-16.7-3.8-5.4-7.8-10.5-12-15.3-7.6 3.8-15.1 7.9-22.7 12.3s-15.1 9-22.7 13.9c-4.1 9.6-8 19.3-11.8 29-3.8 9.7-7.3 19.4-10.7 29.1 3.3 5.7 6.9 11.3 10.8 16.7 3.9 5.5 7.9 10.5 12 15.3 7.5-3.7 15-7.8 22.7-12.2M534 563c3.4-13.3 7.5-27.3 12.3-41.8-4.8-9-9-18.2-12.4-27.5-4.9 4.4-9.7 8.8-14.1 13.3-11.5 11.4-20.8 22.3-26.8 31.8-3.3 5.2-7.2 12.4-7.2 17.4 0 5.1 4 7.7 7.3 9 6.1 2.4 15.3 2.7 26.9.8 4.3-.6 9-1.7 14-3m204.2-139.2c3.3-5.3 7.2-12.4 7.2-17.4 0-5-4-7.7-7.3-9-6.1-2.4-15.3-2.7-26.9-.8-4.4.7-9.2 1.8-14.2 3.1-3.4 13.3-7.5 27.3-12.2 41.7 4.8 9 8.9 18.2 12.4 27.5 5-4.4 9.7-8.8 14.1-13.2 11.7-11.6 20.9-22.5 26.9-31.9m-148 182.4c3.6-5.6 7.3-11.6 10.9-17.8-7.1-5.4-13.8-11.5-20-18.1-11.2 5.4-22 9.9-32.3 13.6-1.3 6.5-2.4 12.6-3.2 18.5-2.1 15.1-2.5 27.4-1 35.5.8 4.5 2.5 9.9 6.4 10.2 1.5.1 3.3-.5 5.1-1.6 2.9-1.7 6-4.4 8.5-6.9 7.4-7.4 16.3-19 25.6-33.4M544 407c-1.4 9.7-1 21.6 1.2 34.2.8 4.9 1.9 9.8 3.3 14.8 10.2-8.1 21-16 32.3-23.7 6.4-14.3 13.1-28.1 19.9-41.1-3.7-2-7.3-3.8-11-5.2-9.4-3.7-18.3-5-25.7-3.7-2.7.4-5.6 1.4-8.5 2.9-.1.1-.2.1-.4.2-1.7 1-3.3 2.4-4.8 4.1-3.8 4.7-5.6 12.1-6.3 17.5m143.2 148.6c1.4-9.8 1-21.7-1.2-34.2-.9-4.9-2-9.8-3.3-14.8-10.3 8.1-21.1 16.1-32.3 23.7-6.4 14.3-13.1 28.1-19.9 41.1 3.7 2 7.3 3.8 11 5.2 9.4 3.7 18.3 5 25.7 3.7 2.5-.4 5.6-1.2 8.5-2.9 1.9-1.1 3.6-2.5 5.1-4.3 3.9-4.7 5.6-12.1 6.4-17.5m-11.4-149.3c-3.5 1.3-7 2.6-10.5 4.1 1.2 1.5 2.3 3.1 3.5 4.6 1.1 1.6 2.2 3.2 3.3 4.7 1.4-4.5 2.7-9 3.7-13.4M559 542.6c-1.3 4.5-2.6 9-3.7 13.4 3.5-1.3 7-2.6 10.5-4-1.2-1.5-2.3-3.1-3.5-4.7-1.1-1.5-2.2-3.1-3.3-4.7m-4-66.6c1.2 3.1 2.5 6.2 3.7 9.2 1.1-2.9 2.2-5.7 3.3-8.6 1.2-2.9 2.3-5.8 3.4-8.6-3.4 2.6-6.9 5.3-10.4 8m121.2 10.3c-1.2-3.1-2.5-6.2-3.8-9.2-1.1 2.9-2.2 5.8-3.3 8.6l-.1.1c-1.1 2.9-2.2 5.7-3.2 8.5 3.4-2.6 6.9-5.3 10.4-8m-60.4 75.1c2.3-4.4 4.5-8.9 6.7-13.3l-13.4 7.7c2.2 1.9 4.4 3.8 6.7 5.6m-.5-160.3c-2.3 4.4-4.5 8.9-6.6 13.3l13.4-7.7c-2.2-1.9-4.4-3.8-6.8-5.6" style="fill:url(#SVGID_15_)"/></g></svg>