<svg xmlns="http://www.w3.org/2000/svg" width="2400" height="1200" viewBox="0 0 5600 2800"><path d="M2198 1909c669-1177 741-1304 739-1306 0 0 45-1 102-1h103s-208 367-463 816l-463 815h-204z" fill="#35495e"/><path d="m143 600 939 1638 939-1638h-376l-563 983-569-983Z" fill="#41b883"/><path d="m513 600 568 988 563-988h-347l-216 380-221-380Zm917 1025h595l357-616-598 2z" fill="#35495e"/><path d="M1680 2233c0-1 168-298 440-777 105-185 257-452 337-594l146-257h342l-5 9c-3 5-43 77-90 159-85 150-337 595-656 1156l-172 302h-340z" fill="#41b883"/><path d="m1524 1464 608 7 171-321h-619z" fill="#41b883"/><text x="3000" y="1250" fill="#888" font-size="400">VuePress</text><text x="3000" y="1750" fill="#888" font-size="400">Theme Hope</text></svg>