<svg xmlns="http://www.w3.org/2000/svg" class="vp-social-media-icon 163music-icon" viewBox="0 0 1024 1024"><circle cx="512" cy="512" r="512" fill="#E60026"/><path fill="#FFF" d="M605 206c5 0 12 2 17 4 21 5 41 14 58 28 11 9 16 21 13 35-4 12-11 21-23 24-13 4-23 0-32-7-12-8-26-15-42-14-14 2-26 16-26 28l3 18 9 30c0 1 2 3 4 3 36 2 70 14 100 35 29 21 52 48 70 81 12 24 19 49 21 75 1 35-2 70-16 102-33 75-89 124-170 147a281 281 0 0 1-354-221c-14-86 7-163 65-228 31-36 70-63 115-80 16-5 34 0 42 12 9 14 7 32-5 42-3 4-7 5-12 7-70 28-116 77-133 147-18 69-2 132 43 188 47 58 121 86 195 74 70-11 129-59 154-125 11-33 11-68-1-101-18-41-52-72-95-85h-4l6 23 14 54c10 39 0 74-27 102-26 26-57 39-94 35-42-3-70-26-90-61-10-19-14-39-15-60-2-33 7-65 26-91 21-30 51-49 84-61l9-4-6-21c-1-9-5-19-7-28-3-28 6-52 25-73 16-18 35-29 60-30 1 0 5 0 7-2 5-2 8-2 12-2m-74 218c-21 7-38 15-51 31a82 82 0 0 0-15 72c3 14 10 25 21 33 15 11 35 11 51 0 15-10 22-28 19-45l-16-60c-3-10-5-21-9-31"/></svg>