<svg xmlns="http://www.w3.org/2000/svg" class="vp-social-media-icon 360yun-icon" viewBox="0 0 1024 1024"><circle cx="512" cy="512" r="512" fill="#017FFD"/><path fill="#FFF" d="M416 478c7 4 17 10 24 17l163 154h1l1 1 2 2c16 14 36 22 57 22 48 0 86-39 86-87a86 86 0 0 0-82-86l-46-1v-52a104 104 0 0 0-194-48 31 31 0 1 1-54-29 165 165 0 0 1 309 69c73 9 129 71 129 148 0 82-66 149-148 149-41 0-78-18-105-45L399 541a76 76 0 0 0-126 58h1a76 76 0 0 0 131 52 30 30 0 0 1 56 19c0 9-4 17-10 22-26 29-63 45-101 45a138 138 0 1 1 66-259"/></svg>