<svg xmlns="http://www.w3.org/2000/svg" class="vp-social-media-icon 5sing-icon" viewBox="0 0 1024 1024"><circle cx="512" cy="512" r="512" fill="#262626"/><path fill="#1CE35E" d="M513 489c-10-21-27-34-37-51-18-21-31-45-45-69l-21-51c-6-17-13-38-27-51-7-7-16-11-26-11-10 4-17 8-25 14-7 8-22 19-45 48-24 41-37 85-44 130-10 58-7 120 10 178 14 48 38 92 75 127 11 13 35 17 48 6a246 246 0 0 0 89-106c21-37 41-75 52-119 6-14 3-31-4-45"/><path fill="#FFD308" d="M784 482c-7-20-18-37-28-55-17-27-37-51-61-71-41-38-89-69-141-93-17-7-34-14-55-17-13-3-30-3-44 0-14 0-27 10-27 24v17c3 31 17 58 30 82 14 24 31 48 48 69l21 20c34 31 75 55 123 69 21 3 41 3 58 3 21-3 45-3 62-17 7-3 12-9 14-16 3-3 0-15 0-15"/><path fill="#29D2F6" d="M777 547c-21-10-41 4-65 0-28 0-52-3-79-7-21-3-38-6-58-6-10 3-21 3-28 13-10 14-17 28-20 45-17 44-41 85-65 123-7 10-14 17-17 27-4 7-7 17 0 28 7 10 20 10 31 10 44 3 92-7 133-27 41-21 82-48 116-79 28-28 55-58 62-99 0-7 0-21-10-28"/></svg>