<svg xmlns="http://www.w3.org/2000/svg" class="icon acfun-icon" viewBox="0 0 1024 1024"><circle cx="512" cy="512" r="512" fill="#FD4C5B"/><path fill="#FBBA3A" d="m396 715-18-179s66-57 75-93c0 0 36 93 102 103l-8-64s101 54 103 58c17 0-17 164-4 168 47-27 75-101 75-174 0-122-91-222-207-222s-210 99-210 221c0 75 36 142 92 182"/><path fill="#50CDE9" d="m223 601 41 13-1 30 57 3-18-101-26-11zm582 1-41 14 1 30-57 3 18-102 26-11z"/><path fill="#FFF" d="m409 507-32 25 16 150 76 23 111-1 63-26 11-141-107-55 8 66-48-25-53-78-43 62"/><path fill="#FDC4C9" d="M418 622c16 0 29 6 29 14s-13 15-29 15-30-7-30-15 13-14 30-14m203 0c16 0 29 6 29 14s-13 15-29 15c-17 0-30-7-30-15s13-14 30-14"/><path d="M430 558c9 0 16 12 17 29 1 16-5 30-14 30-8 1-16-12-17-29-1-16 6-30 14-30m178 0c8 0 15 14 14 30-1 17-9 30-17 29-9 0-15-14-14-30 1-17 8-29 17-29"/><path d="M300 503c-3 11-3 31-5 34l-27-4-4 4-26 32-26 33 14 5 21 8c4 1 6 6 4 11l-4 16c-1 6 7 9 35 13 23 4 36 5 42-1 2-3 7 7 14 17 14 19 30 34 53 46 9 4 9 6 9-12 1-11 0-16 3-16 4 0 21 8 39 13 46 15 145 13 193-12v12s-2 15 1 15c11 0 43-27 57-48 9-15 15-20 17-15 2 6 8 6 38-2 20-5 37-10 38-12 2-1-3-15-3-15-3-13-8-6 13-16l16-8-21-30-26-29c-1-4 1-9 5-12l-40 11-4-31c-1-17-6-41-10-53l-7-18-6-13-6-13c-5-8-18-27-33-42-16-19-21-22-14-26l12-5-14-8c-16 7-20 5-52-10-27-13-41-16-73-17-24-1-48 1-60 5-11 4-29 11-40 17-20 10-22 11-42 4l-1 14s7 2 4 7c-5 9-17 20-17 20s-54 56-67 131m-48 99c-16 0-15-10 4-35 16-20 29-27 23-15l-9 24c-6 18-12 26-18 26m51 39-17-2c-22-2-24-2-8-46l16-41 7 29 10 48c0 7 0 13-8 12m340-14s-3 45-6 49c-3 3-28 11-28 11-9 4-36 14-85 14a205 205 0 0 1-122-28c-4-3-9-26-13-68l-6-62 17-16c9-9 25-28 34-41l18-24 14 22c7 12 21 29 32 38 20 18 45 31 60 31 6 0 7-3 5-12l-7-30-3-20 22 15c12 8 33 20 47 25 23 10 24 12 26 30 0 10-2 40-5 66m56 1c-9 25-44 73-49 68-1-2 2-34 6-72 9-73 9-126 0-126-2 0-5 5-6 13-1 9-1 17-3 17-9 0-66-32-86-48l-21-18v19a233 233 0 0 0 7 56c-6 2-20-6-28-15-17-17-45-55-50-64l-9-19-5-13-14 25c-14 27-49 72-56 72-2 0-2-14-4-18-1-5-5-11-8-10-7 2-4 43 6 137 3 35 5 64 4 65-3 3-27-21-40-42a225 225 0 0 1 88-317c48-25 77-22 115-18 79 17 144 80 162 162 9 38 4 110-9 146m65 4c-7 8-39 11-43 5-2-3-1-24 2-46l7-40 19 38c11 22 18 41 15 43m18-38c-3 4-8 8-10 7-5-2-29-51-25-55 2-2 9 6 20 19 16 20 20 23 15 29"/><path fill="#F84A59" d="m315 332-16 160-69-8c-7-21-12-55-5-79 10-29 33-49 59-64 0 0 9-5 31-9"/><path fill="#F8F3F3" d="M296 543c-29-6-55-46-72-70l16-48 47 11-7 54 21 2"/><path fill="#F7EFF0" d="M315 332c15-5 70 7 83 13-10 13-25 22-37 33-17 18-64 143-64 143"/><path fill="#FEF0F1" d="m297 355-7 61-46-6c19-41 38-51 53-55"/><path fill="none" stroke="#000" stroke-miterlimit="10" stroke-width="12" d="M302 546a112 112 0 1 1 97-198c-15 14-93 81-97 198z"/><path fill="#F84C5B" d="M715 337c28-13 66 10 85 52 20 42 14 87-14 100-27 13-66-10-85-53-20-42-14-86 14-99"/><path fill="#FAF5F6" d="M721 328c6 1 35 13 35 13-7-1-26 16-29 20a63 63 0 0 0-14 68l-14 4-61-89c24-10 57-19 83-16"/><path fill="#FAF5F5" d="M770 352c3 2 14 15 22 28l8 12c12 20 11 32 10 55-5 3-6 7-24 9-10 1-34-6-50-22-15-20-17-38-3-57 22-25 36-26 37-25"/><path fill="#F9F5F5" d="M808 464c-7 28-45 76-88 83 0 0 1-75-21-114l14-4c10 20 26 30 29 31 17 10 35 11 35 11 18 1 31-7 31-7"/><path fill="none" stroke="#000" stroke-miterlimit="10" stroke-width="12" d="M699 326c-26 0-49 8-67 22 100 90 87 173 88 200a112 112 0 0 0-21-222z"/></svg>