<svg xmlns="http://www.w3.org/2000/svg" class="icon afdian-icon" viewBox="0 0 1024 1024"><circle cx="512" cy="512" r="512" fill="#8F66DF"/><path fill="#FFF" d="M437 568a14 14 0 1 0 0 28 14 14 0 1 0 0-28m134 42a14 14 0 1 0 0 29 14 14 0 0 0 0-29"/><path fill="#FFF" d="M785 606a48 48 0 0 0-20-7c16-38 26-89-9-139a262 262 0 0 0-223-118c-27-1-59 1-93 2-40 2-92 4-128 1l21-11c26-12 45-22 39-39-4-10-14-15-31-15-35-1-112 19-126 54-7 19-9 57 70 90 32 14 123 31 158 34 8 1 16 2 24 5l-25 17c-14-8-38-18-56-6a24 24 0 0 0-10 19c-1 10 5 19 12 27-26 20-47 40-55 56a96 96 0 0 0 4 80c20 39 63 66 129 80 87 19 161 2 211-24 27-14 47-32 56-47l9 3 12 4a51 51 0 0 0 39-2c9-4 15-11 18-20 7-23-14-36-26-44M417 498l-8 5a32 32 0 0 1-6-8c3-1 8 0 14 2zm368 144-4 4a24 24 0 0 1-18 1l-13-5c-9-2-23-7-26-10a13 13 0 0 0-18-3c-6 5-8 13-3 19l5 5c-20 29-110 85-236 57-57-12-96-35-111-66a70 70 0 0 1-4-57c16-32 128-107 199-149 7-3 9-12 5-18s-12-9-18-5l-51 31a99 99 0 0 0-46-15c-37-3-123-20-151-32-20-8-65-30-55-55 3-6 13-16 37-25 16-6 33-10 50-12l-5 3c-16 8-34 16-46 27a11 11 0 0 1-2-2c-5-6-13-6-19-1-5 5-6 14 0 19 4 5 11 9 20 12h1c31 10 87 9 165 6l91-3c88 2 154 37 202 107 30 43 19 86 2 123a37 37 0 0 1-6-6c-4-5-13-6-18-2-6 5-7 13-2 19 2 3 16 19 33 18h3c12-2 19-2 26 3 9 5 14 9 13 12"/></svg>