<svg xmlns="http://www.w3.org/2000/svg" class="icon alidrive-icon" viewBox="0 0 1024 1024"><linearGradient id="a" x1="-27.8" x2="1042.4" y1="40.4" y2="941.8" gradientTransform="matrix(1 0 0 -1 8 1000)" gradientUnits="userSpaceOnUse"><stop offset="0" stop-color="#446dff"/><stop offset="1" stop-color="#637dff" stop-opacity=".8"/></linearGradient><circle cx="512" cy="512" r="512" fill="url(#a)"/><path fill="#FFF" d="M744 556c-7-2-11-9-9-15a263 263 0 0 0-512-125v1h-1a304 304 0 0 0 191 366c166 60 345-30 398-193a16 16 0 0 0-11-19zM468 687a196 196 0 0 1-140-241 157 157 0 0 1 306 69c-1 7 3 14 10 16l54 14c6 2 10 9 8 16a198 198 0 0 1-238 126"/></svg>