<svg xmlns="http://www.w3.org/2000/svg" class="vp-social-media-icon alipay-icon" viewBox="0 0 1024 1024"><circle cx="512" cy="512" r="512" fill="#FFF"/><path fill="#1677FF" d="M280 551c-23 2-66 12-89 32-70 61-28 172 113 172 82 0 164-53 229-136-92-45-170-77-253-68m526 76c114 38 177 49 190 51a512 512 0 1 0-57 117c-87-34-244-97-328-137a384 384 0 0 1-290 157c-181 0-242-158-157-262 19-22 51-44 100-56 77-19 200 12 315 50 21-39 38-80 51-125H276v-36h182v-64H237v-36h221v-91s0-16 16-16h89v107h220v36H564v64h178c-17 70-43 134-75 191z"/></svg>