<svg xmlns="http://www.w3.org/2000/svg" class="icon baidu-icon" viewBox="0 0 1024 1024"><circle cx="512" cy="512" r="512" fill="#2319DC"/><path fill="#FFF" d="M320 528c65-14 56-92 54-109-3-26-34-72-76-68-52 4-60 81-60 81-7 35 17 110 82 96m121-131c36 0 65-41 65-92 0-52-29-93-65-93s-65 41-65 93c0 51 29 92 65 92m155 7c48 6 79-46 86-85 6-38-25-84-59-91-35-8-77 46-81 82-5 44 6 87 54 94m191 65c0-19-15-75-73-75-57 0-65 53-65 91 0 35 3 85 75 84 71-2 63-81 63-100m-73 163s-74-57-118-119c-59-92-142-55-170-8s-72 76-78 84-90 53-71 135c18 83 83 81 83 81s49 5 104-7c56-13 104 3 104 3s131 43 166-41c36-84-20-128-20-128"/><path fill="#2319DC" d="M453 552v56h-45s-46 3-61 54c-6 35 4 55 6 59s17 29 53 37h85V553zm-1 172h-34s-24-1-31-29c-4-12 0-26 2-31 2-6 10-19 26-23h37zm60-111v107s2 27 39 37h98V613h-42v108h-40s-13-2-16-12v-97z"/></svg>