<svg xmlns="http://www.w3.org/2000/svg" class="vp-social-media-icon baidudisk-icon" viewBox="0 0 1024 1024"><linearGradient id="a" x1="141.6" x2="865.7" y1="850.1" y2="126" gradientTransform="matrix(1 0 0 -1 8.3 1000)" gradientUnits="userSpaceOnUse"><stop offset="0" stop-color="#42d8ff"/><stop offset=".3" stop-color="#3ed5ff"/><stop offset=".6" stop-color="#3cf"/><stop offset=".9" stop-color="#20bdff"/><stop offset="1" stop-color="#14b4ff"/></linearGradient><circle cx="512" cy="512" r="512" fill="url(#a)"/><path fill="#FFF" d="M512.8 512a78.9 78.9 0 1 0 0-157.8 78.9 78.9 0 0 0 0 157.8m112.5 28.4c-4.5 4.6-9.3 9-14.3 13.1L452 712.7l-.8-.7A145.3 145.3 0 1 1 359 455.7a155.4 155.4 0 1 1 307.6 0 145.3 145.3 0 1 1-95 255.2 36 36 0 0 1 47-54.3 73.4 73.4 0 1 0 6.6-116.2zM418.4 642.2a72.6 72.6 0 1 0-18.3 18.8l-.3-.2 18.6-18.6z"/><linearGradient id="b" x1="504.6" x2="504.6" y1="567.3" y2="449" gradientTransform="matrix(1 0 0 -1 8.3 1000)" gradientUnits="userSpaceOnUse"><stop offset="0" stop-color="#f9959d"/><stop offset=".3" stop-color="#f9919a"/><stop offset=".5" stop-color="#fb8693"/><stop offset=".7" stop-color="#fc7889"/><stop offset=".9" stop-color="#fe667d"/><stop offset="1" stop-color="#ff5571"/></linearGradient><path fill="url(#b)" d="M591.7 432.7c0 5.1-.3 10.2-1 15.2l1.4-10.3c-1.4 10.7-4.2 21-8.4 31l4-9.4c-4 9.3-9.1 18-15.3 26l6.1-8a124 124 0 0 1-21 21.2l7.8-6.1a123 123 0 0 1-26 15.2l9.4-4a124 124 0 0 1-31 8.5l10.4-1.4a124.2 124.2 0 0 1-30.4 0L508 512c-10.7-1.4-21-4.3-31-8.4l9.3 4c-9.2-4.1-18-9.2-26-15.3l8 6c-8-6.1-15-13.2-21.1-21l6 7.8c-6-8-11.2-16.6-15.2-25.9l4 9.3c-4.2-9.9-7-20.2-8.5-31L435 448c-.6-5-1-10-1-15.2a39.4 39.4 0 0 0-39-39 39.3 39.3 0 0 0-39 39 158.6 158.6 0 0 0 81.5 137.6 157.9 157.9 0 0 0 161.9-6.8c43.4-29.6 70-78 70.3-130.8.2-21.2-17.8-39-39-39a39.4 39.4 0 0 0-39 39z"/></svg>