<svg xmlns="http://www.w3.org/2000/svg" class="icon bangumi-icon" viewBox="0 0 1024 1024"><circle cx="512" cy="512" r="512" fill="#FF80AB"/><path fill="#FFF" d="M346 553a7 7 0 0 0 10 3l86-36a7 7 0 0 0 0-13l-86-39c-4-2-8 0-10 4a7 7 0 0 0 4 9l71 32-71 30c-3 2-5 6-4 10m100 7h-93a7 7 0 0 0 0 14h93a7 7 0 0 0 0-14m0 23h-93a7 7 0 0 0 0 14h93a7 7 0 0 0 0-14m277-112-78 35a7 7 0 0 0 0 13l77 37 4 1a7 7 0 0 0 3-14l-64-30 63-28c4-2 6-6 4-10-1-4-6-5-9-4m3 89h-87c-4 0-7 3-7 7s3 7 7 7h87a7 7 0 0 0 0-14m0 23h-87c-4 0-7 3-7 7s3 7 7 7h87c4 0 7-3 7-7s-4-7-7-7m-136-76h-96a7 7 0 0 0-6 10l48 85a7 7 0 0 0 12 0l48-85a7 7 0 0 0-7-10zm-48 77-35-63h70z"/><path fill="#FFF" d="M733 388H592c-4-9-12-16-22-22l112-163c2-3 1-8-2-10s-8-1-10 2L557 360a86 86 0 0 0-45-2L353 195c-3-3-7-3-10 0-2 3-2 7 0 10l153 158c-13 6-22 15-27 25H291c-30 0-54 24-54 54v243c0 30 24 54 54 54h156l-12 27c-7 18 14 34 29 22l63-49h206c30 0 54-24 54-54V442c0-30-24-54-54-54m21 272c0 20-16 36-36 36H555l-57 43-45 34 14-34 18-43H329c-20 0-36-16-36-36V450c0-20 16-36 36-36h389c20 0 36 16 36 36z"/></svg>