<svg xmlns="http://www.w3.org/2000/svg" class="icon battlenet-icon" viewBox="0 0 1024 1024"><circle cx="512" cy="512" r="512" fill="#148EFF"/><path fill="#FFF" d="M710 431c17-53 21-102 9-139l-1-1c0-2-2-6-4-6s-2 3-2 4v1c4 33-6 80-26 129a581 581 0 0 0-288-49c5-34 18-57 38-62 29-7 60 12 90 46 20 3 40 6 59 11-54-103-127-160-183-139-42 16-64 74-61 152-55 12-99 34-125 62l-1 1c-1 2-4 5-3 7s4 0 5 0v-1c27-20 73-34 126-41a582 582 0 0 0 101 273c-32 13-59 14-74-2-20-21-19-58-4-101-8-18-15-37-20-56-62 98-75 190-29 228 35 28 96 18 163-24 37 42 78 69 116 78h1c2 0 6 1 8-1 0-2-2-3-3-4h-1c-31-13-66-45-99-88a582 582 0 0 0 187-224c26 21 41 44 35 64-9 29-41 46-86 55l-38 46c116 4 202-31 211-89 7-45-32-93-101-130M609 548c-41 51-92 93-137 118a513 513 0 0 1-77-265 513 513 0 0 1 268 66c-15 29-33 56-54 81"/></svg>