<svg xmlns="http://www.w3.org/2000/svg" class="vp-social-media-icon bilibili-icon" viewBox="0 0 1024 1024"><circle cx="512" cy="512" r="512" fill="#1296db"/><path fill="#fff" d="M745.363 177.725a47 47 0 0 1 0 66.3L702.5 286.85h44A141 141 0 0 1 887 427.512v281.25a141 141 0 0 1-141 140.626H277.25A141 141 0 0 1 137 708.763v-281.25a141 141 0 0 1 141-141h43.725l-42.788-42.825a47 47 0 1 1 66.263-66.3l99.45 99.45c2.963 2.962 5.438 6.187 7.425 9.637h120.487c1.988-3.45 4.5-6.75 7.463-9.675l99.413-99.45a47 47 0 0 1 66.3 0zm1.012 203.25h-468.75a47 47 0 0 0-46.763 43.388l-.112 3.525v281.25c0 24.712 19.125 44.962 43.387 46.724l3.488.15h468.75a47 47 0 0 0 46.763-43.387l.112-3.487v-281.25c0-26-21-47-47-46.876zm-375 93.75c26 0 47 21 47 47v47a47 47 0 1 1-93.75 0V521.6c0-26 21-47 47-47zm281.25 0c26 0 47 21 47 47v47a47 47 0 1 1-93.75 0V521.6c0-26 21-47 47-47z"/></svg>