<svg xmlns="http://www.w3.org/2000/svg" class="vp-social-media-icon coolapk-icon" viewBox="0 0 1024 1024"><linearGradient id="a" x1="503.7" x2="503.7" y1="-24" y2="1000" gradientTransform="matrix(1 0 0 -1 8 1000)" gradientUnits="userSpaceOnUse"><stop offset="0" stop-color="#0ca763"/><stop offset="1" stop-color="#12c475"/></linearGradient><circle cx="512" cy="512" r="512" fill="url(#a)"/><path fill="#FFF" d="M228 448c22-50 70-87 124-97 41-7 84 4 120 24 31 16 59 38 84 62-12 13-30 21-43 33-35-29-72-58-118-65-59-10-118 37-127 95-7 34 7 71 34 93 29 26 72 33 110 23 43-10 76-42 102-76 40-54 74-112 110-169 10-14 35-13 44 3l141 244c6 12 3 27-7 35s-25 7-35-1L599 531l43-32c18 9 33 24 52 31-15-30-33-58-50-87-31 44-57 93-91 135-36 47-86 87-146 95-29 3-59 4-87-7-40-14-75-44-93-82-21-42-20-94 1-136"/></svg>