<svg xmlns="http://www.w3.org/2000/svg" class="icon dingding-icon" viewBox="0 0 1024 1024"><circle cx="512" cy="512" r="512" fill="#1C9DF7"/><path fill="#fff" d="M760.551 442c0 5-5 13-7.767 20.713-23.302 49.192-82.85 145-82.85 145l-18.124 31.069h85.44L576.727 853.758l36.247-145h-67.316l23.302-95.796c-18.124 5-41.426 10-67.316 18.124 0 0-36.247 20.712-101-38.837 0 0-44.015-38.836-18.124-49.192 10-5 54.37-10 88.029-13 44.014-5.179 72.494-10 72.494-10s-139.81 2.59-173.468-2.589c-33.658-5-75.083-59.549-82.85-108.741 0 0-12.946-25.89 28.48-13 44.013 13 222.66 49.192 222.66 49.192s-235.606-72.494-251.14-90.618c-15.535-18.123-46.604-95.796-41.426-145 0 0 2.59-13 13-7.767 0 0 173.469 80.261 292.566 121.686 119 41.426 222.66 64.727 209.715 119z"/></svg>