<svg xmlns="http://www.w3.org/2000/svg" class="icon douban-icon" viewBox="0 0 1024 1024"><circle cx="512" cy="512" r="512" fill="#30c171"/><path fill="#fff" d="M824.418 188.791H200.306c-6 0-11 5.142-11 11v46.204c0 6 5.142 11 11 11h624.04c6 0 11-5.142 11-11v-46.276a11 11 0 0 0-11.515-11.515zm0 577.836H655.681l60.108-150.27h50.838c6 0 12-5.142 12-11V339c0-6-5.142-12-12-12h-508.53c-6 0-11 5.142-11 11v265.78c0 6 5.141 12 11 12h365.212l-60.108 150.27H449.936l-41.569-103.994c0-6-5.141-11-11-11h-69.305c-6 0-11 5.142-11 11L358.63 766.05H201.48c-6 0-11 5.142-11 12v46.203c0 6 5.142 11 11 11h624.04c6 0 11-5.141 11-11V778.05c0-6.446-5.142-12-11.515-12zM350.577 547.051v-150.27h323.57v150.27h-323.57z"/></svg>