<svg xmlns="http://www.w3.org/2000/svg" class="vp-social-media-icon douyu-icon" viewBox="0 0 1024 1024"><circle cx="512" cy="512" r="512" fill="#FF912E"/><path fill="#231815" d="M782 379c4 0 6-5 4-9l-6-9a150 150 0 0 0-177-61c-48-12-98-10-145 5-83 27-149 92-177 175l-1 3c-1 3 1 7 4 10l2 1a194 194 0 0 0 277-72c0 12-1 27-5 43-11 46-42 84-85 104l-5 1-2 5c-3 5-16 31-6 57 3 7 11 12 19 12s19-4 27-9l10 11c-1 11-8 16-15 22-6 5-14 7-22 7-13-21-33-27-58-27-10 0-20 2-30 7a14 14 0 0 0 1 24s32 13 51 39c18 24 8 50 7 52l-7 15c-2 3 1 8 6 7l15-4c34-8 61-34 69-68 65-10 122-49 155-106 33-58 40-128 17-192 29-33 66-41 66-41z"/><path fill="#F0F1F2" d="M522 709a210 210 0 0 0 168-288c33-44 79-52 79-52-36-55-104-78-165-54-11-4-72-19-142 3-134 44-168 166-168 166a181 181 0 0 0 273-110s17 39 4 94c-21 87-94 113-94 113-3 7-12 28-4 46 3 8 21 2 36-9 12 16 17 19 20 21 1 18-6 30-18 40a69 69 0 0 1-34 17 61 61 0 0 0-80-29s35 13 57 43c23 32 8 66 8 66 16-4 53-21 60-67"/><path fill="#BCBCBC" d="M476 314c64-16 117-3 128 1 9-5 28-10 51-9-21 2-33 8-42 11h-1v1c19 12 31 30 31 30-39-50-141-31-157-26zm283 57c-15 5-45 18-69 50 15 37 19 77 13 114l-4 9c9-75-16-121-40-164l21 28c30-31 82-39 82-39z"/><path fill="#231815" d="M569 470c12-40-4-67-4-67-11 43-32 75-78 100-33 17-90 20-90 20l78 43c47-11 79-47 94-96"/><path fill="#FFF" d="M561 409c6 26 2 45 0 49-3 6-15-2-15-2s5 39 0 44-28-14-28-14 11 42 3 47c-8 6-45-23-45-23s12 47 5 49-18-1-29-6l-18-10-32-20c15-1 51-6 82-26 42-27 69-60 77-88"/><path fill="#2D0A03" stroke="#231815" stroke-width="35.3" d="M479 540c47 30 61 81 34 119s-80 41-123 4c-39-33-56-88-34-119 23-31 80-31 123-4z"/><path fill="#231815" d="M535 597c-9-29-33-55-63-70-49-25-105-14-127 24s-4 92 41 124a121 121 0 0 0 92 21c22-5 39-17 50-36 11-18 13-41 7-63"/><path fill="#F8C100" d="M466 534c51 25 75 80 52 120-23 41-82 44-128 12-42-30-58-78-39-111 20-33 70-44 115-21"/><path fill="#231815" d="M454 527s-82 18-86 119l3 5s-4-32 32-78c28-37 52-45 52-45z"/><path fill="#231815" d="M332 636c-52-26-87-62-78-83 10-23 69-20 132 8l15 7 5-7-18-9c-71-31-138-34-149-8-8 19 14 48 52 73 15 11 32 16 41 19"/><path fill="#F0F1F2" d="M542 550c-23 31-61 49-101 46a101 101 0 0 0 178-43z"/><path fill="#231815" d="M458 602v1c9 8 20 14 32 18 8 3 17 4 26 5h4-1 10l12-2 7-2 6-2 7-2 6-3 11-7 5-4 6-5 9-9 8-12 4-6 3-6 6-13-3 14-2 7-3 7c-4 9-9 18-16 25l-5 6-6 4-11 10-14 7-7 2-7 2-7 2-8 1-8 1h-7c-32-1-61-16-80-41-1-3-1-8 2-10 2-1 4-2 6-1h12l14-1 7-1 6-1 14-5 6-2 6-4 12-6 6-5 6-4 10-10-8 12-5 6-5 4-12 10-6 4-7 4-13 6-8 2-7 2zm52-238c0 35-27 62-60 62-34 0-60-27-60-62s26-63 60-63c33 0 60 28 60 63"/><path fill="#E9E9E9" d="M510 372c0 30-24 54-53 54s-53-24-53-54c0-31 24-55 53-55s53 24 53 55"/><path fill="#FFF" d="M508 371a49 49 0 1 1-97 9 49 49 0 0 1 97-9"/><path fill="#231815" d="M500 371a41 41 0 1 1-81 0 41 41 0 0 1 81 0"/><path fill="#FFF" d="M506 374a21 21 0 1 1-43 7 21 21 0 0 1 43-7m-67-16a12 12 0 1 1-23 0 12 12 0 0 1 23 0"/></svg>