<svg xmlns="http://www.w3.org/2000/svg" class="icon douyin-icon" viewBox="0 0 1024 1024"><circle cx="512" cy="512" r="512" fill="#111"/><path fill="#00FAF0" d="M453 448v-23l-24-2a182 182 0 0 0-105 331 183 183 0 0 1 129-306"/><path fill="#00FAF0" d="M457 713c45 0 82-36 83-80V237h73c-2-8-3-16-3-25h-99v396a83 83 0 0 1-121 70c15 21 40 35 67 35m291-341v-22c-27 0-53-8-75-23 19 22 46 38 75 45"/><path fill="#FF0050" d="M673 327c-21-24-34-55-34-90h-26c7 38 29 70 60 90M429 522a83 83 0 0 0-39 156 83 83 0 0 1 92-128v-99l-25-2h-4v78c-7-3-16-4-24-4z"/><path fill="#FF0050" d="M748 372v77c-51 0-99-17-137-45v201a182 182 0 0 1-286 149 182 182 0 0 0 315-124V429c39 28 86 45 137 45v-99c-10 0-20-1-29-3"/><path fill="#FFF" d="M611 605V404c38 28 86 45 137 45v-77c-30-7-56-23-75-45-31-20-53-52-60-90h-72v396a83 83 0 0 1-150 45 83 83 0 0 1 63-152v-78a182 182 0 0 0-129 306 181 181 0 0 0 286-149"/></svg>