<svg xmlns="http://www.w3.org/2000/svg" class="icon duitang-icon" viewBox="0 0 1024 1024"><circle cx="512" cy="512" r="512" fill="#ff5a57"/><path fill="#FFF" d="M625 529V413c0-5 2-6 6-6h71c7 0 7 0 7-7v-22c0-3 0-4 4-4 11 2 18 8 24 17 2 3 2 8 3 12 0 3 1 4 5 4h47c6 0 8 3 4 8l-5 5c-1 0-2 1-1 2h2v-1l-1-1c-15 2-30 1-45 1-4 0-6 1-5 5v14c-1 3 1 4 4 4h29c11 1 17 7 17 18v14c0 8-1 8 8 8 5 0 9 2 11 6 2 2 3 4 2 6-1 3-4 2-6 2h-10c-4-1-5 1-5 5v17c-1 12-7 18-20 19h-26c-4 0-5 1-5 4v17c0 3 1 4 4 4h25c11 0 15 3 16 14v50c-1 10-5 14-15 14h-89l-7-1c-4-2-7-4-8-10-1-19-1-38 1-57 0-7 5-10 12-10h25c3 0 4-1 4-4v-16c0-4-1-5-4-5h-33c-5 0-6-1-5-5 2-5 6-9 12-9h25c3 0 5-1 5-4v-18c0-4-2-4-5-4h-36c-5 0-6-1-5-6 2-5 6-9 12-9h29c3 0 5-1 5-4v-17c0-3-2-4-5-4h-25c-6 0-11-4-12-10-1-3 0-5 4-5h33c3 0 5 0 5-4v-14c0-4-1-5-5-5h-43c-5 0-6 1-6 5l1 64v122c0 9-1 16-5 24-4 9-12 13-22 14-3 0-3-3-3-4zm101 100h24c5 0 6-2 6-6v-38c0-4-1-6-6-6h-48c-4 0-6 1-6 5v39c0 4 2 6 6 6zm27-130h-9c-2 0-3 1-3 3v20c0 2 0 4 3 4h16c3 0 4-2 5-5v-10c0-12 0-12-12-12m-12-28v10c0 2 0 3 3 3h17c3 0 4-1 4-3v-11c0-11 0-11-11-11-4 0-9-2-12 1-3 2-1 8-1 11M423 641h-60c-5 0-6-1-5-6 2-6 7-9 13-9h29c3 0 4-1 4-4v-44c0-4-2-4-4-4h-38c-4 0-5-1-4-5 2-6 6-9 12-9h30c3 0 4-1 4-4v-44c0-4-1-4-4-4h-38c-4 0-5-1-4-5 2-6 6-10 13-10h27c6 0 6 0 6-6v-41c0-4-1-5-4-5h-38c-5 0-5-1-4-5 2-6 6-9 12-9h30c3 0 4-1 4-4v-44c0-5 0-5 6-4 10 1 18 7 22 16 4 8 5 18 5 27s0 9 9 9h30c6 0 10 3 11 9 2 4 1 5-3 5h-42c-4 0-5 1-5 5v43c0 4 1 4 5 4h33c7 0 12 4 13 10 0 3 0 5-4 5h-42c-4 0-5 1-5 5v43c0 3 1 4 4 4h34c7 0 11 4 13 10 1 3 0 5-4 5l-42-1c-4 0-5 2-5 6v42c0 3 1 4 5 4h33c7 0 12 4 13 10 1 3 0 5-4 5zm168-107v78c0 7-1 14-5 21s-15 12-22 11c-2-1-2-1-2-3V539c-3 2-4 5-5 8l-25 51c-3 6-8 10-15 10-6 0-7-1-4-6l11-23 35-71c1-4 1-5-3-5h-28c-4 0-4-1-3-5 1-5 6-9 12-9h20c4 0 5-1 5-5 0-3 0-5-4-5-6 0-11-3-14-8l-15-32c-2-3-1-4 2-5 6-2 14 3 18 10l10 20 2 3 1-3v-51c0-13 14-26 27-25 2 0 2 1 2 3v75c4-5 5-10 7-15l5-10c3-6 11-9 16-7 3 1 4 2 2 4l-14 31c-2 6-7 9-13 10-6 0-3 4-4 6 0 3 1 4 4 4h17c5 0 10 4 11 9 0 3 0 5-4 5h-17c-7 0-7 0-4 6l21 40c2 4 2 5-2 6-9 2-14-1-19-9z"/><path fill="#FFF" d="m317 488-8 16c-4 8-12 11-20 9-3-1-1-3-1-4l14-30 31-64 8-16c3-7 11-9 18-7 3 1 4 2 2 5l-27 54v1c-3 6-3 6 4 6 13 0 13 0 13 13v133c0 9-1 18-4 26-5 11-13 16-24 19-3 0-5-1-5-5V488z"/><path fill="#FFF" d="M240 537v-47c0-3-1-4-4-4h-15c-3 0-4-1-4-4 1-5 6-10 12-10 11-1 11-1 11-12s0-22 5-33c4-11 13-16 24-17 4-1 3 2 3 4v52c0 5 2 6 6 6 7-1 12 1 15 7 2 5 1 7-4 7h-13c-2 0-4 1-4 4v72c0 3 1 4 4 2 4-4 11-6 16-10 3-2 4-2 4 2 1 8-1 14-9 19l-69 42c-3 3-4 1-5-2-2-6 0-13 6-16l17-10c2-2 3-4 3-7z"/></svg>