<svg xmlns="http://www.w3.org/2000/svg" xml:space="preserve" viewBox="0 0 1024 1024"><circle cx="512" cy="512" r="512" fill="#E8F0FF"/><path fill="#E24329" d="m512 808 110-340H402l110 340z"/><path fill="#FC6D26" d="M512 808 402 468H247l265 340z"/><path fill="#E24329" d="M247 468h155l-67-204c-4-11-19-11-22 0l-66 204z"/><path fill="#FC6D26" d="m512 808 110-340h156L512 808z"/><path fill="#FCA326" d="m778 468 33 104c3 10-1 19-9 25L512 808l266-340z"/><path fill="#E24329" d="M778 468H622l68-204c3-11 18-11 21 0l67 204z"/><path fill="#FCA326" d="M512 808 222 597c-8-5-12-16-9-25l34-104 265 340z"/></svg>