<svg xmlns="http://www.w3.org/2000/svg" class="vp-social-media-icon huoshan-icon" viewBox="0 0 1024 1024"><circle cx="512" cy="512" r="512" fill="#111"/><path fill="#E1190F" d="M143 749c23-15 46-31 70-45v8c-1 39 5 77 12 115-28 15-60 28-93 29-16-19-33-39-47-60 17-18 38-32 58-47"/><path fill="#EB460F" d="M213 712v-8c10 33 29 75 45 105 1 1-15 9-15 9-11 6-7 5-18 9-7-38-13-76-12-115"/><path fill="#F0321E" d="m710 879-4-35c-7-59-25-116-54-167-16-31-38-58-59-85l-6-6-6-7-3-3a281 281 0 0 1-24-24l-5-4-5-5-3-2-4-4-12-9-13-9c-13-11-29-19-43-28l-20-8 13 3c37 18 73 39 105 65l31 27 19 17c14 15 29 28 41 44a563 563 0 0 1 129 219c-1 10-6 19-8 29-10 28-21 56-36 82l-34 16 1-6v-15l1-10v-51"/><path fill="#FF550A" d="M475 1023a510 510 0 0 1-343-167c33-1 65-14 93-29 11-4 21-11 31-17 19-11 37-24 55-37 14-12 29-22 41-35 27-29 47-63 63-99a431 431 0 0 0 34-156l20 8c14 9 30 17 43 28l13 9 12 9 4 4 3 2 5 5 5 4 27 27 6 7 6 6c21 27 43 54 59 85 29 51 47 108 54 167l4 35 1 10v65l-1 10v15l-1 6a500 500 0 0 1-159 38h-15l-14 1h-32"/><path fill="#F0410F" d="M808 705c4 1 7 5 11 7l73 49c16 11 32 21 46 34a509 509 0 0 1-195 174c15-26 26-54 36-82 2-10 7-19 8-29 3-6 4-13 6-19 10-44 17-89 15-134"/><path fill="#FFF" d="M528 212h101c3 3 0 8 2 12 3 26 13 51 28 73 26 36 71 56 115 58v104c-23 1-46-5-69-11-26-7-51-19-75-33v203a190 190 0 1 1-164-184v105h-1a88 88 0 0 0-86 22 85 85 0 0 0-25 64c-1 31 18 60 45 74 24 14 54 14 79 2 27-12 47-40 49-70"/></svg>