<svg xmlns="http://www.w3.org/2000/svg" class="icon huya-icon" viewBox="0 0 1024 1024"><circle cx="512" cy="512" r="512" fill="#FFF5C8"/><path fill="#F3EBDE" d="M439.216 625.777h209.15v66.929h-209.15z"/><path fill="#F6F8F9" d="m419.5 328.5-115 86-6.5 120 61.5 91.277 412.803-46.483L720.5 401.5l-114-91z"/><path fill="#F6F8F9" d="M497 393c-3 0-6 2-8 3l-6 10a229.963 229.963 0 0 0-4 78c2 10 4 21 8 30 2 4 5 9 10 11 4 2 9 1 14 0 11-2 20-7 29-12 13-6 25-14 36-22 9-7 17-15 24-24 3-4 6-10 5-15-3-7-8-11-12-16a214.99 214.99 0 0 0-69-39c-9-2-18-5-27-4m114 254c10-4 20-9 29-16 0 15-3 29-9 41-5-5-10-9-13-14zm-153 26c-1-6-2-12-1-18 11 4 22 6 33 7-7 11-17 21-29 28l-1-2z"/><path fill="#954607" d="M534 290c13-13 28-23 45-27 3-1 6 1 9 2 23 7 43 21 60 37 18 17 34 36 47 58l2 4c-17-19-34-38-53-54-16-13-34-24-53-32l-7-3c-18 1-34 8-50 15m-193-23c32 4 64 12 93 28l6 3-13-4c-24-7-49-12-74-11l-5 1a361.03 361.03 0 0 0-45 91l-5 17a282.003 282.003 0 0 1 43-125m114 69c77.394-25.467 162.451-9.211 225 43a174.002 174.002 0 0 1 56 98c3 18 3 37-5 54l-4 7-6 9c-13 15-32 24-51 29-27 8-55 10-83 13l-59 4c-34 3-68 7-102 6-14 0-28-1-42-4l-30-12c-10-7-19-16-24-27-8-15-10-31-10-47 0-34 11-68 31-96 25-36 63-63 104-77m59 3c-20 1-39 5-58 12-36 13-68 35-91 66-19 25-30 55-31 87 0 15 1 29 7 43 4 10 12 18 21 24 12 8 26 11 40 13 17 2 33 2 49 1l54-4 80-6c25-2 50-5 75-11 14-3 29-8 41-18 9-6 16-16 20-27 3-11 3-23 2-34a157.997 157.997 0 0 0-55-97 228.997 228.997 0 0 0-154-49"/><path fill="#954607" d="M497 393c9-1 18 2 27 4a214.99 214.99 0 0 1 69 39c4 5 9 9 12 16 1 5-2 11-5 15-7 9-15 17-24 24a215.99 215.99 0 0 1-65 34c-5 1-10 2-14 0-5-2-8-7-10-11-4-9-6-20-8-30-2-16-2-33-1-49 1-10 2-19 6-29l5-10c2-1 5-3 8-3m231 145 2-1c19-1 38 1 56 5l1 9c0 14 0 28-3 42-12-15-25-28-39-41zm-469 45c23-11 48-18 74-20l-5 5c-25 26-45 57-59 90-13-19-23-41-28-65zm427 22c13 1 27 4 40 9 14 6 27 15 39 25 1 1 3 2 3 4-11 21-26 40-44 55l-10-41c-6-19-15-37-28-52m-47 5a7 7 0 0 1 10 3c2 5-1 9-3 13 2 18-4 37-11 53-13-3-25-8-35-17l-9-8c-31 8-63 10-94 8-8 16-22 27-37 35a96.99 96.99 0 0 1-24-51c-4-3-7-6-9-10 0-3 2-5 5-6 2-1 6-2 8 1 4 4 9 6 14 8 16 7 33 9 50 10 26 1 52-1 77-7 15-4 29-8 43-16 4-3 8-5 11-10 1-2 1-4 4-6m-28 37-14 5c10 9 21 16 34 20 6-12 9-26 9-41-9 7-19 13-29 16m-169 3c4 14 10 27 19 38v2c12-7 23-17 29-28a169.024 169.024 0 0 1-48-12m-108 2c16-15 37-25 58-30l-12 27c-10 27-12 56-12 85-25-10-48-24-68-41 9-16 20-29 34-41"/><path fill="#F49F17" d="M534 290c16-7 32-14 50-15l7 3c19 8 37 19 53 32 19 16 36 35 53 54l16 17a276.996 276.996 0 0 1 74 170l-1-9c-18-4-37-6-56-5l-2 1 17 14c15 12 27 27 39 41-3 18-8 34-16 50 0-2-2-3-3-4-12-10-25-19-39-25-13-5-27-8-40-9 13 15 22 33 28 52l10 41c-27 22-59 38-92 47a424 424 0 0 1-264-11c0-28 2-57 11-85l13-27a148.994 148.994 0 0 0-92 71c-11-10-22-22-31-34a281.998 281.998 0 0 1 64-96 221.97 221.97 0 0 0-92 30c-6-32-5-64 3-95 9-39 28-75 54-106l5-17a361.03 361.03 0 0 1 45-91l5-1c25-1 50 4 74 11l13 4 3 1c29-8 59-11 90-9zm-79 46c-41 14-79 41-104 77-20 28-31 61-31 96 0 16 2 32 10 47 5 11 14 20 24 27 9 5 20 9 30 12 14 3 28 4 42 4 34 1 68-3 102-6l59-4c28-3 56-5 83-13 19-5 38-14 51-29l6-9 4-7c8-17 8-36 5-54a174 174 0 0 0-56-97c-62.323-51.859-146.903-68.096-224-43zm184 274c-3 2-3 4-4 6-3 5-7 7-11 10-14 8-28 12-43 16-26 6-51 8-77 7-17-1-34-3-50-9-5-3-11-5-14-9-2-3-6-2-8-1-3 1-5 3-5 6l8 10c4 19 12 37 25 51 15-8 29-19 37-35 31 2 63 0 94-8 3 3 5 6 9 8 10 9 22 14 35 17 7-16 13-35 10-53 3-4 6-8 4-13-1-4-7-6-10-3"/></svg>