<svg xmlns="http://www.w3.org/2000/svg" class="icon idlefish-icon" viewBox="0 0 1024 1024"><circle cx="512" cy="512" r="512" fill="#FED802"/><path fill="#212121" d="M671 593H556l-11-2c-7-2-10-7-10-15V456c0-11 8-19 19-19h234c12 0 19 7 19 19v119c0 11-6 17-17 18zm98-96v-16c0-8-1-10-10-10h-64l-4 1v25zm-118 36h-78v15c0 8 2 10 9 10h64l5-1zm118-1h-78v26l72-1c2 0 5-3 6-5zm-118-61h-71a6 6 0 0 0-7 6v20h78zm-167 48v122c0 13-8 21-19 21s-19-9-19-21V413c-1-8-5-12-13-12h-93c-12 0-20-8-20-18-1-11 8-20 20-20h112c20 0 32 13 32 34z"/><path fill="#212121" d="M329 491h-43c-13 0-21-7-22-19 0-11 9-19 22-19h43v-16c0-13 8-21 19-21 12 0 19 8 19 21v16h45c12 0 20 8 20 19 1 11-8 19-20 19h-45v150c0 13-8 21-20 21-9-1-17-7-18-16zm342-127h115c14 0 21 8 21 21v19c0 11-7 18-17 19s-19-5-20-15c-1-6-4-6-8-7H580c-5 0-7 1-8 7-1 9-10 16-20 15-9 0-17-8-17-18v-21c0-12 7-20 19-20zM212 512V384c0-11 5-18 15-20a19 19 0 0 1 23 16v258l-1 10c-2 9-11 15-20 14s-16-8-17-17zm519 150c-26 0-51-6-77-11-21-4-43-7-65-2-10 2-20 6-29 10-8 3-14 4-21 0-6-5-9-11-8-18s5-11 10-14c20-12 41-17 64-17 26-1 51 3 76 9 23 4 45 8 69 5 11-2 22-6 32-11 4-2 9-3 14-3 8 1 14 7 16 15 1 8-2 15-10 20-17 10-36 15-56 17z"/><path fill="#212121" d="M308 589v53c0 11-8 20-18 20a19 19 0 0 1-20-19V536c0-11 9-19 20-19 10 0 18 8 18 20zm117 0v52c0 12-8 21-19 21-12 0-19-8-19-21V538c0-13 8-21 19-21s19 8 19 20zM285 362a21 21 0 1 1-1 41 21 21 0 0 1 1-41"/></svg>