<svg xmlns="http://www.w3.org/2000/svg" class="vp-social-media-icon instagram-icon" viewBox="0 0 1024 1024"><circle cx="512" cy="512" r="512" fill="#181818"/><path fill="#fff" d="M512 348.16c-88.222 0-163.84 71.417-163.84 163.84 0 88.222 71.417 163.84 163.84 163.84 88.222 0 163.84-71.417 163.84-163.84 0-88.222-75.618-163.84-163.84-163.84zm0 268.866c-58.814 0-105.026-46.212-105.026-105.026S453.186 406.974 512 406.974 617 453.186 617 512s-46.186 105-105 105zM680.041 306.15c-21 0-37.81 16.804-37.81 37.809s16.805 37.81 37.81 37.81 37.81-16.805 37.81-37.81-16.805-37.81-37.81-37.81z"/><path fill="#FFF" d="M659.036 196.923h-16.804c-50.413-4.2-210.051-4.2-260.464 0-96.623-4.2-180.644 71.418-184.845 168.041v16.804c-4.2 50.413-4.2 210.051 0 260.464-4.2 96.623 71.418 180.644 168.041 184.845h16.804c50.413 4.2 210.051 4.2 260.464 0 96.623 4.2 180.644-71.418 184.845-168.041V381.768c4.2-96.623-71.418-180.644-168.041-184.845zM759.86 696.845c-12.604 29.407-33.609 50.412-58.815 58.814-121.83 16.805-247.86 16.805-373.891 0-29.407-12.603-50.412-33.608-58.814-58.814-12.604-63.015-16.805-126-12.604-184.845-4.2-63.015 0-126 12.604-184.845 12.603-29.407 33.608-50.412 58.814-58.814 121.83-16.805 247.86-16.805 373.891 0 29.407 12.603 50.412 33.608 58.815 58.814 12.603 63.015 16.804 126 12.603 184.845 4.2 63.015 0 126-12.603 184.845z"/></svg>