<svg xmlns="http://www.w3.org/2000/svg" class="icon iqiyi-icon" viewBox="0 0 1024 1024"><circle cx="512" cy="512" r="512" fill="#6AC60A"/><path fill="#FFF" d="M245 340c7-16 18-27 36-32 19-5 39-8 58-11 22-3 43-5 65-6l42-3 65-1h39a1533 1533 0 0 1 186 19c25 6 40 22 46 46l4 24c0 3-1 4-5 4h-43c-3 0-5-1-5-4-3-18-12-28-30-31a776 776 0 0 0-134-12l-23-1h-87a1154 1154 0 0 0-148 16c-13 4-19 15-21 28 0 3-2 4-5 4h-44c-2 0-4 0-4-3 1-13 3-25 8-37m417 279c0 6-1 7-8 7h-36c-6 0-8-1-8-8v-56c1-15-2-28-7-42l-37-100-5-15c-2-5 0-8 5-8h40c4 0 5 1 7 5l22 73 1 3 10-31 14-45c1-5 2-5 7-5h39c6 0 8 2 6 8l-38 104-11 31-1 7zm-122-68v67c0 7-1 8-8 8h-37c-6 0-7-1-7-7V405c0-7 1-8 8-8h35c8 0 9 1 9 8zM319 431c0-14 7-23 18-30 9-5 19-8 29-9 19-2 38-2 56 2 8 2 15 5 22 10 8 6 13 15 13 25v165c0 14-9 23-22 30-1 0-2 0-3 2l6 1h17c5 0 7 2 7 6v14c-1 4-2 6-6 6h-30c-12-2-18-7-20-18-1-4-3-4-6-3-22 1-43-1-63-11-12-6-18-15-18-29zm-82-28c0-4 2-6 6-6h40c4 0 6 2 6 6v40c0 4-2 6-6 6h-40c-4 0-6-2-6-6zm0 155v-85c0-6 1-7 7-7h38c6 0 7 1 7 7v148c-1 4-2 5-6 5h-40c-5 0-6-2-6-6zm541 126c-6 16-18 27-35 32a1183 1183 0 0 1-121 17l-41 2a994 994 0 0 1-146 0 1449 1449 0 0 1-154-19c-18-5-30-17-36-34-5-11-6-23-7-35 0-2 1-4 3-4h17l29 1c3 0 3 1 3 3 2 9 4 17 12 23 6 5 13 8 21 9a957 957 0 0 0 155 12 2159 2159 0 0 0 122-1c34-2 67-6 101-11 6-1 12-3 17-6 10-5 14-14 15-25 1-3 2-4 5-4l44-1c3 0 4 1 4 5-1 12-2 24-8 36m9-65c0 6-2 7-8 7h-37c-6 0-7-1-7-7V404c0-6 1-7 8-7h36c6 0 8 1 8 7z"/><path fill="#6AC60A" d="M376 601c5 3 10 3 16 3 10-2 12-5 12-15V429c0-5-2-8-7-9-6-2-13-1-19 1-4 1-6 4-7 7v165c1 3 2 6 5 8"/></svg>