<svg xmlns="http://www.w3.org/2000/svg" class="icon kdocs-icon" viewBox="0 0 1024 1024"><linearGradient id="a" x1="503.7" x2="503.7" y1="-24" y2="1000" gradientTransform="matrix(1 0 0 -1 8 1000)" gradientUnits="userSpaceOnUse"><stop offset="0" stop-color="#1a4acc"/><stop offset="1" stop-color="#48c2ff"/></linearGradient><circle cx="512" cy="512" r="512" fill="url(#a)"/><path fill="#FFF" d="m389 584 123 69v159L264 665a6 6 0 0 1 0-10z" opacity=".5"/><path fill="#FFF" d="m654 574 120 96-262 142V652z" opacity=".6"/><path fill="#FFF" d="M774 670V357l-120 71v146z" opacity=".8"/><path fill="#FFF" d="M512 653V512l-137-78-114 64a8 8 0 0 0 0 15z" opacity=".7"/><path fill="#FFF" d="M506 213 253 356a6 6 0 0 0 0 10l259 146 262-155-257-144z" opacity=".9"/></svg>