<svg xmlns="http://www.w3.org/2000/svg" class="vp-social-media-icon kuaishou-icon" viewBox="0 0 1024 1024"><circle cx="512" cy="512" r="512" fill="#FF4906"/><path fill="#FFF" d="M656 519c54 0 97 43 97 96v76c0 53-43 96-97 96H515c-42 0-79-27-92-66l-84 42a47 47 0 0 1-68-42V585a47 47 0 0 1 68-42l84 43c13-40 50-67 92-67zm0 49H516c-26 0-47 21-48 48v74c0 26 21 47 47 48h140c26 0 48-21 48-48v-74c0-26-21-47-47-48m-322 30c-7 0-13 6-13 13v85a13 13 0 0 0 18 12l80-40v-29l-80-39zm117-361c47 0 91 25 114 66a112 112 0 1 1-15 148 130 130 0 0 1-229-84c0-72 58-130 130-130m0 52a78 78 0 1 0 0 156 78 78 0 0 0 0-156m190 37c-33 0-60 26-60 59s27 59 60 59 59-26 59-59-26-59-59-59"/></svg>