<svg xmlns="http://www.w3.org/2000/svg" class="icon kuwo-icon" viewBox="0 0 1024 1024"><circle cx="512" cy="512" r="512" fill="#FFE942"/><path fill="#FF6000" d="M417 247a20 20 0 0 0-13 26v1c2 7 6 8 14 7a385 385 0 0 1 181-2c67 15 117 52 141 119a402 402 0 0 1 6 217c-18 62-56 106-118 128a389 389 0 0 1-226 2c-39-13-72-35-95-70-28-40-37-86-39-134-3-48-1-96 16-142 4-11-2-20-14-24-10-2-14 6-16 13-6 29-15 57-17 85-5 57-2 113 17 167 17 49 47 88 92 114a400 400 0 0 0 308 13c51-22 88-59 110-110a389 389 0 0 0 2-280c-21-53-58-91-110-113-40-19-83-26-128-26-32 0-65 3-98 7z"/><path fill="#FF6000" d="m626 513 9-6c18-13 32-29 38-52 6-22 2-43-16-59-16-14-36-16-56-8-12 5-23 11-34 18-37 25-68 56-95 92-10 14-10 18-1 33 19 30 43 55 69 78 17 15 35 28 56 36 37 13 76-15 74-53 0-14-6-29-13-41-8-14-20-25-31-38"/><path fill="#FF6000" d="M382 485c-1 15 0 30 1 45l7 70c2 14 8 26 16 37 13 17 33 22 53 17 24-5 37-22 43-45 3-9 1-16-6-23-11-9-21-18-30-28-27-28-27-62 0-90l29-26c6-5 8-12 6-21-7-34-44-54-76-43-23 9-34 28-37 50-3 18-4 37-6 57"/><path fill="#00C9FF" d="m354 311-50-56c-9-10-12-22-6-35s17-19 31-20c11-1 22-5 33-8 11 24 1 40-37 55 19 24 36 49 56 72 26 28 10 71-25 84-17 6-32 5-44-7a38 38 0 0 1-10-42c8-21 22-36 44-41z"/></svg>