<svg xmlns="http://www.w3.org/2000/svg" class="vp-social-media-icon lark-icon" viewBox="0 0 700 700"><path fill="#fdfdfd" d="M0 350C0 156.7 156.7 0 350 0s350 156.7 350 350-156.7 350-350 350S0 543.3 0 350Z"/><path fill="#326ffd" d="M94.683 255.472c-1.188.99-3.547 1.424-3.565 2.971-.892 77.877-1.647 155.803.853 233.645.135 4.185 3.811 7.709 6.987 10.437 8.041 6.906 16.845 13.026 26.179 18.048 15.915 8.564 32.118 16.959 49.299 22.567 22.582 7.37 45.902 12.712 69.402 16.176 16.45 2.425 33.243 1.892 49.863 1.404 85.699-2.518 170.495-42.242 226.974-107.047 13.128-15.062 24.349-31.701 35.801-48.072.482-.689-.29-1.655-.435-2.483-11.645 12.501-23.322 25.66-38.015 34.376-38.027 22.561-80.103 18.178-120.414 4.963-24.658-8.083-49.594-15.711-73.208-26.468-32.043-14.597-63.264-31.14-93.363-49.411-50.119-30.424-92.859-71.794-136.358-111.106Z"/><path fill="#00d5b8" d="M373.34 355.289c22.389-21.264 43.857-43.542 67.167-63.793 15.84-13.761 40.614-23.584 58.792-32.162-13.932-44.24-30.142-84.389-60.513-120.46-3.54-4.204-7.91-9.366-13.399-9.603-81.245-3.519-162.641-2.296-243.958-1.541-1.72.016-3.262 2.127-3.451 3.836-.209 1.893 1.026 3.902 2.457 5.159 21.134 18.566 43.735 35.416 64.865 53.985 52.859 46.45 91.839 105.023 128.04 164.579Z"/><path fill="#133c99" d="M302.636 406.089c63.531 28.909 161.471 77.441 225.923 24.345 10.473-8.628 22.415-16.393 29.694-27.844 19.077-30.011 31.761-63.645 48.432-95.056 8.019-15.112 17.249-23.738 28.765-36.905-17.982-10.513-43.141-16.899-63.455-18.431-44.467-3.354-94.982 6.952-129.899 36.91-29.717 25.495-55.957 54.804-84.849 81.23-16.051 14.681-36.135 24.874-54.611 35.751Z"/></svg>