<svg xmlns="http://www.w3.org/2000/svg" class="vp-social-media-icon lines-icon" viewBox="0 0 1024 1024"><circle cx="512" cy="512" r="512" fill="#00C300"/><path fill="#fff" d="M861.44 469.76C861.44 313.28 704 186.08 512 186.08s-349.44 127.2-349.44 283.68C162.56 608 287 727.52 455 752c11.52 2.4 27 7.68 30.72 17.28a71.04 71.04 0 0 1 0 31.68l-5.28 29.76c0 8.64-7.2 34.56 30.24 19a1104 1104 0 0 0 274.56-202.56 251.52 251.52 0 0 0 75-175zM375.2 562.88h-69.12a17.76 17.76 0 0 1-18-18v-139.2a17.76 17.76 0 0 1 18-18 18 18 0 0 1 18 18v120.48h51a19 19 0 0 1 18 19 18 18 0 0 1-18 18zm72-18a18 18 0 1 1-36.48 0v-139.2a18 18 0 0 1 36.48 0zm167.04 0a18 18 0 0 1-12.48 17.28H596a18 18 0 0 1-14.4-7.2l-69.6-96v85.92a18 18 0 1 1-36.48 0v-139.2A18 18 0 0 1 488 388.16h5.76a18 18 0 0 1 14.4 7.2l71.52 96v-85.92a18 18 0 1 1 36.48 0zm112.32-87.84a18 18 0 0 1 18 18 17.76 17.76 0 0 1-18 18h-51v32.64h51a19 19 0 0 1 18 19 18 18 0 0 1-18 18H656a18 18 0 0 1-18-18v-139.2a18 18 0 0 1 18-18.28h69.12a18 18 0 0 1 18 18 18 18 0 0 1-18 19h-49.44v32.64zm0 0"/></svg>