<svg xmlns="http://www.w3.org/2000/svg" class="icon paypal-icon" viewBox="0 0 1024 1024"><circle cx="512" cy="512" r="512" fill="#0070E0"/><path fill="#001C64" d="M748 488c-14 78-78 138-162 138h-53c-11 0-22 10-23 21l-24 147c-1 9-5 12-13 12h-86c-9 0-11-3-9-12l9-102-102-5c-9 0-12-5-11-14l70-444c2-8 7-12 15-12h178c85 0 139 58 146 133 51 34 75 80 65 138"/><path fill="#7FB7EF" d="m414 527-27 165-16 104c-1 8 5 16 14 16h90c9 0 16-6 17-15l24-150c1-9 9-15 17-15h53c84 0 155-61 168-144 9-59-20-112-71-138l-2 18c-13 83-84 144-167 144h-83c-9 0-16 6-18 15z"/><path fill="#003087" d="M387 692H282c-8 0-15-8-13-16l70-449c2-9 9-15 17-15h181c85 0 148 62 146 138-21-12-46-18-74-18H459c-9 0-16 6-17 15l-28 180z"/></svg>