<svg xmlns="http://www.w3.org/2000/svg" class="vp-social-media-icon pixiv-icon" viewBox="0 0 1024 1024"><circle cx="512" cy="512" r="512" fill="#0096FA"/><path fill="#FFF" d="M812 470c0-63-27-123-74-164-48-41-113-65-190-65-200 0-336 154-336 154l38 61s21 2 10-34c10-18 29-43 66-71v404c-16 5-37 13-23 28h110c15-15-8-23-22-28v-95s75 30 157 30c71 0 136-22 185-60 48-38 79-95 79-160m-80-1c-1 52-19 96-53 129-33 33-82 54-138 54-63 0-115-12-150-29V319c38-27 100-44 150-44 61 0 109 23 141 58s50 82 50 136"/></svg>