<svg xmlns="http://www.w3.org/2000/svg" class="vp-social-media-icon qq-icon" viewBox="0 0 1024 1024"><circle cx="512" cy="512" r="512" fill="#5eaade"/><path fill="#fff" d="M805.25 585.542c-15-48.188-32.25-88.688-58.781-154.97 4.125-174.093-68.25-314.905-234.938-314.905-168.562 0-239.344 143.625-234.844 314.906-26.625 66.375-43.78 106.594-58.78 154.969-31.876 102.656-21.563 145.125-13.688 146.062 16.875 2.063 65.718-77.25 65.718-77.25 0 45.938 23.625 105.844 74.813 149.063-24.75 7.593-80.344 28.03-67.125 50.437 10.688 18.094 183.938 11.531 233.906 5.906 49.969 5.625 223.219 12.188 233.906-5.906 13.22-22.312-42.468-42.844-67.125-50.437 51.188-43.313 74.813-103.22 74.813-149.063 0 0 48.844 79.313 65.719 77.25 7.969-1.031 18.281-43.5-13.594-146.062z"/></svg>