<svg xmlns="http://www.w3.org/2000/svg" xml:space="preserve" viewBox="-412 -412 1024 1024"><circle cx="100" cy="100" r="512" fill="#FFDC00"/><circle cx="100" cy="116" r="300" fill="#FFF"/><path fill="#26CEAA" d="M100 416a300 300 0 1 1 118-576c-16 13-68 47-192 40 0 0-28 1-14 26l135 237-30-3c-71 0-128 49-128 109s57 109 128 109c70 0 128-49 128-109 0-27-12-51-30-70L111-1s-6-8 5-14c9-4 85-32 134-129l12-71s9 55 10 85a299 299 0 0 1-172 546z"/><path fill="#FFF" d="M192-143s58-30 70-72c0 0 4 53-24 91"/></svg>