<svg xmlns="http://www.w3.org/2000/svg" class="vp-social-media-icon qqmusic-icon" viewBox="0 0 1024 1024"><circle cx="512" cy="512" r="512" fill="#FFDC00"/><circle cx="512" cy="528" r="300" fill="#FFF"/><path fill="#26CEAA" d="M512 828c-165.686-.235-299.811-134.738-299.574-300.425.234-165.685 134.739-299.809 300.424-299.574A300.008 300.008 0 0 1 630 252c-16 13-68 47-192 40 0 0-28 1-14 26l135 237-30-3c-71 0-128 49-128 109s57 109 128 109c70 0 128-49 128-109 0-27-12-51-30-70L523 411s-6-8 5-14c9-4 85-32 134-129l12-71s9 55 10 85c136.425 93.042 171.595 279.063 78.553 415.49C706.148 780.192 612.098 829.183 512 828"/><path fill="#FFF" d="M604 269s58-30 70-72c0 0 4 53-24 91"/></svg>