<svg xmlns="http://www.w3.org/2000/svg" class="icon qqvideo-icon" viewBox="0 0 1024 1024"><circle cx="512" cy="512" r="512" fill="#FAFAFA"/><path fill="#0098FF" d="M324 646c14 90 30 158 134 124 100-32 197-89 281-154 31-26 83-63 84-106-1-44-53-80-84-106a960 960 0 0 0-281-155c-104-34-120 34-134 125-10 90-10 181 0 272"/><path fill="#F80" d="M233 390c12-59 29-103 106-88-7 24-12 47-15 72-10 90-10 181 0 272 3 24 8 48 15 71-77 15-94-28-106-88l-1-4-1-9c-10-71-10-142 0-213l1-8z"/><path fill="#43E700" d="m339 302 17 4c93 25 183 70 262 121 29 20 78 49 79 83-1 34-50 62-79 82a958 958 0 0 1-279 125c-7-23-12-47-15-71-10-91-10-182 0-272 3-24 8-48 15-71z"/><path fill="#FFF" d="M394 424s-6 9-6 86 6 85 6 85c2 10 6 13 16 10 0 0 17-2 86-37 68-35 80-48 80-48 7-8 9-13 0-20 0 0-19-18-80-50-61-31-86-36-86-36-8-3-14 0-16 10"/></svg>