<svg xmlns="http://www.w3.org/2000/svg" class="vp-social-media-icon skype-icon" viewBox="0 0 1024 1024"><circle cx="512" cy="512" r="512" fill="#00aff0"/><path fill="#fff" d="M702.691 590.63q0-23.541-9.181-43.081t-22.836-32.253-34.372-23-38.844-16-41.199-10.83l-48.967-11.3q-14.126-3.296-20.718-4.943t-16.479-5.415-14.125-7.534-7.77-9.887-3.53-14.126q0-36.255 67.8-36.255 20.247 0 36.256 5.65t25.425 13.42 17.892 15.773 18.834 13.654 22.6 5.65q22.13 0 35.549-15t13.419-36.254q0-25.897-26.367-46.85t-66.86-31.781-85.693-10.83q-32 0-62 7.298t-56.266 22.13-41.905 40.963-15.773 60.504q0 28.721 8.946 50.144t26.367 35.549 38 22.836 48.497 15.302l68.743 16.95q42.376 10.36 52.734 16.951 15 9.417 15 28.25 0 18.363-18.833 30.37t-49.439 12q-24 0-43-8t-30.605-18.128-21.423-21.187-21.659-18.128-25.425-8q-23.542 0-35.549 14.125t-12 35.313q0 43.318 57.442 74.158t137 30.84q34.371 0 65.918-8.71t57.678-25.19 41.67-44 15.537-61.916zm170.916 102.174q0 74.864-52.97 127.833t-127.833 52.97q-61.21 0-110-38-36.254 8-71 8-67.33 0-128.775-26.132t-105.94-71-71-105.94T180.527 512q0-34.372 8-71-38-48.968-38-110 0-74.864 52.97-127.833t127.833-52.97q61.21 0 110 38 36.254-8 71-8 67.33 0 128.775 26.132t105.94 71 71 105.94T843.473 512q0 34.372-8 71 38 48.968 38 110z"/></svg>