<svg xmlns="http://www.w3.org/2000/svg" class="icon snapchat-icon" viewBox="0 0 1024 1024"><circle cx="512" cy="512" r="512" fill="#FFFC00"/><path fill="#FFF" stroke="#000" stroke-miterlimit="10" stroke-width="30" d="M811.29 663.95c-2.62-8.66-15.19-14.73-15.19-14.73-1.14-.7-2.23-1.21-3.11-1.63-20.93-10.06-39.38-22.2-54.93-35.96-12.46-11.08-23.2-23.21-31.82-36.22-10.49-15.77-15.42-29.02-17.5-36.12-1.22-4.68-.96-6.5 0-8.92.86-2 3.2-4 4.41-4.85a922.03 922.03 0 0 1 25.34-16.81c5.97-3.9 11.16-7.28 14.22-9.36 9.79-6.85 16.46-13.77 20.46-21.32 5.13-9.7 5.7-20.44 1.74-30.91-5.38-14.21-18.67-22.7-35.49-22.7-3.74 0-7.63.42-11.42 1.2-9.65 2.09-18.84 5.55-26.47 8.5-.52.25-1.12-.18-1.12-.79.78-18.96 1.74-44.44-.34-68.7-1.92-21.92-6.43-40.36-13.8-56.5-7.45-16.18-16.98-28.14-24.64-36.72-7.19-8.23-19.75-20.35-38.86-31.27C576 224.81 545.47 217 512.06 217c-33.3 0-63.74 7.8-90.63 23.05-20.12 11.53-33.04 24.52-38.95 31.27-7.54 8.67-17.17 20.63-24.62 36.74-7.37 16.11-11.89 34.56-13.8 56.49-2.07 24.25-1.22 47.73-.35 68.7 0 .6-.6 1.04-1.13.78-7.63-2.95-16.81-6.41-26.44-8.49a51.28 51.28 0 0 0-11.45-1.22c-16.82 0-30.1 8.5-35.47 22.7-4 10.57-3.39 21.23 1.72 30.94 4 7.53 10.67 14.46 20.48 21.3 3.03 2.08 8.23 5.47 14.23 9.36 6.84 4.42 17.86 11.52 24.88 16.55.87.6 3.83 2.85 4.77 5.2 1.04 2.52 1.22 4.33-.09 9.27-2.17 7.19-7.1 20.26-17.43 35.77-8.58 13.02-19.34 25.15-31.82 36.22-15.62 13.77-34.1 25.9-54.91 35.96a33 33 0 0 0-3.47 1.82c-1.3.77-12.48 6.32-14.83 14.54-3.47 12.14 5.72 23.47 15.27 29.64 15.44 9.95 34.25 15.35 45.18 18.2 3.04.78 5.82 1.56 8.33 2.33 1.56.52 5.47 1.97 7.2 4.15 2.08 2.7 2.34 6.07 3.12 9.88 1.22 6.4 3.9 14.29 11.8 19.76 8.67 5.99 19.78 6.4 33.73 6.92 14.66.52 32.87 1.3 53.7 8.15 9.62 3.2 18.38 8.58 28.53 14.83 21.16 12.98 47.53 29.19 92.54 29.19 45 0 71.54-16.28 92.88-29.3 10.07-6.15 18.74-11.51 28.19-14.62 20.82-6.85 39.01-7.55 53.7-8.15 13.97-.51 25.06-.96 33.73-6.94 8.48-5.82 10.92-14.55 12.06-21.13.6-3.2 1.04-6.15 2.86-8.59 1.56-2.07 5.2-3.47 6.93-4.07a323.13 323.13 0 0 1 8.6-2.41c10.92-2.95 24.55-6.33 41.19-15.77 19.7-11.28 21.07-25.22 19-32.07z"/></svg>