<svg xmlns="http://www.w3.org/2000/svg" class="icon soul-icon" viewBox="0 0 1024 1024"><circle cx="512" cy="512" r="512" fill="#212121"/><path fill="#00EFDD" d="M731 490V359c0-12 0-12 12-12h23c7-1 10 2 9 9v254c0 21 9 30 29 29 7 0 8 3 8 8v29c0 6-2 8-7 9-41 7-72-18-74-61z"/><path fill="#FFF" d="M212 604v-19c0-4 2-6 7-6h31c5 0 7 3 7 7v29c0 16 9 26 23 26s23-10 23-26c0-46 0-46-31-80-14-15-29-30-42-47a92 92 0 0 1-18-55c0-12-1-24 1-36 6-37 35-61 73-59 33 2 60 31 61 67v30c1 6-1 8-7 8h-30c-6 0-7-2-7-8v-28c0-15-10-25-23-25-14 0-23 10-24 26v7c-2 25 6 46 25 64l37 41c20 21 30 46 29 75 0 12 1 24-1 36-7 34-37 57-73 54-32-2-59-32-61-66zm168-44v-56c0-40 30-70 68-70s68 30 69 69c0 41 1 81-1 122-3 35-34 62-71 61-34-2-64-31-64-66v-60zm175-22v-81c0-8 2-11 10-10h25c7-1 9 2 9 9v158c0 16 9 27 24 27 14 0 24-10 24-27V457c0-8 2-11 11-10h27c4 0 7 1 7 6-1 58 2 115-2 173-2 36-34 61-71 60-35-2-64-32-64-67z"/><path fill="#212121" d="M472 560v-55c0-16-10-27-24-26-14 0-23 10-23 25v112c0 15 10 25 23 25 14 0 24-10 24-25z"/></svg>