<svg xmlns="http://www.w3.org/2000/svg" class="icon soundcloud-icon" viewBox="0 0 1024 1024"><linearGradient id="a" x1="503.7" x2="503.7" y1="1775.7" y2="-344.1" gradientTransform="matrix(1 0 0 -1 8 1000)" gradientUnits="userSpaceOnUse"><stop offset="0" stop-color="#faa21b"/><stop offset="1" stop-color="#f15623"/></linearGradient><circle cx="512" cy="512" r="512" fill="url(#a)"/><path fill="#FFF" d="M533 391c-6 2-7 4-7 8v234c0 5 3 9 8 9h204a74 74 0 1 0-28-142 130 130 0 0 0-177-109m-31 16-3 166 3 61c1 4 4 8 9 8 4 0 8-4 8-8l3-61-3-166c0-4-4-8-8-8-5 0-8 4-9 8m-24 14-3 152 3 62c0 4 3 7 7 7 5 0 8-3 8-7l3-62-3-152c0-4-3-8-8-8-4 0-7 4-7 8m-74 16-4 136 4 63c0 3 3 6 6 6s6-3 6-6l4-63-4-136c0-4-3-6-6-6s-6 3-6 6m24 3-3 133 3 62c0 4 3 7 7 7s6-3 7-7l3-62-3-133c-1-3-3-6-7-6s-7 3-7 6m-48 1-4 132 4 63c0 3 2 6 5 6s6-3 6-6l4-63-4-132c0-3-3-5-6-5s-5 2-5 5m73 4-3 128 3 62c0 4 3 7 7 7s7-3 7-7l4-62-4-128c0-4-3-7-7-7s-7 3-7 7m-97 7-5 121 5 64c0 3 2 5 5 5s5-2 5-5l5-64-5-121c0-3-2-5-5-5s-5 2-5 5m-24 22-5 99 5 64c0 3 2 5 4 5s5-2 5-5l5-64-5-99c0-2-2-4-5-4-2 0-4 2-4 4m-47 34-6 65 6 64c0 2 1 3 3 3s4-1 4-3l6-64-6-65c0-2-2-4-4-4s-3 2-3 4m-23 1-6 64 6 62c0 2 1 3 3 3l3-3 6-62-6-64-3-3c-2 0-3 2-3 3m46 3-5 61 5 64c0 3 2 4 4 4s4-1 4-4l6-64-6-61c0-2-2-4-4-4s-4 2-4 4m-70 7-5 54 5 53 3 2 2-2 7-53-7-54-2-2zm-22 21-4 33 4 33 3 2 2-2 5-33-5-33-2-2z"/></svg>