<svg xmlns="http://www.w3.org/2000/svg" class="vp-social-media-icon teams-icon" viewBox="2 2 20 20"><path fill="#5059c9" d="M21.034 10.001h-4.16l-1.162.94v4.656a3.13 3.13 0 1 0 6.261 0V10.94a.94.94 0 0 0-.939-.939M22 7a2 2 0 1 1-4 0 2 2 0 0 1 4 0"/><path fill="#7b83eb" d="M9.892 10.005h7.204c.496 0 .898.402.898.898v5.692a4.41 4.41 0 0 1-4.41 4.41h-.18a4.41 4.41 0 0 1-4.41-4.41v-5.692c0-.496.402-.898.898-.898M16.907 6a2.907 2.907 0 1 1-5.814 0 2.907 2.907 0 0 1 5.814 0"/><path fill-rule="evenodd" d="M15 8.681v-.68c0-.55-.472-1-1.049-1h-2.68a2.9 2.9 0 0 0 2.71 1.874c.36 0 .701-.074 1.02-.194m-6.006 2.221c0-.496.402-.898.898-.898H15v7.835c0 .55-.618 1.161-1.255 1.161h-4.03a4.4 4.4 0 0 1-.72-2.406z" clip-rule="evenodd" opacity=".5"/><path fill="#4b53bc" d="M3 18c-.55 0-1-.45-1-1V7c0-.55.45-1 1-1h10c.55 0 1 .45 1 1v10c0 .55-.45 1-1 1z"/><path fill="#fff" d="M11 10H8.835v5.82H7.412V10H5.235V8.57H11z"/></svg>