<svg xmlns="http://www.w3.org/2000/svg" class="vp-social-media-icon tieba-icon" viewBox="0 0 1024 1024"><circle cx="512" cy="512" r="512" fill="#1373CA"/><path fill="#FFF" d="M474 697c-36-16-62-50-66-90V352c0-5-2-8-7-8h-62c-5 0-8 3-8 8v255c-4 40-29 74-66 90-11 5-21 5-27 16v60c6 20 30 12 46 7 27-10 69-35 86-61 17 26 58 51 86 61 15 5 39 13 46-7v-60c-6-11-17-11-28-16m296-348c9 0 17-8 17-18v-44c0-10-8-18-17-18H645v-15c0-10-8-17-18-17h-44c-10 0-18 7-18 17v211h-21c-9 0-17 8-17 17v288c0 9 8 17 17 17h225c10 0 17-8 17-17V482c0-9-7-17-17-17H645V349zm-73 195c6 0 9 5 9 9v145c0 5-3 9-9 9h-81c-5 0-9-4-9-9V553c0-4 4-9 9-9zM485 237H254c-10 0-17 7-17 17v368c0 10 7 17 17 17h38c9 0 17-7 17-17V323c0-4 5-7 10-7h102c5 0 9 3 9 7v299c0 10 8 17 18 17h37c11 0 18-7 18-17V254c0-10-7-17-18-17"/></svg>