<svg xmlns="http://www.w3.org/2000/svg" class="vp-social-media-icon wechat-icon" viewBox="0 0 1024 1024"><circle cx="512" cy="512" r="512" fill="#2AAE67"/><path fill="#FFF" d="M501 417c-14 0-25-12-25-26s11-26 25-26 26 12 26 26-12 26-26 26m-144 0c-15 0-26-12-26-26s11-26 26-26 25 12 25 26-11 26-25 26m72-150c-120 0-217 82-217 183 0 55 29 104 75 138a15 15 0 0 1 6 11l-1 5-9 37-2 5c0 4 4 8 8 8l4-2 47-27c4-3 8-4 12-4l6 1a255 255 0 0 0 83 10c-5-14-7-29-7-45 0-92 88-166 197-166h9c-16-87-103-154-211-154"/><path fill="#FFF" d="M692 561c-13 0-23-10-23-23 0-12 10-22 23-22 12 0 22 10 22 22 0 13-10 23-22 23m-121 0c-12 0-23-10-23-23 0-12 11-22 23-22s23 10 23 22c0 13-11 23-23 23m179 141c38-28 62-69 62-115 0-84-81-152-181-152s-180 68-180 152 80 152 180 152a212 212 0 0 0 65-9l9 3 40 23 3 1a6 6 0 0 0 6-6l-1-5-8-30v-4c0-4 2-8 5-10"/></svg>