<svg xmlns="http://www.w3.org/2000/svg" class="vp-social-media-icon wechatwork-icon" viewBox="0 0 1024 1024"><circle cx="512" cy="512" r="512" fill="#E1F5FE"/><path fill="#0082EF" d="M428 256a279 279 0 0 1 64 0c61 7 117 34 157 77 15 16 28 35 38 56 14 29 21 62 19 94-11-9-26-11-39-5v-3c0-24-5-48-16-69-8-17-18-33-31-46-34-36-81-59-133-65-18-3-36-3-54 0-53 5-100 28-134 64a162 162 0 0 0-21 205 187 187 0 0 0 45 49c6 4 8 11 6 18l-4 14-7 28c0 4 4 7 9 4l46-27 1-1c6-3 12-4 17-2 12 4 24 6 36 8h2l3 1a240 240 0 0 0 97-9c0 13 7 26 19 33a270 270 0 0 1-166 4h-1l-73 37-1 1c-3 2-5 2-8 2-9 0-16-6-17-15v-4a10 10 0 0 1 1-3l8-62v-2h-1c-16-15-34-36-45-54a203 203 0 0 1 25-252c40-42 96-69 158-76"/><path fill="#FC6601" d="M612 665a9 9 0 0 0 1 13 111 111 0 0 1 33 66c1 6 4 11 9 16 13 14 35 14 49 0 13-14 13-37 0-51a34 34 0 0 0-19-10h-2a105 105 0 0 1-60-34 8 8 0 0 0-11 0"/><path fill="#0082EF" d="M753 608a36 36 0 0 0-10 22c-4 21-14 41-30 57l-3 4c-4 3-4 9 0 12 3 3 7 3 11 1v-1l1-1a106 106 0 0 1 64-34c6-2 11-5 16-9 13-14 13-37 0-51a34 34 0 0 0-49 0"/><path fill="#FFCC01" d="M638 563h-1l-1 2-2 2a106 106 0 0 1-62 31c-6 2-11 5-15 10a37 37 0 0 0 0 50c13 14 35 14 49 0 4-5 8-11 9-17v-2l1-2a111 111 0 0 1 33-62c3-3 3-8 0-12-3-3-8-3-11 0"/><path fill="#3EC41E" d="M655 507a37 37 0 0 0 0 50 34 34 0 0 0 19 10l2 1a106 106 0 0 1 59 34c3 3 9 3 12 0a9 9 0 0 0 0-12l-1-1-3-3a111 111 0 0 1-29-60c-2-7-5-14-10-19a34 34 0 0 0-49 0"/></svg>