<svg xmlns="http://www.w3.org/2000/svg" class="vp-social-media-icon wechatch-icon" viewBox="0 0 1024 1024"><circle cx="512" cy="512" r="512" fill="#F99C3B"/><path fill="#FFF" d="M288 281c22-4 44 4 61 17 41 31 70 75 100 117l62 101h2c38-66 78-130 128-187 18-20 40-40 67-47 21-6 45 2 58 19 25 32 21 75 21 112a948 948 0 0 1-77 292c-12 18-23 40-45 48-21 7-43 0-61-11-40-26-67-69-92-108-29 43-58 94-108 116-23 11-52 7-68-13-29-34-42-77-57-118-26-85-46-174-41-263 3-31 18-66 50-75m15 58c-8 5-7 16-9 24-3 37 2 74 8 111 8 43 17 86 31 128 11 32 22 65 41 93 3 2 7 4 10 2 20-9 33-28 46-44 17-23 33-48 47-73 2-4 2-8-1-12-43-72-84-146-142-209-9-7-18-20-31-20m415 0c-13 5-22 15-32 24-56 63-98 138-141 211 11 24 26 47 41 70 16 20 31 43 55 53 10 0 14-11 19-18 32-65 49-137 63-208 6-39 12-79 5-119-1-5-4-14-10-13"/></svg>