<svg xmlns="http://www.w3.org/2000/svg" class="vp-social-media-icon wechatmp-icon" viewBox="0 0 1024 1024"><circle cx="512" cy="512" r="512" fill="#07C160"/><g fill="#FFF"><path d="M702 338a218 218 0 0 0-359-37c-35 42-46 91-39 140 5 33 24 78 50 106a263 263 0 0 1 348-209"/><path d="M771 445c-54-71-147-90-232-59l9 3a240 240 0 0 1 99 389 214 214 0 0 0 124-333"/><path d="M509 669c-21 0-42-2-62-7-5 0-9 2-14 5l-58 38-5 1c-6 1-10-3-10-8l1-7 11-47v-6c0-6-3-11-8-14a262 262 0 0 1-113-176 227 227 0 0 0 111 338c124 41 242-5 283-110 5-13 10-34 11-52-43 32-89 45-147 45"/></g></svg>