<svg xmlns="http://www.w3.org/2000/svg" class="icon weibo-icon" viewBox="0 0 1024 1024"><circle cx="512" cy="512" r="512" fill="#D52C2B"/><path fill="#D52C2B" d="M256 601c0 68 91 124 203 124 113 0 203-56 203-124s-90-123-203-123c-112 0-203 55-203 123"/><path fill="#FFF" d="M464 715c-99 9-185-35-191-98-7-64 68-123 168-133 99-10 185 34 191 98 7 64-69 123-168 133m199-212c-9-2-15-4-10-15 9-23 10-44 0-58-19-27-73-26-134-1 0 0-19 8-14-7 9-29 8-54-7-68-33-33-121 1-196 75-57 55-90 114-90 165 0 97 127 156 252 156 163 0 271-93 271-167 0-44-38-69-72-80m108-177c-39-43-98-59-151-48-13 3-20 14-18 27 3 12 15 19 27 17 39-8 80 3 108 34 27 29 36 70 24 108a22 22 0 0 0 14 28c12 4 25-3 29-14 18-53 5-112-33-152"/><path fill="#FFF" d="M711 379a78 78 0 0 0-74-23c-11 2-17 12-15 22v1c2 10 12 17 23 15a38 38 0 0 1 36 11c10 10 12 24 8 36a19 19 0 0 0 13 25c10 3 21-3 25-13a74 74 0 0 0-16-74M470 599c-4 6-12 9-18 6-6-2-7-8-4-14s11-9 17-6c6 2 8 8 5 14m-32 40a38 38 0 0 1-46 15c-15-7-20-25-10-39 10-15 29-21 45-15 15 7 20 24 11 39m36-106c-47-12-101 11-121 52-21 41-1 87 47 102 49 16 108-8 128-53 20-44-5-89-54-101"/></svg>