<svg xmlns="http://www.w3.org/2000/svg" class="icon xiaohongshu-icon" viewBox="0 0 1024 1024"><circle cx="512" cy="512" r="512" fill="#FF2E4D"/><path fill="#FFF" d="m257 506-3 31c-2 18-6 35-14 51l-8 12-5-9a3116 3116 0 0 1-15-37c3-7 4-14 4-21l2-27 1-20 3-24c0-2 1-2 2-2h33c2 0 3 1 2 3zm69 85c0 9-5 17-12 23-5 4-11 6-18 6h-17c-2 0-4-1-4-3l-10-22-2-4c-1-4-1-4 3-4h14c6 0 8-2 8-8v-85l1 1v-84c0-4 0-5 4-5h28c6 0 6 1 6 6v149zm74-28-15 33-2 5-8-12-7-19-6-20-2-18-3-45a2404 2404 0 0 0 0-27h34c2 0 3 1 3 3l1 13 1 11 1 16 1 20c2 11 1 21 4 31 1 2-1 6-2 9m82 21-8 20-5 11c-2 4-3 5-8 5h-43l-11-2a3522 3522 0 0 0 12-32l3-7 2-1c12 3 24 3 37 3h19c3 0 4 0 2 3m4-21-3 1h-40c-4 0-9-1-12-4s-5-7-3-12l9-23 12-28h-17c-4-1-9-1-12-5s-4-8-3-12l8-20 8-17 9-20 7-17 4-2h32c4 0 4 0 3 4l-19 42-1 5c0 4 1 5 5 5h29a2438 2438 0 0 0-11 32l-10 20-6 13c-2 4 0 6 4 6h18c2 0 3 1 2 3l-11 25zm132 57H490l2-6 13-30c1-2 3-3 5-3h28c5 0 5 0 5-5V463c0-4 0-4-4-4h-18c-2 0-3-1-3-3v-33c0-3 0-3 3-3h84c2 0 3 0 3 2v34c0 2-1 3-3 3h-19c-2 0-3 1-3 3a12375 12375 0 0 1 0 115c0 4 0 4 4 4h31c3 0 3 1 3 4v32c0 3-1 3-3 3m194-34c0 16-11 29-26 32l-13 2h-20c-4 0-5-1-7-5l-10-23v-2c-2-3-1-3 2-3l28-1c5 0 8-2 8-8v-32c0-6-7-11-12-12h-58c-5 0-5 1-5 6v76c0 4 0 4-4 4h-31c-3 0-4-1-4-4v-79c0-3-1-3-3-3h-30c-7 0-6 1-6-6v-29c0-4 0-4 4-4h31c4 0 4 0 4-4v-29c0-3-1-4-3-4h-20c-2 0-3 0-3-2v-33c0-3 1-4 3-4h19c4 0 4 0 4-4v-8c0-2 1-3 3-3h32c4 0 4 0 4 4v7c0 3 1 4 4 4h17c14 1 26 5 36 16 5 6 8 14 9 22v25l1 9c0 3 0 4 4 4l18 3c13 5 21 14 23 27l1 9zm-9-131c-6 4-12 3-19 3h-8l-2-1c-1-9-2-18 1-26 3-7 10-12 18-12s16 6 18 14c3 8-1 17-8 22"/><path fill="#FF2E4D" d="M721 458h-19c-3 0-3 1-3 4v29c0 3 1 4 4 4h21c3 0 4-1 4-3v-27c-1-4-3-6-7-7"/></svg>