<svg xmlns="http://www.w3.org/2000/svg" class="vp-social-media-icon ximalaya-icon" viewBox="0 0 1024 1024"><circle cx="512" cy="512" r="512" fill="#ED2400"/><path fill="#FFF" d="M452 739c0 24-20 44-44 44h-43s40-12 40-49V351c0-13-10-23-22-23h-77c-12 0-22 10-22 23v361c0 13 10 22 22 22h26v1c13 0 23 11 23 24s-11 24-23 24h-51c-24 0-44-20-44-44V326c0-25 20-45 44-45h127c24 0 44 20 44 45zm298-243v262c0 50-48 52-48 52V497H550v261c0 50-47 52-47 52V328c0-47 45-48 45-48h239c0 51-51 48-51 48H576c-28 0-26 25-26 25v96h237c0 34-23 44-37 47"/></svg>