<svg xmlns="http://www.w3.org/2000/svg" class="icon yy-icon" viewBox="0 0 1024 1024"><linearGradient id="a" x1="512" x2="512" y1="1024" y2="0" gradientUnits="userSpaceOnUse"><stop offset="0" stop-color="#ffe600"/><stop offset="1" stop-color="#fff000"/></linearGradient><circle cx="512" cy="512" r="512" fill="url(#a)"/><path fill="#F7D334" d="M341 237h7c39 1 74 12 111 25 8 4 8 4 16 2l6-3 7-3 6-3c38-19 38-19 56-17 6 5 6 5 10 11v15l5-2c36-15 76-24 116-24l7-1c21 0 42 4 58 19 37 46 28 122 22 177l-1 10c-1 8 0 14 3 22 7 18 7 35 7 54l1 8c0 31-8 58-29 81-27 26-62 36-97 44l-23 6 24 39 12-18c7-11 14-16 26-21 21-2 36 3 52 16 12 10 18 24 19 39 1 29-5 48-19 74H340c8-48 29-89 57-129l-4-1-23-5-5-1c-41-10-81-27-105-63-12-21-14-44-14-67v-8c1-17 3-32 8-48 3-13 2-25 0-38-5-51-11-119 19-165 17-22 41-25 68-25"/><path fill="#835023" d="M683 401c31 27 55 64 62 105 2 29-2 52-21 75-9 9-17 15-29 20l-5 2c-14 6-28 7-44 7h-6c-25 0-45-11-66-23-31-16-60-22-95-15-13 5-24 12-37 19-32 18-66 25-103 15-22-8-41-23-51-45-13-32-10-60 2-91 10-22 23-42 41-58l3-4c26-25 58-32 92-31 19 1 32 7 48 16 23 13 23 13 50 12 11-4 20-9 30-15 43-23 90-18 129 11"/><path fill="#FCF9F0" d="M646 439c18 11 28 25 34 46 3 26-2 46-19 66a54 54 0 0 1-35 18c-20 0-33-2-48-16a70 70 0 0 1-20-43v-4c-1-18 6-37 17-51 20-20 44-30 71-16"/><path fill="#FBF9F6" d="M432 439c16 10 26 23 32 41 3 21 2 41-9 58l-2 5c-8 12-21 19-34 25-18 2-33 2-47-8l-6-4a78 78 0 0 1-23-55c1-22 8-36 23-52 20-17 42-22 66-10"/><path fill="#7F491B" d="M725 662c19 10 30 23 37 44 2 32-4 53-19 81H640l2-32 20-8c6-2 6-2 8-9l-10-19c-5-9-6-16-3-26 6-14 14-26 28-33 13-4 27-3 40 2"/><path fill="#FDE9AA" d="M554 699c20 18 29 43 30 69 1 13 1 13-2 19H442c0-38 4-61 29-88 24-22 59-19 83 0"/><path fill="#845127" d="M426 455c11 7 11 7 14 13l-15 4v16c0 5 0 5 3 9 4 3 4 3 10 3 7-2 9-4 13-9 1 17-1 30-10 45-10 9-20 14-33 14-12 0-18-4-26-13-12-13-13-25-13-43 1-17 9-26 22-36 10-7 24-8 35-3"/><path fill="#F4C327" d="M725 662c19 10 30 23 37 44v23c0 14 0 14-4 22l-1-4c-6-20-17-35-35-45-19-10-42-11-63-11 6-15 12-24 26-31 13-4 27-3 40 2"/><path fill="#865324" d="M705 284c10 7 15 15 18 27l1 16v9l-3 18-14-15a192 192 0 0 0-57-45v-4c19-7 36-13 55-6"/><path fill="#95662B" d="M376 290v4l-10 7c-20 11-36 25-51 42l-10 11c-5-16-5-40 2-56 14-27 46-16 69-8"/><path fill="#804B1C" d="M670 742c12 1 22 13 30 21 10 17 10 17 10 24h-70l2-32 20-8z"/><path fill="#814C20" d="M513 574h5c11 0 18 1 27 7 3 2 3 2 4 8-2 9-5 12-13 17-10 8-21 9-34 7-9-3-19-8-25-17v-13c10-10 23-9 36-9"/><path fill="#F5BF1F" d="M423 658h176c-6 6-13 7-21 9l-4 1c-20 5-40 6-60 6h-5c-30 0-58-2-86-13z"/><path fill="#824E20" d="M350 742c13 2 24 9 35 15v30h-45c2-16 5-30 10-45"/><path fill="#84511E" d="m650 498 7 6-2 11-11 2-6-4c-9-7-21-6-33-5-7 4-11 8-17 14l-4 3c-5 0-7 0-11-4v-11c19-23 53-30 77-12"/><path fill="#F0C128" d="M674 744c13 4 22 13 29 25 7 15 7 15 7 18h-25l-4-15-2-5z"/></svg>