<svg width="25" height="25" viewBox="0 0 37 35" xmlns="http://www.w3.org/2000/svg"><g transform="translate(.28)" fill="none" fill-rule="evenodd"><circle stroke="#FFF" stroke-width="2" fill="#007BFF" cx="18.22" cy="17.5" r="16.5"/><path d="M17.122 25H16.08a.248.248 0 0 0-.046-.035c-.66-.301-.976-.906-.8-1.611.472-1.946.96-3.888 1.44-5.832a6.08 6.08 0 0 0 .142-.818.19.19 0 0 0-.254-.227 1.54 1.54 0 0 0-.32.11c-.237.1-.468.216-.706.307a.402.402 0 0 1-.536-.102v-.38c.161-.225.344-.434.546-.625a67.265 67.265 0 0 1 2.18-1.633c.159-.104.328-.19.506-.255.232-.1.49-.128.738-.077.926.188 1.406.93 1.18 1.844-.457 1.873-.917 3.746-1.379 5.619a7.52 7.52 0 0 0-.16.926.18.18 0 0 0 .263.205c.174-.053.339-.138.508-.206.205-.09.418-.172.624-.25a.3.3 0 0 1 .343.1.32.32 0 0 1 .033.367 1.38 1.38 0 0 1-.196.303 5.317 5.317 0 0 1-.556.536c-.79.636-1.6 1.262-2.508 1.734zm1.347-12.06a1.97 1.97 0 1 1 .003-3.938 1.97 1.97 0 0 1-.003 3.939z" fill="#FFF" fill-rule="nonzero"/></g></svg>