<svg width="25" height="25" viewBox="0 0 27 27" xmlns="http://www.w3.org/2000/svg"><g transform="translate(1.862 1.862)" fill="none"><circle stroke="#FFF" stroke-width="1.724" fill="#42B983" cx="11.638" cy="11.638" r="11.638"/><path d="M14.978 6.27A5.006 5.006 0 0 0 6.67 9.468a4.901 4.901 0 0 0 1.773 4.362c.323.258.514.647.522 1.06v1.06a2.685 2.685 0 0 0 5.37 0v-1.008c.002-.398.173-.777.47-1.042a5.023 5.023 0 0 0 .173-7.63zm-3.337 10.967a1.304 1.304 0 0 1-1.286-1.287v-.278h2.572v.261c0 .713-.573 1.294-1.286 1.304zm2.26-4.415a2.81 2.81 0 0 0-.887 1.46h-2.746a2.868 2.868 0 0 0-.938-1.53h-.018a3.476 3.476 0 0 1-1.269-3.145 3.615 3.615 0 0 1 7.196.4 3.65 3.65 0 0 1-1.338 2.815z" fill="#FFF"/></g></svg>