<svg width="25" height="25" viewBox="0 0 32 32" xmlns="http://www.w3.org/2000/svg"><g transform="translate(1 1)" fill="none"><circle stroke="#FFF" stroke-width="2" fill="#f4cd00" cx="15" cy="15" r="15"/><path d="M14.281 17.156a2.89 2.89 0 0 1 .906-.125c.313 0 .657.063.938.125l.938-7.937v-.25a1.914 1.914 0 0 0-1.907-1.906c-.531 0-1.062.25-1.437.656a1.93 1.93 0 0 0-.469 1.5l1.031 7.937zm.875 1.469a1.947 1.947 0 0 0-1.937 1.938c0 1.062.875 1.937 1.937 1.937a1.947 1.947 0 0 0 1.938-1.938 1.908 1.908 0 0 0-1.938-1.937z" fill="#FFF"/></g></svg>