<svg xmlns="http://www.w3.org/2000/svg" viewBox="0 0 1024 1024"><path d="M226.522 536.053c96.993-20.839 83.792-136.761 80.878-162.089-4.758-39.065-50.691-107.346-113.075-101.952-78.499 7.036-89.957 120.445-89.957 120.445-10.62 52.4 25.396 164.4 122.154 143.596zm102.99 201.557c-2.848 8.175-9.18 29.014-3.686 47.173 10.822 40.707 46.168 42.55 46.168 42.55h50.792V703.169H368.41c-24.458 7.304-36.251 26.299-38.898 34.441zm77.025-395.944c53.572 0 96.859-61.646 96.859-137.9 0-76.12-43.287-137.767-96.859-137.767-53.472 0-96.892 61.646-96.892 137.767 0 76.253 43.42 137.9 96.892 137.9zm230.704 9.113c71.598 9.281 117.632-67.141 126.777-125.035 9.349-57.827-36.854-125.036-87.544-136.561-50.791-11.659-114.213 69.688-119.976 122.757-6.901 64.863 9.281 129.626 80.743 138.839zm175.425 340.395s-110.761-85.701-175.425-178.305c-87.645-136.593-212.177-81.011-253.822-11.558-41.478 69.452-106.106 113.375-115.286 125-9.314 11.458-133.813 78.666-106.173 201.423 27.64 122.69 124.7 120.345 124.7 120.345s71.53 7.036 154.519-11.524c83.021-18.428 154.484 4.59 154.484 4.59s193.919 64.929 246.988-60.072c53.004-125.036-29.985-189.899-29.985-189.899zM480.881 877.253H354.807c-54.443-10.855-76.12-48.044-78.867-54.343-2.68-6.433-18.125-36.317-9.951-87.109 23.52-76.12 90.627-81.614 90.627-81.614h67.107v-82.485l57.157.871v304.68zm234.793-.871h-145.07c-56.219-14.508-58.866-54.444-58.866-54.444V661.49l58.866-.938v144.199c3.586 15.345 22.682 18.159 22.682 18.159h59.771V661.49h62.618v214.892zm205.377-428.376c0-27.708-23.018-111.13-108.385-111.13-85.501 0-96.925 78.732-96.925 134.382 0 53.136 4.489 127.313 110.695 124.935 106.241-2.347 94.615-120.312 94.615-148.187z"/></svg>